<svg width="63" height="63" viewBox="0 0 63 63" fill="none" xmlns="http://www.w3.org/2000/svg">
<g clip-path="url(#clip0_151_4669)">
<path d="M31.3101 62.19C31.0201 62.2 31.1201 62.26 31.0801 62.28C31.5601 62.24 31.2901 62.17 31.3101 62.19Z" fill="#391735"/>
<path d="M35.9502 61.66L36.6402 61.48L36.0302 61.62L35.9502 61.66Z" fill="#391735"/>
<path d="M37.8998 61.2201L37.5698 61.4001C38.4998 61.1401 39.6998 60.7801 40.3598 60.6301C39.9198 60.6401 38.8098 61.0501 38.0298 61.2101L37.8998 61.2201Z" fill="#391735"/>
<path d="M39.7202 60.6899C39.8102 60.6599 40.0302 60.61 40.2202 60.57C40.4102 60.52 40.5602 60.46 40.5402 60.45C40.3902 60.49 40.2502 60.54 40.0902 60.56L39.7202 60.6899Z" fill="#391735"/>
<path d="M16.0498 3.71007C15.8798 3.83007 15.8098 3.89007 15.8198 3.90007C15.9998 3.78007 16.0998 3.70007 16.0498 3.71007Z" fill="#391735"/>
<path d="M26.3501 61.72C26.4501 61.74 26.6301 61.77 26.9301 61.8C26.8001 61.79 26.5701 61.76 26.3501 61.72Z" fill="#391735"/>
<path d="M62.27 28.41C62.26 28.24 62.26 28.05 62.25 27.86C62.23 27.67 62.19 27.47 62.16 27.26C62.03 26.44 61.87 25.58 61.8 25.02L61.71 24.99C61.58 24.23 61.33 23.53 61.08 22.62L61.02 22.7C60.81 21.91 60.43 20.68 59.98 19.46C60.04 19.53 60.14 19.84 60.21 20.07C60.11 19.69 59.99 19.31 59.85 18.93C59.69 18.56 59.49 18.21 59.3 17.85C58.91 17.15 58.58 16.44 58.26 15.82C58.06 15.53 57.93 15.31 57.82 15.09C57.84 15.12 57.85 15.14 57.87 15.16C57.85 15.13 57.82 15.08 57.8 15.04C57.73 14.9 57.66 14.76 57.58 14.6C57.64 14.74 57.7 14.86 57.76 14.97C57.62 14.74 57.4 14.39 57.17 14.06L57.15 13.87C57.13 13.84 57.12 13.82 57.1 13.79C56.92 13.44 56.9 13.54 56.97 13.75C56.86 13.58 56.73 13.45 56.63 13.34C56.54 13.01 55.97 12.52 55.81 12.09C55.7 12 55.39 11.61 55.08 11.22C54.73 10.86 54.38 10.52 54.26 10.49C54.26 10.47 54.19 10.38 54.34 10.53C54.05 10.19 53.76 9.85002 53.47 9.58002L53.4 9.39002L53.02 9.08002L52.62 8.80002C52.23 8.36002 52.07 8.17002 52.55 8.51002C51.42 7.64002 51.67 7.76002 50.69 7.05002L50.78 7.04002C50.43 6.78002 49.83 6.44002 49.65 6.24002C49 5.48002 45.71 3.54002 43.47 2.47002C43.65 2.66002 43.4 2.51002 43.08 2.34002C42.75 2.19002 42.36 2.01002 42.28 2.06002C42.16 1.97002 41.84 1.83002 42.24 1.93002C41.03 1.55002 40.48 1.16002 39.59 1.10002C39.46 1.02002 39.87 1.10002 39.75 1.05002C39.65 1.03002 39.35 0.99002 39.23 0.93002C39.11 0.87002 39.42 0.94002 39.62 0.97002C38.36 0.65002 38.2 0.75002 38.08 0.86002C37.77 0.75002 37.54 0.67002 37.32 0.63002C37.1 0.60002 36.9 0.59002 36.66 0.60002C36.44 0.52002 36.07 0.42002 36.87 0.53002C36.43 0.46002 34.15 0.0400195 34.09 0.16002C33.95 0.13002 33.46 0.12002 33.34 0.13002C32.33 0.0700195 32.24 0.0600195 31.25 0.0200195L31.53 0.0500195C31.14 0.14002 30.71 0.0800195 29.91 0.13002L29.93 0.12002C29.01 0.12002 28.81 0.14002 28.62 0.16002C28.52 0.17002 28.43 0.18002 28.24 0.18002C28.05 0.18002 27.78 0.19002 27.33 0.25002L27.44 0.31002C27.3 0.50002 25.84 0.45002 24.81 0.68002C24.94 0.67002 25.07 0.67002 25.19 0.66002C24.64 0.79002 23.58 0.82002 23.01 0.93002C22.88 0.95002 23.2 0.86002 23.37 0.80002C21.87 1.08002 23.2 0.95002 22.12 1.25002C21.9 1.26002 22.34 1.03002 21.6 1.25002C21.23 1.36002 19.57 2.14002 18.59 2.47002C18.81 2.41002 19.03 2.35002 18.57 2.61002C17.86 2.98002 16.52 3.38002 15.97 3.87002C15.88 3.91002 15.84 3.92002 15.83 3.92002C15.32 4.27002 14.15 5.01002 13.88 5.26002C13.26 5.37002 10.89 7.61002 10.8 7.48002L9.39998 8.74002L9.41998 8.69002C8.94998 9.08002 8.71998 9.42002 8.50998 9.65002C8.31998 9.89002 8.18998 10.07 8.06998 10.25C7.86998 10.44 7.98998 10.28 7.99998 10.25C6.74998 11.5 6.71998 11.71 5.91998 12.95L5.75998 13.03C5.65998 13.2 5.23998 13.69 4.81998 14.37C4.59998 14.71 4.36998 15.09 4.11998 15.47C3.87998 15.85 3.63998 16.25 3.48998 16.66C3.48998 16.64 3.48998 16.6 3.53998 16.47C3.34998 16.92 3.11998 17.4 2.86998 17.88C2.62998 18.37 2.33998 18.83 2.17998 19.31C1.79998 20.25 1.49998 21.06 1.51998 21.44C1.37998 21.84 1.32998 22.28 1.23998 22.69C1.66998 21.09 1.29998 22.96 1.51998 22.32C1.50998 22.35 1.50998 22.38 1.49998 22.4C1.44998 22.57 1.39998 22.75 1.34998 22.93C1.20998 23.38 1.06998 23.69 1.19998 23.14L1.24998 23.02C1.18998 22.7 0.669978 24.99 0.619978 24.94C-2.19941e-05 28.16 -0.140022 31.37 0.129978 34.43C0.149978 34.31 0.169978 34.19 0.209978 34.07C0.239978 34.42 0.309978 34.77 0.349978 35.13C0.369978 35.41 0.319978 35.51 0.209978 34.76C0.199978 35.17 0.459978 36.02 0.489978 36.03C0.669978 37.51 0.269978 35.48 0.329978 35.93L0.429978 36.54L0.419978 36.4C0.479978 36.64 0.519978 36.78 0.569978 36.96C0.609978 37.14 0.669978 37.38 0.789978 37.82C0.909978 38.39 0.789978 38.12 0.849978 38.35C0.839978 38.35 0.859978 38.43 0.929978 38.69L1.25998 40L1.21998 39.45C1.39998 40.02 1.53998 40.67 1.47998 40.04C1.51998 40.5 1.96998 41.68 2.36998 42.82C2.83998 43.93 3.39998 44.96 3.47998 45.23C3.57998 45.42 3.68998 45.6 3.78998 45.78C3.89998 45.96 4.01998 46.14 4.13998 46.32C4.36998 46.69 4.60998 47.09 4.86998 47.52C4.74998 47.29 4.76998 47.11 5.20998 47.86C5.04998 47.78 5.19998 48.15 5.50998 48.59C5.81998 49.03 6.19998 49.56 6.35998 49.89C6.19998 49.6 6.57998 50.1 6.92998 50.56C7.28998 51.02 7.68998 51.38 7.39998 50.97C7.87998 51.52 7.36998 51.06 7.69998 51.5C8.00998 51.81 8.31998 52.15 8.64998 52.5C8.80998 52.67 8.96998 52.86 9.13998 53.04C9.31998 53.21 9.49998 53.38 9.68998 53.56C10.44 54.24 11.17 55.04 12.07 55.64C12.11 55.64 11.85 55.39 12.25 55.63L13.08 56.43C13.44 56.66 13.47 56.56 14.08 57.04C14 56.96 13.88 56.85 14.13 56.99C17.62 59.43 21.89 60.83 26.09 61.75C25.52 61.61 25.91 61.66 26.35 61.73C26.07 61.67 26.37 61.66 26.32 61.61C26.91 61.73 27.49 61.88 28.09 61.97C28.43 61.88 30.02 62.06 30.21 61.97L29.64 61.96C29.99 61.92 29.8 61.85 29.5 61.77C30.02 61.8 30.54 61.81 31.07 61.81C37.01 61.81 42.56 60.12 47.26 57.21C47.27 57.21 47.28 57.21 47.28 57.21C47.32 57.18 47.35 57.16 47.33 57.17C49.59 55.76 51.65 54.07 53.47 52.15H53.49C53.58 52.04 53.66 51.95 53.72 51.88C53.93 51.65 54.13 51.42 54.33 51.19C54.12 51.52 54.53 51.34 54.97 51.01C54.96 50.97 54.96 50.98 55.36 50.37C55.21 50.57 54.27 51.52 54.63 51.04C54.93 50.68 55.05 50.54 55.14 50.43C55.23 50.33 55.29 50.29 55.44 50.12C55.21 50.32 55.71 49.6 55.84 49.3C56.14 48.89 56.44 48.47 56.72 48.04L56.87 47.94L56.96 47.67C57.76 46.43 58.47 45.14 59.08 43.79C59.32 43.44 58.73 44.74 59.04 44.16C58.91 44.49 58.76 44.85 58.61 45.23C58.53 45.42 58.44 45.62 58.34 45.83C58.22 46.03 58.1 46.23 57.96 46.44L57.78 46.55C57.82 46.55 58.17 46.02 58.29 45.76C58.11 46.14 57.38 47.01 57.25 47.47L57.67 46.9C57.33 47.53 57.01 48.39 56.41 49.07C56.73 48.8 56.53 48.9 57 48.45C56.59 48.84 58.2 46.49 57.61 47.17C57.84 46.93 58 46.69 58.17 46.43C58.34 46.17 58.53 45.9 58.76 45.53C58.72 45.54 58.57 45.77 58.91 45.1C58.92 45.07 58.94 44.99 58.96 44.94C58.97 44.92 58.97 44.91 58.98 44.9L58.96 44.94C58.97 44.91 58.97 44.91 58.95 44.95C58.86 45.11 58.78 45.23 58.74 45.27C58.84 44.9 59.36 43.83 59.5 43.45C59.71 43.06 59.45 43.63 59.59 43.43C59.66 43.24 59.73 43.05 59.77 42.85C59.86 42.82 60.29 41.78 59.97 42.79L60.3 41.9C60.53 41.39 60.82 40.67 60.93 40.21C61.06 39.78 61.13 39.09 61.09 39.49L61.42 38.04L61.46 38C61.68 37.3 61.72 36.54 61.83 35.76C61.92 34.99 62.09 34.19 62.16 33.36C62.17 32.87 62.17 32.36 62.23 31.53L62.3 31.37C62.32 30.74 62.29 29.46 62.23 29.19C62.27 29.03 62.28 28.75 62.27 28.41ZM61.15 23.52C61.16 23.58 61.24 24 61.32 24.46C61.42 24.91 61.4 25.42 61.42 25.6C61.42 25.63 61.42 25.65 61.41 25.67C61.35 25.31 61.28 24.96 61.21 24.61L61.32 24.56L61.18 24.46C61.1 24.09 61.02 23.73 60.93 23.37C61 23.37 61.09 23.41 61.15 23.52ZM59.34 18.36C59.51 18.66 59.69 18.96 59.81 19.28C59.69 19.05 59.42 18.7 59.13 18.29C58.89 17.75 58.63 17.22 58.36 16.7C58.66 17.09 58.99 17.57 59.28 18.1L59.34 18.36ZM52.53 8.74002C52.46 8.72002 52.45 8.77002 52.44 8.83002C52.29 8.68002 52.14 8.54002 51.99 8.40002C52.17 8.51002 52.35 8.63002 52.53 8.74002ZM37.81 0.84002C37.96 0.90002 37.82 0.90002 37.61 0.89002C37.7 0.90002 37.78 0.91002 37.84 0.92002C37.96 0.96002 38.02 0.99002 38.05 1.01002C37.86 0.97002 37.67 0.92002 37.48 0.88002C37.52 0.88002 37.56 0.88002 37.6 0.89002C37.52 0.88002 37.43 0.86002 37.33 0.85002C37.21 0.82002 37.08 0.80002 36.95 0.78002C36.78 0.73002 36.62 0.68002 36.52 0.65002C36.97 0.69002 37.39 0.73002 37.81 0.84002ZM0.899978 38.45L0.869978 38.24C1.00998 38.7 0.949978 38.58 0.899978 38.45ZM54.57 50.91C54.78 50.66 54.98 50.42 55.18 50.16C55.04 50.4 54.83 50.68 54.57 50.91ZM60.53 41.17C60.53 41.16 60.53 41.15 60.54 41.15C60.74 40.67 60.67 40.84 60.53 41.17ZM61.51 36.85C61.45 37.43 61.36 37.54 61.34 37.54C61.32 37.54 61.32 37.43 61.3 37.52C61.02 38.57 60.96 39.04 60.9 39.46C60.85 39.88 60.81 40.26 60.43 41.09C60.1 41.74 60.26 41.06 60.14 41.19C60.28 40.74 60.43 40.41 60.54 40.11C60.64 39.8 60.73 39.53 60.81 39.22L60.57 39.97C60.59 39.84 60.63 39.65 60.67 39.45C60.94 38.49 61.17 37.5 61.35 36.5C61.35 36.51 61.35 36.52 61.35 36.53C61.34 36.73 61.3 37.04 61.35 36.92L61.45 36.08C61.44 36.05 61.43 36.07 61.42 36.1C61.49 35.65 61.56 35.2 61.61 34.74C61.66 35.2 61.61 35.95 61.51 36.85ZM61.85 29.79C61.84 29.62 61.84 29.46 61.83 29.29C61.85 29.44 61.87 29.6 61.89 29.74C61.87 29.73 61.86 29.75 61.85 29.79Z" fill="#391735"/>
<path d="M29.29 62.1101L29.94 62.1801L29.52 62.1001L29.29 62.1101Z" fill="#391735"/>
<path d="M30.54 62.05L30.69 62.16L31.08 62.0801C30.93 62.0901 30.65 62.08 30.54 62.05Z" fill="#391735"/>
<path d="M22.5096 24.1201H16.1396V44.7101H22.5096V24.1201Z" fill="#FFF6E1"/>
<path d="M16.6098 44.6501C16.5998 44.7301 16.6798 44.7001 16.6998 44.7101C16.6798 44.5801 16.5898 44.6601 16.6098 44.6501Z" fill="#FFF6E1"/>
<path d="M16.4299 43.3402L16.4599 43.3602L16.3799 43.1702L16.4299 43.3402Z" fill="#FFF6E1"/>
<path d="M16.4296 42.1101C16.2896 42.2301 16.4496 42.5601 16.3996 42.7701L16.3696 42.8101L16.4796 42.9101C16.4596 42.6401 16.3896 42.3001 16.4296 42.1101Z" fill="#FFF6E1"/>
<path d="M16.7299 41.4502C16.6799 41.4902 16.6799 41.3102 16.7099 41.6002C16.7199 41.5902 16.7199 41.5802 16.7199 41.5702C16.7199 41.5502 16.7199 41.5202 16.7299 41.4502Z" fill="#FFF6E1"/>
<path d="M16.7197 41.5802C16.7697 41.4902 16.7297 41.7102 16.7197 41.5802Z" fill="#FFF6E1"/>
<path d="M16.6899 40.9802L16.7399 41.1502C16.7699 41.1102 16.7799 40.9602 16.7999 41.0202C16.7799 40.8502 16.7499 40.8802 16.6899 40.9802Z" fill="#FFF6E1"/>
<path d="M16.5898 40.8201L16.6098 40.9101C16.6298 40.8901 16.6298 40.8701 16.5898 40.8201Z" fill="#FFF6E1"/>
<path d="M16.6599 41.0901L16.6199 40.9001C16.5999 40.9201 16.5499 40.9301 16.6399 40.9901C16.5899 40.9801 16.6299 41.0201 16.6599 41.0901Z" fill="#FFF6E1"/>
<path d="M16.64 41.2002C16.61 41.3002 16.59 41.4202 16.54 41.2502C16.56 41.5802 16.65 41.5302 16.64 41.2002Z" fill="#FFF6E1"/>
<path d="M16.29 42.0502L16.25 42.1802L16.3 42.2902C16.27 42.2302 16.33 42.0402 16.29 42.0502Z" fill="#FFF6E1"/>
<path d="M16.7699 39.9202C16.7399 39.9102 16.6899 39.9802 16.6499 39.9902L16.6799 40.1202C16.6999 40.0502 16.7199 39.9302 16.7699 39.9202Z" fill="#FFF6E1"/>
<path d="M16.6496 39.9901L16.5996 39.8C16.5896 39.97 16.6196 40.0001 16.6496 39.9901Z" fill="#FFF6E1"/>
<path d="M16.4399 40.7902L16.5499 41.1002L16.4399 40.7302V40.7902Z" fill="#FFF6E1"/>
<path d="M16.77 39.2001L16.84 39.3101L16.73 39.1201L16.77 39.2001Z" fill="#FFF6E1"/>
<path d="M16.7598 38.7201C16.8198 38.8001 16.8598 38.6101 16.8898 38.7001C16.8798 38.5701 16.8298 38.4601 16.7898 38.3601C16.8098 38.4601 16.7998 38.5801 16.7598 38.7201Z" fill="#FFF6E1"/>
<path d="M16.7197 38.1902C16.7297 38.2402 16.7597 38.3002 16.7797 38.3602C16.7697 38.3002 16.7497 38.2402 16.7197 38.1902Z" fill="#FFF6E1"/>
<path d="M16.6099 39.4801C16.6299 39.4701 16.6699 39.4401 16.6899 39.3301L16.6099 39.4001C16.6099 39.4301 16.6099 39.4501 16.6099 39.4801Z" fill="#FFF6E1"/>
<path d="M16.6099 39.4102C16.6199 39.3302 16.6199 39.2702 16.6199 39.2502C16.6199 39.2702 16.6199 39.3102 16.6099 39.4102Z" fill="#FFF6E1"/>
<path d="M16.6099 39.5002V39.4802C16.6099 39.4902 16.5999 39.4902 16.6099 39.5002Z" fill="#FFF6E1"/>
<path d="M16.5098 40.2903C16.4598 40.1803 16.4098 39.9503 16.3398 40.1703C16.3998 40.2603 16.4398 40.1303 16.5098 40.2903Z" fill="#FFF6E1"/>
<path d="M16.5097 39.5901L16.4897 39.7901C16.5097 39.7901 16.5397 39.7501 16.5697 39.8001L16.5097 39.5901Z" fill="#FFF6E1"/>
<path d="M16.48 39.4902L16.51 39.5902L16.52 39.5202L16.48 39.4902Z" fill="#FFF6E1"/>
<path d="M16.6398 38.5302C16.5998 38.4402 16.5998 38.3502 16.5898 38.2402C16.5698 38.3502 16.5598 38.4702 16.5698 38.5902C16.5998 38.6002 16.6498 38.6502 16.6398 38.5302Z" fill="#FFF6E1"/>
<path d="M16.6198 38.9602V38.9402C16.6098 38.9502 16.6098 38.9602 16.6198 38.9602Z" fill="#FFF6E1"/>
<path d="M16.5996 37.1902L16.5796 37.2102H16.5996V37.1902Z" fill="#FFF6E1"/>
<path d="M16.5598 38.6102C16.5398 38.7002 16.5598 38.7502 16.5898 38.8002C16.5798 38.7402 16.5798 38.6702 16.5798 38.5902C16.5598 38.5802 16.5598 38.5802 16.5598 38.6102Z" fill="#FFF6E1"/>
<path d="M16.6799 37.9001C16.6599 37.9401 16.6499 38.0001 16.6299 38.0501C16.6599 38.0001 16.6999 37.9101 16.6799 37.9001Z" fill="#FFF6E1"/>
<path d="M16.6396 38.9101V38.9201C16.6596 38.8901 16.6496 38.9001 16.6396 38.9101Z" fill="#FFF6E1"/>
<path d="M16.6398 38.91C16.6298 38.87 16.6098 38.83 16.5898 38.8C16.5998 38.85 16.6098 38.9 16.6198 38.94C16.6198 38.93 16.6298 38.92 16.6398 38.91Z" fill="#FFF6E1"/>
<path d="M16.0698 36.8702C16.1498 36.8902 16.2198 37.1102 16.1398 37.3102C16.1998 37.5002 16.4498 37.3802 16.5898 37.2102C16.5598 37.2002 16.5298 37.2002 16.4798 37.0102C16.4398 37.0802 16.3798 37.4502 16.3098 37.2802C16.2698 37.0202 16.3398 37.0702 16.3798 36.9402C16.2798 37.0502 16.2398 36.6102 16.0998 36.6602L16.1498 36.8902C16.1198 36.8902 16.0898 36.8102 16.0698 36.8702Z" fill="#FFF6E1"/>
<path d="M16.5796 37.5902L16.5896 37.6702C16.5996 37.5802 16.6296 37.5102 16.6896 37.3902C16.6496 37.2502 16.6196 37.2302 16.5996 37.2202L16.5896 37.6202L16.5796 37.5902Z" fill="#FFF6E1"/>
<path d="M16.5899 38.0302C16.5099 37.9702 16.4699 37.7702 16.3799 37.8902C16.3899 38.1302 16.4499 38.0602 16.4899 38.2002C16.4599 37.8202 16.5299 38.3102 16.5899 38.0302C16.5899 38.1102 16.5999 38.1802 16.5999 38.2402C16.6099 38.1702 16.6199 38.1002 16.6399 38.0402L16.6299 38.0502C16.6199 38.0702 16.6099 38.0702 16.6199 38.0502V38.0402C16.6099 38.0502 16.5999 38.0402 16.5899 38.0302C16.6099 37.9202 16.6099 38.0102 16.6199 38.0502H16.6299L16.5799 37.6602C16.5799 37.7502 16.5799 37.8502 16.5899 38.0302Z" fill="#FFF6E1"/>
<path d="M16.1699 39.9701C16.1799 39.9601 16.1799 39.9601 16.1899 39.9601C16.1799 39.9301 16.1699 39.9201 16.1699 39.9701Z" fill="#FFF6E1"/>
<path d="M16.2199 39.8102C16.2299 39.8402 16.2599 39.8602 16.2599 39.9502C16.2299 40.0302 16.2199 39.9502 16.1899 39.9502C16.2099 40.0102 16.2499 40.1402 16.2899 39.9702L16.2799 39.9402C16.3099 39.7802 16.4099 39.5802 16.4199 39.6102C16.3499 39.6702 16.2899 39.7102 16.2199 39.8102Z" fill="#FFF6E1"/>
<path d="M16.38 38.9101L16.34 38.5901L16.27 38.7501L16.31 38.7401C16.29 38.9301 16.35 38.8901 16.38 38.9101Z" fill="#FFF6E1"/>
<path d="M16.6399 37.1603L16.7299 37.2003L16.6099 37.0103L16.6399 37.1603Z" fill="#FFF6E1"/>
<path d="M16.6299 36.7401L16.7099 36.7501L16.6599 36.6401L16.6299 36.7401Z" fill="#FFF6E1"/>
<path d="M22.9697 28.7102L22.9997 28.8102C22.9897 28.7602 22.9797 28.7302 22.9697 28.7102Z" fill="#FFF6E1"/>
<path d="M22.9799 28.0303L22.9399 28.0103C22.9599 28.0403 22.9799 28.0603 22.9799 28.0303Z" fill="#FFF6E1"/>
<path d="M16.6196 26.4801C16.6896 26.3401 16.7996 26.1901 16.7196 26.2101L16.6396 26.2501C16.6496 26.3401 16.6396 26.4101 16.6196 26.4801Z" fill="#FFF6E1"/>
<path d="M20.8097 24.1001L20.7697 24.0701C20.7397 24.1001 20.7097 24.1301 20.6797 24.1501C20.7197 24.1401 20.7697 24.1201 20.8097 24.1001Z" fill="#FFF6E1"/>
<path d="M20.9097 23.7502L21.0897 23.8002C21.0497 23.7902 20.9897 23.7702 20.9097 23.7502Z" fill="#FFF6E1"/>
<path d="M23.0601 32.4502L23.1501 32.5602C23.1501 32.3802 23.1101 32.4602 23.0601 32.4502Z" fill="#FFF6E1"/>
<path d="M16.5998 32.4602C16.6298 32.3402 16.6498 32.2502 16.6498 32.1602C16.5998 32.3002 16.5298 32.4202 16.5998 32.4602Z" fill="#FFF6E1"/>
<path d="M22.0796 28.4401C22.0996 28.5001 22.1096 28.5201 22.1296 28.5201C22.1196 28.4601 22.0996 28.4301 22.0796 28.4401Z" fill="#FFF6E1"/>
<path d="M16.6499 31.8201C16.6399 31.8401 16.6399 31.8601 16.6299 31.8801C16.6399 31.9701 16.6599 32.0501 16.6499 32.1601C16.6899 32.0601 16.7099 31.9301 16.6499 31.8201Z" fill="#FFF6E1"/>
<path d="M21.2297 45.2002C21.2197 45.2002 21.2097 45.1902 21.1997 45.1902C21.1997 45.2002 21.2097 45.2002 21.2297 45.2002Z" fill="#FFF6E1"/>
<path d="M17.29 44.3501C17.33 44.3401 17.39 44.3401 17.45 44.3401C17.42 44.3301 17.37 44.3401 17.29 44.3501Z" fill="#FFF6E1"/>
<path d="M16.6699 35.0601C16.6799 35.0701 16.6699 35.1401 16.6699 35.0601Z" fill="#FFF6E1"/>
<path d="M16.3398 35.4902C16.3298 35.4702 16.3198 35.4602 16.2998 35.4502C16.3098 35.4602 16.3298 35.4702 16.3398 35.4902Z" fill="#FFF6E1"/>
<path d="M16.1297 30.9402C16.1097 30.9502 16.1097 30.9502 16.1297 30.9402Z" fill="#FFF6E1"/>
<path d="M16.6299 35.1901C16.6399 35.1601 16.6499 35.1201 16.6599 35.0801C16.6499 35.0901 16.6399 35.1301 16.6299 35.1901Z" fill="#FFF6E1"/>
<path d="M16.6697 35.1702C16.6697 35.2002 16.6597 35.2202 16.6597 35.2502C16.6797 35.2602 16.6797 35.2502 16.6697 35.1702Z" fill="#FFF6E1"/>
<path d="M16.6599 34.9302C16.6599 34.9802 16.6599 35.0302 16.6499 35.0702C16.6599 35.0502 16.6599 35.0502 16.6599 35.0502C16.6699 35.0302 16.6699 34.9902 16.6599 34.9302Z" fill="#FFF6E1"/>
<path d="M22.7698 38.7402C22.7698 38.7502 22.7698 38.7502 22.7598 38.7602C22.7998 38.8402 22.7898 38.8102 22.7698 38.7402Z" fill="#FFF6E1"/>
<path d="M15.75 23.8V23.82L15.76 23.8H15.75Z" fill="#FFF6E1"/>
<path d="M16.12 23.6702C15.99 23.7602 15.9 23.7602 15.76 23.7502C15.76 23.7702 15.75 23.7902 15.75 23.8102C15.78 23.8202 15.82 23.8302 15.85 23.8402L16.06 23.9802C16.06 23.8802 16.08 23.7702 16.12 23.6702Z" fill="#FFF6E1"/>
<path d="M22.9998 30.3502L23.0798 30.1302C23.1998 30.4002 23.1598 30.6002 23.2698 30.3902C23.0098 30.3602 23.2398 29.5202 22.9798 29.4902L23.0398 29.3402C23.0398 29.3802 23.0498 29.3902 23.0498 29.4302C23.1798 29.1402 22.8598 29.2202 22.8998 28.8502C22.9198 28.7202 22.9598 28.6302 22.9898 28.7202L22.9198 28.4302C22.9198 28.3502 22.9698 28.3702 22.9698 28.4502L22.9498 28.0102H22.9598C22.9198 27.9502 22.8498 27.8102 22.8298 27.7402C22.8698 27.6302 22.8598 27.8002 22.8898 27.7702L22.8298 27.5302C22.8998 27.4302 22.9598 27.6302 22.9498 27.8002C23.2098 27.5702 22.8798 27.6002 23.0398 27.1102L23.0698 27.3402C23.2198 27.1902 23.1698 27.0102 23.2598 26.7602C23.2098 26.8202 23.0298 27.2802 22.9598 27.0102C22.9798 26.9402 22.9898 26.8402 22.9398 26.7002C23.0298 26.7002 23.0098 26.5602 23.0098 26.3902L23.1298 26.4002C23.0898 26.2102 23.0298 26.2302 22.9798 26.1202C22.9898 25.9102 23.0898 25.8702 23.1698 25.8202C23.1898 25.4902 23.0198 26.0502 22.9898 25.6602C23.0398 25.3702 22.9898 25.2002 22.9098 24.8402C22.9498 24.5402 22.9898 24.8902 23.0198 24.7802C22.9898 24.6902 22.9498 24.6002 22.9198 24.5302C22.9198 24.4702 22.9498 24.4702 22.9698 24.4802C22.9298 24.2702 22.8498 24.5002 22.8098 24.2102C22.7498 24.2102 22.7798 24.0802 22.8198 23.8702C22.6698 23.8202 22.3898 23.7502 22.1198 23.8402C22.0298 23.8002 22.1898 23.7602 22.1798 23.7202C21.8498 23.7702 21.7398 23.7902 21.6798 23.8102C21.6098 23.8302 21.5398 23.8602 21.3798 23.9302L21.1098 23.8502C21.3098 23.9402 21.0498 24.0502 20.8298 24.1402C20.8998 24.1902 20.9598 24.2202 20.9998 24.2402L20.6398 24.3102C20.5998 24.2902 20.6298 24.2502 20.6898 24.2002C20.6698 24.2102 20.6398 24.2202 20.6198 24.2302C20.4898 24.1802 20.5598 24.1102 20.6498 24.0402C20.6898 24.0602 20.7398 24.0902 20.7798 24.1202C20.8698 24.0402 20.9498 23.9602 20.9298 23.8902C20.9098 23.9002 20.8598 23.9202 20.8098 23.9202C20.8298 23.9002 20.8498 23.8802 20.8398 23.8702C20.8298 23.8602 20.7898 23.8802 20.7298 23.9202L20.6498 23.7802L20.6298 23.8302L20.1598 23.7402C19.8298 23.8802 19.5398 24.0802 19.0098 24.1402C19.1398 24.0402 19.0398 23.9702 19.0498 23.8502C19.1898 23.9802 19.4598 23.8002 19.7298 23.8202C19.5898 23.8102 19.6198 23.7502 19.6498 23.7302L19.1598 23.8502C19.1698 23.7502 19.0598 23.7802 18.9298 23.7402C19.0298 23.9302 18.5698 23.8702 18.3698 23.9302C18.3598 23.8602 18.4098 23.8002 18.6498 23.8102C18.3798 23.6602 18.2998 24.0402 18.0398 23.9102C18.0998 23.9102 18.1298 23.9202 18.1498 23.8902C18.0098 23.9502 17.6698 23.9002 17.7498 23.8502H17.8098C17.6098 23.8402 17.3098 23.8402 17.0598 23.8602C16.9998 23.8702 16.9298 23.8702 16.8698 23.8802C16.7898 23.8902 16.7198 23.9002 16.6698 23.9102C16.5598 23.9302 16.4898 23.9702 16.4898 24.0102C16.4698 23.9902 16.4698 23.8102 16.4998 23.7802C16.2898 23.9102 16.1798 24.0402 16.1398 24.1702C16.1898 24.2902 16.2498 24.4002 16.2998 24.4902C16.2298 24.4102 16.1098 24.3602 15.9998 24.3002C15.8898 24.2402 15.7798 24.1402 15.7398 23.8602C15.7198 23.9802 15.6998 24.1602 15.7498 24.4802C15.7698 24.3802 15.9498 24.3602 15.9698 24.4802C15.8098 24.7102 15.8898 24.7002 15.7498 25.0202C15.7798 24.9202 15.9998 25.0302 15.9998 25.1802C15.9698 25.1602 15.7798 25.1902 15.7598 25.1402L15.9798 25.5202C15.9398 25.4302 15.7998 25.5002 15.7298 25.5902C15.7698 25.5502 15.7298 25.9202 15.7498 26.0202L15.7998 25.8602C15.7698 26.2902 16.1098 26.2802 16.0998 26.7002C16.0498 26.6502 15.8198 26.5702 15.7998 26.7902C15.9098 26.8902 16.3398 27.2302 16.4198 27.6002L16.3598 27.6702L16.4298 27.9602C16.2598 27.7802 15.9098 27.2802 15.7698 27.0102C15.7198 27.1702 15.6898 27.0502 15.6998 27.2902C15.6398 27.3702 15.6098 27.1602 15.6098 27.0902L15.5698 27.6502C15.6998 27.6302 15.6998 28.0702 15.8098 28.0502L15.6698 27.4502C15.7998 27.4302 16.0398 27.8002 16.0198 28.1902C15.9698 28.2902 15.7898 28.1202 15.7398 28.1202C15.7798 28.1702 15.8298 28.4902 15.7898 28.5302L15.7198 28.3602C15.6698 28.5802 15.8898 28.7202 15.7698 28.9802C15.7598 29.0702 15.5998 29.2502 15.6798 29.2702C15.8298 29.1202 16.2898 29.0902 16.3998 29.1902C16.3898 29.2202 16.2598 29.6702 16.1798 29.7702C16.0598 29.9202 15.8998 29.5502 15.7998 29.6702C15.8398 29.6802 15.8798 29.7602 15.8898 29.7902C15.8598 29.8902 15.7798 29.7502 15.7998 29.9602C15.9298 29.9902 15.7898 30.3802 15.9098 30.0602C15.9498 30.2602 15.8798 30.2802 15.8898 30.5102C15.9798 30.4302 16.1798 30.7202 16.2198 30.9302C16.1898 30.9202 16.1398 30.9602 16.1198 30.9902C16.1098 31.4102 16.0498 31.6302 16.0498 32.0202C16.0198 32.0602 15.9798 32.2402 15.9198 32.1602C15.9398 32.2202 15.9898 32.2702 15.9898 32.3902C15.8798 32.6202 15.9698 32.1202 15.8398 32.3002C15.9198 32.3202 15.9498 32.6102 15.9898 32.7802C16.1098 32.7302 16.0098 32.3902 15.9598 32.2202C16.1198 32.2202 16.2898 32.5202 16.3698 32.9202C16.4098 33.2402 16.2598 33.0602 16.2898 33.1202C16.2598 33.7202 16.5798 33.6402 16.4598 34.1402C16.3598 34.3402 16.2498 34.1502 16.1798 34.1902C16.1398 33.9302 16.2498 33.7902 16.2398 33.6102L16.1898 33.8302C16.1598 33.7502 16.1298 33.5702 16.1598 33.4802C16.0698 33.6502 16.1398 34.5002 16.0598 34.9702C16.0898 35.0502 16.1298 35.2002 16.1698 35.1302L16.1598 34.9802C16.2398 34.8402 16.2798 35.2602 16.3198 35.0702C16.3798 35.2702 16.4698 35.4902 16.4198 35.7702L16.2998 35.8202C16.3298 35.8102 16.3698 35.6402 16.3298 35.5602C16.3798 35.6802 16.1698 35.9902 16.3198 36.1102L16.3998 35.9102C16.4598 36.1102 16.5898 36.3502 16.5498 36.6002C16.6698 36.4902 16.5398 36.5402 16.6698 36.3702C16.4998 36.5202 16.6798 35.7402 16.4998 35.9802C16.6598 35.8002 16.5698 35.6702 16.6998 35.4302C16.6598 35.4402 16.6198 35.5102 16.6398 35.3102C16.6298 35.3002 16.6098 35.2802 16.6098 35.2602C16.6098 35.2502 16.6098 35.2502 16.6098 35.2502V35.2602C16.5998 35.2502 16.5998 35.2502 16.6098 35.2602C16.5898 35.3102 16.5698 35.3502 16.5498 35.3702C16.4598 35.2702 16.4598 34.9402 16.4198 34.8302C16.4398 34.7102 16.4698 34.8802 16.5098 34.8102L16.4398 34.6402C16.5298 34.6202 16.5798 34.3102 16.6398 34.6002V34.3402C16.6898 34.1902 16.7098 33.9702 16.6698 33.8402C16.6898 33.7202 16.5698 33.5302 16.6398 33.6402L16.5898 33.2302H16.6098C16.6198 32.8302 16.4698 32.4002 16.6198 31.9402C16.5998 31.8002 16.5698 31.6602 16.5998 31.4402L16.6798 31.4002C16.6498 31.2302 16.7598 30.8802 16.6798 30.8002C16.8798 30.6102 16.7198 29.9502 16.7598 29.6502L16.6598 29.6402C16.6698 29.4302 16.6398 29.2302 16.5998 28.9602L16.5098 28.9802C16.4398 28.7502 16.5698 28.4002 16.5598 28.0402C16.5898 28.0602 16.5798 28.1602 16.5598 28.2202C16.7598 27.7902 16.4198 27.3202 16.5598 26.9302C16.5298 26.8302 16.5398 26.7602 16.5598 26.7002C16.5598 26.7102 16.5598 26.7202 16.5598 26.7202C16.5598 26.7102 16.5598 26.7002 16.5598 26.6802C16.5698 26.6402 16.5898 26.5902 16.6098 26.5502C16.5898 26.5902 16.5698 26.6302 16.5598 26.6602C16.5598 26.5902 16.5498 26.4702 16.5298 26.3602L16.6198 26.3102C16.6198 26.3002 16.6198 26.2902 16.6198 26.2802C16.6498 26.1702 16.5798 26.1902 16.5098 26.2502C16.4898 26.1902 16.4798 26.1402 16.4498 26.1002C16.5998 26.0102 16.3998 25.8102 16.5598 25.6902C16.4798 25.6202 16.4998 25.1302 16.3398 25.0702C16.3598 25.0702 16.3698 25.0302 16.3698 25.0902C16.3798 25.0302 16.3898 24.9602 16.3898 24.9102C16.3898 24.8702 16.3798 24.8302 16.3598 24.7902C16.3998 24.7902 16.4398 24.7902 16.4798 24.7902C16.4298 24.7302 16.3698 24.6402 16.3198 24.5402C16.3898 24.4702 16.4298 24.5002 16.5298 24.6502C16.4998 24.5902 16.4798 24.5402 16.4698 24.5102C16.5498 24.4502 16.5498 24.4902 16.6898 24.3802L16.7098 24.4602C16.7798 24.4602 16.8898 24.3502 16.9898 24.4202C17.2598 24.5702 18.3098 24.4402 18.9998 24.5802C18.8698 24.3502 19.3198 24.6802 19.3498 24.5102C19.3898 24.5602 19.4898 24.5902 19.3698 24.6402C19.7198 24.5902 19.8998 24.7202 20.1398 24.5802C20.1798 24.6302 20.0698 24.6602 20.0998 24.6902C20.1298 24.6802 20.2098 24.6402 20.2498 24.6802C20.2898 24.7102 20.1998 24.7202 20.1398 24.7502C20.4998 24.7402 20.5298 24.5802 20.5598 24.4202C20.7398 24.4902 20.8298 24.4802 20.9598 24.3802C21.0198 24.4302 21.1298 24.4802 20.9098 24.5002C21.0298 24.5102 21.6698 24.5702 21.6898 24.4502C21.7398 24.4802 21.8398 24.4602 21.8598 24.4402C22.0498 24.4502 22.0498 24.4602 22.2398 24.4502L22.2098 24.4302C22.2798 24.3802 22.3298 24.3602 22.3698 24.3502C22.3798 24.4102 22.3298 24.5202 22.3398 24.6202H22.3198C22.2098 25.0302 22.3698 24.7102 22.2498 25.2302L22.3398 25.2002C22.5398 25.2502 22.2198 25.6402 22.2998 25.9402L22.3498 25.8302C22.4198 25.9902 22.0798 26.2702 22.0498 26.4302C22.0298 26.4602 22.0198 26.3702 22.0098 26.3302C21.8898 26.7502 22.1298 26.3802 22.1598 26.7002C22.0898 26.7602 21.9898 26.6302 21.9798 26.8402C21.9298 26.9402 22.1898 27.4502 22.0698 27.7302C22.1198 27.6702 22.1698 27.6002 22.2098 27.7502C22.2298 27.9702 22.0198 28.3502 22.1798 28.5502C22.1698 28.5802 22.1498 28.5902 22.1398 28.5902C22.1798 28.7602 22.2098 29.1402 22.2898 29.2402C21.9698 29.4002 22.4498 30.2902 22.1498 30.2902L22.1698 30.8102L22.1398 30.8002C22.1198 31.1302 22.1898 31.2502 22.2598 31.3702C22.2398 31.4502 22.2098 31.3902 22.1998 31.3802C22.1398 31.8702 22.1498 31.9202 22.2998 32.3202L22.1998 32.3602C22.2598 32.4702 22.0498 33.0602 22.1598 33.5402C22.1498 33.5402 22.1298 33.5302 22.1198 33.4902C22.2298 34.0302 21.8498 34.7802 22.1998 34.9702L22.2898 35.3202C22.3198 34.8602 22.4398 35.3902 22.4998 35.2002C22.5198 35.3802 22.3898 35.6702 22.3798 35.4402L22.3998 35.4102C22.2198 35.3302 22.3398 35.9802 22.2098 35.9702C22.2198 36.8702 22.1198 37.7502 22.1098 38.6002L22.2498 38.5002L22.2398 38.8002C22.2098 38.8802 22.1298 38.9002 22.1398 38.6902C22.0498 38.7502 22.1998 39.0002 22.2298 39.0002C22.1698 39.4102 22.0598 38.8402 22.0598 38.9702L22.0698 39.1402L22.0898 39.1002C22.1498 39.2402 22.2098 39.2502 22.1998 39.5002C22.1698 39.6602 22.1098 39.5802 22.1098 39.6502C22.0998 39.6502 22.0998 39.6702 22.1098 39.7502L22.0998 40.1202L22.2098 39.9702C22.2698 40.1302 22.1998 40.3202 22.3298 40.1502C22.1298 40.4002 22.2598 41.5402 22.1998 41.6902C22.2798 41.9202 22.2798 42.1502 22.2698 42.4302C22.2898 42.3602 22.4198 42.3202 22.3998 42.5602C22.1398 42.4702 22.2898 43.0102 22.0998 43.2002C22.2198 43.0202 22.1298 43.8902 22.3098 43.6202C22.2898 43.8202 22.2098 43.6302 22.1498 43.7902C22.1598 43.8502 22.1698 43.9502 22.1798 43.9902C22.1798 44.0302 22.1898 44.0702 22.1798 44.1102C22.1798 44.1902 22.1598 44.2702 22.1498 44.3402C22.0098 44.3202 21.8998 44.3002 21.7798 44.3102C21.7698 44.3402 21.8498 44.4002 21.7498 44.4502L21.4298 44.2802C21.3098 44.3002 21.3198 44.4802 21.1098 44.3602C21.1398 44.3902 21.1898 44.4302 21.1098 44.4402C19.9398 44.2702 18.7198 44.5802 17.5298 44.2602C17.6898 44.3302 17.5798 44.3302 17.4598 44.3402C17.5398 44.3602 17.4598 44.4202 17.4698 44.4702L16.9698 44.3402C16.8798 44.4702 16.4398 44.3502 16.3798 44.4702L16.5398 44.4502C16.3298 44.5902 16.8298 44.7702 16.7998 44.9602C17.0298 44.8002 17.4198 45.2002 17.7998 44.9702C17.8798 45.0102 17.7298 45.0302 17.7698 45.0702C17.8698 44.9902 17.9898 44.9702 18.1998 45.0102L18.1798 45.0302C18.7898 45.0102 19.0598 45.0902 19.7498 45.1402L19.6998 45.0502C19.8498 45.0602 19.8798 45.0902 19.9498 45.1102C20.1198 44.9702 19.5298 45.1002 19.6898 44.9502C19.8898 45.1402 20.7298 44.9502 20.8698 45.1702C21.0998 45.1702 20.7998 45.0602 21.0298 45.0702L21.0898 45.1302L21.1498 45.0602C21.2998 45.0702 21.3698 45.1402 21.3798 45.1902C21.3398 45.1802 21.2798 45.2002 21.2398 45.2102C21.3398 45.2402 21.4698 45.2402 21.5898 45.2302C21.6498 45.2202 21.7098 45.2202 21.7498 45.2102C21.7998 45.2102 21.8698 45.2002 21.8998 45.2102C21.7598 45.2002 21.6998 45.1902 21.6298 45.1702C21.7298 45.1602 22.0098 45.1502 22.2298 45.1502C22.4598 45.1502 22.6998 45.1502 22.9398 45.1502C22.9398 44.5702 22.9298 43.8802 22.8698 43.6302L22.8298 43.6802C22.7498 43.2202 22.8798 43.3102 22.8398 42.8102L22.8498 42.8302C22.8098 42.7302 22.7898 42.5902 22.7898 42.4602C22.8398 42.5902 22.8898 42.2202 22.9398 42.3902C22.8498 41.8902 22.8698 42.1402 22.7098 41.8202L22.7798 41.7402C22.7098 41.6302 22.6798 41.6202 22.6598 41.3702C22.7198 41.5802 22.7698 41.2102 22.8498 41.4402C23.0098 40.9102 22.6898 40.6602 22.9198 40.4102C22.7198 40.1702 22.8098 40.8702 22.7698 40.7302C22.6998 40.8402 22.6198 40.5302 22.6398 40.3602C22.6398 40.1902 22.8898 40.0702 22.8898 39.6502C22.8898 39.6902 22.8998 39.7002 22.8998 39.7402C22.9498 39.5802 22.8298 39.4302 22.9098 39.2302C22.7898 39.1202 22.9198 38.9802 22.7598 38.9502L22.7998 39.3402C22.7598 39.1202 22.5798 38.9102 22.6698 38.5502C22.6998 38.5802 22.7398 38.6902 22.7598 38.7602C22.8098 38.6502 22.7298 38.5602 22.7798 38.4502C22.9298 38.4802 22.8098 38.9202 22.9298 39.1602C22.9898 39.0502 22.8198 38.7102 22.9798 38.8302C22.7698 38.6602 23.0098 38.4102 22.8498 38.1202L22.9398 38.1402C22.9298 38.0902 22.8798 38.0002 22.8798 37.9202L22.9998 38.0702C22.8998 37.8402 23.0898 37.6202 23.0298 37.4002C23.0298 37.8702 22.9198 37.5002 22.8498 37.7002C22.7298 37.1202 23.0898 37.3702 23.0498 36.7202C23.0598 36.8102 22.9898 37.0502 22.9498 36.9102C22.9698 36.7902 22.9998 36.6302 23.0498 36.5502C23.0298 36.1202 22.9598 36.6202 22.8998 36.4302C23.0098 36.2802 22.8498 36.2202 22.8198 36.0302H22.9098C22.9698 35.5402 22.7098 35.9002 22.7898 35.4602L22.9198 35.6502L22.8998 35.4002L23.0098 35.4502C22.9298 35.2002 22.9498 35.1202 22.9798 34.8802C22.9098 34.9402 22.8098 34.8502 22.8098 34.6302C22.8698 34.4802 22.8998 34.7102 22.8898 34.4102C22.9498 34.4802 23.0198 34.5502 22.9398 34.6902C22.9698 34.7002 22.9998 34.7602 23.0298 34.7702C23.0898 34.6102 23.0398 34.3702 23.0398 34.2602C23.0398 34.3002 23.0298 34.3502 23.0198 34.3802L22.8898 33.9402C22.9198 33.8702 22.9498 33.9302 22.9798 33.9802C22.9698 33.8902 22.9298 33.8302 22.9198 33.7002C22.9998 33.7302 23.0698 33.7302 23.1098 33.9102L23.0298 33.4902C23.0598 33.4602 23.1198 33.2702 23.1498 33.3302C23.1898 33.1002 22.9998 32.7602 23.0598 32.4502C23.0498 32.4302 23.0298 32.4002 23.0198 32.3402C23.0398 32.0502 23.1298 31.7902 23.0298 31.4402L23.1698 31.2402C23.1398 30.9702 22.9998 31.5102 22.9498 31.0502C22.9098 30.7302 23.0698 30.9302 23.0998 30.8202C23.0298 30.6602 22.8898 30.3902 22.9998 30.0902C23.0098 30.1802 22.9898 30.2602 22.9998 30.3502ZM22.9398 27.0102C22.9598 27.0702 23.0198 27.2002 22.9598 27.2502C22.8598 27.1802 22.9098 27.1202 22.9398 27.0102ZM20.3198 23.9202C20.3698 23.8902 20.4398 23.9002 20.5298 23.9402C20.4698 23.9502 20.3998 23.9502 20.3198 23.9202ZM16.5898 34.0802C16.6198 33.9302 16.6098 33.9802 16.5898 34.0802ZM16.5498 34.3802C16.5598 34.4102 16.5798 34.4102 16.5898 34.4002C16.5698 34.3802 16.5598 34.3102 16.5698 34.2302C16.5498 34.2602 16.5298 34.3002 16.5498 34.3802ZM22.1398 39.6802L22.1598 39.6202C22.1898 39.7602 22.1698 39.7202 22.1398 39.6802Z" fill="#FFF6E1"/>
<path d="M20.8999 23.8C20.9199 23.82 20.9199 23.83 20.9299 23.85C20.9499 23.83 20.9499 23.81 20.8999 23.8Z" fill="#FFF6E1"/>
<path d="M23.0498 32.4302V32.4402C23.0598 32.4502 23.0598 32.4502 23.0698 32.4502L23.0498 32.4302Z" fill="#FFF6E1"/>
<path d="M15.7598 29.7401C15.7698 29.6801 15.7898 29.6401 15.8098 29.6201C15.7798 29.6201 15.7598 29.6501 15.7598 29.7401Z" fill="#FFF6E1"/>
<path d="M16.7097 35.9703L16.6897 35.7803C16.6897 35.8703 16.6697 35.9103 16.6597 35.9503C16.6797 35.9503 16.7097 35.9103 16.7097 35.9703Z" fill="#FFF6E1"/>
<path d="M16.1299 37.6402C16.1399 37.6702 16.1299 37.7002 16.1399 37.7302L16.1799 37.7202C16.1799 37.6002 16.1499 37.5202 16.1299 37.6402Z" fill="#FFF6E1"/>
<path d="M16.4 36.1501C16.32 36.1701 16.35 36.2901 16.36 36.4201V36.4001C16.47 36.4401 16.44 36.2901 16.4 36.1501Z" fill="#FFF6E1"/>
<path d="M16.3599 36.4502C16.3599 36.4902 16.3699 36.5302 16.3599 36.5702C16.4099 36.5902 16.3799 36.5302 16.3599 36.4502Z" fill="#FFF6E1"/>
<path d="M16.5998 34.7702C16.5798 34.8302 16.6998 34.8102 16.6698 34.8502C16.7698 34.9102 16.5498 34.4202 16.5998 34.7702Z" fill="#FFF6E1"/>
<path d="M16.1396 36.2601L16.2396 36.2101L16.1596 36.1401L16.1396 36.2601Z" fill="#FFF6E1"/>
<path d="M16.2097 35.2002L16.1797 35.4102C16.1997 35.4102 16.2097 35.4302 16.2097 35.4702C16.2197 35.3402 16.2397 35.1902 16.2097 35.2002Z" fill="#FFF6E1"/>
<path d="M16.2197 35.4702C16.2197 35.5402 16.2197 35.6002 16.2397 35.6402C16.2297 35.6102 16.2297 35.5302 16.2197 35.4702Z" fill="#FFF6E1"/>
<path d="M16.1099 35.9702L16.1299 35.9002L16.1399 35.7502L16.1099 35.9702Z" fill="#FFF6E1"/>
<path d="M16.2298 32.8901L16.1998 32.6601C16.1698 32.6401 16.1498 32.7001 16.1598 32.7901C16.1898 32.8401 16.1998 32.9201 16.2298 32.8901Z" fill="#FFF6E1"/>
<path d="M15.9597 33.6002C15.9797 33.5402 15.9997 33.5302 16.0297 33.5002L15.9097 33.4902L15.9597 33.6002Z" fill="#FFF6E1"/>
<path d="M15.9396 32.9101C15.9096 32.8901 15.8396 32.5701 15.8496 32.8701C15.8796 32.8901 15.9096 33.1301 15.9396 32.9101Z" fill="#FFF6E1"/>
<path d="M16.0898 29.3801V29.4401L16.2898 29.4301L16.0898 29.3801Z" fill="#FFF6E1"/>
<path d="M15.6197 26.2602C15.5697 26.5402 15.7397 26.3302 15.6797 26.5802C15.7297 26.6502 15.7297 26.3702 15.7697 26.4402C15.7197 26.2702 15.7497 26.1802 15.6197 26.2602Z" fill="#FFF6E1"/>
<path d="M15.77 26.4402C15.78 26.4702 15.79 26.5002 15.8 26.5302C15.79 26.4802 15.78 26.4502 15.77 26.4402Z" fill="#FFF6E1"/>
<path d="M16.6297 44.2402L16.4497 44.2002L16.5697 44.2702L16.6297 44.2402Z" fill="#FFF6E1"/>
<path d="M16.2896 44.3903L16.2496 44.2603L16.1396 44.3703C16.1796 44.3703 16.2596 44.3603 16.2896 44.3903Z" fill="#FFF6E1"/>
<path d="M23.1896 26.5102L23.1596 26.5002C23.1296 26.5302 23.1196 26.5702 23.1196 26.6502L23.1896 26.5102Z" fill="#FFF6E1"/>
<path d="M23.0997 28.9401V28.8901L22.9897 28.9701L23.0997 28.9401Z" fill="#FFF6E1"/>
<path d="M23.2399 30.9702C23.2399 30.8902 23.2199 30.7902 23.2199 30.7102C23.2499 30.8902 23.0999 30.9902 23.2399 30.9702Z" fill="#FFF6E1"/>
<path d="M19.2998 21.4301C21.3798 21.4301 23.0698 19.7301 23.0698 17.6301C23.0698 15.5301 21.3798 13.8301 19.2998 13.8301C17.2198 13.8301 15.5298 15.5301 15.5298 17.6301C15.5298 19.7201 17.2098 21.4301 19.2998 21.4301Z" fill="#FFF6E1"/>
<path d="M19.2696 20.9501C19.2996 20.9601 19.2896 20.8801 19.2896 20.8601C19.2496 20.8801 19.2696 20.9701 19.2696 20.9501Z" fill="#FFF6E1"/>
<path d="M18.7397 21.0901L18.7497 21.0601L18.6597 21.1301L18.7397 21.0901Z" fill="#FFF6E1"/>
<path d="M18.25 20.9802C18.26 21.1302 18.43 21.0002 18.5 21.0702L18.51 21.1002L18.57 21.0002C18.47 21.0002 18.31 21.0302 18.25 20.9802Z" fill="#FFF6E1"/>
<path d="M18.1098 20.6101C18.0998 20.6701 18.0398 20.6301 18.1598 20.6501C18.1598 20.6401 18.1598 20.6401 18.1598 20.6301C18.1498 20.6201 18.1298 20.6201 18.1098 20.6101Z" fill="#FFF6E1"/>
<path d="M18.16 20.6202C18.2 20.6402 18.14 20.5702 18.16 20.6202Z" fill="#FFF6E1"/>
<path d="M17.9398 20.5602L18.0198 20.5402C18.0198 20.5002 17.9698 20.4702 17.9998 20.4602C17.9298 20.4702 17.9298 20.5002 17.9398 20.5602Z" fill="#FFF6E1"/>
<path d="M17.8398 20.63H17.8798C17.8798 20.61 17.8698 20.6 17.8398 20.63Z" fill="#FFF6E1"/>
<path d="M17.9597 20.6201L17.8797 20.6301C17.8797 20.6501 17.8597 20.7001 17.9197 20.6301C17.8897 20.6601 17.9197 20.6301 17.9597 20.6201Z" fill="#FFF6E1"/>
<path d="M17.9897 20.6602C18.0097 20.7002 18.0497 20.7402 17.9697 20.7602C18.0997 20.7802 18.1097 20.6902 17.9897 20.6602Z" fill="#FFF6E1"/>
<path d="M18.1797 21.1001L18.2197 21.1601L18.2797 21.1301C18.2497 21.1401 18.1897 21.0601 18.1797 21.1001Z" fill="#FFF6E1"/>
<path d="M17.6298 20.3101C17.6098 20.3301 17.6098 20.3901 17.5898 20.4201H17.6498C17.6398 20.3901 17.6098 20.3501 17.6298 20.3101Z" fill="#FFF6E1"/>
<path d="M17.59 20.4202L17.5 20.4302C17.55 20.4702 17.58 20.4502 17.59 20.4202Z" fill="#FFF6E1"/>
<path d="M17.7597 20.7602L17.9197 20.7202L17.7397 20.7502L17.7597 20.7602Z" fill="#FFF6E1"/>
<path d="M17.4096 20.1601L17.4896 20.1301L17.3696 20.1701L17.4096 20.1601Z" fill="#FFF6E1"/>
<path d="M17.2699 20.06C17.3299 20.04 17.2999 19.96 17.3499 19.95C17.3099 19.93 17.2499 19.94 17.1899 19.94C17.2299 19.96 17.2599 19.99 17.2699 20.06Z" fill="#FFF6E1"/>
<path d="M17.0996 19.9501C17.1196 19.9501 17.1596 19.9501 17.1896 19.9501C17.1596 19.9401 17.1396 19.9401 17.0996 19.9501Z" fill="#FFF6E1"/>
<path d="M17.4099 20.35C17.4199 20.33 17.4299 20.29 17.4099 20.25L17.3799 20.33L17.4099 20.35Z" fill="#FFF6E1"/>
<path d="M17.4098 20.3501C17.3998 20.3601 17.3998 20.3601 17.4098 20.3501Z" fill="#FFF6E1"/>
<path d="M17.62 20.6001C17.56 20.6201 17.45 20.6101 17.5 20.7201C17.55 20.6901 17.53 20.6301 17.62 20.6001Z" fill="#FFF6E1"/>
<path d="M17.3799 20.4602C17.3999 20.4802 17.4199 20.5002 17.4399 20.5202C17.4499 20.5002 17.4599 20.4702 17.4899 20.4602C17.4499 20.4602 17.4099 20.4602 17.3799 20.4602Z" fill="#FFF6E1"/>
<path d="M17.3398 20.4602H17.3798L17.3598 20.4402L17.3398 20.4602Z" fill="#FFF6E1"/>
<path d="M17.1398 20.1001C17.0898 20.1001 17.0598 20.0801 17.0298 20.0601C17.0498 20.1001 17.0798 20.1401 17.1098 20.1701C17.1298 20.1501 17.1798 20.1301 17.1398 20.1001Z" fill="#FFF6E1"/>
<path d="M17.2497 20.2202C17.2397 20.2302 17.2397 20.2302 17.2497 20.2202Z" fill="#FFF6E1"/>
<path d="M16.7497 19.76L16.7397 19.77L16.7597 19.76H16.7497Z" fill="#FFF6E1"/>
<path d="M17.1096 20.1802C17.1196 20.2202 17.1496 20.2102 17.1796 20.2102C17.1596 20.2002 17.1296 20.1902 17.1096 20.1702C17.0996 20.1702 17.0996 20.1802 17.1096 20.1802Z" fill="#FFF6E1"/>
<path d="M16.9897 19.9C16.9897 19.92 16.9897 19.95 16.9997 19.97C16.9997 19.95 17.0097 19.89 16.9897 19.9Z" fill="#FFF6E1"/>
<path d="M17.25 20.19C17.26 20.17 17.25 20.18 17.25 20.19Z" fill="#FFF6E1"/>
<path d="M17.2497 20.1902C17.2297 20.1902 17.1997 20.2002 17.1797 20.2002C17.1997 20.2102 17.2197 20.2102 17.2397 20.2102C17.2397 20.2102 17.2397 20.2002 17.2497 20.1902Z" fill="#FFF6E1"/>
<path d="M16.2497 19.98C16.3197 19.94 16.4197 19.98 16.4197 20.09C16.5197 20.12 16.6697 19.91 16.7397 19.77C16.7097 19.79 16.6897 19.81 16.6097 19.78C16.5897 19.83 16.6497 19.98 16.5497 19.97C16.4497 19.91 16.5197 19.88 16.5097 19.82C16.4597 19.92 16.3197 19.79 16.2197 19.89L16.3197 19.94C16.2997 19.96 16.2497 19.95 16.2497 19.98Z" fill="#FFF6E1"/>
<path d="M16.84 19.89L16.87 19.91C16.86 19.87 16.86 19.83 16.88 19.76C16.82 19.75 16.79 19.76 16.77 19.77L16.87 19.89H16.84Z" fill="#FFF6E1"/>
<path d="M16.96 20.0101C16.88 20.0501 16.81 20.0201 16.77 20.1201C16.84 20.1901 16.87 20.1201 16.94 20.1301C16.81 20.0401 17 20.1201 16.96 20.0101C16.99 20.0301 17.01 20.0401 17.03 20.0601C17.02 20.0301 17.01 20.0001 17 19.9801V19.9901C17 20.0001 16.99 20.0101 16.99 20.0001C16.98 20.0001 16.97 20.0001 16.96 20.0101C16.94 19.9701 16.97 19.9901 16.99 19.9901L17 19.9801C16.95 19.9601 16.91 19.9301 16.87 19.9001C16.88 19.9301 16.9 19.9601 16.96 20.0101Z" fill="#FFF6E1"/>
<path d="M17.3297 20.8301C17.3297 20.8201 17.3297 20.8201 17.3397 20.8101C17.3197 20.8101 17.3097 20.8201 17.3297 20.8301Z" fill="#FFF6E1"/>
<path d="M17.2998 20.75C17.3198 20.75 17.3398 20.72 17.3698 20.75C17.3898 20.79 17.3498 20.78 17.3398 20.81C17.3698 20.8 17.4398 20.8 17.3998 20.73H17.3798C17.3398 20.67 17.3298 20.54 17.3398 20.54C17.3098 20.61 17.2998 20.67 17.2998 20.75Z" fill="#FFF6E1"/>
<path d="M17.09 20.4001C17.04 20.3901 17.01 20.3601 16.96 20.3401V20.4401L16.99 20.4001C17.03 20.4701 17.06 20.4201 17.09 20.4001Z" fill="#FFF6E1"/>
<path d="M16.77 19.7202L16.85 19.6802L16.71 19.7002L16.77 19.7202Z" fill="#FFF6E1"/>
<path d="M16.6699 19.6L16.7399 19.56L16.6699 19.55V19.6Z" fill="#FFF6E1"/>
<path d="M21.46 13.9702L21.51 13.9802C21.49 13.9702 21.47 13.9702 21.46 13.9702Z" fill="#FFF6E1"/>
<path d="M21.1596 13.8L21.1396 13.83C21.1596 13.82 21.1796 13.81 21.1596 13.8Z" fill="#FFF6E1"/>
<path d="M16.5 15.8901C16.59 15.8801 16.71 15.8901 16.63 15.8501L16.55 15.8201C16.55 15.8601 16.53 15.8701 16.5 15.8901Z" fill="#FFF6E1"/>
<path d="M18.5498 13.8801L18.5298 13.8601C18.5198 13.8901 18.5098 13.9201 18.5098 13.9501C18.5198 13.9301 18.5298 13.9001 18.5498 13.8801Z" fill="#FFF6E1"/>
<path d="M18.5298 13.53L18.6298 13.57C18.5998 13.56 18.5698 13.54 18.5298 13.53Z" fill="#FFF6E1"/>
<path d="M22.8599 15.1702H22.9599C22.9199 15.1002 22.8999 15.1602 22.8599 15.1702Z" fill="#FFF6E1"/>
<path d="M16.0298 18.1002C16.0598 18.0502 16.0598 18.0102 16.0598 17.9802C16.0198 18.0402 15.9498 18.0902 16.0298 18.1002Z" fill="#FFF6E1"/>
<path d="M20.9097 14.6801C20.9397 14.6801 20.9497 14.6701 20.9597 14.6501C20.9297 14.6501 20.9097 14.6601 20.9097 14.6801Z" fill="#FFF6E1"/>
<path d="M16.0498 17.8501C16.0398 17.8601 16.0398 17.8701 16.0298 17.8801C16.0498 17.9101 16.0598 17.9401 16.0598 17.9901C16.0898 17.9401 16.1098 17.8901 16.0498 17.8501Z" fill="#FFF6E1"/>
<path d="M21.6797 21.1702C21.6697 21.1702 21.6697 21.1702 21.6597 21.1702C21.6697 21.1802 21.6697 21.1802 21.6797 21.1702Z" fill="#FFF6E1"/>
<path d="M19.75 21.02C19.76 21.01 19.79 21.01 19.81 21C19.8 21 19.78 21.01 19.75 21.02Z" fill="#FFF6E1"/>
<path d="M16.3696 19.03C16.3896 19.06 16.3796 19.03 16.3696 19.03Z" fill="#FFF6E1"/>
<path d="M16.1499 19.3401C16.1399 19.3401 16.1299 19.3401 16.1099 19.3501C16.1299 19.3301 16.1399 19.3301 16.1499 19.3401Z" fill="#FFF6E1"/>
<path d="M15.5198 17.49C15.5098 17.5 15.4998 17.5 15.5198 17.49Z" fill="#FFF6E1"/>
<path d="M16.3599 19.09C16.3599 19.07 16.3699 19.06 16.3599 19.04C16.3599 19.05 16.3599 19.07 16.3599 19.09Z" fill="#FFF6E1"/>
<path d="M16.3896 19.0701C16.3896 19.0801 16.3896 19.0901 16.3996 19.1001C16.4096 19.1001 16.4196 19.0901 16.3896 19.0701Z" fill="#FFF6E1"/>
<path d="M16.3496 18.99C16.3596 19.01 16.3596 19.02 16.3696 19.04C16.3696 19.03 16.3796 19.03 16.3796 19.03C16.3696 19.02 16.3596 19.01 16.3496 18.99Z" fill="#FFF6E1"/>
<path d="M23.2798 18.1501C23.2998 18.2101 23.2998 18.1901 23.2798 18.1501Z" fill="#FFF6E1"/>
<path d="M16.46 14.5601V14.5701H16.47L16.46 14.5601Z" fill="#FFF6E1"/>
<path d="M16.5397 14.4102C16.5597 14.5302 16.5297 14.5502 16.4697 14.5702L16.6697 14.7102L16.5397 14.4102Z" fill="#FFF6E1"/>
<path d="M22.1198 14.4301L22.0898 14.3001C22.2698 14.3001 22.3198 14.4001 22.3098 14.2501C22.1298 14.4301 21.9398 13.9801 21.7698 14.1801L21.7398 14.0901C21.7598 14.1001 21.7698 14.0901 21.7798 14.1101C21.7398 13.9201 21.5898 14.2001 21.4598 14.0801C21.4198 14.0301 21.3998 13.9701 21.4498 13.9701L21.2998 13.9501C21.2698 13.9201 21.2998 13.8901 21.3298 13.9101C21.2698 13.8801 21.1998 13.8601 21.1298 13.8301V13.8201C21.0798 13.8401 20.9998 13.8701 20.9498 13.8801C20.9298 13.8401 20.9998 13.8801 20.9998 13.8401L20.8698 13.8501C20.8498 13.7701 20.9698 13.7401 21.0398 13.7901C21.0498 13.5001 20.9298 13.8001 20.7598 13.5801L20.8798 13.5901C20.8598 13.4201 20.7598 13.4401 20.6598 13.3101C20.6798 13.3701 20.8298 13.6201 20.6898 13.6401C20.6598 13.6101 20.6198 13.5801 20.5398 13.6101C20.5698 13.5201 20.4898 13.5201 20.4098 13.5101L20.4498 13.3901C20.3498 13.4001 20.3398 13.4601 20.2698 13.5001C20.1698 13.4601 20.1698 13.3601 20.1598 13.2801C19.9998 13.2301 20.2398 13.4501 20.0398 13.4401C19.9098 13.3801 19.8098 13.4001 19.6398 13.4601C19.5498 13.4101 19.6598 13.3901 19.6298 13.3501L19.5398 13.4401C19.5198 13.4401 19.5298 13.4101 19.5298 13.3901C19.4598 13.4201 19.5198 13.5101 19.4098 13.5401C19.3798 13.6701 19.1898 13.3401 19.0498 13.5001C19.0098 13.4701 19.0598 13.4201 19.0498 13.3801C18.8698 13.4901 18.8898 13.4601 18.7598 13.6201L18.6198 13.5601C18.7298 13.6401 18.6198 13.7601 18.5498 13.8701C18.5898 13.9101 18.6198 13.9401 18.6398 13.9601C18.5898 13.9901 18.5498 14.0201 18.4998 14.0501C18.4798 14.0301 18.4798 13.9901 18.4998 13.9301L18.4798 13.9701C18.4198 13.9401 18.4298 13.8601 18.4498 13.7801L18.5198 13.8401C18.5398 13.7601 18.5698 13.6701 18.5398 13.6001C18.5298 13.6201 18.5098 13.6301 18.4898 13.6401C18.4998 13.6201 18.4998 13.6001 18.4898 13.5901C18.4798 13.5801 18.4698 13.6101 18.4498 13.6501L18.3798 13.5201V13.5801L18.1398 13.5501C18.0198 13.7201 17.9598 13.9701 17.7698 14.1101C17.7798 13.9901 17.7198 13.9501 17.6698 13.8401C17.7798 13.9301 17.8298 13.7201 17.9698 13.7001C17.8998 13.7101 17.8998 13.6501 17.9098 13.6301L17.7298 13.8201C17.6998 13.7301 17.6498 13.7701 17.5798 13.7601C17.6998 13.9201 17.4798 13.9501 17.4198 14.0501C17.3998 14.0001 17.3898 13.9401 17.4998 13.9001C17.3198 13.8301 17.4598 14.1701 17.2898 14.1301C17.3098 14.1101 17.3298 14.1101 17.3198 14.0801C17.2898 14.1601 17.1298 14.2101 17.1398 14.1401L17.1598 14.1201C16.9798 14.1901 16.6898 14.4501 16.7798 14.5901C16.7698 14.5801 16.6698 14.4201 16.6598 14.3901C16.6898 14.6101 16.7398 14.8201 16.7998 15.0201C16.7198 14.9001 16.3998 14.7301 16.4598 14.5701C16.4098 14.5901 16.3498 14.6001 16.3198 14.7101C16.3598 14.7001 16.5198 14.8001 16.4998 14.8401C16.3098 14.8101 16.3898 14.8401 16.1898 14.8501C16.2398 14.8401 16.3798 15.0201 16.3198 15.0701C16.2998 15.0401 16.1498 14.9301 16.1498 14.9001C16.1598 14.9901 16.1798 15.0801 16.2098 15.1801C16.1998 15.1201 16.0698 15.0601 15.9998 15.0501C16.0498 15.0601 15.8998 15.1801 15.8898 15.2301L15.9798 15.2001C15.8298 15.3501 16.1198 15.5401 16.0098 15.6901C15.9798 15.6501 15.7998 15.5001 15.7298 15.5701C15.7998 15.6701 16.0998 16.0101 16.1198 16.1701H16.0498C16.0498 16.2201 16.0598 16.2601 16.0698 16.3101C15.9298 16.1801 15.7198 15.8401 15.6498 15.6501C15.5698 15.7001 15.5698 15.6301 15.5298 15.7401C15.4598 15.7501 15.4798 15.6401 15.4898 15.6101L15.3298 15.8501C15.4498 15.8901 15.3598 16.1001 15.4698 16.1301C15.4598 16.0201 15.4598 15.9201 15.4598 15.8101C15.5798 15.8601 15.7198 16.1101 15.6398 16.2701C15.5798 16.3001 15.4298 16.1601 15.3898 16.1401C15.4198 16.1801 15.4098 16.3401 15.3698 16.3401L15.3298 16.2401C15.2498 16.3301 15.4298 16.4501 15.2898 16.5401C15.2698 16.5801 15.0898 16.6301 15.1698 16.6501C15.3298 16.6101 15.7798 16.7201 15.8798 16.7801C15.8698 16.7901 15.6898 16.9401 15.6198 16.9801C15.4898 17.0301 15.3598 16.8301 15.2498 16.8701C15.2798 16.8801 15.3198 16.9301 15.3298 16.9401C15.2898 16.9801 15.2198 16.9001 15.2298 17.0001C15.3598 17.0401 15.1898 17.2001 15.3298 17.0601C15.3598 17.1601 15.2798 17.1601 15.2798 17.2701C15.3698 17.2401 15.5598 17.3901 15.5998 17.4801C15.5698 17.4701 15.5198 17.4901 15.4998 17.5001C15.4698 17.6801 15.4298 17.7801 15.4398 17.9601C15.4098 17.9801 15.3798 18.0701 15.3198 18.0401C15.3498 18.0601 15.3898 18.0801 15.4098 18.1401C15.3098 18.2601 15.3698 18.0201 15.2498 18.1201C15.3298 18.1201 15.3798 18.2501 15.4398 18.3201C15.5498 18.2801 15.4398 18.1401 15.3798 18.0701C15.5398 18.0501 15.7298 18.1601 15.8298 18.3101C15.8898 18.4301 15.7398 18.3901 15.7598 18.4101C15.7998 18.6701 16.0798 18.5501 16.0298 18.7701C15.9598 18.8801 15.8398 18.8401 15.7698 18.8801C15.6898 18.7901 15.7798 18.6901 15.7598 18.6201L15.7398 18.7201C15.6998 18.7001 15.6498 18.6301 15.6698 18.5801C15.5898 18.6801 15.7798 19.0201 15.7898 19.2401C15.8398 19.2601 15.8998 19.3001 15.9198 19.2601L15.8798 19.2101C15.9298 19.1201 16.0398 19.2701 16.0398 19.1801C16.1298 19.2301 16.2398 19.2701 16.2598 19.3901L16.1698 19.4701C16.1998 19.4501 16.1898 19.3701 16.1398 19.3601C16.2098 19.3701 16.0898 19.6001 16.2498 19.5601L16.2798 19.4501C16.3798 19.4901 16.5198 19.5101 16.5498 19.6001C16.6198 19.5001 16.5198 19.5901 16.5998 19.4601C16.4898 19.6001 16.4798 19.2501 16.3798 19.4201C16.4798 19.2801 16.3698 19.2801 16.4498 19.1401C16.4198 19.1601 16.3998 19.2001 16.3798 19.1201C16.3698 19.1201 16.3498 19.1201 16.3398 19.1201C16.3298 19.1201 16.3298 19.1201 16.3398 19.1201C16.3298 19.1401 16.3198 19.1701 16.2998 19.1801C16.1998 19.1801 16.1498 19.0601 16.0898 19.0401C16.0898 18.9901 16.1398 19.0401 16.1698 19.0001C16.1398 18.9901 16.1098 18.9801 16.0798 18.9701C16.1598 18.9301 16.1698 18.8001 16.2598 18.8801L16.2298 18.7801C16.2598 18.7101 16.2498 18.6301 16.1998 18.5901C16.2098 18.5401 16.0798 18.5001 16.1498 18.5201L16.0598 18.3801L16.0798 18.3701C16.0598 18.2201 15.8798 18.0701 16.0198 17.8801C15.9998 17.8301 15.9698 17.7801 15.9898 17.6901L16.0598 17.6701C16.0298 17.6001 16.1398 17.4701 16.0598 17.4401C16.2598 17.3801 16.1398 17.1301 16.1898 17.0201L16.1098 17.0001C16.1298 16.9201 16.1298 16.8401 16.1098 16.7301L16.0198 16.7101C15.9698 16.6001 16.1498 16.5101 16.1898 16.3801C16.2198 16.4001 16.1998 16.4301 16.1698 16.4501C16.3998 16.3701 16.1798 16.0701 16.3798 15.9901C16.3698 15.9401 16.3998 15.9201 16.4298 15.9101V15.9201L16.4398 15.9101C16.4598 15.9001 16.4898 15.9001 16.5098 15.8901C16.4798 15.8901 16.4598 15.9001 16.4498 15.9001C16.4598 15.8701 16.4798 15.8301 16.4798 15.7801L16.5698 15.8101V15.8001C16.6198 15.7801 16.5498 15.7501 16.4798 15.7301C16.4798 15.7001 16.4698 15.6801 16.4698 15.6501C16.6098 15.7101 16.4998 15.5301 16.6598 15.5801C16.6098 15.5101 16.7498 15.3701 16.6398 15.2501C16.6598 15.2601 16.6698 15.2601 16.6598 15.2801C16.7098 15.2501 16.7598 15.2301 16.7498 15.1601L16.8498 15.2301C16.8398 15.1701 16.8198 15.1001 16.8098 15.0401C16.9098 15.0501 16.9598 15.0601 16.9698 15.1701C16.9898 14.9601 17.0298 15.0501 17.0398 14.8501L17.0798 14.9101C17.1198 14.8801 17.1198 14.7501 17.1798 14.7801C17.3398 14.8201 17.6398 14.4901 17.9498 14.5001C17.8098 14.3101 18.0998 14.5401 18.0498 14.3801C18.0798 14.4201 18.1298 14.4401 18.1098 14.5001C18.2198 14.4101 18.3198 14.5001 18.3698 14.3401C18.3998 14.3901 18.3598 14.4201 18.3898 14.4501C18.3998 14.4401 18.4198 14.3901 18.4398 14.4201C18.4598 14.4501 18.4298 14.4701 18.4198 14.5001C18.5498 14.4601 18.5198 14.2901 18.4998 14.1401C18.5898 14.1901 18.6198 14.1701 18.6598 14.0701C18.6998 14.1201 18.7498 14.1601 18.6598 14.1901C18.7098 14.1901 18.9698 14.2201 18.9698 14.0901C18.9898 14.1201 19.0398 14.1001 19.0498 14.0801C19.1698 14.0801 19.1798 14.0901 19.2898 14.0701L19.2598 14.0501C19.2998 13.9001 19.3598 14.0201 19.4498 14.0001V14.0201C19.6498 14.1401 19.5498 13.9701 19.7398 14.1101V14.0201C19.7898 13.8301 19.9098 14.1601 20.0398 14.1101L20.0098 14.0501C20.0898 13.9901 20.1298 14.3601 20.1798 14.4001C20.1898 14.4201 20.1498 14.4201 20.1298 14.4301C20.2498 14.5801 20.1798 14.3201 20.3098 14.3201C20.3098 14.3901 20.2298 14.4701 20.3098 14.5101C20.3198 14.5701 20.5998 14.3901 20.6598 14.5501C20.6598 14.4901 20.6598 14.4401 20.7198 14.4301C20.8098 14.4601 20.8498 14.7001 20.9898 14.6001C20.9898 14.6201 20.9898 14.6301 20.9798 14.6401C21.0598 14.6401 21.1998 14.7001 21.2898 14.6501C21.1498 14.9501 21.7398 14.7901 21.5398 15.0201L21.6998 15.1501L21.6698 15.1701C21.7498 15.2801 21.8298 15.2701 21.9198 15.2501C21.9298 15.2901 21.8898 15.2901 21.8798 15.3001C21.9698 15.4801 21.9798 15.4901 22.1998 15.5401L22.1298 15.6101C22.2098 15.6101 22.1598 15.9301 22.3398 16.0401C22.3298 16.0401 22.3098 16.0501 22.2898 16.0401C22.4998 16.1901 22.2398 16.5901 22.5998 16.5501C22.6498 16.5901 22.6798 16.6301 22.7198 16.6701C22.6998 16.4801 22.8698 16.6601 22.9098 16.5601C22.9498 16.6301 22.8598 16.7801 22.8198 16.7001L22.8298 16.6801C22.6398 16.6901 22.8298 16.9301 22.6998 16.9501C22.7798 17.3101 22.6798 17.6701 22.6498 18.0001L22.7998 17.9801L22.7798 18.1001C22.7398 18.1301 22.6598 18.1301 22.6798 18.0401C22.5898 18.0701 22.7298 18.1901 22.7598 18.2001C22.6798 18.3501 22.6098 18.1101 22.5998 18.1601V18.2301L22.6198 18.2201C22.6698 18.2801 22.7298 18.3001 22.6998 18.4001C22.6598 18.4601 22.6098 18.4101 22.5998 18.4401C22.5898 18.4401 22.5798 18.4401 22.5898 18.4801L22.4998 18.6001L22.6198 18.5701C22.6598 18.6501 22.5798 18.7101 22.7198 18.6701C22.5098 18.7101 22.4498 19.1801 22.3598 19.2101C22.3998 19.3301 22.3398 19.4101 22.2698 19.5101C22.2998 19.5001 22.4198 19.5501 22.3498 19.6301C22.1598 19.4601 22.1498 19.7201 21.9498 19.6701C22.0898 19.6901 21.8098 19.9101 22.0098 19.9301C21.9398 19.9801 21.9298 19.8701 21.8398 19.8801C21.7898 20.1001 21.4998 20.1401 21.3398 20.3101C21.3598 20.3401 21.4198 20.3601 21.4098 20.4301L21.2098 20.3701C21.1798 20.4101 21.2898 20.5601 21.1498 20.5101C21.1798 20.5301 21.2198 20.5501 21.1898 20.5801C20.9398 20.6401 20.7498 20.7801 20.5298 20.8801C20.3098 20.9801 20.0598 21.0501 19.8098 20.9301C19.8798 20.9901 19.8398 21.0001 19.7898 21.0101C19.8198 21.0201 19.7998 21.0901 19.8198 21.1401C19.7498 21.1101 19.6698 21.0801 19.5998 21.0401C19.5698 21.1701 19.3898 21.0601 19.3698 21.1801L19.4298 21.1501C19.3498 21.3001 19.5698 21.4601 19.5798 21.6501C19.6698 21.4901 19.8998 21.8501 20.0498 21.6001C20.0998 21.6301 20.0298 21.6601 20.0598 21.7001C20.0898 21.6201 20.1398 21.5801 20.2498 21.5901L20.2398 21.6101C20.5198 21.5201 20.6598 21.5501 20.9898 21.4701L20.9298 21.4001C20.9998 21.3801 21.0198 21.4001 21.0698 21.4101C21.0798 21.2501 20.8898 21.4901 20.8898 21.3201C21.0598 21.4501 21.3298 21.1001 21.4898 21.2401C21.5898 21.1801 21.4098 21.1701 21.4998 21.1101L21.5598 21.1401L21.5398 21.0601C21.6098 21.0301 21.6798 21.0701 21.7098 21.1001C21.6898 21.1101 21.6798 21.1401 21.6598 21.1601C21.7798 21.1601 21.8598 20.9801 21.8998 20.9801L21.7898 21.0201C21.9998 20.8001 22.3198 20.5901 22.4198 20.2901L22.3698 20.2801C22.4498 20.0601 22.5098 20.1701 22.6298 19.9601V19.9701C22.6298 19.9101 22.6398 19.8401 22.6798 19.7901C22.6898 19.8701 22.8198 19.7401 22.8298 19.8401C22.8798 19.5901 22.8398 19.7001 22.7698 19.4901H22.8498C22.8098 19.4101 22.7898 19.3901 22.8198 19.2801C22.8298 19.3901 22.9498 19.2601 22.9798 19.3901C23.2398 19.2201 22.9698 18.9901 23.2298 18.9601C23.0798 18.7901 23.0498 19.1301 23.0298 19.0501C22.9498 19.0801 22.9198 18.9101 22.9698 18.8501C22.9998 18.7801 23.2498 18.8001 23.2998 18.6001C23.2898 18.6201 23.3098 18.6201 23.2998 18.6401C23.3698 18.5801 23.2798 18.4801 23.3698 18.4001C23.2598 18.3301 23.3998 18.2801 23.2498 18.2401L23.2598 18.4301C23.2398 18.3201 23.0698 18.2001 23.1798 18.0401C23.2098 18.0601 23.2398 18.1101 23.2598 18.1501C23.3098 18.1101 23.2498 18.0501 23.2998 18.0001C23.4598 18.0301 23.2998 18.2301 23.3998 18.3601C23.4698 18.3101 23.3198 18.1301 23.4798 18.2101C23.2898 18.1001 23.5398 18.0101 23.3798 17.8501L23.4698 17.8601C23.4598 17.8401 23.4198 17.7901 23.4198 17.7501L23.5398 17.8301C23.4398 17.7101 23.6398 17.6101 23.5798 17.5001C23.5898 17.7301 23.4698 17.5501 23.4098 17.6501C23.2798 17.3801 23.6498 17.4801 23.5798 17.1601C23.5998 17.2001 23.5298 17.3301 23.4898 17.2601C23.5098 17.2001 23.5298 17.1101 23.5698 17.0701C23.5198 16.8601 23.4798 17.1101 23.4098 17.0301C23.5098 16.9401 23.3498 16.9301 23.2998 16.8501L23.3898 16.8301C23.3998 16.5801 23.1898 16.8101 23.2098 16.5901L23.3598 16.6501L23.2998 16.5501H23.4098C23.2998 16.4501 23.3198 16.4101 23.3098 16.2901C23.2598 16.3401 23.1398 16.3301 23.1098 16.2301C23.1398 16.1401 23.2098 16.2401 23.1398 16.1001C23.2098 16.1101 23.2898 16.1201 23.2298 16.2101C23.2598 16.2101 23.2998 16.2201 23.3298 16.2201C23.3598 16.1201 23.2798 16.0301 23.2598 15.9801C23.2598 16.0001 23.2698 16.0301 23.2598 16.0401C23.1998 15.9901 23.1298 15.9401 23.0598 15.8901C23.0798 15.8401 23.1098 15.8601 23.1498 15.8701C23.1198 15.8301 23.0698 15.8201 23.0298 15.7701C23.1098 15.7501 23.1698 15.7101 23.2498 15.7801L23.0798 15.6201C23.0998 15.5901 23.1098 15.4801 23.1498 15.4901C23.1298 15.3601 22.8798 15.3101 22.8398 15.1501C22.8198 15.1501 22.7998 15.1501 22.7698 15.1301C22.6998 15.0101 22.6998 14.8301 22.4998 14.7701L22.5398 14.6101C22.4298 14.5301 22.4998 14.8201 22.3098 14.6901C22.1698 14.6101 22.3498 14.5601 22.3398 14.5001C22.2298 14.4901 22.0398 14.5101 22.0098 14.3301C22.0698 14.3701 22.0798 14.4101 22.1198 14.4301ZM20.6898 13.6401C20.7298 13.6301 20.8098 13.6001 20.8098 13.6601C20.7298 13.7501 20.7298 13.6901 20.6898 13.6401ZM18.2898 13.7601C18.2998 13.7201 18.3398 13.7301 18.3898 13.7601C18.3598 13.7701 18.3298 13.7701 18.2898 13.7601ZM16.1598 18.7101C16.1698 18.6701 16.1698 18.6501 16.1598 18.7101ZM16.1598 18.8401C16.1798 18.8501 16.1898 18.8401 16.1998 18.8301C16.1798 18.8301 16.1598 18.8101 16.1598 18.7801C16.1398 18.7901 16.1298 18.8101 16.1598 18.8401ZM22.5898 18.4401L22.6198 18.4201C22.6298 18.4801 22.6098 18.4601 22.5898 18.4401Z" fill="#FFF6E1"/>
<path d="M18.5298 13.5701C18.5398 13.5801 18.5498 13.6001 18.5498 13.6201C18.5598 13.6001 18.5598 13.5901 18.5298 13.5701Z" fill="#FFF6E1"/>
<path d="M22.8398 15.1702L22.8498 15.1802L22.8598 15.1702H22.8398Z" fill="#FFF6E1"/>
<path d="M15.21 16.9102C15.23 16.8802 15.25 16.8702 15.27 16.8602C15.24 16.8502 15.22 16.8602 15.21 16.9102Z" fill="#FFF6E1"/>
<path d="M16.5698 19.31L16.5098 19.26C16.5298 19.29 16.5198 19.31 16.5198 19.33C16.5398 19.32 16.5598 19.3 16.5698 19.31Z" fill="#FFF6E1"/>
<path d="M16.5197 20.2C16.5397 20.2 16.5397 20.22 16.5597 20.22L16.5897 20.19C16.5497 20.15 16.4997 20.15 16.5197 20.2Z" fill="#FFF6E1"/>
<path d="M16.3499 19.54C16.2899 19.59 16.3299 19.62 16.3799 19.65L16.3699 19.64C16.4699 19.6 16.4099 19.57 16.3499 19.54Z" fill="#FFF6E1"/>
<path d="M16.3896 19.6602C16.3996 19.6702 16.4196 19.6802 16.4196 19.7002C16.4596 19.6802 16.4096 19.6802 16.3896 19.6602Z" fill="#FFF6E1"/>
<path d="M16.2697 18.9601C16.2597 18.9901 16.3697 18.9301 16.3497 18.9601C16.4397 18.9401 16.1597 18.8601 16.2697 18.9601Z" fill="#FFF6E1"/>
<path d="M16.1496 19.7201L16.2196 19.6501L16.1396 19.6601L16.1496 19.7201Z" fill="#FFF6E1"/>
<path d="M15.9897 19.2802L16.0097 19.3801C16.0197 19.3701 16.0397 19.3801 16.0497 19.3901C16.0197 19.3301 16.0097 19.2702 15.9897 19.2802Z" fill="#FFF6E1"/>
<path d="M16.0396 19.3801C16.0496 19.4101 16.0696 19.4301 16.0896 19.4401C16.0896 19.4301 16.0596 19.4001 16.0396 19.3801Z" fill="#FFF6E1"/>
<path d="M16.0595 19.62V19.59L16.0396 19.53L16.0595 19.62Z" fill="#FFF6E1"/>
<path d="M15.6899 18.3302L15.6499 18.2302C15.6199 18.2302 15.5999 18.2602 15.6199 18.2902C15.6399 18.3202 15.6599 18.3602 15.6899 18.3302Z" fill="#FFF6E1"/>
<path d="M15.4999 18.7001C15.5099 18.6701 15.5299 18.6601 15.5599 18.6301L15.4399 18.6601L15.4999 18.7001Z" fill="#FFF6E1"/>
<path d="M15.3997 18.4001C15.3697 18.4001 15.2797 18.2601 15.3097 18.4001C15.3397 18.4001 15.3897 18.5001 15.3997 18.4001Z" fill="#FFF6E1"/>
<path d="M15.5596 16.8V16.83L15.7496 16.8701L15.5596 16.8Z" fill="#FFF6E1"/>
<path d="M15.6999 15.27C15.5899 15.36 15.7899 15.36 15.6699 15.44C15.6899 15.49 15.7599 15.38 15.7799 15.43C15.7799 15.33 15.8299 15.31 15.6999 15.27Z" fill="#FFF6E1"/>
<path d="M15.7798 15.4202C15.7798 15.4402 15.7798 15.4502 15.7798 15.4702C15.7898 15.4502 15.7898 15.4402 15.7798 15.4202Z" fill="#FFF6E1"/>
<path d="M19.4899 20.9401L19.4199 20.9001L19.4599 20.9701L19.4899 20.9401Z" fill="#FFF6E1"/>
<path d="M19.3598 21.0902L19.3398 20.9702L19.2998 21.0902C19.3098 21.0802 19.3398 21.0702 19.3598 21.0902Z" fill="#FFF6E1"/>
<path d="M20.52 13.3201L20.5 13.3501C20.5 13.3901 20.52 13.3901 20.57 13.4101L20.52 13.3201Z" fill="#FFF6E1"/>
<path d="M21.6198 13.9202L21.5998 13.9102L21.5698 14.0302L21.6198 13.9202Z" fill="#FFF6E1"/>
<path d="M22.5197 14.4701C22.4897 14.4301 22.4397 14.4201 22.4097 14.3801C22.4997 14.4401 22.4297 14.5801 22.5197 14.4701Z" fill="#FFF6E1"/>
<path d="M32.6996 33.91C32.6996 31.02 34.0296 29.29 36.5796 29.29C38.9196 29.29 40.0496 30.95 40.0496 33.91C40.0496 36.88 40.0496 44.72 40.0496 44.72H46.3896C46.3896 44.72 46.3896 37.2 46.3896 31.68C46.3896 26.16 43.2596 23.5 38.8996 23.5C34.5296 23.5 32.6896 26.9 32.6896 26.9V24.13H26.5796V44.72H32.6896C32.6996 44.72 32.6996 37.08 32.6996 33.91Z" fill="#FFF6E1"/>
<path d="M32.2296 34.0301C32.2396 33.8701 32.1596 33.9301 32.1396 33.9001C32.1596 34.1801 32.2496 34.0301 32.2296 34.0301Z" fill="#FFF6E1"/>
<path d="M32.4194 36.7199L32.3794 36.6699L32.4594 37.0599L32.4194 36.7199Z" fill="#FFF6E1"/>
<path d="M32.4196 39.2201C32.5596 38.9801 32.3996 38.3101 32.4496 37.8601L32.4796 37.7901L32.3696 37.5901C32.3796 38.1301 32.4496 38.8401 32.4196 39.2201Z" fill="#FFF6E1"/>
<path d="M32.1196 40.56C32.1696 40.48 32.1696 40.85 32.1396 40.25C32.1296 40.28 32.1296 40.29 32.1296 40.31C32.1196 40.36 32.1196 40.43 32.1196 40.56Z" fill="#FFF6E1"/>
<path d="M32.1194 40.3001C32.1194 40.0401 32.0694 40.4801 32.1194 40.3001Z" fill="#FFF6E1"/>
<path d="M32.1496 41.5199L32.0995 41.1699C32.0695 41.2399 32.0596 41.5499 32.0396 41.4399C32.0696 41.7999 32.0996 41.7299 32.1496 41.5199Z" fill="#FFF6E1"/>
<path d="M32.2496 41.8499L32.2296 41.6699C32.2196 41.6999 32.2096 41.7499 32.2496 41.8499Z" fill="#FFF6E1"/>
<path d="M32.1895 41.29L32.2295 41.67C32.2495 41.62 32.2995 41.61 32.2095 41.49C32.2595 41.53 32.2195 41.45 32.1895 41.29Z" fill="#FFF6E1"/>
<path d="M32.2097 41.07C32.2397 40.87 32.2597 40.62 32.3097 40.97C32.2897 40.31 32.1897 40.41 32.2097 41.07Z" fill="#FFF6E1"/>
<path d="M32.5596 39.3501L32.5996 39.0901L32.5496 38.8601C32.5796 38.9801 32.5096 39.3701 32.5596 39.3501Z" fill="#FFF6E1"/>
<path d="M32.0796 43.69C32.1096 43.71 32.1596 43.57 32.1996 43.55L32.1696 43.29C32.1396 43.42 32.1196 43.67 32.0796 43.69Z" fill="#FFF6E1"/>
<path d="M32.1895 43.5501L32.2395 43.9301C32.2495 43.5901 32.2295 43.5301 32.1895 43.5501Z" fill="#FFF6E1"/>
<path d="M32.3993 41.92L32.2993 41.28L32.4093 42.04L32.3993 41.92Z" fill="#FFF6E1"/>
<path d="M31.9995 44.09C31.9995 44.07 31.9995 44.04 31.9895 44.02C32.0095 44.05 31.9995 44.09 31.9795 44.12C31.9895 44.11 31.9995 44.1 31.9995 44.09Z" fill="#FFF6E1"/>
<path d="M31.2893 44.1C31.4493 44.04 31.0693 44 31.2393 43.97C30.9793 43.98 30.7493 44.03 30.5493 44.07C30.7593 44.05 30.9893 44.05 31.2893 44.1Z" fill="#FFF6E1"/>
<path d="M30.1997 44.1301C30.3097 44.1201 30.4197 44.0901 30.5397 44.0701C30.4297 44.0801 30.3197 44.1001 30.1997 44.1301Z" fill="#FFF6E1"/>
<path d="M32.2294 44.1901C32.2194 44.1901 32.1994 44.1801 32.1794 44.1801C32.1594 44.1701 32.1294 44.1601 32.1094 44.1501C32.1394 44.1801 32.1794 44.2101 32.2294 44.2301H32.2394L32.2294 44.1901Z" fill="#FFF6E1"/>
<path d="M32.2296 44.24C32.1596 44.23 32.1196 44.23 32.0996 44.23C32.1196 44.24 32.1496 44.24 32.2296 44.24Z" fill="#FFF6E1"/>
<path d="M32.2295 44.1799V44.1899C32.2395 44.1999 32.2395 44.1899 32.2295 44.1799Z" fill="#FFF6E1"/>
<path d="M32.3296 42.9199C32.3796 43.1499 32.4296 43.6199 32.4996 43.1599C32.4396 42.9999 32.3996 43.2599 32.3296 42.9199Z" fill="#FFF6E1"/>
<path d="M32.3295 44.1699L32.3495 43.9599C32.3295 43.9699 32.2995 44.0299 32.2695 43.9299C32.2995 44.0399 32.3195 44.0699 32.3295 44.1699Z" fill="#FFF6E1"/>
<path d="M32.3596 44.2899L32.3296 44.1699V44.2399L32.3596 44.2899Z" fill="#FFF6E1"/>
<path d="M30.8996 44.21C30.7196 44.25 30.5296 44.25 30.3096 44.25C30.5396 44.27 30.7896 44.28 31.0096 44.27C31.0496 44.25 31.1496 44.21 30.8996 44.21Z" fill="#FFF6E1"/>
<path d="M31.7695 44.23H31.7295C31.7495 44.25 31.7695 44.25 31.7695 44.23Z" fill="#FFF6E1"/>
<path d="M28.1694 44.26L28.1994 44.27L28.2094 44.26H28.1694Z" fill="#FFF6E1"/>
<path d="M31.0598 44.3C31.2398 44.32 31.3398 44.3 31.4398 44.27C31.3098 44.28 31.1698 44.28 31.0198 44.28C30.9998 44.29 30.9998 44.3 31.0598 44.3Z" fill="#FFF6E1"/>
<path d="M29.5996 44.1699C29.6896 44.1899 29.7996 44.1999 29.8996 44.2199C29.8196 44.1899 29.6396 44.1499 29.5996 44.1699Z" fill="#FFF6E1"/>
<path d="M31.6698 44.2201H31.6998C31.6398 44.1901 31.6498 44.2001 31.6698 44.2201Z" fill="#FFF6E1"/>
<path d="M31.6695 44.22C31.5795 44.23 31.5095 44.25 31.4395 44.27C31.5495 44.26 31.6495 44.25 31.7295 44.24C31.7095 44.23 31.6895 44.22 31.6695 44.22Z" fill="#FFF6E1"/>
<path d="M27.5193 44.79C27.5493 44.71 28.0093 44.64 28.4093 44.72C28.7993 44.66 28.5493 44.41 28.1993 44.27C28.1893 44.3 28.1893 44.33 27.7793 44.38C27.9193 44.42 28.6793 44.48 28.3293 44.55C27.7993 44.59 27.8893 44.52 27.6293 44.48C27.7393 44.53 27.5693 44.56 27.3893 44.6C27.2193 44.64 27.0293 44.69 27.0493 44.76L27.5293 44.71C27.5593 44.73 27.3893 44.77 27.5193 44.79Z" fill="#FFF6E1"/>
<path d="M28.9697 44.2799L29.1397 44.2699C28.9497 44.2599 28.8197 44.2299 28.5697 44.1699C28.2897 44.2099 28.2397 44.2399 28.2197 44.2599L29.0397 44.2699L28.9697 44.2799Z" fill="#FFF6E1"/>
<path d="M29.8796 44.27C29.7496 44.35 29.3496 44.39 29.5996 44.48C30.0896 44.47 29.9396 44.41 30.2296 44.37C29.4396 44.39 30.4596 44.33 29.8796 44.27C30.0396 44.27 30.1796 44.26 30.3096 44.26C30.1696 44.25 30.0396 44.23 29.8996 44.22L29.9196 44.23C29.9496 44.24 29.9696 44.25 29.9296 44.24C29.9296 44.24 29.9196 44.24 29.9096 44.24C29.9096 44.25 29.8996 44.26 29.8796 44.27C29.6496 44.25 29.8396 44.25 29.9196 44.24L29.9296 44.23L29.1396 44.28C29.2996 44.28 29.5096 44.28 29.8796 44.27Z" fill="#FFF6E1"/>
<path d="M32.6797 43.5801C32.6697 43.6001 32.6697 43.6001 32.6597 43.6101C32.6697 43.6601 32.6697 43.6801 32.6797 43.5801Z" fill="#FFF6E1"/>
<path d="M32.6294 43.91C32.6194 43.85 32.5794 43.8 32.5894 43.62C32.6194 43.46 32.6294 43.62 32.6594 43.61C32.6394 43.5 32.5994 43.22 32.5594 43.57L32.5694 43.63C32.5594 43.78 32.5194 43.99 32.4894 44.07C32.4594 44.16 32.4294 44.2 32.4194 44.18C32.4994 44.14 32.5494 44.11 32.6294 43.91Z" fill="#FFF6E1"/>
<path d="M31.6698 44.47L31.0098 44.51L31.3398 44.58L31.3198 44.54C31.7098 44.56 31.6298 44.51 31.6698 44.47Z" fill="#FFF6E1"/>
<path d="M28.0893 44.2101L28.1793 44.1301L27.7993 44.2501L28.0893 44.2101Z" fill="#FFF6E1"/>
<path d="M27.2995 44.2201L27.3195 44.1401C27.2995 44.1601 27.2795 44.1701 27.2495 44.1901L27.2995 44.2201Z" fill="#FFF6E1"/>
<path d="M46.6997 29.5901C46.7197 29.6501 46.7397 29.7201 46.7497 29.7901C46.7297 29.6901 46.7197 29.6301 46.6997 29.5901Z" fill="#FFF6E1"/>
<path d="M46.3596 28.1701L46.3096 28.1501C46.3496 28.2001 46.3796 28.2301 46.3596 28.1701Z" fill="#FFF6E1"/>
<path d="M27.0693 24.7201C27.0993 24.7001 27.1293 24.6901 27.1593 24.6901C27.2393 24.7301 27.2593 24.7501 27.2293 24.7001C27.1993 24.6701 27.1793 24.6401 27.1393 24.6201C27.1193 24.6201 27.1093 24.6301 27.0893 24.6301C27.0893 24.6701 27.0793 24.6901 27.0693 24.7201Z" fill="#FFF6E1"/>
<path d="M36.6697 23.8H36.5797C36.5197 23.85 36.4697 23.9001 36.4297 23.9401C36.5097 23.9001 36.5897 23.85 36.6697 23.8Z" fill="#FFF6E1"/>
<path d="M36.7695 23.4201L37.1595 23.3801C37.0695 23.3801 36.9495 23.3901 36.7695 23.4201Z" fill="#FFF6E1"/>
<path d="M46.9497 37.2799L47.0397 37.4999C47.0397 37.1499 46.9897 37.2999 46.9497 37.2799Z" fill="#FFF6E1"/>
<path d="M27.0495 36.64C27.0795 36.4 27.0995 36.21 27.0995 36.04C27.0495 36.33 26.9795 36.56 27.0495 36.64Z" fill="#FFF6E1"/>
<path d="M45.7095 29.2201C45.7495 29.3301 45.7695 29.3701 45.7895 29.3601C45.7595 29.2501 45.7295 29.1901 45.7095 29.2201Z" fill="#FFF6E1"/>
<path d="M27.0996 35.3301C27.0896 35.3801 27.0896 35.4101 27.0796 35.4601C27.0896 35.6401 27.1096 35.8201 27.0996 36.0301C27.1396 35.8201 27.1596 35.5701 27.0996 35.3301Z" fill="#FFF6E1"/>
<path d="M39.0498 31.1701L39.0298 31.1201C39.0298 31.1101 39.0398 31.1401 39.0498 31.1701Z" fill="#FFF6E1"/>
<path d="M32.7295 31.4801C32.7495 31.4001 32.8095 31.2701 32.8595 31.1501C32.8295 31.2001 32.7795 31.3001 32.7295 31.4801Z" fill="#FFF6E1"/>
<path d="M27.1196 41.9399C27.1296 41.9699 27.1196 42.1199 27.1196 41.9399Z" fill="#FFF6E1"/>
<path d="M26.7797 42.82C26.7697 42.78 26.7597 42.75 26.7397 42.75C26.7597 42.76 26.7797 42.78 26.7797 42.82Z" fill="#FFF6E1"/>
<path d="M26.5795 33.53V33.51C26.5595 33.57 26.5595 33.56 26.5795 33.53Z" fill="#FFF6E1"/>
<path d="M27.0796 42.21C27.0896 42.14 27.0996 42.06 27.1096 41.98C27.0996 42.02 27.0896 42.09 27.0796 42.21Z" fill="#FFF6E1"/>
<path d="M27.1194 42.1699C27.1194 42.2299 27.1094 42.2799 27.1094 42.3299C27.1194 42.3499 27.1294 42.3299 27.1194 42.1699Z" fill="#FFF6E1"/>
<path d="M27.1096 41.6899C27.1096 41.7899 27.1096 41.8899 27.0996 41.9799C27.1096 41.9399 27.1096 41.9299 27.1096 41.9399C27.1196 41.8799 27.1196 41.8099 27.1096 41.6899Z" fill="#FFF6E1"/>
<path d="M41.0098 44.97C40.9998 44.97 40.9898 44.96 40.9698 44.96C40.7898 45 40.8698 44.99 41.0098 44.97Z" fill="#FFF6E1"/>
<path d="M30.9795 23.73H30.9595C30.9695 23.74 30.9795 23.74 30.9795 23.73Z" fill="#FFF6E1"/>
<path d="M31.6297 23.6699C31.3497 23.7699 31.1997 23.7599 30.9897 23.7399L31.1997 23.9799L31.6297 23.6699Z" fill="#FFF6E1"/>
<path d="M46.8895 33L46.9696 32.54C47.0896 33.09 47.0495 33.49 47.1595 33.06C46.8995 33 47.1395 31.29 46.8495 31.21L46.8895 30.9C46.8895 30.99 46.9095 31 46.9095 31.09C47.0195 30.47 46.6996 30.65 46.6496 29.88C46.6496 29.61 46.6296 29.42 46.6996 29.59L46.5095 29C46.4795 28.83 46.5296 28.86 46.5596 29.03C46.4996 28.72 46.3895 28.43 46.2995 28.13H46.3096C46.2396 28.01 46.0696 27.75 45.9896 27.63C45.9396 27.4 46.0595 27.73 46.0695 27.66L45.8195 27.21C45.7895 26.99 46.0296 27.35 46.1496 27.69C46.1996 27.14 45.9595 27.31 45.5695 26.31C45.6695 26.44 45.7496 26.59 45.8396 26.73C45.8296 26.37 45.5596 26.06 45.2896 25.53C45.3496 25.67 45.7596 26.61 45.3796 26.17C45.2996 26.03 45.2095 25.83 44.9595 25.64C45.0295 25.58 44.8195 25.35 44.5495 25.09L44.6595 25.02C44.3295 24.76 44.3096 24.83 44.0896 24.71C43.7396 24.43 43.7095 24.3 43.6695 24.16C43.0595 23.74 44.0196 24.55 43.2696 24.12C43.0196 23.95 42.7895 23.82 42.5295 23.73C42.2795 23.63 41.9996 23.55 41.6496 23.49C41.2596 23.32 41.7396 23.44 41.6096 23.36C41.4796 23.36 41.3595 23.34 41.2295 23.35C41.1395 23.33 41.1796 23.31 41.1996 23.29C40.8896 23.26 41.1495 23.4 40.6695 23.34C40.5295 23.44 39.7095 23 39.0995 23.15C38.9495 23.11 39.1696 23.08 39.1296 23.03C38.7196 23.07 38.5396 23.12 38.3796 23.14C38.2196 23.17 38.0795 23.2 37.7595 23.32C37.5695 23.32 37.3696 23.31 37.1796 23.34C37.6096 23.33 37.0995 23.56 36.6895 23.77C36.8395 23.77 36.9796 23.78 37.0596 23.78C36.8296 23.85 36.6096 23.95 36.3996 24.05C36.3096 24.06 36.3595 24 36.4595 23.91C36.4195 23.94 36.3795 23.96 36.3495 23.98C36.0895 24.02 36.1896 23.91 36.3396 23.78C36.4296 23.77 36.5196 23.77 36.6096 23.76C36.7596 23.62 36.9095 23.52 36.8495 23.45C36.8095 23.48 36.7195 23.51 36.6195 23.55C36.6595 23.51 36.6795 23.49 36.6595 23.48C36.6295 23.48 36.5595 23.53 36.4595 23.6L36.2495 23.53L36.2295 23.6C35.8995 23.67 35.5895 23.8 35.2795 23.92C34.7195 24.38 34.2996 24.89 33.6096 25.68C33.7596 25.38 33.5996 25.46 33.5896 25.3C33.6296 25.31 33.6796 25.27 33.7196 25.23C33.7396 25.21 33.7696 25.18 33.7896 25.16C33.8296 25.12 33.8695 25.08 33.9095 25.03C34.0795 24.85 34.2795 24.63 34.5295 24.48C34.2695 24.64 34.2996 24.57 34.3396 24.5L33.9595 24.87L33.7795 25.07C33.7095 25.14 33.7195 25.15 33.6695 25.21C33.6295 25.11 33.5596 25.22 33.4696 25.25C33.5496 25.39 33.2896 25.64 33.1096 25.94C33.0696 26 33.0295 26.07 32.9995 26.14C33.0395 26.03 33.0996 25.87 33.1796 25.73C33.2096 25.68 33.2395 25.63 33.2795 25.59C33.2495 25.58 33.2396 25.6 33.1996 25.65C33.1496 25.73 33.0495 25.98 32.9795 26.12C32.9395 26.15 32.9095 26.09 32.9595 25.84C32.9595 25.92 32.9495 25.99 32.9795 25.94C32.9195 25.88 32.9696 25.31 33.0196 25.36V25.43C33.0296 25.29 33.0295 25.12 33.0295 24.94C33.0295 24.77 33.0196 24.59 33.0196 24.42C33.0096 24.2 33.0095 23.99 32.9995 23.8C32.3995 23.83 31.9796 23.87 31.9396 23.94C31.9196 23.92 32.0695 23.74 32.1595 23.71C31.9495 23.76 31.8595 23.8 31.7395 23.85L31.3795 23.99L30.6595 24.27C30.7895 24.13 30.2995 23.79 30.9695 23.71C30.7795 23.69 30.5395 23.67 30.1395 23.72C30.2695 23.74 30.4696 23.92 30.2896 23.94C29.7996 23.78 29.9496 23.86 29.3496 23.72C29.5496 23.75 29.3296 23.97 29.0196 23.97C29.0696 23.94 28.9896 23.75 29.1096 23.73L28.3396 23.95C28.5296 23.91 28.3696 23.77 28.1996 23.7C28.2696 23.74 27.5495 23.7 27.3195 23.72L27.6595 23.77C27.5095 23.76 27.4296 23.77 27.2796 23.78C27.1296 23.79 27.0195 23.81 26.9195 23.83C26.7195 23.87 26.6095 23.93 26.4795 23.98C26.5295 24.23 26.5695 24.45 26.5695 24.77C26.5195 24.66 26.2896 24.4 26.2696 24.96C26.3796 25.16 26.8095 25.85 26.8895 26.61L26.8295 26.76L26.8995 27.34C26.7295 26.98 26.3795 25.95 26.2395 25.4C26.1895 25.72 26.1595 25.49 26.1695 25.98C26.1095 26.15 26.0795 25.71 26.0795 25.57L26.0396 26.7C26.1696 26.65 26.1696 27.57 26.2796 27.52L26.1395 26.29C26.2695 26.24 26.5095 27 26.4895 27.8C26.4395 28 26.2595 27.65 26.2095 27.66C26.2495 27.76 26.2996 28.42 26.2596 28.5L26.1896 28.16C26.1396 28.61 26.3595 28.89 26.2395 29.43C26.2295 29.62 26.0695 29.98 26.1495 30.02C26.2995 29.72 26.7596 29.66 26.8696 29.86C26.8596 29.92 26.7295 30.83 26.6495 31.04C26.5295 31.35 26.3696 30.58 26.2696 30.84C26.3096 30.85 26.3496 31.02 26.3596 31.09C26.3296 31.28 26.2496 31.01 26.2696 31.43C26.3996 31.5 26.2595 32.29 26.3795 31.63C26.4195 32.04 26.3496 32.07 26.3596 32.56C26.4496 32.41 26.6496 33 26.6896 33.41C26.6596 33.39 26.6096 33.48 26.5896 33.52C26.5796 34.37 26.5196 34.82 26.5196 35.61C26.4896 35.68 26.4495 36.06 26.3895 35.9C26.4095 36.01 26.4595 36.12 26.4595 36.36C26.3495 36.83 26.4395 35.82 26.2995 36.18C26.3795 36.21 26.4096 36.81 26.4496 37.16C26.5696 37.05 26.4695 36.36 26.4195 36.01C26.5795 36.01 26.7495 36.61 26.8295 37.44C26.8695 38.1 26.7195 37.72 26.7495 37.84C26.7195 39.07 27.0395 38.89 26.9195 39.92C26.8195 40.33 26.7095 39.94 26.6395 40.03C26.5995 39.5 26.7096 39.21 26.6996 38.85L26.6495 39.3C26.6195 39.13 26.5896 38.77 26.6196 38.58C26.5296 38.92 26.5996 40.66 26.5196 41.62C26.5496 41.79 26.5895 42.08 26.6295 41.94L26.6196 41.64C26.6996 41.36 26.7396 42.21 26.7796 41.83C26.8396 42.23 26.9295 42.69 26.8795 43.26L26.7596 43.37C26.7896 43.36 26.8296 43 26.7896 42.84C26.8396 43.08 26.6296 43.71 26.7796 43.97L26.8596 43.57C26.8696 43.65 26.8895 43.74 26.8995 43.84L26.9195 43.98L26.9396 44.06C26.9696 44.16 26.9995 44.23 26.9995 44.31C27.0395 44.31 27.0696 44.31 27.0996 44.32C27.0896 44.24 27.0795 44.27 27.0495 44.26C27.0595 44.24 27.0696 44.2 27.1196 44.13C27.0296 44.25 27.0396 44.13 27.0396 44.01C27.0396 43.78 27.0396 43.46 26.9496 43.72C27.1096 43.35 27.0195 43.08 27.1495 42.6C27.1095 42.61 27.0796 42.77 27.0896 42.35C27.0796 42.33 27.0595 42.29 27.0595 42.26C27.0595 42.25 27.0595 42.24 27.0595 42.23V42.25C27.0495 42.23 27.0495 42.23 27.0595 42.26C27.0395 42.36 27.0195 42.44 26.9995 42.48C26.9095 42.27 26.9096 41.6 26.8696 41.37C26.8896 41.12 26.9095 41.48 26.9595 41.34L26.8895 41C26.9795 40.97 27.0296 40.33 27.0896 40.92V40.39C27.1396 40.08 27.1596 39.65 27.1196 39.38C27.1396 39.13 27.0196 38.75 27.0896 38.96L27.0396 38.13L27.0595 38.12C27.0695 37.3 26.9195 36.42 27.0695 35.48C27.0495 35.2 27.0195 34.92 27.0495 34.45L27.1295 34.36C27.0995 34 27.2095 33.29 27.1295 33.14C27.3295 32.76 27.1695 31.41 27.2095 30.79L27.1096 30.77C27.1196 30.34 27.0895 29.93 27.0495 29.39L26.9595 29.42C26.8895 28.96 27.0196 28.23 27.0096 27.5C27.0396 27.55 27.0296 27.73 27.0096 27.87C27.2096 27 26.8696 26.03 27.0096 25.24C26.9796 25.06 26.9896 24.86 27.0096 24.84C27.0096 24.85 27.0096 24.86 27.0096 24.86C27.0096 24.85 27.0096 24.84 27.0096 24.83C27.0196 24.8 27.0395 24.77 27.0595 24.74C27.0395 24.76 27.0196 24.78 27.0096 24.81C27.0096 24.75 26.9995 24.67 26.9795 24.56L26.9995 24.55C27.0395 24.58 27.0796 24.61 27.1196 24.64H27.1395C27.2295 24.67 27.1896 24.6 27.0896 24.53C27.1396 24.51 27.1795 24.5 27.2195 24.47C27.2495 24.51 27.2795 24.52 27.3195 24.53C27.3895 24.53 27.4596 24.53 27.5396 24.52C27.6996 24.51 27.8595 24.5 27.9795 24.58C28.1295 24.5 29.1195 24.52 29.2395 24.36C29.2495 24.38 29.3096 24.39 29.1896 24.39C29.4396 24.41 29.6895 24.43 29.9195 24.38L30.0296 24.5L30.5795 24.34C30.9095 24.41 31.0495 24.45 30.7195 24.55C31.5095 24.41 31.3996 24.5 32.0196 24.36L31.9995 24.4C32.1095 24.4 32.3495 24.33 32.4795 24.34C32.4795 24.37 32.4695 24.4 32.4595 24.43C32.4295 24.53 32.4096 24.64 32.3996 24.76C32.3996 24.8 32.3895 24.8 32.3895 24.87C32.3895 24.95 32.3896 25.04 32.3796 25.13C32.3796 25.31 32.3795 25.5 32.3695 25.7C32.3695 26.1 32.3696 26.54 32.3596 27C32.3596 27.23 32.3596 27.46 32.3596 27.69V27.78C32.3596 27.81 32.3695 27.79 32.3695 27.8L32.3996 27.82C32.4196 27.87 32.4396 27.89 32.4696 27.97C32.6796 27.63 32.8796 27.32 33.0796 27.02C33.1696 26.89 33.2595 26.76 33.3495 26.64C33.4395 26.52 33.5296 26.38 33.6096 26.31C33.4596 26.31 33.6196 26.16 33.8296 25.97C33.9396 25.87 34.0595 25.76 34.1695 25.67C34.2395 25.61 34.2795 25.56 34.2595 25.52C34.3495 25.51 34.5096 25.41 34.3796 25.59C34.8696 25.12 35.2196 25.06 35.5596 24.7C35.6496 24.71 35.4695 24.84 35.5495 24.83C35.5895 24.8 35.7096 24.68 35.7896 24.68C35.8696 24.68 35.7195 24.76 35.6395 24.84C36.2295 24.53 36.2395 24.36 36.2295 24.2C36.5895 24.15 36.7495 24.07 36.9795 23.92C37.1195 23.94 37.3295 23.94 36.9095 24.06C37.1495 23.98 38.3796 23.85 38.3996 23.77C38.4796 23.8 38.7396 23.76 38.8096 23.74C39.3596 23.77 39.4195 23.75 39.9595 23.81L39.8096 23.77C40.0396 23.66 40.2696 23.77 40.6996 23.85L40.6796 23.86C41.1696 24.01 41.2695 24.04 41.3695 24.06C41.4695 24.09 41.5896 24.08 42.0196 24.33L42.0095 24.22C42.0895 24.15 42.2896 24.26 42.5196 24.42C42.7396 24.61 43.0195 24.8 43.2595 24.95L43.1195 24.78C43.2695 24.84 43.4096 25.03 43.5396 25.22C43.6496 25.42 43.7395 25.64 43.8495 25.75C43.8895 25.81 43.7496 25.7 43.6796 25.65C44.1596 26.27 43.8396 25.62 44.2696 26.04C44.2896 26.16 44.0495 26.04 44.2995 26.35C44.3395 26.44 44.5395 26.65 44.7595 26.9C44.9495 27.17 45.1795 27.49 45.2095 27.77C45.2095 27.64 45.2095 27.5 45.3495 27.75C45.4395 27.95 45.5095 28.24 45.5495 28.52C45.6095 28.8 45.6695 29.08 45.7795 29.25C45.7795 29.31 45.7695 29.33 45.7595 29.34C45.8895 29.65 45.9895 30.4 46.0995 30.6C45.9495 30.77 46.0096 31.28 46.0596 31.77C46.0996 32.27 46.1495 32.72 45.9995 32.72L46.0196 33.78L45.9896 33.75C45.9696 34.43 46.0396 34.67 46.1096 34.91C46.0896 35.07 46.0595 34.95 46.0495 34.94C45.9895 35.93 45.9996 36.03 46.1496 36.87L46.0495 36.96C46.1095 37.19 45.8995 38.4 46.0095 39.37C45.9995 39.36 45.9796 39.34 45.9696 39.26C46.0796 40.36 45.6995 41.89 46.0495 42.29L46.1395 43.01C46.1695 42.07 46.2895 43.15 46.3495 42.76C46.3695 43.13 46.2395 43.71 46.2295 43.26L46.2495 43.19C46.1595 43.11 46.1396 43.4 46.1296 43.71C46.1296 43.79 46.1295 43.86 46.1195 43.94C46.1195 43.99 46.1096 44.03 46.1096 44.07C46.0996 44.15 46.0795 44.19 46.0495 44.17V44.37C45.2995 44.35 44.5495 44.34 43.8195 44.32C42.9795 44.3 42.1595 44.27 41.3495 44.27L41.5495 44.41L40.9496 44.4C40.7896 44.37 40.7395 44.29 41.1695 44.3C41.0695 44.26 40.8495 44.28 40.7495 44.31C40.6695 44.34 40.5795 44.39 40.5695 44.4C40.3295 44.37 40.4395 44.33 40.5295 44.3C40.6295 44.27 40.7195 44.24 40.6695 44.24L40.5196 44.25L40.5396 44.27C40.4796 44.29 40.4396 44.31 40.3996 44.32C40.3596 44.29 40.3396 44.23 40.3396 44.03C40.3496 43.95 40.3796 43.88 40.3996 43.87C40.4196 43.85 40.4395 43.86 40.4395 43.8C40.4495 43.8 40.4495 43.76 40.4395 43.6L40.4496 42.84L40.3396 43.14C40.2796 42.8 40.3496 42.43 40.2196 42.78C40.4196 42.27 40.2895 39.95 40.3495 39.64C40.2695 39.17 40.2695 38.7 40.2795 38.13C40.2595 38.27 40.1296 38.36 40.1496 37.86C40.4096 38.04 40.2596 36.95 40.4496 36.55C40.3296 36.91 40.4196 35.14 40.2396 35.7C40.2596 35.29 40.3396 35.67 40.3996 35.36C40.3496 34.86 40.3695 34.33 40.3895 33.75C40.4095 33.16 40.3896 32.52 40.2196 31.89C40.1796 31.88 40.1795 32.1 40.0695 31.84C40.0595 31.61 40.0596 31.37 40.0196 31.13C39.9096 30.89 39.7596 30.99 39.6296 30.51C39.6396 30.58 39.6596 30.69 39.5596 30.55C39.2596 29.98 38.7396 29.47 38.1096 29.23C37.4796 28.97 36.8095 28.93 36.1695 28.98C35.5195 29.03 34.8696 29.2 34.2896 29.55C33.7096 29.89 33.2195 30.39 32.8495 30.95C33.0995 30.67 32.9595 30.87 32.8495 31.12C32.9395 30.97 32.9195 31.16 32.9795 31.15C32.7895 31.46 32.6295 31.79 32.5095 32.13C32.5395 32.24 32.4995 32.52 32.4595 32.79C32.4295 33.06 32.4096 33.32 32.4696 33.38L32.4795 33.05C32.5795 33.49 32.8695 32.48 33.0495 32.59C33.0095 32.35 33.1295 32.06 33.2995 31.76C33.4595 31.46 33.6496 31.17 33.7696 30.81C33.8896 30.7 33.7395 30.95 33.8195 30.91C33.8595 30.72 33.9796 30.52 34.3096 30.29L34.2896 30.33C34.7196 29.96 35.1195 29.82 35.5295 29.74C35.9395 29.67 36.4096 29.63 37.0396 29.72C37.0096 29.69 36.9895 29.65 36.9595 29.62C37.2295 29.67 37.2896 29.7 37.3996 29.76C37.5596 29.74 37.3895 29.67 37.1895 29.65C36.9995 29.61 36.7895 29.6 36.9395 29.53C37.1195 29.64 37.6095 29.69 38.0095 29.91C38.4195 30.11 38.7295 30.44 38.7095 30.61C38.9595 30.92 38.7296 30.44 38.9696 30.77L38.9795 30.89L39.0995 30.94C39.2195 31.19 39.2095 31.35 39.1695 31.38C39.1595 31.31 39.0796 31.22 39.0396 31.16C39.1396 31.48 39.4196 32.08 39.3996 32.22C39.3896 32.08 39.3596 31.95 39.3296 31.81C39.7396 32.91 39.5495 34.47 39.6895 35.7L39.7295 35.61C39.8095 36.55 39.6796 36.36 39.7196 37.39L39.7095 37.35C39.7495 37.56 39.7696 37.83 39.7696 38.11C39.7196 37.85 39.6695 38.6 39.6195 38.26C39.7095 39.28 39.6895 38.76 39.8495 39.43L39.7795 39.58C39.8395 39.81 39.8796 39.83 39.8996 40.34C39.8396 39.92 39.7895 40.67 39.7095 40.2C39.5495 41.28 39.8695 41.8 39.6395 42.29C39.8395 42.78 39.7496 41.36 39.7896 41.63C39.8596 41.4 39.9395 42.04 39.9195 42.38C39.9195 42.72 39.6695 42.96 39.6695 43.83C39.6695 43.74 39.6595 43.74 39.6595 43.65C39.6495 43.73 39.6496 43.81 39.6496 43.89C39.6596 44 39.6595 44.12 39.6695 44.23C39.6795 44.48 39.6896 44.73 39.6496 45.07L39.6595 45.09C40.0795 44.98 40.4196 45.1 40.5596 44.95L39.7795 45L39.7696 44.69C39.7796 44.79 39.7895 44.89 39.7995 44.98C40.0595 44.95 40.3396 44.91 40.6296 44.88C40.9196 44.85 41.1195 44.84 41.4395 44.88C41.3795 44.91 41.1595 44.95 41.0095 44.97C41.2295 45.02 41.4296 44.94 41.6496 44.99C41.5496 45.14 40.8295 45.02 39.8695 45.14C40.0295 45.17 40.4095 45.14 40.6695 45.13C40.8195 45.12 40.8696 45.12 40.8996 45.13C40.9296 45.14 40.9295 45.16 40.8695 45.2C41.2195 44.99 41.7196 45.23 42.3096 45.07L42.2696 45.16C42.3596 45.15 42.5495 45.1 42.7295 45.1L42.4195 45.22C42.8895 45.12 43.3296 45.31 43.7896 45.25C42.8396 45.25 43.5795 45.14 43.1695 45.07C44.3495 44.95 43.8495 45.31 45.1595 45.27C44.9795 45.28 44.4896 45.21 44.7696 45.17C45.0196 45.19 45.3495 45.22 45.5095 45.27C45.6495 45.27 45.7596 45.26 45.8296 45.26C45.9296 45.26 45.9795 45.25 46.0095 45.25C46.0695 45.24 46.0095 45.23 45.9195 45.21C45.7495 45.18 45.5096 45.15 45.7896 45.12C46.1996 45.21 46.4095 45.12 46.7295 45.06C46.7195 44.98 46.7095 44.89 46.7095 44.81L46.7995 44.88C46.8295 44.12 46.7795 43.98 46.7295 43.94C46.6795 43.89 46.6395 43.85 46.6695 43.4L46.7995 43.78L46.7696 43.31L46.8796 43.41C46.7996 42.9 46.8195 42.74 46.8495 42.25C46.7795 42.37 46.6796 42.19 46.6796 41.74C46.7396 41.44 46.7695 41.91 46.7595 41.28C46.8195 41.42 46.8896 41.58 46.8096 41.85C46.8396 41.88 46.8696 41.99 46.8996 42.02C46.9596 41.7 46.9095 41.21 46.9095 40.98C46.9095 41.07 46.8995 41.17 46.8895 41.22L46.7595 40.32C46.7995 40.18 46.8195 40.29 46.8495 40.4C46.8395 40.22 46.7996 40.09 46.7896 39.82C46.8696 39.89 46.9395 39.87 46.9795 40.25L46.8996 39.39C46.9296 39.33 46.9896 38.95 47.0196 39.06C47.0596 38.58 46.8696 37.89 46.9296 37.25C46.9196 37.22 46.8995 37.15 46.8895 37.02C46.9095 36.42 46.9996 35.9 46.8996 35.19L47.0396 34.79C47.0096 34.24 46.8695 35.33 46.8195 34.41C46.7795 33.76 46.9396 34.17 46.9696 33.94C46.8996 33.62 46.7595 33.05 46.8695 32.45C46.8995 32.66 46.8795 32.81 46.8895 33ZM45.3796 26.2C45.4796 26.3 45.6796 26.51 45.6796 26.63C45.5096 26.55 45.4996 26.42 45.3796 26.2ZM35.6595 24.01C35.7395 23.94 35.8896 23.89 36.0596 23.85C35.9496 23.9 35.8195 23.96 35.6595 24.01ZM27.0396 39.96V39.95C27.0696 39.65 27.0596 39.75 27.0396 39.96ZM26.9995 40.57C27.0095 40.63 27.0296 40.63 27.0396 40.6C27.0196 40.56 27.0096 40.42 27.0196 40.26C26.9996 40.31 26.9795 40.39 26.9995 40.57ZM40.4296 43.74L40.4095 43.86C40.3795 43.59 40.4096 43.67 40.4296 43.74Z" fill="#FFF6E1"/>
<path d="M36.7495 23.4599C36.7895 23.4699 36.8095 23.4799 36.8195 23.4899C36.8695 23.4699 36.8695 23.4499 36.7495 23.4599Z" fill="#FFF6E1"/>
<path d="M46.9395 37.24V37.26C46.9495 37.27 46.9495 37.28 46.9595 37.28L46.9395 37.24Z" fill="#FFF6E1"/>
<path d="M26.2095 31.0899C26.2195 30.9599 26.2395 30.8899 26.2595 30.8499C26.2295 30.8399 26.2095 30.8999 26.2095 31.0899Z" fill="#FFF6E1"/>
<path d="M27.1594 43.8099L27.1394 43.4199C27.1394 43.6099 27.1194 43.6799 27.1094 43.7699C27.1294 43.7599 27.1594 43.6899 27.1594 43.8099Z" fill="#FFF6E1"/>
<path d="M29.0797 44.7199C29.1397 44.7099 29.1997 44.7199 29.2597 44.7099L29.2397 44.6699C28.9997 44.6699 28.8297 44.7099 29.0797 44.7199Z" fill="#FFF6E1"/>
<path d="M26.8498 44.1001C26.7698 44.1401 26.7998 44.3201 26.8098 44.4901H26.8198V44.4601C26.9198 44.4001 26.8898 44.2801 26.8498 44.1001Z" fill="#FFF6E1"/>
<path d="M26.8594 44.4899C26.9194 44.4899 26.9794 44.4799 27.0394 44.4899C27.0894 44.4399 26.9794 44.4799 26.8594 44.4899Z" fill="#FFF6E1"/>
<path d="M27.0495 41.34C27.0295 41.47 27.1495 41.42 27.1195 41.5C27.2195 41.64 26.9995 40.63 27.0495 41.34Z" fill="#FFF6E1"/>
<path d="M26.5894 44.3901C26.6194 44.3401 26.6494 44.2901 26.6894 44.2501C26.6594 44.2201 26.6394 44.1801 26.6094 44.1301L26.5894 44.3901Z" fill="#FFF6E1"/>
<path d="M26.6594 42.23L26.6294 42.67C26.6494 42.66 26.6594 42.72 26.6594 42.79C26.6694 42.51 26.6894 42.22 26.6594 42.23Z" fill="#FFF6E1"/>
<path d="M26.6694 42.78C26.6694 42.92 26.6694 43.05 26.6894 43.13C26.6794 43.06 26.6794 42.9 26.6694 42.78Z" fill="#FFF6E1"/>
<path d="M26.5596 43.7901L26.5796 43.6601L26.5896 43.3501L26.5596 43.7901Z" fill="#FFF6E1"/>
<path d="M26.6795 37.5101L26.6495 37.0301C26.6195 36.9801 26.5995 37.1101 26.6095 37.2901C26.6295 37.4101 26.6495 37.5901 26.6795 37.5101Z" fill="#FFF6E1"/>
<path d="M26.4094 38.96C26.4294 38.83 26.4494 38.82 26.4794 38.75L26.3594 38.74L26.4094 38.96Z" fill="#FFF6E1"/>
<path d="M26.3893 37.5599C26.3593 37.5099 26.2893 36.8699 26.2993 37.4699C26.3293 37.5299 26.3593 37.9999 26.3893 37.5599Z" fill="#FFF6E1"/>
<path d="M26.5396 30.3501V30.4801L26.7395 30.4601L26.5396 30.3501Z" fill="#FFF6E1"/>
<path d="M26.2694 23.6001C26.1794 23.6001 26.1094 23.5901 26.0494 23.5901C26.0394 24.2301 26.1694 23.7801 26.1194 24.5101C26.1694 24.7301 26.1694 23.8701 26.2094 24.1101C26.1994 23.9501 26.1894 23.8201 26.1794 23.7201C26.4394 23.7001 26.5394 23.6901 26.2694 23.6001Z" fill="#FFF6E1"/>
<path d="M26.2197 24.1101C26.2297 24.1901 26.2397 24.2801 26.2497 24.3901C26.2297 24.2401 26.2297 24.1601 26.2197 24.1101Z" fill="#FFF6E1"/>
<path d="M32.2897 32.8401L32.2197 33.2301L32.2997 32.9801L32.2897 32.8401Z" fill="#FFF6E1"/>
<path d="M32.3898 33.5901L32.2598 33.6801L32.3698 33.9101C32.3598 33.8201 32.3498 33.6501 32.3898 33.5901Z" fill="#FFF6E1"/>
<path d="M44.8994 25.1799H44.8594C44.8794 25.2499 44.9394 25.3199 45.0594 25.4699L44.8994 25.1799Z" fill="#FFF6E1"/>
<path d="M46.8798 30.05L46.8698 29.96L46.7798 30.14L46.8798 30.05Z" fill="#FFF6E1"/>
<path d="M47.1296 34.27C47.1296 34.1 47.1096 33.9 47.1096 33.73C47.1396 34.1 46.9896 34.31 47.1296 34.27Z" fill="#FFF6E1"/>
</g>
<defs>
<clipPath id="clip0_151_4669">
<rect width="62.32" height="62.27" fill="white"/>
</clipPath>
</defs>
</svg>
