<svg width="63" height="63" viewBox="0 0 63 63" fill="none" xmlns="http://www.w3.org/2000/svg">
<g clip-path="url(#clip0_151_5374)">
<path d="M31.3101 62.19C31.0201 62.2 31.1201 62.26 31.0801 62.28C31.5601 62.24 31.2901 62.17 31.3101 62.19Z" fill="#391735"/>
<path d="M35.9502 61.66L36.6402 61.48L36.0302 61.62L35.9502 61.66Z" fill="#391735"/>
<path d="M37.8998 61.2201L37.5698 61.4001C38.4998 61.1401 39.6998 60.7801 40.3598 60.6301C39.9198 60.6301 38.8098 61.0501 38.0298 61.2101L37.8998 61.2201Z" fill="#391735"/>
<path d="M42.1499 60.2301C42.1999 60.2201 42.2199 60.2101 42.2499 60.2101C42.3399 60.1801 42.4699 60.1301 42.6799 60.0601C42.5199 60.0601 43.1499 59.8401 42.1499 60.2301Z" fill="#391735"/>
<path d="M42.25 60.2099C42.55 60.1299 41.81 60.3699 42.25 60.2099Z" fill="#391735"/>
<path d="M44.2402 59.3301L43.7002 59.6401C43.8302 59.6101 44.3302 59.3701 44.1502 59.4801C44.7202 59.1801 44.5902 59.2201 44.2402 59.3301Z" fill="#391735"/>
<path d="M44.74 59L44.46 59.15C44.51 59.14 44.59 59.11 44.74 59Z" fill="#391735"/>
<path d="M43.8599 59.4799L44.4599 59.1499C44.3699 59.1699 44.3499 59.1399 44.1799 59.2999C44.2099 59.2499 44.1099 59.3399 43.8599 59.4799Z" fill="#391735"/>
<path d="M43.3102 59.6401C42.7702 59.8701 42.5302 59.9701 42.5802 59.9801C42.6202 59.9701 42.9702 59.9101 43.5002 59.6401C43.1802 59.7701 42.7502 59.9001 43.3102 59.6401Z" fill="#391735"/>
<path d="M39.7202 60.6899C39.8102 60.6599 40.0302 60.61 40.2202 60.57C40.4102 60.52 40.5602 60.46 40.5402 60.45C40.3902 60.49 40.2502 60.54 40.0902 60.56L39.7202 60.6899Z" fill="#391735"/>
<path d="M43.8101 59.41L44.9701 58.74L44.7801 58.84L43.8101 59.41Z" fill="#391735"/>
<path d="M46.6901 57.7301C46.4701 57.9201 46.8801 57.7101 46.3901 58.0701C46.7201 57.8301 47.4101 57.3601 46.6901 57.7301Z" fill="#391735"/>
<path d="M62.27 28.41C62.26 28.24 62.26 28.05 62.25 27.86C62.23 27.67 62.19 27.47 62.16 27.26C62.03 26.44 61.87 25.58 61.8 25.02L61.71 24.99C61.58 24.23 61.33 23.53 61.08 22.62L61.02 22.7C60.81 21.91 60.43 20.68 59.98 19.46C60.04 19.53 60.14 19.84 60.21 20.07C60.11 19.69 59.99 19.31 59.85 18.93C59.69 18.56 59.49 18.21 59.3 17.85C58.91 17.15 58.58 16.44 58.26 15.82C58.06 15.53 57.93 15.31 57.82 15.09C57.84 15.12 57.85 15.14 57.87 15.16C57.85 15.13 57.82 15.08 57.8 15.04C57.73 14.9 57.66 14.76 57.58 14.6C57.64 14.73 57.7 14.86 57.76 14.97C57.62 14.74 57.4 14.39 57.17 14.06L57.15 13.87C57.13 13.84 57.12 13.82 57.1 13.79C56.92 13.44 56.9 13.54 56.97 13.75C56.86 13.58 56.73 13.45 56.63 13.34C56.54 13.01 55.97 12.52 55.81 12.09C55.7 12 55.39 11.61 55.08 11.22C54.73 10.86 54.38 10.52 54.26 10.49C54.26 10.47 54.19 10.38 54.34 10.53C54.05 10.19 53.76 9.85002 53.47 9.58002L53.4 9.39002L53.02 9.08002L52.62 8.80002C52.23 8.36002 52.07 8.17002 52.55 8.51002C51.42 7.64002 51.67 7.76002 50.69 7.05002L50.78 7.04002C50.43 6.78002 49.83 6.44002 49.65 6.24002C49 5.48002 45.71 3.54002 43.47 2.47002C43.65 2.66002 43.4 2.51002 43.08 2.34002C42.75 2.19002 42.36 2.01002 42.28 2.06002C42.16 1.97002 41.84 1.83002 42.24 1.93002C41.03 1.55002 40.48 1.16002 39.59 1.10002C39.46 1.02002 39.87 1.11002 39.75 1.05002C39.65 1.03002 39.35 0.99002 39.23 0.93002C39.11 0.87002 39.42 0.94002 39.62 0.97002C38.36 0.65002 38.2 0.75002 38.08 0.86002C37.77 0.75002 37.54 0.67002 37.32 0.63002C37.1 0.60002 36.9 0.59002 36.66 0.60002C36.44 0.52002 36.07 0.42002 36.87 0.53002C36.43 0.46002 34.15 0.0400195 34.09 0.16002C33.95 0.13002 33.46 0.12002 33.34 0.13002C32.33 0.0700195 32.24 0.0600195 31.25 0.0200195L31.52 0.0500195C31.13 0.14002 30.7 0.0800195 29.9 0.13002L29.92 0.12002C29 0.12002 28.8 0.14002 28.61 0.16002C28.51 0.17002 28.42 0.18002 28.23 0.18002C28.04 0.18002 27.77 0.19002 27.32 0.25002L27.43 0.31002C27.29 0.50002 25.83 0.45002 24.8 0.68002C24.93 0.67002 25.06 0.67002 25.18 0.66002C24.63 0.79002 23.57 0.82002 23 0.93002C22.87 0.95002 23.19 0.86002 23.36 0.80002C21.86 1.08002 23.19 0.95002 22.11 1.25002C21.89 1.26002 22.33 1.03002 21.59 1.25002C21.22 1.36002 19.56 2.14002 18.58 2.47002C18.8 2.41002 19.02 2.35002 18.56 2.61002C17.85 2.98002 16.51 3.38002 15.96 3.87002C15.87 3.91002 15.83 3.92002 15.82 3.92002C15.31 4.27002 14.14 5.01002 13.87 5.26002C13.25 5.37002 10.88 7.61002 10.79 7.48002L9.39998 8.74002L9.41998 8.69002C8.94998 9.08002 8.71998 9.42002 8.50998 9.65002C8.31998 9.89002 8.18998 10.07 8.06998 10.25C7.86998 10.44 7.98998 10.28 7.99998 10.25C6.74998 11.5 6.71998 11.71 5.91998 12.95L5.75998 13.03C5.65998 13.2 5.23998 13.69 4.81998 14.37C4.59998 14.71 4.36998 15.09 4.11998 15.47C3.87998 15.85 3.63998 16.25 3.48998 16.66C3.48998 16.64 3.48998 16.6 3.53998 16.47C3.34998 16.92 3.11998 17.4 2.86998 17.88C2.62998 18.37 2.33998 18.83 2.17998 19.31C1.79998 20.25 1.49998 21.06 1.51998 21.44C1.37998 21.84 1.32998 22.28 1.23998 22.69C1.66998 21.09 1.29998 22.96 1.51998 22.32C1.50998 22.35 1.50998 22.38 1.49998 22.4C1.44998 22.57 1.39998 22.75 1.34998 22.93C1.20998 23.38 1.06998 23.69 1.19998 23.14L1.24998 23.02C1.18998 22.7 0.669978 24.99 0.619978 24.94C-2.19941e-05 28.16 -0.140022 31.37 0.129978 34.43C0.149978 34.31 0.169978 34.19 0.209978 34.07C0.239978 34.42 0.309978 34.77 0.349978 35.13C0.359978 35.41 0.319978 35.51 0.209978 34.76C0.199978 35.17 0.459978 36.02 0.489978 36.03C0.669978 37.51 0.269978 35.48 0.329978 35.93L0.429978 36.54L0.419978 36.4C0.489978 36.64 0.519978 36.78 0.569978 36.96C0.609978 37.14 0.669978 37.38 0.789978 37.82C0.909978 38.39 0.789978 38.12 0.849978 38.35C0.839978 38.35 0.859978 38.43 0.929978 38.69L1.25998 40L1.21998 39.45C1.39998 40.02 1.53998 40.67 1.47998 40.04C1.51998 40.5 1.96998 41.68 2.36998 42.82C2.83998 43.93 3.39998 44.96 3.47998 45.23C3.57998 45.42 3.68998 45.6 3.78998 45.78C3.89998 45.96 4.01998 46.14 4.13998 46.32C4.36998 46.69 4.60998 47.09 4.86998 47.52C4.74998 47.29 4.76998 47.11 5.20998 47.86C5.04998 47.78 5.19998 48.15 5.50998 48.59C5.81998 49.03 6.19998 49.56 6.35998 49.89C6.19998 49.6 6.57998 50.1 6.92998 50.56C7.28998 51.02 7.68998 51.38 7.39998 50.97C7.87998 51.52 7.36998 51.06 7.69998 51.5C8.00998 51.81 8.31998 52.15 8.64998 52.5C8.80998 52.67 8.96998 52.86 9.13998 53.04C9.31998 53.21 9.49998 53.38 9.68998 53.56C10.44 54.24 11.17 55.04 12.07 55.64C12.11 55.64 11.85 55.39 12.25 55.63L13.08 56.43C13.44 56.66 13.47 56.56 14.08 57.04C14 56.96 13.88 56.85 14.13 56.99C17.62 59.43 21.89 60.83 26.09 61.75C25.52 61.61 25.91 61.66 26.35 61.73C26.07 61.67 26.37 61.66 26.32 61.61C26.91 61.73 27.49 61.88 28.09 61.97C28.43 61.88 30.02 62.06 30.21 61.97L29.64 61.96C29.99 61.92 29.8 61.85 29.5 61.77C30.02 61.8 30.54 61.81 31.07 61.81C37.01 61.81 42.56 60.12 47.26 57.21C47.27 57.21 47.28 57.21 47.28 57.21C47.33 57.18 47.35 57.16 47.33 57.17C49.59 55.76 51.65 54.07 53.47 52.14H53.49C53.58 52.03 53.67 51.94 53.72 51.87C53.93 51.64 54.13 51.41 54.33 51.18C54.12 51.52 54.53 51.33 54.97 51C54.96 50.96 54.96 50.97 55.36 50.36C55.21 50.56 54.27 51.51 54.63 51.03C54.93 50.67 55.05 50.53 55.14 50.42C55.23 50.32 55.29 50.28 55.44 50.1C55.21 50.3 55.71 49.58 55.85 49.28C56.15 48.87 56.45 48.45 56.73 48.02L56.88 47.92L56.97 47.65C57.77 46.41 58.48 45.12 59.09 43.77C59.33 43.42 58.74 44.72 59.05 44.13C58.92 44.46 58.77 44.82 58.62 45.2C58.54 45.39 58.45 45.59 58.35 45.8C58.23 46 58.11 46.2 57.97 46.41L57.79 46.52C57.83 46.52 58.18 45.99 58.3 45.73C58.12 46.11 57.39 46.98 57.26 47.44L57.68 46.87C57.34 47.5 57.02 48.36 56.42 49.04C56.74 48.77 56.54 48.87 57.01 48.42C56.6 48.81 58.21 46.46 57.62 47.14C57.85 46.9 58.01 46.66 58.18 46.4C58.35 46.14 58.54 45.87 58.77 45.5C58.73 45.51 58.58 45.74 58.92 45.07C58.93 45.04 58.95 44.96 58.97 44.91C58.98 44.89 58.98 44.88 58.99 44.87L58.97 44.91C58.98 44.88 58.98 44.88 58.96 44.92C58.87 45.08 58.79 45.2 58.75 45.24C58.85 44.87 59.37 43.8 59.51 43.42C59.72 43.02 59.46 43.6 59.6 43.4C59.67 43.21 59.74 43.02 59.78 42.82C59.87 42.79 60.3 41.75 59.98 42.76L60.31 41.87C60.54 41.36 60.83 40.64 60.94 40.18C61.07 39.75 61.14 39.06 61.1 39.46L61.43 38.01L61.46 38C61.68 37.3 61.72 36.54 61.83 35.76C61.92 34.99 62.09 34.19 62.16 33.36C62.17 32.86 62.17 32.36 62.23 31.53L62.3 31.37C62.32 30.74 62.29 29.46 62.23 29.19C62.27 29.03 62.28 28.75 62.27 28.41ZM61.15 23.52C61.16 23.58 61.24 24 61.32 24.46C61.42 24.91 61.4 25.42 61.42 25.6C61.42 25.63 61.42 25.65 61.41 25.67C61.35 25.31 61.28 24.96 61.21 24.61L61.32 24.56L61.18 24.46C61.1 24.09 61.02 23.73 60.93 23.37C61 23.37 61.09 23.41 61.15 23.52ZM59.34 18.36C59.51 18.66 59.69 18.96 59.81 19.28C59.69 19.05 59.42 18.7 59.13 18.29C58.89 17.75 58.63 17.22 58.36 16.7C58.66 17.09 58.99 17.57 59.28 18.1L59.34 18.36ZM52.53 8.74002C52.46 8.72002 52.45 8.77002 52.44 8.83002C52.29 8.68002 52.14 8.54002 51.99 8.40002C52.17 8.51002 52.35 8.63002 52.53 8.74002ZM37.81 0.84002C37.96 0.90002 37.82 0.90002 37.61 0.89002C37.7 0.90002 37.78 0.91002 37.84 0.92002C37.96 0.96002 38.02 0.99002 38.05 1.01002C37.86 0.97002 37.67 0.92002 37.48 0.88002C37.52 0.88002 37.56 0.88002 37.6 0.89002C37.52 0.88002 37.43 0.86002 37.33 0.85002C37.21 0.82002 37.08 0.80002 36.96 0.78002C36.79 0.73002 36.63 0.68002 36.53 0.65002C36.97 0.69002 37.39 0.73002 37.81 0.84002ZM0.899978 38.45L0.869978 38.24C1.00998 38.7 0.949978 38.58 0.899978 38.45ZM54.57 50.92C54.78 50.67 54.98 50.43 55.18 50.17C55.04 50.4 54.83 50.68 54.57 50.92ZM60.53 41.17C60.53 41.16 60.53 41.15 60.54 41.15C60.74 40.67 60.67 40.84 60.53 41.17ZM61.51 36.85C61.45 37.43 61.36 37.54 61.34 37.54C61.32 37.54 61.32 37.42 61.3 37.52C61.02 38.57 60.96 39.04 60.9 39.46C60.85 39.88 60.81 40.26 60.43 41.09C60.1 41.74 60.26 41.06 60.14 41.19C60.28 40.74 60.43 40.41 60.54 40.11C60.64 39.8 60.73 39.53 60.81 39.22L60.57 39.97C60.59 39.84 60.63 39.65 60.67 39.45C60.94 38.49 61.17 37.51 61.35 36.51C61.35 36.52 61.35 36.53 61.35 36.53C61.34 36.73 61.3 37.04 61.35 36.92L61.45 36.08C61.44 36.05 61.43 36.07 61.42 36.1C61.49 35.65 61.56 35.2 61.61 34.74C61.66 35.2 61.61 35.95 61.51 36.85ZM61.85 29.79C61.84 29.62 61.84 29.46 61.83 29.29C61.85 29.44 61.87 29.6 61.89 29.74C61.87 29.73 61.86 29.75 61.85 29.79Z" fill="#391735"/>
<path d="M30.54 62.05L30.69 62.16L31.08 62.0801C30.93 62.0901 30.65 62.08 30.54 62.05Z" fill="#391735"/>
<path d="M15.278 23.3871C15.2824 23.4485 15.2716 23.6952 15.2735 23.802C15.2265 23.6809 15.2618 23.1659 15.278 23.3871ZM18.6873 34.3426C18.6757 34.254 18.6641 34.1654 18.6525 34.0767C18.6449 34.3286 18.6534 34.6671 18.6424 34.9008C18.6406 34.939 18.607 34.8398 18.6055 34.9303C18.604 35.0207 18.6499 35.0033 18.6548 35.1349C18.6602 35.2824 18.6282 35.9582 18.629 36.1922C18.6426 37.0194 18.6119 38.1711 18.6891 38.4866C18.5759 37.997 18.6089 38.4974 18.6734 38.6498C18.6944 38.6785 18.7275 38.6668 18.951 39.1466C19.1204 39.4385 18.8195 39.2672 19.2489 39.673C19.0202 39.2786 19.2835 39.6349 19.5552 39.8405C19.5962 39.8832 19.9922 40.1499 20.1955 40.2072C20.2632 40.2308 20.3794 40.2202 20.4692 40.2398C20.5302 40.2532 20.5799 40.2885 20.6658 40.2998C20.946 40.3477 22.025 40.309 22.7384 40.3242C22.2864 40.4392 23.0932 40.3732 23.1295 40.3787C23.3137 40.4099 22.4803 40.4188 22.8099 40.4383C23.2705 40.4348 23.7311 40.4312 24.1917 40.4276C23.8137 40.4135 24.6922 40.3309 24.8539 40.3685C24.7827 40.2669 26.9532 40.4569 27.2836 40.4229C27.3524 40.4158 26.902 40.3656 27.9469 40.3885C28.0601 40.3911 28.0173 40.4217 28.0766 40.4189C28.1122 40.4172 28.3273 40.3198 28.5565 40.3736C28.6403 40.3932 28.1047 40.4572 29.2807 40.4315C28.8124 40.3324 30.9113 40.3778 31.2975 40.4026C31.2203 40.3893 31.1432 40.376 31.066 40.3627C31.4478 40.3986 31.5167 40.3649 31.6027 40.3668C31.9492 40.3741 32.4257 40.4081 32.7485 40.405C33.1263 40.4014 33.1276 40.3398 33.568 40.3638C33.4635 40.3502 33.359 40.3366 33.2545 40.323C33.5587 40.3262 33.8628 40.3295 34.167 40.3328C33.4626 40.4144 34.319 40.3367 34.3754 40.3349C34.4654 40.332 34.3361 40.3654 34.4866 40.3612C34.5021 40.3605 34.4796 40.3291 34.7116 40.3255C35.1962 40.3183 35.1196 40.3578 35.3231 40.3574C35.3417 40.3572 35.2764 40.3288 35.6279 40.3221C36.7448 40.3008 35.6223 40.3438 35.5795 40.3477C35.5232 40.3529 35.9062 40.4713 34.9574 40.4293C35.2759 40.4427 35.308 40.4951 35.3439 40.4964C35.3756 40.4975 35.9276 40.4901 35.958 40.4883C36.2293 40.4705 35.9906 40.4347 36.0435 40.4283C36.0867 40.4231 36.7517 40.4698 36.9076 40.3621C37.2258 40.4614 36.7245 40.4523 36.1909 40.4676C36.1131 40.488 36.699 40.5078 36.7298 40.5078C37.4856 40.5076 37.0672 40.4258 37.2324 40.3736C37.3192 40.3463 37.6271 40.402 37.3428 40.3287C38.0288 40.321 37.6128 40.3635 37.6571 40.3697C37.724 40.379 37.964 40.358 37.994 40.3608C38.0381 40.3649 37.8848 40.3903 38.0587 40.3992C38.0876 40.4005 38.3678 40.3569 38.0065 40.336C38.4892 40.3422 38.4494 40.305 38.6131 40.38C38.9455 40.238 38.8543 40.4639 38.9852 40.4719C39.3333 40.4928 39.2323 40.3814 39.2507 40.3759C39.3774 40.3411 40.3409 40.3794 40.5796 40.3633C40.4854 40.4436 39.8157 40.3642 39.6659 40.3798C39.1666 40.4316 40.3696 40.4199 40.007 40.5208C40.159 40.4931 40.3111 40.4654 40.4631 40.4377C40.7418 40.5025 40.3464 40.5308 41.0965 40.5071C41.2192 40.4511 40.5662 40.516 40.6972 40.4719C40.7744 40.446 41.2094 40.4404 41.2179 40.4268C41.2265 40.4104 40.8334 40.4298 40.8953 40.4046C41.0306 40.3501 42.4645 40.402 41.373 40.4317C41.6705 40.4304 41.8636 40.5408 42.0776 40.5042C42.1658 40.4702 41.6511 40.3854 42.4419 40.3202C42.4592 40.3727 42.1469 40.3766 42.118 40.3774C42.1031 40.3839 42.1809 40.4953 42.1927 40.4999C42.2253 40.5466 43.0881 40.2652 43.2707 40.1793C43.1803 40.1765 43.8287 39.7593 43.8545 39.6614C43.8652 39.6413 43.7792 39.6749 43.792 39.6545C43.8759 39.5359 44.1642 39.2537 44.2422 39.0807C44.332 38.8928 44.283 38.9019 44.2885 38.8917C44.3224 38.808 44.3195 38.8839 44.3384 38.8317C44.3823 38.75 44.4891 38.2118 44.4743 38.1806C44.4732 38.1716 44.4265 38.2679 44.4274 38.1361C44.4266 38.1017 44.4784 38.1814 44.4569 37.5646C44.4321 36.8365 44.3974 38.0702 44.3473 37.7677C44.4186 37.3 44.348 37.3151 44.3535 37.1883C44.3555 37.1444 44.4156 36.8176 44.4118 36.4626C44.4216 36.7174 44.4313 36.9721 44.4411 37.2269C44.4516 36.9765 44.4386 36.4901 44.4505 36.2838C44.4563 36.1831 44.5057 36.266 44.5043 36.0474C44.5038 36.001 44.3835 35.8169 44.4375 36.3896C44.3945 36.4354 44.4225 36.1629 44.4103 36.0364C44.4084 36.0173 44.3367 35.9419 44.3813 35.7804C44.3923 35.7417 44.6016 36.1638 44.4501 35.0751C44.4452 35.0401 44.419 35.162 44.4135 35.1277C44.4099 35.1043 44.4205 34.8264 44.4167 34.7957C44.4128 34.7643 44.3841 34.8985 44.3785 34.8611C44.3495 34.6694 44.463 34.4178 44.4543 34.8131C44.4684 34.681 44.4824 34.5489 44.4964 34.4167C44.4109 34.5581 44.4724 34.2093 44.4697 34.0265C44.4529 32.855 44.3973 33.6395 44.3685 33.438C44.3222 33.1141 44.4686 33.3615 44.4246 32.8806C44.4205 32.8361 44.3584 33.4174 44.3935 32.2824C44.3959 32.4499 44.3983 32.6174 44.4007 32.785C44.4835 32.6884 44.395 32.18 44.3939 32.1409C44.3825 31.6952 44.4124 31.9965 44.3697 31.3347C44.3659 31.2756 44.3863 31.1468 44.3762 31.0204C44.3342 30.4965 44.3507 31.7118 44.3172 31.745C44.3008 31.7607 44.3049 30.4538 44.3127 30.4089C44.3473 30.2184 44.3279 31.0014 44.3708 30.8521C44.386 30.7977 44.3548 28.9349 44.3715 28.5612C44.3909 28.13 44.5031 27.9358 44.377 27.9331C44.5007 27.8114 44.4163 27.7039 44.4172 27.6487C44.4286 26.9818 44.4299 26.9806 44.418 26.4087C44.4155 26.2824 44.453 26.1758 44.4467 26.1311C44.4428 26.1051 44.4027 26.1537 44.3903 26.0264C44.3733 25.8495 44.4146 24.7863 44.4368 24.7073C44.459 24.6283 44.4465 25.1563 44.483 25.0617C44.4867 24.6795 44.4776 24.313 44.4815 23.9283C44.4832 23.7685 44.5087 23.8506 44.5092 23.7816C44.5096 23.7522 44.4871 23.2004 44.4776 23.2238C44.4557 23.2786 44.4704 24.9824 44.4257 24.5337C44.4171 24.4472 44.476 24.1414 44.4044 24.19C44.3923 22.5934 44.5847 21.3592 44.0338 20.6277C44.3917 21.1108 44.4888 21.4061 44.4637 22.3982C44.4644 22.5238 44.4575 22.9483 44.4937 22.8967C44.5054 22.0259 44.4911 21.4644 44.3113 21.0244C44.3061 21.0101 44.3578 21.0487 44.3403 20.9944C44.3115 20.8889 44.0932 20.6158 44.0678 20.5644C44.0655 20.5532 44.2088 20.6961 44.1995 20.6309C44.1728 20.4592 44.0208 20.5154 43.9416 20.4137C43.8964 20.3241 43.4185 19.807 43.2304 19.7814C43.0534 19.7302 43.6361 20.0794 43.562 20.0921C43.1889 19.8371 42.7767 19.6165 42.3576 19.5622C42.3516 19.5616 42.401 19.601 42.3214 19.5946C42.1904 19.5859 42.1347 19.538 42.0339 19.5286C41.9125 19.5202 41.398 19.5272 41.3339 19.5104C41.3254 19.5082 41.4267 19.4628 41.4421 19.4615C41.6599 19.4428 41.7373 19.5017 41.7571 19.5025C41.8315 19.5047 41.9047 19.4821 41.9726 19.4835C42.0763 19.4856 42.1174 19.5081 42.21 19.5171C42.2695 19.5237 42.2159 19.4783 42.2708 19.4857C42.2886 19.4864 42.4948 19.6115 42.5391 19.5277C42.8051 19.4235 39.7112 19.4062 39.3712 19.4267C39.6438 19.4379 39.9163 19.4492 40.1888 19.4604C39.6354 19.433 38.9706 19.5078 38.9235 19.3972C36.8712 19.3881 34.8189 19.3791 32.7666 19.3701C32.4001 19.3606 32.601 19.2895 31.9981 19.3102C32.1539 19.3329 32.3097 19.3555 32.4655 19.3782C32.1565 19.3623 30.7872 19.3312 30.5656 19.3459C30.5369 19.3478 30.4971 19.4122 30.1549 19.4177C29.8513 19.4226 29.8026 19.3744 29.6403 19.3651C29.504 19.3575 29.3509 19.3701 29.3105 19.3675C29.2795 19.3654 29.2672 19.3359 29.1925 19.3307C28.9568 19.3149 29.1478 19.3978 28.9138 19.3025C28.9708 19.2989 29.0278 19.2953 29.0847 19.2916C28.8002 19.2779 28.4115 19.2346 28.8306 19.2132C28.9027 19.2096 28.8408 19.2381 28.8945 19.238C30.9989 19.2327 29.3185 19.1773 28.581 19.2216C28.3916 19.1793 27.3301 19.2051 27.2949 19.1968C27.2458 19.1847 27.4275 19.151 27.1894 19.1218C27.1393 19.1156 25.72 19.1393 26.2311 19.0831C26.3365 19.0716 27.017 19.0837 27.181 19.0821C26.7951 18.9925 25.8904 19.1208 25.7886 19.1175C25.3782 19.1036 26.577 19.0399 25.6525 19.0295C24.9416 19.0215 25.609 19.0813 25.3356 19.1069C25.1819 19.1212 24.3774 19.0553 24.3992 19.1406C24.1231 19.1497 24.2847 19.1046 24.2506 19.1013C24.2173 19.0984 23.6743 19.124 23.4981 19.106C23.4767 19.1038 23.544 19.0594 23.5219 19.0558C23.4789 19.0496 22.9553 19.0585 22.9342 19.0622C22.9208 19.0648 23.0457 19.1036 22.9944 19.1131C22.9346 19.1239 22.4307 19.1148 22.4029 19.1259C22.3637 19.1426 22.9857 19.1316 22.882 19.175C22.5953 19.1641 22.1282 19.193 21.9389 19.228C21.9853 19.218 22.2633 19.2166 22.3598 19.2201C22.3144 19.2837 21.7174 19.2828 21.9215 19.2325C21.7918 19.2595 21.8804 19.2738 21.8073 19.2993C21.7881 19.3058 21.6038 19.3071 21.5683 19.3181C21.5637 19.3203 21.7539 19.3443 21.7158 19.3572C21.6468 19.3806 21.088 19.3753 21.0423 19.3692C20.9136 19.3518 21.3692 19.3309 21.4072 19.304C21.4126 19.2999 21.0251 19.2474 21.0192 19.2427C20.9965 19.1929 21.4278 19.2288 21.3785 19.184C21.2718 19.1745 21.1652 19.165 21.0585 19.1556C21.4699 19.1102 22.2309 19.1335 22.4271 19.0819C21.8172 19.0972 21.179 19.0954 21.1803 18.9791C21.1807 18.9301 21.4438 18.9014 21.4337 18.889C21.3949 18.8444 21.0296 18.8928 21.0162 18.8904C20.8925 18.8602 21.5181 18.8388 21.5467 18.8257C21.5906 18.8046 21.3588 18.7174 21.3592 18.6982C21.3672 18.6943 21.738 18.6737 21.6129 18.6401C21.4863 18.6061 21.1618 18.6054 21.1504 18.6018C21.0884 18.5815 21.6561 18.563 21.673 18.551C21.682 18.5449 21.3771 18.5077 21.3682 18.4969C21.3607 18.4862 21.5923 18.4627 21.6836 18.4288C21.7517 18.4036 21.5535 18.3842 21.5883 18.3803C21.6133 18.3777 22.1496 18.3781 22.176 18.3737C22.2153 18.3671 22.0896 18.337 22.1079 18.3295C22.1339 18.3186 22.3071 18.3295 22.2845 18.3183C22.2676 18.31 21.5961 18.2062 21.6004 18.1784C21.6081 18.1311 22.3192 18.24 21.6575 18.0532C21.6529 18.052 21.4919 18.0653 21.4874 18.0641C21.388 18.0298 21.9043 17.9769 21.2729 17.9861C22.4474 17.9265 21.4191 17.915 21.5929 17.8353C21.66 17.8047 22.1153 17.7921 22.1174 17.7875C22.0731 17.7486 21.9281 17.7788 21.8788 17.7597C21.8516 17.7491 22.259 17.708 22.1673 17.6813C22.1199 17.6675 21.6875 17.6724 21.6696 17.6698C21.4985 17.6445 21.7084 17.6172 21.6708 17.5993C21.6458 17.5872 21.3849 17.5863 21.3781 17.5841C21.3671 17.5796 21.7214 17.5309 21.7952 17.5138C21.8513 17.5006 21.6407 17.48 21.6799 17.4743C21.9157 17.44 22.4176 17.5275 21.934 17.4049C21.9045 17.3973 21.7215 17.4004 21.7162 17.3989C21.6031 17.3641 21.9399 17.3611 22.0002 17.3327C22.1036 17.2836 21.6195 17.311 22.0221 17.2765C21.7201 17.2444 21.5518 17.2457 21.1985 17.2547C22.1769 17.2297 22.5223 17.1028 21.4359 17.106C21.7815 17.108 21.7432 17.0363 21.8462 17.0351C21.9104 17.0344 22.4114 17.1056 22.1817 16.9458C22.1529 16.9258 21.8485 16.9512 21.9438 16.9103C22.6743 16.9207 21.9593 16.8843 21.9586 16.8789C21.968 16.7847 23.753 16.8619 24.0597 16.8511C24.4155 16.8387 24.7318 16.7645 24.8092 16.7644C25.0637 16.7644 24.8525 16.802 24.9094 16.8159C24.9671 16.8296 25.6908 16.7574 25.727 16.7614C25.8672 16.7773 25.7249 16.822 25.7395 16.8242C25.9131 16.8516 26.8851 16.8166 27.1572 16.827C27.1488 16.798 26.6024 16.7957 26.9436 16.7492C27.3408 16.695 27.3635 16.8227 27.3739 16.8283C29.1939 16.8271 31.0139 16.8258 32.8339 16.8246C32.8112 16.7567 31.6213 16.8079 31.5942 16.799C31.4353 16.7461 33.4453 16.747 33.6919 16.771C33.5046 16.7563 33.3173 16.7417 33.13 16.727C33.4498 16.6489 34.1577 16.7504 34.6203 16.7159C34.7698 16.7047 34.4828 16.6746 34.4887 16.6725C34.6567 16.6422 34.9262 16.6656 34.7247 16.7063C35.1348 16.6673 35.0749 16.7103 35.3895 16.7135C35.4057 16.7137 35.2706 16.6822 35.5196 16.6691C35.6363 16.663 36.2584 16.6629 36.3417 16.6354C36.376 16.6238 36.0604 16.5016 36.0214 16.6067C35.3447 16.5555 35.8052 16.6547 35.5423 16.6522C35.502 16.6517 35.5947 16.593 34.9327 16.6206C35.0588 16.5148 35.8211 16.5939 35.9518 16.5811C36.2213 16.5547 35.1107 16.5001 34.907 16.5826C35.0022 16.5 34.8282 16.5715 34.5806 16.5681C34.3096 16.5644 34.4277 16.5398 34.2811 16.5397C33.8801 16.539 34.0463 16.5973 33.7158 16.5448C34.0381 16.7075 33.1498 16.5663 32.891 16.5236C33.3121 16.5154 33.7333 16.5071 34.1544 16.4988C34.1303 16.4903 34.1063 16.4818 34.0822 16.4732C34.1931 16.4744 34.3041 16.4756 34.415 16.4768C34.3972 16.485 34.3794 16.4932 34.3617 16.5014C34.9337 16.4482 35.0732 16.508 35.1199 16.5087C35.7203 16.5156 36.4139 16.5151 37.0209 16.5153C37.112 16.5153 37.0495 16.4621 37.7133 16.5038C37.9251 16.517 37.7252 16.5585 37.9652 16.5523C38.2654 16.4397 38.2598 16.5295 38.349 16.5296C38.6052 16.5296 38.7618 16.5017 38.7854 16.5014C39.1019 16.4971 39.5655 16.5017 39.9131 16.4976C39.9197 16.4971 39.7388 16.4625 39.9646 16.4728C40.0439 16.4764 40.7552 16.6241 41.377 16.576C41.2153 16.566 41.0536 16.556 40.8918 16.5461C41.0721 16.5593 42.4528 16.5255 42.108 16.4842C41.8618 16.4577 41.4078 16.5546 41.3479 16.4627C41.5672 16.3122 45.0765 17.0782 45.1588 17.461C45.1871 17.4837 44.9854 17.383 45.0249 17.4143C45.0618 17.4292 45.6756 17.8948 45.7347 17.9818C45.7753 18.0269 45.5108 17.8148 45.5239 17.8423C45.5491 17.8522 46.2057 18.5379 46.2564 18.5689C46.1043 18.3897 45.6442 17.9167 45.9121 18.1391C45.9472 18.1676 46.0876 18.3534 46.126 18.3915C46.5018 18.7347 45.4583 17.6371 45.2378 17.5335C46.0589 18.0347 46.9533 19.2775 47.2852 20.34C47.3908 20.7738 47.0261 19.7312 47.1669 20.2142C47.4154 21.222 47.2894 20.4678 47.3043 20.4958C47.4234 20.7336 47.3789 21.6595 47.4927 21.6484C47.4922 22.0136 47.4668 21.9088 47.4851 22.2988C47.494 22.2477 47.5028 22.1967 47.5116 22.1456C47.5855 22.5765 47.3991 23.4884 47.3849 23.42C47.3469 23.2363 47.4062 22.7614 47.4048 22.7208C47.4015 22.6489 47.2782 22.5451 47.3855 21.8023C47.2976 21.5234 47.3317 22.8912 47.2713 22.2829C47.281 22.6856 47.2206 24.3422 47.2587 24.5806C47.2637 24.6091 47.3501 24.4766 47.3061 24.8858C47.2852 25.0801 47.2841 24.6116 47.2644 24.7005C47.204 24.9741 47.2427 28.6947 47.2459 29.4015C47.246 29.4474 47.2191 29.4305 47.2194 29.4756C47.2201 29.6141 47.2601 30.1187 47.2478 30.3666C47.2975 29.8531 47.3013 30.8503 47.2959 31.104C47.2875 31.489 47.2403 31.4652 47.2303 31.6315C47.1916 32.2726 47.3037 33.266 47.1989 33.764C47.3029 33.7368 47.1479 34.6255 47.147 35.0298C47.1462 35.3464 47.215 35.8059 47.257 35.3784C47.2522 35.9251 47.2716 36.5005 47.2779 37.0132C47.279 37.098 47.2482 36.9813 47.251 37.1259C47.2515 37.1391 47.2816 37.1572 47.2847 37.2814C47.311 38.3065 47.247 37.8077 47.2281 37.9995C47.2176 38.1236 47.2084 38.2212 47.2024 38.2964C47.2164 37.5727 47.1901 36.9748 47.192 36.7731C47.1177 36.9496 47.2384 38.0106 47.1575 38.5548C47.1552 38.5709 47.1245 38.5111 47.1226 38.5275C47.1225 38.5278 47.1225 38.5282 47.1224 38.5285C47.1247 38.7211 46.8793 39.7308 46.973 39.5361C47.001 39.4794 47.1507 39.0339 47.1954 38.4126C47.1897 38.5752 47.2411 38.4575 47.2403 38.4863C47.2401 38.8654 47.0014 39.6477 46.8749 39.9172C46.8491 39.9792 46.875 39.9846 46.8709 39.9949C46.7599 40.2404 46.7388 40.1067 46.6867 40.3875C46.3938 40.7795 47.0436 39.5535 46.9274 39.6146C47.0164 39.7582 45.2578 42.2187 45.1793 42.1608C45.166 42.161 45.1266 42.1793 45.0501 42.221C44.8887 42.3272 44.1485 42.7451 44.0101 42.8013C43.9882 42.8133 44.0249 42.8757 43.9961 42.8882C43.9231 42.9387 42.9251 43.187 42.4941 43.2439C42.7228 43.2325 42.9376 43.2081 43.1487 43.1717C41.8394 43.3979 42.0396 43.3094 42.4791 43.3191C42.5017 43.3172 42.524 43.3178 42.5461 43.3159C42.9145 43.2975 43.3235 43.211 43.3341 43.2132C43.3397 43.3107 41.2779 43.4401 41.6831 43.3473C41.7001 43.3423 42.6018 43.3519 42.1369 43.3188C42.0313 43.3142 41.5595 43.3252 41.5299 43.3204C41.341 43.2876 42.4898 43.2328 42.3688 43.1772C42.0128 43.2488 41.7101 43.2097 41.4055 43.2245C41.2693 43.23 41.2359 43.2659 41.219 43.2666C40.968 43.276 41.1089 43.2383 41.025 43.2392C40.9801 43.2399 40.4853 43.32 40.5788 43.2095C38.9486 43.2908 40.1278 43.2908 41.1279 43.2845C40.8119 43.3248 40.1924 43.3053 39.9144 43.3147C39.8146 43.318 39.8737 43.3549 39.7052 43.3623C39.3585 43.3775 37.7027 43.3351 37.2714 43.3251C37.5363 43.3121 37.4588 43.2719 37.2544 43.2747C37.0499 43.2775 37.2216 43.3311 37.1817 43.3369C37.139 43.3428 36.1796 43.3175 36.02 43.3245C36.7423 43.3051 36.5793 43.265 35.9663 43.2608C36.0549 43.2493 36.1436 43.2377 36.2322 43.2262C35.8729 43.2424 35.1174 43.1813 34.9097 43.1995C34.8771 43.2024 34.9942 43.2361 34.9759 43.2377C34.7937 43.2521 34.1739 43.2177 34.1451 43.2292C34.1206 43.2388 34.385 43.267 34.2869 43.2809C34.2664 43.2838 34.0115 43.2383 33.7605 43.2495C33.6673 43.2536 33.7234 43.2855 33.7 43.2873C33.5044 43.3026 33.6198 43.249 33.2624 43.2576C33.0006 43.264 32.8056 43.3164 32.4437 43.2991C33.6318 43.3659 32.6331 43.338 32.1363 43.3582C32.0566 43.3615 32.1249 43.4193 31.6492 43.3911C32.6615 43.2866 31.3605 43.3359 31.0944 43.3347C31.0798 43.3344 31.0748 43.2962 30.9443 43.2956C30.9332 43.2957 30.9491 43.3214 30.8278 43.3234C29.6773 43.342 30.4129 43.3129 30.1944 43.2875C30.1013 43.2767 29.5418 43.3131 29.3911 43.314C29.3565 43.3141 29.3724 43.2873 29.2384 43.2884C29.0012 43.2903 28.7887 43.3188 28.6322 43.3211C28.6139 43.3212 28.6131 43.2789 28.3164 43.2926C28.233 43.2965 28.1393 43.3115 28.2578 43.3236C28.6508 43.3636 29.3962 43.2944 29.8404 43.3343C30.2455 43.3706 28.9682 43.374 28.9018 43.3743C28.8774 43.3744 29.1269 43.3534 28.8734 43.3493C28.657 43.3458 28.2615 43.4188 27.939 43.4029C27.9144 43.4017 27.6567 43.3398 27.6686 43.3362C27.6794 43.3336 28.0751 43.3202 28.0176 43.3023C28.0108 43.3002 27.7593 43.3006 27.7265 43.2873C27.6862 43.2711 27.5778 43.1118 27.5241 43.1079C27.3863 43.098 27.476 43.1343 27.3869 43.1318C27.1957 43.1265 26.5326 43.0794 26.511 43.1346C26.6206 43.1378 26.7301 43.1411 26.8397 43.1444C26.2302 43.1501 26.49 43.1736 26.4036 43.1839C26.3106 43.1951 26.3368 43.1466 26.1314 43.142C26.0867 43.141 25.227 43.1512 25.2427 43.1715C25.718 43.1391 25.5418 43.1991 25.5637 43.2001C25.647 43.2041 25.7534 43.1704 25.8651 43.1711C26.6511 43.1764 25.8585 43.2294 26.044 43.2431C26.1079 43.2477 26.2351 43.219 26.2622 43.2204C26.3503 43.2252 26.3517 43.2628 26.4104 43.2597C26.5475 43.2527 26.3875 43.1995 26.3983 43.1967C26.5208 43.1634 27.0008 43.2049 26.702 43.2627C26.8814 43.2836 26.9024 43.2133 27.0446 43.2414C27.3274 43.2971 26.9038 43.2828 26.789 43.292C26.3772 43.3254 26.2551 43.2984 25.6723 43.3076C25.4624 43.3109 25.2137 43.345 25.1164 43.3469C25.055 43.3481 24.4758 43.2292 24.4587 43.4153C24.2336 43.3973 23.8803 43.2746 23.6483 43.2803C23.44 43.2854 23.5063 43.3512 23.4868 43.3537C23.457 43.3577 23.2052 43.3526 23.12 43.3619C23.0202 43.3729 23.07 43.398 22.9116 43.4082C22.5175 43.4336 22.5279 43.3664 22.4873 43.3621C22.0171 43.3116 22.223 43.4072 22.1186 43.4148C22.0171 43.4124 20.6963 43.4283 20.1584 43.344C20.3195 43.3558 20.4971 43.3616 20.6537 43.358C20.3717 43.2997 20.0492 43.312 20.0615 43.2375C19.9834 43.3531 19.4326 43.1385 19.271 43.0784C19.2059 43.0573 19.2042 43.0789 19.1229 43.0499C18.8001 42.9476 18.1426 42.5679 17.9923 42.4661C17.3014 42.0689 18.9926 43.2119 19.1862 43.2028C18.8516 43.1553 17.2804 42.1795 17.9596 42.695C18.0658 42.7759 18.2959 42.8465 18.3619 42.8788C18.8117 43.0959 18.4409 42.9594 18.4732 42.9816C18.5292 43.0208 18.8495 43.1157 18.9282 43.1509C18.9556 43.1613 18.7596 43.1437 19.2132 43.306C18.9586 43.3047 17.7726 42.6306 17.6452 42.5037C17.6027 42.4584 17.811 42.8243 17.0179 41.9684C17.0214 41.9839 17.025 41.9994 17.0286 42.015C16.5652 41.5616 16.1796 41.0278 15.8951 40.4414C15.9432 40.4976 16.1403 40.8034 15.9303 40.3981C15.8158 40.1615 15.8576 40.3559 15.8463 40.3348C15.4447 40.0503 15.3067 36.4158 15.3408 35.9819C15.3392 35.7859 15.3042 35.2393 15.3036 35.1976C15.3001 34.9484 15.3228 34.066 15.3179 33.8899C15.3147 33.78 15.2784 33.8845 15.2801 33.7863C15.2817 33.695 15.3169 33.7896 15.3183 33.7625C15.3311 33.5379 15.285 31.832 15.3181 31.4269C15.3082 31.6745 15.3784 32.91 15.4031 32.8851C15.4065 32.8798 15.4333 32.5795 15.4202 32.5176C15.4507 32.4152 15.358 32.0639 15.3762 31.8728C15.3783 31.8512 15.4302 31.9363 15.4397 31.5952C15.4429 31.4777 15.4024 31.1701 15.4478 30.8604C15.426 30.4122 15.4934 28.0554 15.4375 27.8937C15.4346 27.8889 15.4154 28.2208 15.3925 27.9966C15.362 27.6985 15.4646 27.9662 15.4734 27.6188C15.4748 27.5664 15.4644 26.5999 15.458 26.5683C15.4005 26.2755 15.3771 27.1201 15.3705 27.1083C15.3536 27.0788 15.3434 26.3771 15.3474 26.3485C15.3515 26.3214 15.4278 26.8937 15.3989 26.206C15.3898 26.2848 15.3806 26.3635 15.3715 26.4423C15.3538 26.1189 15.4065 26.0881 15.4098 26.0097C15.42 25.7661 15.3398 25.5026 15.4388 25.1123C15.4651 25.0091 15.4943 25.1804 15.4982 25.1675C15.5336 25.0436 15.439 24.8854 15.5095 24.699C15.5148 24.6849 15.5571 25.1188 15.5572 24.3605C15.5504 24.4127 15.5436 24.4649 15.5369 24.5171C15.5218 24.4102 15.5128 23.6424 15.5164 23.5391C15.5268 23.2374 15.5754 23.5005 15.5696 23.1973C15.503 23.3918 15.4943 22.4696 15.5516 22.5226C15.4841 22.4213 15.5095 21.5232 15.6336 20.9724C15.6845 20.6586 15.8619 20.0308 15.9102 19.9399C15.9618 19.8277 15.9903 19.8796 16.0927 19.6843C16.1184 19.6295 16.3849 19.014 16.7932 18.6023C16.8707 18.5208 17.0848 18.4034 16.968 18.57C16.7638 18.8485 16.3633 19.3695 16.4143 19.39C16.4539 19.4006 16.9148 18.6585 17.0919 18.4979C17.8719 17.7443 17.4761 18.2416 17.5041 18.228C17.5797 18.2041 18.0284 17.8431 18.0541 17.8373C18.1435 17.792 17.8357 18.0596 17.8494 18.085C17.8622 18.1095 18.3353 17.8417 18.2413 17.9227C18.1025 18.0281 17.691 18.3045 17.6714 18.3313C17.3952 18.6335 17.8524 18.3039 17.9948 18.2452C18.0371 18.2255 17.9091 18.3543 17.9404 18.3331C18.4202 18.0187 17.9653 18.1685 18.2879 17.9529C18.5826 17.7716 18.2377 18.056 18.2521 18.0522C18.2659 18.0421 18.6128 17.8253 18.6791 17.8132C18.6955 17.7897 17.8943 18.4692 17.972 18.4872C18.2134 18.2664 18.4789 18.0703 18.7633 17.9038C18.8108 17.9375 18.3875 18.1445 18.3528 18.182C18.279 18.247 18.5202 18.1171 18.5204 18.1398C18.52 18.1523 18.2832 18.3612 18.5271 18.2173C18.611 18.1705 18.7629 18.0197 19.1012 17.9057C18.0457 18.5297 18.8131 18.1535 18.8482 18.1511C18.8869 18.1525 18.4182 18.4696 19.0135 18.129C19.0903 18.2139 19.0148 18.1637 18.8563 18.2762C18.6702 18.4229 19.132 18.1413 18.4163 18.6082C18.4803 18.6096 19.0535 18.2468 19.0931 18.2438C19.1222 18.2328 19.0006 18.3248 19.052 18.3074C19.6597 18.121 19.2523 18.2696 19.4413 18.2537C19.4568 18.2472 20.0081 18.0798 19.5981 18.2332C18.8644 18.5376 18.5747 18.7347 18.5649 18.93C19.0465 18.6176 19.6505 18.2732 19.8246 18.2247C20.082 18.1459 19.8235 18.2551 19.8582 18.2544C19.8694 18.2525 20.091 18.1902 20.0948 18.1933C20.2764 18.2495 19.1198 18.4996 18.834 18.7691C18.9266 18.7284 19.0203 18.6915 19.1146 18.6586C18.9989 18.7249 18.8867 18.7971 18.7785 18.8751C19.3278 18.5552 18.7957 18.8688 18.736 19.043C18.7221 19.0806 19.0195 18.8081 18.6921 19.1344C18.9675 18.9396 18.8901 19.0193 19.1341 18.8356C19.1398 18.8652 18.6091 19.2865 18.4507 19.4994C19.1656 18.9157 18.6713 19.1155 19.4082 18.7764C19.522 18.6659 19.1798 18.8514 19.205 18.8318C19.2921 18.7499 19.542 18.6644 19.8214 18.467C19.8683 18.4354 19.6312 18.455 19.9594 18.3573C19.9961 18.3456 20.2171 18.3366 20.2147 18.3415C20.1932 18.379 19.9854 18.4187 19.981 18.4358C19.9765 18.4494 20.2023 18.3839 20.2044 18.3887C20.22 18.4273 20.0183 18.4503 20.05 18.4564C20.1228 18.4668 20.9317 18.3604 19.894 18.5992C20.7416 18.3269 19.9819 18.4978 19.6657 18.6518C19.5853 18.6894 19.5739 18.7206 19.4647 18.7817C19.324 18.8605 19.1563 18.9456 19.0886 18.9949C19.0196 19.0504 19.4611 18.8107 18.8581 19.2137C19.1775 19.0271 19.7353 18.6836 20.1007 18.6407C20.8162 18.5563 19.6471 18.8611 19.5553 18.9581C19.5266 18.9741 19.6406 18.9583 19.6216 18.9695C19.585 18.9745 19.0008 19.3042 18.9741 19.3787C18.9386 19.4396 19.1696 19.2331 19.2045 19.2489C19.2157 19.2468 18.6311 19.7709 18.9646 19.5091C19.1864 19.3246 19.6317 19.0008 19.752 19.0507C19.3636 19.2228 19.0111 19.4736 18.721 19.7818C18.9058 19.6385 19.1037 19.5178 19.3088 19.4216C18.9335 19.6826 18.6198 19.9554 18.4211 20.3465C19.1137 19.5739 18.2911 20.659 18.3333 20.6962C18.3347 20.6997 18.601 20.4013 18.6528 20.3649C18.446 20.6508 18.173 21.6159 18.4466 21.0952C18.3866 21.1852 18.3826 21.4431 18.3895 21.4402C18.43 21.4158 18.573 20.905 18.5853 21.003C18.5922 21.1121 18.4838 21.2199 18.452 21.3721C18.3379 22.1041 18.6588 21.9388 18.6059 23.1216C18.6144 23.0976 18.623 23.0735 18.6315 23.0494C18.6179 24.3651 18.6043 25.6807 18.5907 26.9963C18.664 27.5111 18.7086 28.881 18.7005 29.5539C18.699 29.6894 18.6605 30.3546 18.6538 30.4047C18.6408 30.4977 18.6359 29.9866 18.6117 30.2176C18.6067 30.2663 18.5905 31.3925 18.6315 31.312C18.6363 31.1858 18.6157 30.7908 18.6253 30.7262C18.6943 30.2721 18.6392 33.744 18.667 33.916C18.6803 33.8391 18.6936 33.7622 18.7069 33.6853C18.7004 33.9044 18.6938 34.1235 18.6873 34.3426ZM15.3942 24.2754C15.353 24.144 15.3839 23.8144 15.3724 23.6197C15.3562 23.3507 15.1978 22.8934 15.3566 23.0903C15.3691 23.4853 15.3816 23.8804 15.3942 24.2754ZM15.3329 30.0493C15.355 29.7844 15.4436 29.9898 15.4068 30.207C15.4026 30.2311 15.3031 30.4077 15.3329 30.0493ZM15.3749 27.272C15.3761 27.2832 15.3738 27.5121 15.3724 27.5201C15.3368 27.7254 15.344 27.0352 15.3749 27.272ZM16.6342 41.4746C16.3833 41.1539 16.4938 41.4406 16.6839 41.6164C16.6955 41.6273 16.6505 41.4954 16.6342 41.4746ZM16.4616 41.2425C16.3333 40.9509 15.8994 40.4646 16.1657 40.8999C16.1901 40.9443 16.4655 41.2586 16.4616 41.2425ZM15.3681 29.105C15.3958 29.1348 15.3824 29.4081 15.3758 29.5248C15.3505 29.5216 15.3712 29.2194 15.3681 29.105ZM15.3758 36.0334C15.3975 36.045 15.3963 35.0952 15.3677 35.0305C15.3798 35.1804 15.3562 36.0225 15.3758 36.0334ZM15.4426 38.6393C15.4373 38.5961 15.4025 38.1367 15.3873 38.1572C15.3629 38.3573 15.4446 38.8067 15.4426 38.6393ZM19.6532 43.4314C19.6802 43.4266 19.3681 43.2576 20.1476 43.4831C20.2649 43.5146 19.837 43.4735 19.8785 43.4837C19.9638 43.5098 20.0328 43.5259 20.0887 43.5358C19.711 43.4868 19.3283 43.3724 19.2946 43.3531C19.1335 43.2668 19.6409 43.4355 19.6532 43.4314ZM22.5686 43.5039C22.6245 43.484 22.9813 43.4947 23.0625 43.5029C23.0765 43.5044 23.0157 43.5568 23.1764 43.5529C23.3054 43.5496 23.1127 43.496 23.3639 43.5046C23.6179 43.5132 23.2786 43.5514 23.3008 43.5541C23.3305 43.5577 23.7233 43.5336 23.7111 43.5648C23.702 43.5879 23.2812 43.5723 23.1771 43.5772C23.0439 43.5835 23.2054 43.622 22.9827 43.6137C22.8428 43.6086 22.9204 43.5409 22.8908 43.5375C22.8661 43.5347 22.3769 43.5737 22.5694 43.5041C22.5692 43.5041 22.5689 43.504 22.5686 43.5039ZM20.1937 43.5489C20.1637 43.5469 20.1289 43.5429 20.0887 43.5358C20.123 43.5405 20.1583 43.5448 20.1937 43.5489ZM15.4239 25.0408C15.403 25.1785 15.3762 24.7698 15.4036 24.615C15.4256 24.6123 15.4271 25.0189 15.4239 25.0408ZM20.5702 43.5352C21.1147 43.5778 20.7424 43.6085 20.1937 43.5489C20.362 43.5591 20.3769 43.5132 20.5702 43.5352ZM15.4202 32.5176C15.4152 32.5345 15.4073 32.5453 15.3944 32.5467C15.4085 32.502 15.4161 32.498 15.4202 32.5176ZM15.3972 33.4573C15.4365 33.7795 15.435 33.1249 15.4068 33.1291C15.3961 33.131 15.3956 33.4444 15.3972 33.4573ZM16.9748 41.8694C16.9522 41.8354 17.4643 42.22 16.7791 41.6036C17.0945 41.9811 16.7398 41.6022 16.738 41.613C16.72 41.6557 17.3231 42.2323 17.4676 42.3473C17.6103 42.4003 17.0534 41.9841 16.9755 41.8701C16.9753 41.8699 16.975 41.8696 16.9748 41.8694ZM27.1494 43.5328C27.0686 43.5642 26.8125 43.5541 26.6396 43.5522C26.7204 43.5208 26.9765 43.5309 27.1494 43.5328ZM40.1839 16.4627C41.3683 16.4337 41.5218 16.5615 40.438 16.511C40.4168 16.51 40.112 16.4757 40.1839 16.4627ZM47.5041 24.0656C47.4484 24.1772 47.4395 23.8078 47.4625 23.5653C47.4677 23.5104 47.5241 23.3074 47.5351 23.5392C47.4676 23.5318 47.4418 23.8902 47.5041 24.0656ZM20.8764 43.5146C21.0449 43.4806 21.3702 43.5048 21.5673 43.5108C21.4437 43.5409 21.0985 43.5293 20.8764 43.5146ZM44.7149 17.2498C44.8605 17.3381 44.983 17.3613 44.9604 17.3417C44.8584 17.2524 44.5582 17.1298 44.7149 17.2498ZM19.2838 43.2372C19.2682 43.2162 19.9057 43.3655 19.9425 43.42C19.8031 43.3952 19.2939 43.26 19.2838 43.2372ZM26.8234 43.5161C26.7492 43.5048 27.1337 43.4846 27.25 43.4958C27.2406 43.5194 26.8721 43.5234 26.8234 43.5161ZM46.6795 19.1336C46.759 19.2648 46.9347 19.6051 46.9685 19.6364C47.0177 19.672 46.7472 19.1735 46.6795 19.1336ZM25.2845 16.5552C25.2704 16.5464 25.703 16.483 25.8953 16.4991C26.2604 16.5298 25.2998 16.5615 25.2845 16.5552ZM43.2064 16.6888C42.7444 16.5454 43.2588 16.6969 43.2489 16.6473C42.9441 16.5602 42.0789 16.4814 42.6632 16.5881C42.781 16.6102 43.0593 16.6506 43.2064 16.6888ZM43.6296 16.8198C43.6834 16.8186 44.0292 16.8872 43.7428 16.7916C43.6088 16.7483 43.38 16.7394 43.6296 16.8198ZM27.9646 16.5337C28.2806 16.5766 26.832 16.5536 26.7904 16.5461C26.7684 16.5421 26.754 16.5383 26.7458 16.5352C26.6926 16.5488 26.419 16.5512 26.3873 16.5168C26.4693 16.5196 26.6933 16.5166 26.7193 16.5204C26.7305 16.522 26.7389 16.5236 26.7446 16.5251C26.8412 16.4952 27.904 16.5255 27.9646 16.5337ZM30.3648 16.5779C30.0033 16.6413 29.9392 16.5335 29.9704 16.53C30.364 16.4859 30.1073 16.5654 30.1194 16.5691C30.1469 16.5753 30.4265 16.5384 30.3637 16.5779C30.3641 16.5779 30.3644 16.5779 30.3648 16.5779ZM28.4566 16.5514C28.4417 16.5528 28.1382 16.5495 28.1257 16.5478C27.8769 16.5115 28.7359 16.5208 28.4566 16.5514ZM24.4844 43.4285C24.7018 43.4392 24.4886 43.4789 24.3441 43.4646C24.3323 43.4632 24.2927 43.4191 24.4844 43.4285ZM43.8569 16.8855C43.947 16.8649 45.4397 17.7672 45.3671 17.6963C45.2875 17.5438 43.488 16.6553 43.8569 16.8855ZM47.4255 26.7426C47.426 26.5153 47.4825 26.7631 47.4614 26.8844C47.4536 26.9294 47.4254 26.7999 47.4255 26.7426ZM18.488 42.8475C18.189 42.7219 18.2984 42.6645 18.5262 42.8251C18.5353 42.8313 18.4998 42.8522 18.488 42.8475ZM47.458 24.9267C47.4922 25.7106 47.3132 25.5249 47.3736 24.5058C47.3816 24.5377 47.3896 24.5695 47.3975 24.6014C47.4244 23.4251 47.4102 24.521 47.4202 24.8091C47.424 24.9185 47.4539 24.8267 47.4582 24.9259C47.4581 24.9262 47.4581 24.9264 47.458 24.9267ZM47.4221 27.938C47.295 28.693 47.3778 27.2517 47.3612 26.8383C47.4137 27.239 47.4058 27.7608 47.4595 27.0512C47.4699 28.0888 47.4193 27.6568 47.4151 27.6982C47.4103 27.7473 47.4276 27.9058 47.4221 27.938ZM47.4213 25.9466C47.4175 25.903 47.4434 25.5742 47.4392 25.4557C47.4826 25.6213 47.4465 26.2363 47.4213 25.9466ZM32.8811 16.5484C32.8538 16.5824 32.7863 16.6075 32.5268 16.5948C32.607 16.5777 32.7727 16.563 32.8811 16.5484ZM15.5732 24.0258C15.5756 23.8471 15.5884 23.4913 15.5527 23.6004C15.5496 23.6123 15.5531 24.0253 15.5732 24.0258ZM47.1928 20.4699C47.2346 20.5058 47.4346 21.863 47.4083 21.3827C47.4294 21.2102 47.1139 20.049 47.1928 20.4699ZM42.0557 16.5835C42.145 16.5799 42.6073 16.6071 42.6236 16.6047C42.6524 16.5747 42.086 16.5509 42.0557 16.5835ZM15.608 23.1243C15.6115 23.1008 15.6053 22.5549 15.5888 22.6149C15.5576 22.7288 15.5959 23.205 15.608 23.1243ZM25.2752 43.3488C25.3208 43.3476 25.3812 43.3845 25.397 43.3849C25.434 43.3855 26.2693 43.3713 25.9502 43.4187C25.897 43.4266 24.6952 43.4084 24.5389 43.4037C24.4784 43.353 24.9918 43.4013 25.1167 43.396C25.1387 43.3951 25.1528 43.3526 25.2748 43.349C25.2749 43.349 25.2751 43.3489 25.2752 43.3488ZM31.5292 16.5843C31.4923 16.6165 30.5104 16.6379 30.5218 16.5988C30.8576 16.594 31.1934 16.5891 31.5292 16.5843ZM32.028 16.5896C32.2375 16.6125 31.7468 16.62 31.6022 16.6099C31.6006 16.5882 31.9975 16.5863 32.028 16.5896ZM44.4343 17.2954C44.5551 17.3479 44.2145 17.1247 44.2993 17.1568C44.3554 17.1752 44.6093 17.3272 44.6971 17.3636C44.7236 17.3722 44.4804 17.1856 44.399 17.1498C44.2853 17.0972 44.3794 17.1808 44.2567 17.1233C43.8481 16.9358 43.4708 16.7901 43.0544 16.7072C43.0171 16.6998 43.3019 16.7818 42.9834 16.7184C42.9423 16.7107 42.6126 16.6113 42.2288 16.6018C41.4874 16.7039 41.0929 16.6007 40.2682 16.6401C40.2988 16.6507 40.9049 16.6794 40.9406 16.6804C41.5403 16.6998 43.1052 16.6658 43.9923 17.0891C44.215 17.1821 44.1165 17.1153 44.2122 17.1569C44.2871 17.1918 44.1813 17.1862 44.4343 17.2954ZM15.5978 24.1208C15.6421 24.0356 15.6141 23.7368 15.6163 23.5459C15.5763 23.6131 15.6076 23.9343 15.5978 24.1208ZM36.4367 16.624C36.5323 16.6223 36.8289 16.6357 36.8534 16.6223C36.885 16.6049 36.4569 16.5939 36.4367 16.624ZM29.9849 43.3614C29.9941 43.3602 30.2242 43.3626 30.2329 43.364C30.4386 43.3996 29.7483 43.3923 29.9849 43.3614ZM35.4898 43.37C35.6643 43.3645 35.8404 43.3506 35.899 43.3866C35.7878 43.3811 35.4694 43.3951 35.4898 43.37ZM43.4376 43.1739C43.3809 43.1485 44.0563 42.9564 44.1766 42.8954C44.1446 42.9435 43.4839 43.2063 43.4376 43.1739ZM32.919 16.6965C32.5978 16.6937 32.6656 16.7651 32.4618 16.7328C32.4285 16.7273 32.3209 16.5786 32.6739 16.6343C32.7374 16.6443 32.4889 16.6797 32.919 16.6965ZM47.3751 24.3397C47.3439 24.2581 47.3532 24.0028 47.3557 23.8304C47.3788 23.869 47.3729 24.217 47.3751 24.3397ZM15.6437 22.1384C15.6696 22.0495 15.7238 21.0489 15.6727 21.2892C15.6516 21.3334 15.637 22.0832 15.6437 22.1384ZM21.7151 43.3736C22.0014 43.3389 21.4084 43.3282 21.2212 43.3621C21.306 43.3599 21.6958 43.3759 21.7151 43.3736ZM41.2603 43.3433C41.274 43.3419 41.5776 43.3452 41.5912 43.3469C41.84 43.3831 40.981 43.3739 41.2603 43.3433ZM33.6795 43.3127C33.7889 43.2842 34.508 43.3072 34.6692 43.3358C34.5141 43.3775 33.5438 43.3484 33.6795 43.3127ZM34.2403 16.6762C34.0112 16.6776 33.7938 16.6688 33.5834 16.6565C33.6277 16.6325 34.2161 16.6582 34.2403 16.6762ZM42.4791 43.3191C42.5017 43.3172 42.524 43.3178 42.5461 43.3159C42.5229 43.3172 42.5008 43.3181 42.4791 43.3191ZM39.3678 16.693C39.5598 16.7025 39.52 16.6585 39.5081 16.6571C39.3637 16.6429 39.1505 16.6823 39.3678 16.693ZM15.6631 23.9014C15.7029 23.8349 15.672 23.512 15.6815 23.3262C15.6501 23.3801 15.659 23.7518 15.6631 23.9014ZM47.3407 28.7465C47.2976 28.9877 47.2476 28.0064 47.2753 27.7996C47.302 27.7843 47.3466 28.7112 47.3407 28.7465ZM20.7895 43.31C20.7761 43.2847 20.2003 43.2657 20.3197 43.2921C20.4008 43.3156 20.8098 43.3328 20.7895 43.31ZM47.2935 27.3061C47.284 27.2139 47.3147 26.999 47.3335 27.0746C47.3575 27.1718 47.2962 27.3299 47.2935 27.3061ZM45.8849 18.4413C45.924 18.4765 46.3899 19.021 46.2345 18.7669C46.1253 18.5894 46.0667 18.5946 46.0358 18.5577C46.0117 18.5066 45.236 17.6545 45.8849 18.4413ZM47.3136 34.2428C47.3016 34.0383 47.3155 33.7909 47.3147 33.5768C47.3339 33.6641 47.3392 34.1558 47.3136 34.2428ZM22.4151 43.3057C22.3654 43.2931 21.0122 43.2855 21.7809 43.3243C21.8258 43.3265 22.566 43.3438 22.4151 43.3057ZM32.919 16.6965C32.9595 16.6968 33.0062 16.6983 33.0604 16.7014C33.0066 16.7002 32.9597 16.698 32.919 16.6965ZM36.566 16.7012C36.4921 16.7238 36.8645 16.7299 36.9744 16.7178C37.0083 16.6901 36.5762 16.698 36.566 16.7012ZM47.283 33.5606C47.2701 33.4372 47.2839 33.2134 47.2824 33.0606C47.3035 33.0865 47.3044 33.5072 47.283 33.5606ZM44.5927 42.5766C44.8812 42.4311 45.1965 42.1866 45.1845 42.162C45.1922 42.1611 45.2072 42.155 45.2302 42.1425C45.2548 42.1312 45.512 41.9026 45.6243 41.8038C46.4108 41.356 42.7376 43.6886 44.8709 42.3505C44.7813 42.4286 44.6885 42.5041 44.5927 42.5766ZM32.7065 43.2521C32.5675 43.2207 32.1782 43.26 32.2792 43.2724C32.3496 43.2808 32.8457 43.2836 32.7065 43.2521ZM38.0561 43.2335C38.0145 43.2279 37.6344 43.2498 37.6246 43.2664C37.8431 43.2838 38.2454 43.2595 38.0561 43.2335ZM31.6378 43.2153C31.5506 43.2106 31.4392 43.2612 31.4495 43.2634C31.5382 43.2819 31.7844 43.2435 31.6378 43.2153ZM33.5841 16.8328C33.714 16.8472 34.1278 16.8106 34.218 16.7772C34.2347 16.7837 34.2799 16.7921 34.3628 16.8022C34.3625 16.8022 34.3623 16.8022 34.362 16.8022C34.4739 16.8157 37.8189 16.8304 35.5752 16.7661C35.5049 16.764 35.6009 16.794 35.315 16.7887C35.2961 16.7884 35.2867 16.7639 35.2284 16.7627C35.0941 16.7601 34.3791 16.7447 34.2354 16.7644C34.2341 16.7599 34.2248 16.7555 34.2051 16.7516C34.0288 16.7163 33.4834 16.8216 33.5841 16.8328ZM38.8098 43.229C38.7333 43.2199 38.4911 43.2285 38.466 43.2501C38.5861 43.2607 38.9873 43.2502 38.8098 43.229ZM22.3731 43.217C22.2173 43.1993 21.8223 43.2325 21.9416 43.2501C22.0148 43.261 22.5529 43.2374 22.3731 43.217ZM36.3842 43.2405C37.2779 43.2661 36.5975 43.2385 36.7344 43.2068C36.6176 43.218 36.5009 43.2293 36.3842 43.2405ZM29.4478 16.7509C29.5903 16.7582 29.4228 16.8208 29.2659 16.7868C29.2166 16.776 29.368 16.747 29.4478 16.7509ZM23.0125 16.7704C23.1342 16.8258 22.5401 16.7932 22.7716 16.7552C22.7824 16.7539 23.0038 16.7683 23.0125 16.7704ZM27.5093 16.793C27.606 16.7553 27.669 16.7508 27.9415 16.7601C27.5381 16.7708 27.9123 16.8041 27.5093 16.793ZM45.1793 42.1608C45.1818 42.1608 45.1839 42.1606 45.1845 42.162C45.1818 42.1623 45.1802 42.1618 45.1793 42.1608ZM30.7975 43.2251C30.6857 43.1932 30.3721 43.1955 30.4655 43.2277C30.4745 43.2307 30.7517 43.2488 30.7975 43.2251ZM34.218 16.7772C34.2031 16.7715 34.2107 16.7678 34.2354 16.7644C34.2365 16.7687 34.2301 16.7727 34.218 16.7772ZM32.4811 43.1991C32.4699 43.2229 32.9472 43.2322 32.9663 43.2294C33.2402 43.188 32.6782 43.1976 32.4811 43.1991ZM18.765 42.6779C18.7345 42.6664 18.8964 42.8114 19.0244 42.8365C19.1222 42.8564 18.8756 42.7224 18.765 42.6779ZM26.5839 16.8084C26.4328 16.8084 26.22 16.8084 26.1808 16.7791C26.282 16.7836 26.587 16.7869 26.5839 16.8084ZM23.2451 16.8105C23.4237 16.7761 23.8317 16.7762 24.0922 16.7819C24.097 16.8272 23.4127 16.7999 23.2451 16.8105ZM33.1742 16.8159C33.1866 16.8177 33.5656 16.8312 33.5138 16.8009C33.4382 16.7565 33.0673 16.7994 33.1742 16.8159ZM19.6514 43.0398C19.8696 43.0755 19.3983 42.8878 19.1675 42.8469C19.0449 42.8323 19.6117 43.0405 19.6514 43.0398ZM29.8185 43.1833C29.5948 43.2008 30.1491 43.232 30.2265 43.2004C30.1235 43.1978 29.8979 43.1771 29.8185 43.1833ZM37.4276 43.1512C36.7228 43.0598 37.1067 43.2266 37.2317 43.2119C37.2493 43.2098 37.4448 43.1534 37.4276 43.1512ZM16.2391 19.9723C16.2767 19.8467 16.0517 20.2796 16.065 20.3511C16.0691 20.3927 16.2113 20.0499 16.2391 19.9723ZM47.2024 38.2964C47.2005 38.3347 47.1982 38.3735 47.1954 38.4126C47.1962 38.3832 47.1985 38.345 47.2024 38.2964ZM27.7885 43.0609C28.2846 43.1899 28.2325 43.0904 28.2756 43.091C28.3687 43.0924 28.5852 43.1273 28.7607 43.1215C28.5597 43.1361 28.3586 43.1506 28.1576 43.1651C28.3164 43.1744 29.6961 43.2219 29.7251 43.201C29.7665 43.1712 29.3323 43.1806 29.3197 43.1779C29.3015 43.1742 29.2336 43.0914 29.1934 43.0882C29.1271 43.0832 27.9734 43.0815 27.7885 43.0609ZM35.9538 43.1655C36.0672 43.1754 36.0994 43.2082 36.152 43.2004C36.1699 43.1977 36.1728 43.1664 36.2341 43.1583C36.1407 43.1607 36.0472 43.1631 35.9538 43.1655ZM26.9002 43.1769C26.7597 43.1386 27.3894 43.1531 27.4096 43.1574C27.5173 43.1833 27.0149 43.2081 26.9002 43.1769ZM32.2429 43.1713C32.2199 43.1691 31.7364 43.1571 31.7403 43.1784C31.8682 43.1945 32.5147 43.1992 32.2429 43.1713ZM36.3097 43.1561C36.4796 43.1598 36.8007 43.1913 36.7639 43.1442C36.7636 43.1442 36.7634 43.1442 36.7631 43.1442C36.612 43.1482 36.4608 43.1521 36.3097 43.1561ZM20.4157 43.0835C20.009 42.952 20.1871 43.0822 20.5636 43.1424C20.6773 43.1178 20.4851 43.1045 20.4157 43.0835ZM19.1768 42.722C19.0662 42.6952 18.0645 42.1496 18.1967 42.263C18.2368 42.3174 18.8342 42.6061 18.8637 42.6132C18.9045 42.6354 18.691 42.5911 19.0202 42.7252C19.0069 42.7042 19.2107 42.7405 19.1768 42.722ZM20.0849 42.986C19.7086 42.8541 19.5979 42.9249 19.8906 42.9962C20.0063 43.0223 20.1392 43.004 20.0849 42.986ZM21.551 43.0775C21.435 43.0673 21.1533 43.0538 20.9216 43.0874C21.2232 43.0918 21.4816 43.0938 21.7616 43.097C21.7935 43.0771 21.6495 43.0863 21.5502 43.0775C21.5505 43.0775 21.5507 43.0775 21.551 43.0775ZM21.3652 17.0804C21.6138 17.1102 21.0412 17.1217 21.0169 17.1143C20.945 17.09 21.2541 17.067 21.3652 17.0804ZM18.3387 18.7286C18.4031 18.6922 18.4627 18.6927 18.5797 18.5837C18.4325 18.6526 18.2878 18.7311 18.147 18.8186C18.0978 18.9524 18.2676 18.7675 18.3387 18.7286ZM18.9665 18.5838C18.9494 18.5971 19.0994 18.6196 18.8324 18.7099C18.6396 18.7631 19.515 18.2143 19.719 18.2254C19.5314 18.3052 19.1167 18.4728 18.9665 18.5838ZM20.6887 18.4795C20.6994 18.4837 20.3608 18.5399 20.3218 18.5455C20.1096 18.555 20.6271 18.4329 20.6887 18.4795ZM19.6205 18.7241C19.7769 18.6801 19.4529 18.8296 19.3555 18.8729C19.3362 18.8592 19.5951 18.7289 19.6205 18.7241ZM23.8823 18.5557C24.08 18.6249 24.2568 18.4759 23.9526 18.5059C23.9381 18.5073 23.8739 18.5523 23.8823 18.5557ZM20.374 18.6256C20.2159 18.635 20.5569 18.5585 20.6631 18.5638C20.6741 18.5797 20.3975 18.6217 20.374 18.6256ZM24.0215 18.7206C24.284 18.7704 24.1915 18.6032 24.1587 18.5965C24.0236 18.5699 23.5602 18.6355 23.4656 18.6518C24.1591 18.6267 23.8978 18.6971 24.0215 18.7206ZM25.2323 18.6202C25.4759 18.6024 24.8535 18.5683 24.7347 18.6149C24.8557 18.6126 25.1631 18.6254 25.2323 18.6202ZM26.7106 18.6738C26.8416 18.6798 27.231 18.6942 27.2964 18.6678C27.1534 18.6726 26.7659 18.6468 26.7106 18.6738ZM27.0071 18.7527C27.2118 18.7884 27.2609 18.6842 27.0249 18.7153C27.0157 18.7165 26.9996 18.7507 27.0071 18.7527ZM28.1578 18.7903C28.2921 18.8317 28.4454 18.7308 28.2278 18.7281C28.1632 18.7275 28.1436 18.7855 28.1578 18.7903ZM24.3501 18.9005C24.5424 18.9183 24.7901 18.846 24.3796 18.8381C24.5238 18.8271 24.668 18.816 24.8122 18.805C24.2744 18.7645 24.3139 18.8647 24.1595 18.8605C23.9437 18.8547 23.9607 18.772 24.0041 18.746C23.8272 18.7967 23.0755 18.7975 22.6412 18.8071C23.0229 18.8284 23.6425 18.8652 24.0192 18.8787C24.1268 18.8826 24.2311 18.8599 24.3229 18.8625C24.4699 18.8666 24.3393 18.8993 24.3493 18.9005C24.3496 18.9005 24.3498 18.9005 24.3501 18.9005ZM29.6705 18.7918C30.0652 18.8387 29.8156 18.7374 29.5926 18.7554C29.5831 18.7568 29.6607 18.7906 29.6705 18.7918ZM20.8358 18.8808C20.427 18.8858 20.6827 18.7242 19.8827 19.0679C20.2058 18.8893 19.8866 19.0194 19.9457 18.9728C19.9937 18.934 20.209 18.8885 20.0757 18.8868C20.2452 18.86 20.9616 18.7689 20.9968 18.7909C20.9965 18.7909 20.9961 18.7909 20.9958 18.7909C21.0153 18.7954 20.9667 18.888 20.8358 18.8808ZM26.7125 18.9387C26.8441 19.0616 26.8958 18.8666 27.1546 18.9684C27.4991 18.8205 26.2027 18.9684 26.0458 18.8434C27.4537 18.858 25.1156 18.7196 26.0984 18.9067C25.2887 18.8388 25.8331 18.9299 25.7081 18.9537C25.5744 18.9791 25.1164 18.9515 25.1397 18.9973C25.14 18.9973 25.1402 18.9973 25.1405 18.9973C25.4206 18.9941 25.7006 18.9909 25.9807 18.9877C25.7066 18.8889 26.279 18.9185 26.4731 18.999C26.5529 18.9789 26.6327 18.9588 26.7125 18.9387ZM25.1272 18.846C25.1548 18.8483 25.7641 18.8344 25.7247 18.8146C25.6434 18.802 24.7787 18.8171 25.1272 18.846ZM22.446 18.8676C22.6648 18.8678 23.003 18.8871 23.1222 18.8499C22.9034 18.8496 22.5651 18.8303 22.446 18.8676ZM33.7097 18.8746C33.9885 18.8441 33.1301 18.835 33.3784 18.8712C33.3907 18.8729 33.696 18.8761 33.7097 18.8746ZM27.3467 18.9201C27.6302 18.9577 27.4962 18.8381 27.2862 18.8693C27.274 18.8711 27.3336 18.9184 27.3467 18.9201ZM20.506 18.93C20.4935 18.9507 19.918 19.0776 19.824 19.1307C19.8626 19.068 20.5148 18.881 20.506 18.93ZM22.061 18.9772C22.4963 19.0825 23.0869 18.9609 23.1517 18.9635C23.2161 18.9662 23.1151 19.0123 23.1297 19.0135C23.1632 19.0161 23.8491 19.0122 23.8823 19.009C23.9061 19.0065 23.782 18.9418 23.9235 18.9214C23.6474 18.9582 22.3934 18.9352 22.3284 18.9424C22.278 18.9481 22.658 19.016 22.0618 18.9772C22.0616 18.9772 22.0613 18.9772 22.061 18.9772ZM23.3135 18.9776C23.1422 18.9505 23.6227 18.9471 23.739 18.9571C23.9973 18.9795 23.3355 18.9808 23.3135 18.9776ZM24.4692 19.0026C24.5241 19.0087 25.0193 19.0142 25.0614 18.984C24.827 18.9448 24.3447 18.9884 24.4692 19.0026ZM29.9798 18.9985C30.1085 18.9947 30.4622 19.0179 30.4824 18.9915C30.3537 18.9953 30 18.9722 29.9798 18.9985ZM18.9114 20.019C19.0331 19.9232 18.7956 20.1863 18.7285 20.265C18.7086 20.2572 18.8986 20.0251 18.9114 20.019ZM27.3947 19.1724C27.4708 19.1805 29.0245 19.1604 29.2424 19.1481C29.0292 19.1281 27.4895 19.1266 27.4197 19.1363C27.3993 19.1393 27.385 19.1712 27.3947 19.1724ZM24.0347 19.1846C23.8922 19.2235 23.7993 19.1769 23.7813 19.1763C23.6052 19.1703 23.2399 19.1791 23.32 19.1417C23.6308 19.1568 24.3183 19.1075 24.0347 19.1846ZM30.0903 19.1744C30.6178 19.1599 29.6045 19.119 29.7374 19.1596C29.746 19.1621 30.0357 19.1759 30.0903 19.1744ZM27.2211 19.1838C27.1048 19.2152 25.5507 19.1881 25.3012 19.188C25.5247 19.1301 25.7048 19.1741 26.0049 19.1712C26.0859 19.1703 26.0643 19.1462 26.073 19.1462C26.2133 19.145 26.1083 19.1729 26.1948 19.1733C26.2494 19.1735 27.3849 19.1395 27.2211 19.1838ZM23.9534 19.2115C23.8665 19.2338 22.8961 19.2433 22.8571 19.2374C22.5651 19.1934 23.878 19.2038 23.9534 19.2115ZM27.3637 19.2352C27.1966 19.3026 26.4248 19.2575 26.953 19.2239C27.0035 19.2209 27.2171 19.25 27.3637 19.2352ZM30.0339 19.2385C30.0599 19.2404 30.6098 19.2539 30.6197 19.2325C30.5402 19.2242 29.7386 19.2167 30.0339 19.2385ZM29.7488 19.3109C29.7621 19.3104 29.6331 19.2691 29.891 19.2743C29.9125 19.2748 29.9526 19.3212 30.2767 19.3043C30.3425 19.3008 30.4444 19.2701 30.4371 19.2681C30.0995 19.1953 29.0829 19.3348 29.7488 19.3109ZM23.9356 19.2491C23.9879 19.2687 23.8618 19.3269 23.748 19.2974C23.6993 19.2847 23.7903 19.2498 23.9356 19.2491ZM31.778 19.2573C31.4583 19.2925 32.462 19.2992 32.5132 19.2902C32.481 19.2682 31.81 19.2538 31.778 19.2573ZM18.8991 20.4568C18.8992 20.4567 18.8993 20.4566 18.8994 20.4564C18.7907 20.5946 18.83 20.4899 18.8244 20.4957C18.5797 20.7908 18.7011 20.7457 18.6779 20.7989C18.6377 20.918 18.5682 20.865 18.5213 21.0771C18.6083 20.7302 18.505 21.0358 18.4753 21.0363C18.3456 21.0274 18.7195 20.6186 18.8094 20.4712C18.8204 20.4479 18.6867 20.5816 18.7131 20.522C18.7983 20.313 19.3527 19.9565 18.8991 20.4568ZM23.6603 19.3025C23.5356 19.337 22.5891 19.3036 22.8401 19.2752C22.8804 19.2706 23.8437 19.2523 23.6603 19.3025ZM43.6507 40.0689C43.7485 39.9526 43.4573 40.1386 43.4145 40.188C43.3942 40.2165 43.6079 40.1231 43.6507 40.0689ZM40.999 40.5191C40.7287 40.5251 40.4437 40.6495 40.78 40.6302C40.8157 40.6281 41.0299 40.5363 40.999 40.5191ZM44.583 27.5364C44.5385 27.8186 44.6211 27.8018 44.6199 27.5946C44.6195 27.5215 44.5844 27.5275 44.583 27.5364ZM44.5842 38.2247C44.5809 38.2453 44.5629 38.424 44.5808 38.4254C44.6066 38.3532 44.613 38.1133 44.5842 38.2247ZM44.5712 27.4468C44.5861 27.6141 44.6458 27.3261 44.5874 27.1215C44.5922 27.2254 44.5697 27.4295 44.5712 27.4468ZM27.9468 19.4177C28.087 19.3838 28.4834 19.394 28.7111 19.3882C28.7357 19.4321 28.1095 19.4097 27.9468 19.4177ZM42.1144 40.5666C41.9263 40.6053 42.3188 40.6109 42.2715 40.5705C42.2706 40.5692 42.1254 40.5656 42.1144 40.5666ZM43.6104 20.0012C43.7224 20.0553 43.4375 19.7938 43.4954 19.8946C43.4991 19.8986 43.605 19.9976 43.6104 20.0012ZM42.1069 19.4203C42.2226 19.4284 42.5534 19.4799 42.4191 19.432C42.395 19.4212 42.1296 19.3943 42.1069 19.4203ZM18.7013 20.8226C18.7616 20.7995 18.632 21.0473 18.6134 21.0836C18.6026 21.0981 18.6169 20.8529 18.7013 20.8226ZM44.5759 29.3694C44.5815 29.5154 44.5708 29.8941 44.5945 29.9608C44.5896 29.7822 44.623 29.3213 44.5759 29.3694ZM42.8286 40.4327C42.6791 40.4348 42.4479 40.4863 42.5182 40.5371C42.7813 40.4709 42.4751 40.5008 42.8286 40.4327ZM44.5184 26.5063C44.5147 26.6234 44.5762 26.7131 44.5791 26.6999C44.6067 26.573 44.5424 26.3899 44.5184 26.5063ZM44.5691 35.2937C44.5428 35.3005 44.5547 35.6758 44.5716 35.6257C44.5773 35.6093 44.5903 35.2883 44.5691 35.2937ZM32.863 19.4326C33.035 19.4566 32.5097 19.4801 32.3544 19.4521C32.2788 19.4117 32.8413 19.4299 32.863 19.4326ZM44.5338 23.2589C44.4948 23.2415 44.5169 23.8282 44.5492 23.597C44.5573 23.5392 44.5469 23.2651 44.5338 23.2589ZM43.1507 19.7943C43.4028 19.8472 42.4418 19.4349 42.6827 19.585C42.7039 19.5858 43.1343 19.7797 43.1507 19.7943ZM41.2265 19.4839C41.2944 19.489 41.2606 19.6201 40.9796 19.5696C40.9427 19.563 41.1152 19.5284 41.0851 19.5204C41.0673 19.5159 40.4564 19.4975 40.4282 19.5006C40.3979 19.5041 40.4336 19.5461 40.4029 19.5508C40.3683 19.556 39.9921 19.5191 39.7952 19.5187C39.424 19.518 39.3839 19.553 39.3535 19.5531C39.2648 19.5534 39.1157 19.5285 38.936 19.5286C38.0299 19.5288 36.644 19.5585 35.9258 19.4843C36.565 19.5141 37.1741 19.4825 37.8102 19.4728C37.6239 19.5458 38.7459 19.4166 38.0896 19.5008C38.3918 19.4825 41.004 19.4679 41.2258 19.4839C41.226 19.4839 41.2263 19.4839 41.2265 19.4839ZM39.9321 40.4823C40.0982 40.4376 39.2462 40.4476 39.1739 40.4994C39.2864 40.5066 39.9116 40.4874 39.9321 40.4823ZM43.0649 40.1218C43.1033 40.0917 43.1027 40.0048 43.3255 39.9073C43.3257 39.9072 43.3258 39.9071 43.326 39.907C43.3913 39.8767 43.3376 39.9407 43.3525 39.9395C43.3582 39.941 43.5667 39.8385 43.4189 39.958C43.1861 40.1313 43.3607 39.9219 43.2331 40.0032C43.2202 40.0155 42.9884 40.1905 43.0057 40.1906C43.008 40.1912 43.0822 40.1443 43.0968 40.1413C43.1526 40.1306 43.142 40.1668 43.1494 40.1644C43.1797 40.162 43.5386 39.8651 43.6099 39.8433C43.6501 39.8552 43.0132 40.3038 42.9698 40.2878C42.9505 40.2913 42.9285 40.2183 42.9081 40.2186C42.8995 40.2222 42.6218 40.3455 42.58 40.3442C42.5685 40.345 42.5595 40.3449 42.5528 40.3446C42.6043 40.359 42.3291 40.4108 42.3403 40.3796C42.3379 40.3709 42.5255 40.3431 42.532 40.3419C42.5351 40.342 42.5378 40.3425 42.5403 40.3427C42.5015 40.3374 43.0931 40.1262 42.9481 40.1332C43.1009 40.0363 42.9515 40.2022 43.0649 40.1218ZM43.7278 39.5579C43.7212 39.577 43.7144 39.5962 43.7072 39.6154C43.9119 39.3728 44.1443 39.0777 44.2561 38.7256C44.2836 38.6367 44.2069 38.7248 44.2526 38.6128C44.2883 38.5234 44.3522 38.4246 44.3519 38.4792C44.3529 38.4936 44.2781 38.6816 44.2463 38.776C44.1521 39.0554 44.2084 39.0014 44.2045 39.0184C44.1984 39.0373 44.087 39.1931 44.0317 39.2795C43.8925 39.4957 43.8384 39.6171 43.5497 39.8275C43.6841 39.6709 43.5628 39.7063 43.7278 39.5579ZM44.305 21.2744C44.2778 21.27 44.2284 21.0635 44.1901 20.9953C44.2208 20.9948 44.2806 21.2014 44.305 21.2744ZM18.6187 36.0561C18.5755 35.9474 18.5648 36.762 18.6008 36.5473C18.6088 36.4998 18.6184 36.1584 18.6187 36.0561ZM18.8092 39.0007C18.8455 39.0549 18.7723 38.804 18.7436 38.815C18.7323 38.8193 18.8029 38.9943 18.8092 39.0007ZM44.3689 33.9463C44.3675 33.9257 44.3772 33.6259 44.3794 33.6165C44.4252 33.4179 44.3987 34.4046 44.3689 33.9463ZM20.9095 40.3527C20.5995 40.3743 21.6191 40.3971 21.295 40.3589C21.2762 40.357 20.9022 40.3536 20.9095 40.3527ZM22.4699 40.3465C22.3789 40.348 21.9746 40.3339 21.9693 40.3471C21.9612 40.3684 22.424 40.3829 22.4699 40.3465ZM44.3552 26.4272C44.3065 26.4711 44.3434 25.9379 44.3373 25.7526C44.386 25.7086 44.3491 26.2419 44.3552 26.4272ZM44.3193 29.7925C44.281 27.5448 44.385 28.0403 44.343 29.9264C44.3118 29.9291 44.3217 29.9344 44.3193 29.7925ZM44.3251 26.9143C44.3563 26.996 44.347 27.2512 44.3445 27.4237C44.3229 27.3927 44.3307 27.0387 44.3251 26.9143ZM18.6856 35.0861C18.725 35.227 18.6764 35.8513 18.6602 35.7403C18.6567 35.7145 18.6639 35.0343 18.6856 35.0861ZM44.3272 33.758C44.2799 33.8103 44.2992 33.1354 44.3097 33.0837C44.352 32.8754 44.3168 33.7033 44.3272 33.758ZM44.3136 23.237C44.2765 23.1178 44.2956 22.7793 44.296 22.5616C44.3278 22.6607 44.3142 23.0523 44.3136 23.237ZM44.2845 24.8087C44.2831 24.795 44.2864 24.4914 44.2881 24.4778C44.3244 24.229 44.3151 25.088 44.2845 24.8087ZM19.3184 20.5045C19.315 20.5091 19.2298 20.6072 19.2265 20.6104C19.1242 20.6788 19.3837 20.3818 19.3184 20.5045Z" fill="#FFF6E1"/>
<path d="M19.9751 18.4225C20.1624 18.3344 20.368 18.541 20.4811 18.6545C20.4832 18.6565 20.4853 18.6585 20.4874 18.6606C20.5143 18.6875 20.5421 18.7071 20.5748 18.7299C20.6527 18.7842 20.7579 18.8577 20.942 19.0973C21.0094 19.1333 21.0762 19.1711 21.142 19.211C21.8536 19.6413 22.5098 20.2055 23.155 20.7961C23.1644 20.8007 23.1739 20.8054 23.1835 20.8101C23.3688 20.9015 23.5986 21.0147 23.7133 21.1576C23.8593 21.3392 23.9507 21.4811 24.0246 21.6006C24.5364 22.0714 25.0539 22.5284 25.5994 22.9179C25.7703 23.0399 25.9441 23.1552 26.1212 23.2624C26.2844 23.361 26.4496 23.4546 26.6167 23.5436C26.7262 23.566 26.8337 23.579 26.9334 23.5911C27.0735 23.608 27.1982 23.6233 27.2912 23.6599C27.5153 23.7482 27.7272 23.9509 27.8845 24.1015C27.9102 24.1261 27.9344 24.1494 27.9571 24.1705C28.1056 24.2329 28.2549 24.2937 28.4043 24.354C28.4081 24.3731 28.4117 24.3927 28.4154 24.4128C28.4606 24.6632 28.6079 24.7494 28.8397 24.8854C28.9406 24.9447 29.0575 25.0134 29.1891 25.1091C29.2738 25.1708 29.2899 25.2689 29.303 25.3491C29.3069 25.3726 29.3106 25.3947 29.3156 25.4138C29.3329 25.4792 29.3899 25.4543 29.4572 25.4248C29.5445 25.3867 29.6493 25.3408 29.7074 25.4746C29.8925 25.9011 30.0904 25.8074 30.2402 25.7366C30.2841 25.7158 30.3239 25.697 30.358 25.6939C30.4685 25.6837 30.5644 25.818 30.6214 25.9573C30.6665 26.0676 30.839 26.0896 30.9839 26.0724C31.0386 26.0659 31.0953 26.0992 31.162 26.1386C31.231 26.1793 31.3107 26.2267 31.4104 26.2425C31.6624 26.2825 31.7946 26.308 31.9007 26.3287C31.931 26.3345 31.9591 26.3402 31.9874 26.3455C32.0766 26.3622 32.1822 26.3954 32.2892 26.429C32.4171 26.4693 32.5469 26.5102 32.6529 26.524C32.8668 26.7066 33.0766 26.8993 33.2864 27.0918C33.394 27.191 33.4446 27.4136 33.424 27.7176C33.4033 28.0218 33.314 28.3808 33.1724 28.7232C33.0309 29.0657 32.8471 29.3675 32.6583 29.5701C32.4695 29.7724 32.2918 29.8572 32.1617 29.8126C31.8996 29.7221 31.6376 29.6316 31.3801 29.53C31.0664 29.4062 30.7596 29.2661 30.4677 29.0896C30.2636 28.9661 30.0628 28.8345 29.8647 28.6963C29.8443 28.6821 29.824 28.6677 29.8036 28.6534C29.5973 28.634 29.3944 28.6071 29.2625 28.5615C29.1536 28.5239 29.0996 28.435 29.0533 28.3589C29.0215 28.3065 28.9933 28.2602 28.9535 28.2407C28.9321 28.2303 28.9018 28.2185 28.8654 28.2043C28.7164 28.1461 28.4635 28.0473 28.2831 27.8353C28.2031 27.7413 28.1223 27.6025 28.0452 27.47C27.935 27.2805 27.8322 27.1039 27.7495 27.089C27.6044 27.063 27.4786 26.9347 27.3676 26.8212C27.2616 26.713 27.1689 26.6184 27.0854 26.6392C26.9856 26.664 26.9359 26.5993 26.8621 26.5032C26.8109 26.4365 26.748 26.3549 26.6487 26.2774C26.5341 26.1878 26.468 26.0881 26.4118 26.0034C26.3328 25.8841 26.2733 25.7944 26.1255 25.8038C25.9612 25.8143 25.8044 25.7894 25.7106 25.698C25.6679 25.6563 25.6118 25.6262 25.5534 25.5949C25.476 25.5535 25.3947 25.5098 25.3352 25.4344C25.2862 25.3723 25.2642 25.2759 25.2448 25.1907C25.2387 25.164 25.2329 25.1386 25.2266 25.1155C25.1786 25.0876 25.1305 25.06 25.082 25.0332C25.0699 25.0392 25.0569 25.0462 25.0434 25.0533C24.9755 25.089 24.8922 25.1326 24.8121 25.1311C24.6852 25.1285 24.6108 25.0371 24.5325 24.9404C24.4714 24.8651 24.408 24.7866 24.3153 24.7449C24.2521 24.7165 24.1726 24.7024 24.0938 24.6884C23.9767 24.6676 23.8612 24.6469 23.8025 24.5802C23.7806 24.5552 23.7756 24.5 23.7708 24.4452C23.7708 24.4449 23.7708 24.4445 23.7708 24.4442C23.7705 24.4405 23.7701 24.4368 23.7698 24.4331C23.5887 24.3634 23.4062 24.2968 23.2229 24.2322C23.204 24.2341 23.1849 24.2358 23.166 24.2374C23.0737 24.2452 22.9841 24.2528 22.9099 24.2958C22.8296 24.3423 22.6883 24.3122 22.5394 24.2805C22.442 24.2597 22.3412 24.2382 22.2521 24.2371C22.2001 24.2365 22.1781 24.1694 22.1556 24.1004C22.1346 24.0359 22.113 23.9698 22.0659 23.9544C22.0423 23.9467 22.0117 23.9505 21.9792 23.9546C21.9505 23.9583 21.9201 23.9621 21.8916 23.9585C21.865 23.955 21.8249 23.9015 21.7733 23.833C21.7415 23.7907 21.7052 23.7428 21.6652 23.6972C21.5297 23.6487 21.3946 23.5992 21.2603 23.5478C21.2187 23.5698 21.176 23.6051 21.1322 23.6572C21.1007 23.6946 21.0676 23.7419 21.0336 23.7902C20.9874 23.856 20.9396 23.9239 20.8923 23.9726C20.8554 24.0106 20.8275 24.0177 20.8223 23.9895C20.8199 23.9764 20.8224 23.9559 20.8246 23.9373C20.8272 23.916 20.8294 23.8971 20.8238 23.8943C20.8197 23.8923 20.8103 23.9027 20.7988 23.9153C20.7804 23.9354 20.7566 23.9614 20.7403 23.9529C20.6794 23.9214 20.6165 23.8705 20.5548 23.8205C20.4863 23.7649 20.4193 23.7106 20.3583 23.6858C20.29 23.658 20.2189 23.5549 20.1475 23.452C20.0977 23.3801 20.0478 23.3084 19.9988 23.2618C19.9507 23.216 19.884 23.2089 19.8193 23.2021C19.7417 23.194 19.667 23.1863 19.6314 23.1122C19.6242 23.0972 19.6324 23.0371 19.6426 22.962C19.6499 22.9087 19.6581 22.8477 19.6627 22.7897C19.5952 22.749 19.5287 22.7061 19.4629 22.6613C19.4576 22.6669 19.4522 22.6726 19.4467 22.6785C19.4466 22.6786 19.4465 22.6788 19.4464 22.6789C19.3226 22.811 19.1532 22.9916 19.1026 22.7921C19.0897 22.7414 19.0989 22.6677 19.1071 22.6013C19.1152 22.5361 19.1225 22.4778 19.1071 22.4554C19.0897 22.4299 19.049 22.4483 19.0047 22.4683C18.9425 22.4964 18.873 22.5278 18.8502 22.4456C18.8487 22.44 18.8471 22.4339 18.8453 22.4277C18.8285 22.3689 18.8036 22.282 18.803 22.1369C18.672 22.0191 18.5432 21.8959 18.4158 21.7695C18.2035 21.5587 17.9949 21.3387 17.7864 21.1188C17.6851 21.0114 17.6385 20.7861 17.6604 20.4839C17.6825 20.1813 17.7704 19.8284 17.9093 19.4925C18.0482 19.1565 18.2287 18.8599 18.4156 18.657C18.6023 18.4545 18.7793 18.3644 18.9111 18.398C19.1257 18.4534 19.3405 18.5087 19.5533 18.5687C19.5662 18.5678 19.579 18.5671 19.5915 18.5668C19.6851 18.5645 19.7929 18.5115 19.9009 18.4584C19.9257 18.4463 19.9505 18.434 19.9751 18.4225Z" fill="#FFF6E1"/>
<path d="M31.9187 26.176C31.9672 25.954 32.2013 25.9082 32.33 25.8829C32.3323 25.8824 32.3347 25.8819 32.337 25.8813C32.3675 25.8753 32.3942 25.8637 32.4254 25.8498C32.4999 25.8168 32.6005 25.7723 32.8426 25.767C32.9004 25.7313 32.959 25.6973 33.0183 25.6654C33.6587 25.3212 34.349 25.1129 35.0492 24.9315C35.057 24.9263 35.0649 24.921 35.0729 24.9156C35.2273 24.8124 35.4188 24.6845 35.5659 24.6769C35.7529 24.6672 35.8868 24.6795 35.9979 24.6926C36.5547 24.5501 37.1063 24.3938 37.6328 24.1687C37.7978 24.0982 37.9602 24.0208 38.1197 23.9351C38.2665 23.8562 38.4114 23.772 38.5546 23.6834C38.627 23.6018 38.6928 23.5158 38.7537 23.4361C38.8394 23.3242 38.9158 23.2246 38.9878 23.1668C39.1613 23.0274 39.3965 22.9737 39.5711 22.9338C39.5997 22.9272 39.6266 22.9211 39.6514 22.915C39.7687 22.8252 39.8855 22.7338 40.0021 22.6419C40.0155 22.6509 40.0291 22.6606 40.0431 22.6705C40.2168 22.7941 40.3477 22.721 40.5538 22.6062C40.6435 22.5562 40.7476 22.4983 40.8756 22.4452C40.9581 22.411 41.0253 22.4609 41.0801 22.5017C41.0963 22.5136 41.1114 22.5248 41.1255 22.5329C41.1738 22.5604 41.1897 22.494 41.2084 22.4157C41.2328 22.3141 41.262 22.1921 41.3731 22.2284C41.7272 22.3441 41.7782 22.1091 41.8167 21.9313C41.828 21.8791 41.8383 21.832 41.8548 21.8C41.9083 21.6962 42.0402 21.6996 42.1539 21.7404C42.244 21.7728 42.3502 21.6356 42.4181 21.4971C42.4438 21.4448 42.4942 21.4167 42.5536 21.3838C42.6151 21.3498 42.6864 21.3107 42.7496 21.2334C42.9094 21.0382 42.9959 20.9387 43.0655 20.8589C43.0853 20.8362 43.1038 20.8152 43.1222 20.7938C43.1803 20.7263 43.2571 20.6552 43.3348 20.5832C43.4279 20.4971 43.5223 20.4097 43.5876 20.3257C43.8119 20.2569 44.0399 20.1983 44.2679 20.1397C44.3851 20.1098 44.5451 20.2106 44.7153 20.4271C44.8855 20.6438 45.0513 20.9565 45.1791 21.3043C45.3069 21.6521 45.3877 22.0105 45.4066 22.3086C45.4254 22.6064 45.3802 22.8179 45.2833 22.9031C45.088 23.0742 44.8927 23.2454 44.6932 23.4053C44.4502 23.6001 44.2011 23.7782 43.9385 23.9194C43.7548 24.0181 43.568 24.1086 43.3787 24.1925C43.3593 24.2011 43.3397 24.2096 43.3202 24.2181C43.1973 24.3867 43.0719 24.5474 42.9735 24.6335C42.8923 24.7046 42.8102 24.6941 42.7399 24.6851C42.6915 24.6789 42.6487 24.6734 42.6156 24.6957C42.5978 24.7077 42.5745 24.7266 42.5463 24.7493C42.4313 24.8422 42.2359 24.9998 42.0123 25.02C41.913 25.0289 41.7867 25.0093 41.6661 24.9906C41.4937 24.9638 41.3329 24.9389 41.2795 25.0018C41.1857 25.1123 41.0413 25.139 40.9138 25.1626C40.7921 25.185 40.6857 25.2047 40.653 25.2916C40.614 25.3955 40.5486 25.3969 40.4515 25.399C40.3841 25.4005 40.3015 25.4025 40.2017 25.4391C40.0865 25.4814 39.9914 25.4744 39.9106 25.4684C39.7969 25.4601 39.7113 25.4538 39.6372 25.5898C39.5548 25.7409 39.4554 25.8624 39.3503 25.8851C39.3024 25.8955 39.2542 25.9251 39.204 25.956C39.1376 25.9969 39.0677 26.0399 38.9906 26.0429C38.9271 26.0455 38.8578 26.0019 38.7965 25.9633C38.7774 25.9513 38.7591 25.9398 38.7419 25.9303C38.6994 25.9542 38.657 25.9785 38.6148 26.0035C38.6119 26.0181 38.609 26.0341 38.606 26.0506C38.5906 26.1335 38.5717 26.2352 38.5276 26.3045C38.4577 26.4143 38.363 26.42 38.2631 26.4257C38.1852 26.4302 38.1042 26.4348 38.0294 26.489C37.9783 26.526 37.927 26.5866 37.8762 26.6467C37.8006 26.7359 37.726 26.8239 37.6545 26.8319C37.6278 26.8349 37.5922 26.8032 37.5569 26.7717C37.5568 26.7715 37.5566 26.7713 37.5564 26.7711C37.554 26.7689 37.5516 26.7668 37.5492 26.7647C37.4099 26.8783 37.2718 26.9952 37.1344 27.114C37.1253 27.1319 37.116 27.1498 37.1068 27.1674C37.0617 27.2536 37.0179 27.3373 37.0035 27.4304C36.9879 27.5314 36.8937 27.6358 36.7945 27.7459C36.7296 27.818 36.6624 27.8925 36.6137 27.97C36.5852 28.0153 36.5334 27.9909 36.4801 27.9656C36.4303 27.942 36.3792 27.9178 36.3446 27.9492C36.3273 27.9649 36.3131 27.9942 36.298 28.0255C36.2847 28.053 36.2706 28.0822 36.253 28.1049C36.2367 28.126 36.1831 28.1263 36.1145 28.1269C36.0721 28.1273 36.0239 28.1279 35.9752 28.1333C35.8732 28.2207 35.7708 28.307 35.6677 28.3915C35.6584 28.4424 35.6564 28.503 35.6638 28.5754C35.6691 28.6274 35.6794 28.6874 35.6899 28.7488C35.7042 28.8323 35.7189 28.9186 35.7224 28.9919C35.7252 29.0491 35.7143 29.0784 35.6948 29.0645C35.6856 29.058 35.6747 29.0425 35.6649 29.0284C35.6536 29.0123 35.6435 28.9979 35.6388 29.0011C35.6354 29.0033 35.6365 29.0184 35.6378 29.0368C35.6399 29.066 35.6426 29.1038 35.6287 29.1127C35.5771 29.1456 35.5128 29.1676 35.4497 29.1891C35.3796 29.213 35.3111 29.2365 35.2634 29.2739C35.21 29.3157 35.1101 29.311 35.0103 29.3065C34.9406 29.3034 34.8709 29.3005 34.8166 29.313C34.7635 29.3254 34.7232 29.3793 34.6843 29.4317C34.6376 29.4947 34.5927 29.5553 34.5293 29.5382C34.5165 29.5347 34.4851 29.4883 34.4458 29.4303C34.4179 29.3891 34.386 29.3422 34.3539 29.3003C34.2932 29.3329 34.2317 29.3634 34.1696 29.392C34.1701 29.4003 34.1706 29.4088 34.1711 29.4174C34.1711 29.4176 34.1711 29.4178 34.1712 29.418C34.1831 29.6129 34.1994 29.8795 34.0532 29.7938C34.016 29.7721 33.977 29.7159 33.9419 29.6653C33.9074 29.6157 33.8766 29.5713 33.8549 29.5701C33.8303 29.5688 33.8193 29.6166 33.8073 29.6685C33.7905 29.7415 33.7717 29.823 33.7105 29.7894C33.7063 29.7871 33.7018 29.7846 33.6971 29.7821C33.653 29.7585 33.5877 29.7236 33.5009 29.6295C33.36 29.6676 33.2172 29.7004 33.0731 29.7298C32.8329 29.7788 32.5892 29.8185 32.3455 29.8582C32.2269 29.877 32.0674 29.771 31.8991 29.5545C31.7306 29.3377 31.5676 29.0302 31.4423 28.6889C31.3169 28.3477 31.2374 27.9956 31.2173 27.6991C31.1972 27.4028 31.239 27.1886 31.3301 27.0947C31.4789 26.9423 31.6278 26.7897 31.7784 26.642C31.7847 26.6301 31.7912 26.6184 31.7978 26.6071C31.8469 26.5234 31.8735 26.3941 31.9001 26.2647C31.9062 26.235 31.9123 26.2052 31.9187 26.176Z" fill="#FFF6E1"/>
</g>
<defs>
<clipPath id="clip0_151_5374">
<rect width="62.32" height="62.27" fill="white"/>
</clipPath>
</defs>
</svg>
