<svg width="561" height="74" viewBox="0 0 561 74" fill="none" xmlns="http://www.w3.org/2000/svg">
<path d="M23.0391 34.5723C23.3971 35.0931 23.918 35.4186 24.6016 35.5488C25.3177 35.679 25.9199 35.7441 26.4082 35.7441H26.75C26.8151 35.7116 26.9616 35.6628 27.1895 35.5977C27.4173 35.5 27.6615 35.4186 27.9219 35.3535C28.1823 35.2884 28.4102 35.2233 28.6055 35.1582C28.8333 35.0931 28.9798 35.0605 29.0449 35.0605C29.7285 34.8652 30.5423 34.7188 31.4863 34.6211C32.4303 34.4909 33.2279 34.2467 33.8789 33.8887C33.944 33.8236 34.123 33.6934 34.416 33.498C34.709 33.3027 35.0345 33.0911 35.3926 32.8633C35.7832 32.6029 36.1413 32.3587 36.4668 32.1309C36.8249 31.8704 37.0853 31.6914 37.248 31.5938C37.3132 31.5612 37.4434 31.4473 37.6387 31.252C37.834 31.0241 37.9479 30.8939 37.9805 30.8613C38.2734 30.4056 38.5664 29.901 38.8594 29.3477C39.1849 28.7943 39.5104 28.306 39.8359 27.8828C39.901 27.7526 39.9987 27.6224 40.1289 27.4922C40.2917 27.2969 40.4544 27.1504 40.6172 27.0527C40.6497 27.0527 40.6823 26.9714 40.7148 26.8086C40.7799 26.6458 40.8288 26.4505 40.8613 26.2227C40.8939 25.9948 40.9102 25.7832 40.9102 25.5879C40.9427 25.3926 40.959 25.2624 40.959 25.1973C41.252 23.9277 41.4961 22.6745 41.6914 21.4375C41.9193 20.168 42.0332 18.8496 42.0332 17.4824V14.7969C41.7728 14.6016 41.5449 14.3737 41.3496 14.1133C41.1868 13.8203 41.0241 13.5273 40.8613 13.2344C40.7311 12.9414 40.5846 12.6484 40.4219 12.3555C40.2591 12.0299 40.0638 11.7207 39.8359 11.4277C39.7057 11.2975 39.4779 11.0534 39.1523 10.6953C38.8594 10.3372 38.5339 9.96289 38.1758 9.57227C37.8177 9.18164 37.4596 8.82357 37.1016 8.49805C36.776 8.13997 36.5319 7.87956 36.3691 7.7168C35.9134 7.61914 35.3275 7.52148 34.6113 7.42383C33.9277 7.32617 33.3092 7.19596 32.7559 7.0332C32.0723 6.80534 31.4375 6.5612 30.8516 6.30078C30.2656 6.04036 29.5983 5.91016 28.8496 5.91016C28.2962 5.91016 27.6615 5.94271 26.9453 6.00781C26.2292 6.07292 25.6921 6.26823 25.334 6.59375C24.5853 7.17969 24.0319 7.76562 23.6738 8.35156C23.3158 8.90495 23.0553 9.49089 22.8926 10.1094C22.7624 10.6953 22.681 11.3464 22.6484 12.0625C22.6484 12.7786 22.6322 13.5762 22.5996 14.4551C22.5996 14.5853 22.5833 14.8945 22.5508 15.3828C22.5182 15.8385 22.4857 16.3431 22.4531 16.8965C22.4206 17.4173 22.388 17.9219 22.3555 18.4102C22.3229 18.8984 22.3066 19.2077 22.3066 19.3379C22.3066 19.7285 22.2904 20.2982 22.2578 21.0469C22.2578 21.7956 22.2578 22.5931 22.2578 23.4395C22.2578 24.2858 22.2415 25.1159 22.209 25.9297C22.209 26.7435 22.209 27.3945 22.209 27.8828C22.209 28.9896 22.2578 30.0638 22.3555 31.1055C22.4531 32.1471 22.681 33.3027 23.0391 34.5723ZM15.5195 73C13.599 73 11.6947 73.0488 9.80664 73.1465C7.91862 73.2767 6.04688 73.3418 4.19141 73.3418C3.08464 73.3418 2.53125 72.8372 2.53125 71.8281C2.53125 71.4701 2.5638 71.1283 2.62891 70.8027C2.72656 70.4447 2.9707 70.168 3.36133 69.9727C4.50065 69.875 5.73763 69.7448 7.07227 69.582C8.4069 69.3867 9.64388 69.0124 10.7832 68.459C11.0111 68.3288 11.2064 68.0846 11.3691 67.7266C11.5645 67.3359 11.7109 66.9128 11.8086 66.457C11.9388 66.0013 12.0365 65.5618 12.1016 65.1387C12.1667 64.6829 12.2155 64.3249 12.248 64.0645V62.4531V61.7695C12.248 61.6393 12.2643 61.444 12.2969 61.1836C12.3294 60.8906 12.362 60.5814 12.3945 60.2559C12.4596 59.9303 12.5085 59.6374 12.541 59.377C12.5736 59.084 12.5898 58.8887 12.5898 58.791C12.5898 58.3027 12.5898 57.554 12.5898 56.5449C12.5898 55.5033 12.5898 54.3477 12.5898 53.0781C12.6224 51.8086 12.6387 50.474 12.6387 49.0742C12.6712 47.6419 12.6875 46.291 12.6875 45.0215C12.7201 43.7194 12.7363 42.5638 12.7363 41.5547C12.7363 40.5456 12.7363 39.7969 12.7363 39.3086C12.7363 38.4297 12.7363 37.3555 12.7363 36.0859C12.7363 34.8164 12.7201 33.4818 12.6875 32.082C12.6875 30.6497 12.6712 29.2337 12.6387 27.834C12.6387 26.4017 12.6224 25.1159 12.5898 23.9766C12.5898 22.8047 12.5898 21.8281 12.5898 21.0469C12.5898 20.2656 12.5898 19.8099 12.5898 19.6797C12.5898 19.2565 12.5736 18.5404 12.541 17.5312C12.541 16.4896 12.5247 15.3991 12.4922 14.2598C12.4922 13.1204 12.4596 12.0625 12.3945 11.0859C12.362 10.0768 12.3132 9.37695 12.248 8.98633C12.0853 8.66081 11.7598 8.40039 11.2715 8.20508C10.7832 8.00977 10.2461 7.86328 9.66016 7.76562C9.07422 7.63542 8.48828 7.55404 7.90234 7.52148C7.34896 7.45638 6.92578 7.40755 6.63281 7.375C6.4375 7.375 6.0957 7.35872 5.60742 7.32617C5.11914 7.29362 4.59831 7.26107 4.04492 7.22852C3.49154 7.19596 2.9707 7.16341 2.48242 7.13086C1.99414 7.09831 1.66862 7.06576 1.50586 7.0332C1.37565 6.9681 1.16406 6.78906 0.871094 6.49609C0.610677 6.17057 0.447917 5.97526 0.382812 5.91016V5.42188C0.382812 4.90104 0.496745 4.55924 0.724609 4.39648C0.952474 4.20117 1.32682 4.07096 1.84766 4.00586C2.27083 3.97331 3.00326 3.92448 4.04492 3.85938C5.11914 3.79427 6.24219 3.72917 7.41406 3.66406C8.61849 3.56641 9.75781 3.48503 10.832 3.41992C11.9062 3.35482 12.6549 3.32227 13.0781 3.32227C13.2083 3.32227 13.4036 3.32227 13.6641 3.32227C13.9245 3.28971 14.2012 3.27344 14.4941 3.27344C14.7871 3.27344 15.0801 3.27344 15.373 3.27344C15.666 3.24089 15.9102 3.22461 16.1055 3.22461C16.4961 3.15951 16.8216 3.11068 17.082 3.07812C17.3424 3.01302 17.5866 2.98047 17.8145 2.98047C18.3027 2.98047 19.263 2.98047 20.6953 2.98047C22.1276 2.98047 23.804 2.99674 25.7246 3.0293C27.6777 3.06185 29.7448 3.0944 31.9258 3.12695C34.1068 3.15951 36.1901 3.22461 38.1758 3.32227C38.2734 3.32227 38.4362 3.35482 38.6641 3.41992C38.8919 3.48503 39.1361 3.56641 39.3965 3.66406C39.6569 3.72917 39.901 3.79427 40.1289 3.85938C40.3568 3.92448 40.5195 3.97331 40.6172 4.00586C40.6497 4.00586 40.7474 4.03841 40.9102 4.10352C41.1055 4.13607 41.3008 4.16862 41.4961 4.20117C41.6914 4.23372 41.8704 4.28255 42.0332 4.34766C42.2285 4.38021 42.3424 4.39648 42.375 4.39648C42.4727 4.42904 42.6517 4.55924 42.9121 4.78711C43.2051 4.98242 43.498 5.21029 43.791 5.4707C44.084 5.69857 44.3444 5.92643 44.5723 6.1543C44.8327 6.38216 45.0117 6.52865 45.1094 6.59375C45.1094 6.69141 45.1908 6.77279 45.3535 6.83789C45.5488 6.90299 45.679 6.9681 45.7441 7.0332C46.8509 7.48893 47.7461 7.96094 48.4297 8.44922C49.1133 8.9375 49.6667 9.50716 50.0898 10.1582C50.513 10.7767 50.8385 11.5091 51.0664 12.3555C51.2943 13.1693 51.5221 14.1296 51.75 15.2363C51.8477 15.7897 51.9941 16.4408 52.1895 17.1895C52.4173 17.9056 52.5312 18.5404 52.5312 19.0938C52.5312 19.224 52.515 19.3542 52.4824 19.4844C52.4499 19.582 52.4336 19.6471 52.4336 19.6797C52.3034 21.1445 52.0755 22.5931 51.75 24.0254C51.4245 25.4577 51.099 26.8574 50.7734 28.2246C50.6758 28.3223 50.5781 28.4688 50.4805 28.6641C50.3828 28.8268 50.3014 28.9408 50.2363 29.0059C50.2038 29.071 50.0736 29.2337 49.8457 29.4941C49.6504 29.7546 49.4225 30.0312 49.1621 30.3242C48.9017 30.6172 48.6576 30.8939 48.4297 31.1543C48.2018 31.4147 48.0716 31.5612 48.0391 31.5938C48.0391 31.6589 47.974 31.7891 47.8438 31.9844L47.6484 32.2773C47.1602 33.1562 46.5417 33.791 45.793 34.1816C45.0443 34.5723 44.1979 34.9466 43.2539 35.3047C43.1888 35.4023 42.9284 35.4837 42.4727 35.5488C42.0169 35.6139 41.7565 35.679 41.6914 35.7441C41.6589 35.7441 41.5612 35.793 41.3984 35.8906C41.2682 35.9883 41.1217 36.1022 40.959 36.2324C40.7962 36.3626 40.6335 36.4766 40.4707 36.5742C40.3079 36.6719 40.2103 36.737 40.1777 36.7695C39.8197 36.9974 39.3802 37.209 38.8594 37.4043C38.3385 37.5671 37.8014 37.7135 37.248 37.8438C36.6947 37.974 36.1413 38.0716 35.5879 38.1367C35.0345 38.2018 34.5625 38.2507 34.1719 38.2832H24.1621C23.6413 38.4785 23.2507 38.7389 22.9902 39.0645C22.7624 39.39 22.5996 39.7643 22.502 40.1875C22.4043 40.5781 22.3392 41.0013 22.3066 41.457C22.3066 41.8802 22.3066 42.3197 22.3066 42.7754C22.3066 42.873 22.2904 43.0846 22.2578 43.4102C22.2253 43.7357 22.1927 44.0938 22.1602 44.4844C22.1276 44.8424 22.0951 45.1842 22.0625 45.5098C22.0299 45.8353 22.0137 46.0469 22.0137 46.1445V46.9746C22.0137 47.3327 22.0137 47.6257 22.0137 47.8535C22.0462 48.0488 22.1439 48.3255 22.3066 48.6836C22.3066 48.8138 22.3066 49.0254 22.3066 49.3184C22.3066 49.5788 22.3066 49.8717 22.3066 50.1973C22.3392 50.4902 22.3555 50.7669 22.3555 51.0273C22.3555 51.2878 22.3555 51.4668 22.3555 51.5645C22.3555 52.5736 22.2904 53.5664 22.1602 54.543C22.0625 55.5195 22.0137 56.4961 22.0137 57.4727V57.6191C22.0137 57.6842 22.0299 57.847 22.0625 58.1074C22.0951 58.3353 22.1113 58.4818 22.1113 58.5469C22.209 60.4023 22.3229 62.0788 22.4531 63.5762C22.5833 65.0736 22.9251 66.5872 23.4785 68.1172C23.5111 68.2799 23.6901 68.4753 24.0156 68.7031C24.3411 68.8984 24.6992 69.0938 25.0898 69.2891C25.513 69.4844 25.9199 69.6471 26.3105 69.7773C26.7012 69.9076 26.9941 69.9727 27.1895 69.9727H29.1426C29.9889 69.9727 30.819 69.9401 31.6328 69.875C32.4466 69.7773 33.2767 69.7285 34.123 69.7285C34.3509 69.7285 34.6113 69.8099 34.9043 69.9727C35.1973 70.1354 35.4577 70.347 35.6855 70.6074C35.946 70.8678 36.1576 71.1445 36.3203 71.4375C36.4831 71.7305 36.5645 71.9909 36.5645 72.2188C36.5645 72.5443 36.5319 72.821 36.4668 73.0488C36.4017 73.3092 36.1576 73.5208 35.7344 73.6836H33.8789H31.9746C31.7793 73.6836 31.4375 73.6673 30.9492 73.6348C30.4935 73.6022 30.0052 73.5534 29.4844 73.4883C28.9635 73.4557 28.4753 73.4069 28.0195 73.3418C27.5964 73.3092 27.3197 73.2767 27.1895 73.2441C27.1243 73.2441 27.0104 73.2279 26.8477 73.1953C26.7174 73.1628 26.571 73.1302 26.4082 73.0977C26.2454 73.0977 26.0827 73.0814 25.9199 73.0488C25.7897 73.0163 25.7083 73 25.6758 73H25.334C24.5853 73.0651 23.8366 73.1139 23.0879 73.1465C22.3392 73.179 21.5579 73.2441 20.7441 73.3418C20.6465 73.3418 20.4512 73.3255 20.1582 73.293C19.8978 73.2604 19.6048 73.2116 19.2793 73.1465C18.9863 73.1139 18.6934 73.0814 18.4004 73.0488C18.14 73.0163 17.9447 73 17.8145 73H15.5195ZM72.543 48.5859V52.8828C72.543 53.3385 72.5592 53.9245 72.5918 54.6406C72.6243 55.3568 72.6895 56.1217 72.7871 56.9355C72.8848 57.7168 73.0312 58.4818 73.2266 59.2305C73.4219 59.9792 73.6986 60.5977 74.0566 61.0859C74.0892 61.151 74.1868 61.265 74.3496 61.4277C74.5449 61.5905 74.7402 61.7858 74.9355 62.0137C75.1634 62.209 75.3587 62.4043 75.5215 62.5996C75.7168 62.7624 75.8307 62.8763 75.8633 62.9414C76.3516 63.4948 76.8073 63.9993 77.2305 64.4551C77.6536 64.8783 78.0768 65.3014 78.5 65.7246C78.9232 66.1152 79.3626 66.5221 79.8184 66.9453C80.3066 67.3359 80.8438 67.7428 81.4297 68.166C81.5599 68.2637 81.7389 68.4102 81.9668 68.6055C82.1947 68.7682 82.4225 68.931 82.6504 69.0938C82.9108 69.224 83.1224 69.3542 83.2852 69.4844C83.4805 69.582 83.5944 69.6309 83.627 69.6309H84.1152H85.1406C85.2057 69.6309 85.401 69.696 85.7266 69.8262C86.0846 69.9564 86.2799 70.0215 86.3125 70.0215H86.6543H86.9961C87.0286 70.0215 87.1263 70.0052 87.2891 69.9727C87.4518 69.9401 87.6146 69.9076 87.7773 69.875C87.9401 69.8099 88.0866 69.7611 88.2168 69.7285C88.3796 69.6634 88.4772 69.6309 88.5098 69.6309C88.9004 69.5658 89.2259 69.5332 89.4863 69.5332C89.7467 69.5007 89.9909 69.4681 90.2188 69.4355C90.4466 69.3704 90.6745 69.3053 90.9023 69.2402C91.1628 69.1426 91.4883 69.0124 91.8789 68.8496C93.2461 68.2962 94.3203 67.6289 95.1016 66.8477C95.9154 66.0664 96.7129 65.0247 97.4941 63.7227C97.4941 63.6576 97.543 63.4622 97.6406 63.1367C97.7708 62.8112 97.8359 62.5996 97.8359 62.502C97.8359 62.502 97.8848 62.4531 97.9824 62.3555C98.1126 62.2578 98.2428 62.1602 98.373 62.0625C98.5033 61.9323 98.6172 61.8184 98.7148 61.7207C98.8451 61.623 98.9102 61.5579 98.9102 61.5254C99.2682 61.0697 99.5449 60.4512 99.7402 59.6699C99.9355 58.8561 100.163 58.1725 100.424 57.6191L101.205 56.6914V55.1777C101.205 55.1126 101.238 54.9499 101.303 54.6895C101.4 54.3965 101.449 54.1686 101.449 54.0059C101.449 53.9408 101.417 53.8268 101.352 53.6641C101.319 53.4688 101.254 53.2734 101.156 53.0781C101.091 52.8503 101.01 52.6549 100.912 52.4922C100.847 52.2969 100.798 52.1829 100.766 52.1504C100.766 52.0202 100.749 51.7109 100.717 51.2227C100.684 50.7018 100.652 50.1484 100.619 49.5625C100.587 48.9766 100.554 48.4232 100.521 47.9023C100.489 47.3815 100.456 47.0397 100.424 46.877C100.424 46.8118 100.375 46.6816 100.277 46.4863C100.212 46.2585 100.131 46.0306 100.033 45.8027C99.9681 45.5423 99.8867 45.3145 99.7891 45.1191C99.724 44.8913 99.6914 44.7448 99.6914 44.6797C99.6589 44.6146 99.61 44.4193 99.5449 44.0938C99.4798 43.7682 99.3984 43.4102 99.3008 43.0195C99.2357 42.6289 99.1543 42.2708 99.0566 41.9453C98.9915 41.5872 98.9427 41.3757 98.9102 41.3105C98.9102 41.278 98.8613 41.1803 98.7637 41.0176C98.6986 40.8223 98.6335 40.6921 98.5684 40.627C98.5358 40.5618 98.4056 40.4316 98.1777 40.2363C97.9824 40.0085 97.7546 39.7806 97.4941 39.5527C97.2337 39.2923 96.9896 39.0645 96.7617 38.8691C96.5339 38.6413 96.4036 38.4948 96.3711 38.4297C96.2734 38.2995 96.1921 38.1693 96.127 38.0391C95.9967 37.7786 95.9316 37.6322 95.9316 37.5996C95.8014 37.4694 95.6224 37.2741 95.3945 37.0137C95.1667 36.7207 94.9225 36.4115 94.6621 36.0859C94.4342 35.7604 94.2227 35.4674 94.0273 35.207C93.832 34.9466 93.7181 34.7676 93.6855 34.6699C93.1973 34.084 92.6276 33.612 91.9766 33.2539C91.3255 32.8958 90.6419 32.6029 89.9258 32.375C89.2422 32.1471 88.526 32.0007 87.7773 31.9355C87.0286 31.8379 86.3125 31.7891 85.6289 31.7891C84.6849 31.7891 83.9362 31.8704 83.3828 32.0332C82.862 32.196 82.4062 32.4238 82.0156 32.7168C81.625 32.9772 81.2344 33.2865 80.8438 33.6445C80.4531 33.9701 79.9486 34.3118 79.3301 34.6699C78.972 34.8652 78.5488 35.0605 78.0605 35.2559C77.6048 35.4186 77.263 35.6953 77.0352 36.0859C77.0026 36.1185 76.9701 36.2161 76.9375 36.3789C76.9049 36.5417 76.8724 36.7207 76.8398 36.916C76.8073 37.0788 76.7585 37.2415 76.6934 37.4043C76.6608 37.5345 76.6283 37.5996 76.5957 37.5996C76.5632 37.6647 76.498 37.7786 76.4004 37.9414C76.3027 38.1042 76.1888 38.2669 76.0586 38.4297C75.9609 38.5924 75.8633 38.7552 75.7656 38.918C75.668 39.0482 75.6191 39.1133 75.6191 39.1133C75.554 39.2109 75.4564 39.39 75.3262 39.6504C75.196 39.9108 75.0658 40.1875 74.9355 40.4805C74.8053 40.7734 74.6751 41.0501 74.5449 41.3105C74.4473 41.571 74.3822 41.7174 74.3496 41.75L74.0566 42.1895C74.0566 42.222 74.0404 42.3197 74.0078 42.4824C73.9753 42.6126 73.9427 42.7591 73.9102 42.9219C73.8776 43.0521 73.8288 43.1986 73.7637 43.3613C73.7311 43.4915 73.6986 43.5729 73.666 43.6055C73.6335 43.7031 73.5684 43.8333 73.4707 43.9961C73.373 44.1263 73.2591 44.3704 73.1289 44.7285C72.9987 45.0866 72.8685 45.5749 72.7383 46.1934C72.6406 46.8118 72.5755 47.6094 72.543 48.5859ZM65.1211 52.1504V45.5586C65.2513 44.7773 65.4141 43.931 65.6094 43.0195C65.8372 42.1081 66.0977 41.2129 66.3906 40.334C66.6836 39.4225 67.0254 38.5599 67.416 37.7461C67.8066 36.8997 68.2461 36.151 68.7344 35.5C68.8971 35.3698 69.0436 35.207 69.1738 35.0117C69.3366 34.7839 69.4505 34.6699 69.5156 34.6699C69.5807 34.6374 69.7272 34.5723 69.9551 34.4746C70.1829 34.377 70.4271 34.2793 70.6875 34.1816C70.9805 34.0514 71.2246 33.9375 71.4199 33.8398C71.6478 33.7096 71.778 33.612 71.8105 33.5469C72.0059 33.4167 72.2663 33.2051 72.5918 32.9121C72.9499 32.6191 73.3079 32.3099 73.666 31.9844C74.0566 31.6589 74.431 31.3496 74.7891 31.0566C75.1471 30.7311 75.4238 30.4707 75.6191 30.2754L78.793 29.6895C79.2161 29.2663 79.8835 28.8919 80.7949 28.5664C81.7389 28.2409 82.7318 27.9805 83.7734 27.7852C84.8477 27.5573 85.8568 27.3945 86.8008 27.2969C87.7773 27.1992 88.526 27.1504 89.0469 27.1504H90.707C90.8047 27.1829 90.9837 27.2318 91.2441 27.2969C91.5046 27.3294 91.7812 27.362 92.0742 27.3945C92.3672 27.4271 92.6439 27.4596 92.9043 27.4922C93.1647 27.5247 93.3438 27.541 93.4414 27.541H95.2969C95.8177 27.6712 96.3548 27.9316 96.9082 28.3223C97.4941 28.6803 98.0475 29.0872 98.5684 29.543C99.1217 29.9987 99.6426 30.4544 100.131 30.9102C100.619 31.3659 101.059 31.7402 101.449 32.0332C101.612 32.0983 101.889 32.2285 102.279 32.4238C102.702 32.5866 102.963 32.7168 103.061 32.8145C103.321 32.9772 103.549 33.1888 103.744 33.4492C103.939 33.7096 104.118 33.9863 104.281 34.2793C104.477 34.5397 104.656 34.8001 104.818 35.0605C104.981 35.321 105.16 35.5488 105.355 35.7441C105.355 35.8418 105.404 35.9069 105.502 35.9395C105.535 36.0046 105.583 36.0534 105.648 36.0859C105.779 36.2812 105.958 36.5579 106.186 36.916C106.446 37.2741 106.69 37.6322 106.918 37.9902C107.178 38.3483 107.39 38.6738 107.553 38.9668C107.748 39.2598 107.846 39.4551 107.846 39.5527C108.301 40.3014 108.643 41.2617 108.871 42.4336C109.099 43.6055 109.262 44.8262 109.359 46.0957C109.457 47.3652 109.506 48.6185 109.506 49.8555C109.538 51.0599 109.555 52.1016 109.555 52.9805C109.555 53.0781 109.538 53.2897 109.506 53.6152C109.506 53.9082 109.49 54.2337 109.457 54.5918C109.457 54.9499 109.441 55.2917 109.408 55.6172C109.408 55.9102 109.408 56.1055 109.408 56.2031C108.692 57.4401 108.106 58.6445 107.65 59.8164C107.227 60.9557 106.755 62.0462 106.234 63.0879C105.746 64.1296 105.144 65.1387 104.428 66.1152C103.712 67.0592 102.719 67.9707 101.449 68.8496C101.286 69.0124 101.026 69.224 100.668 69.4844C100.342 69.7448 100.001 70.0052 99.6426 70.2656C99.3171 70.4935 99.0241 70.7051 98.7637 70.9004C98.5033 71.0632 98.3568 71.1445 98.3242 71.1445C97.9661 71.3073 97.4779 71.5026 96.8594 71.7305C96.2409 71.9258 95.6061 72.1211 94.9551 72.3164C94.3366 72.5117 93.7507 72.6745 93.1973 72.8047C92.6764 72.9349 92.3509 73 92.2207 73C91.2767 73.1628 90.349 73.2767 89.4375 73.3418C88.526 73.4395 87.6309 73.4883 86.752 73.4883C85.7103 73.4883 84.6849 73.4395 83.6758 73.3418C82.6992 73.2767 81.7227 73.1628 80.7461 73C80.681 73 80.4531 72.9512 80.0625 72.8535C79.7044 72.7559 79.4603 72.6582 79.3301 72.5605C79.1673 72.5605 78.9557 72.528 78.6953 72.4629C78.4674 72.3652 78.2233 72.2839 77.9629 72.2188C77.735 72.1211 77.5234 72.0397 77.3281 71.9746C77.1654 71.9095 77.0677 71.8607 77.0352 71.8281C77.0026 71.8281 76.9212 71.7793 76.791 71.6816C76.6934 71.584 76.5632 71.4863 76.4004 71.3887C76.2702 71.2585 76.14 71.1445 76.0098 71.0469C75.9121 70.9167 75.8633 70.8353 75.8633 70.8027C75.8307 70.7702 75.7168 70.7214 75.5215 70.6562C75.3587 70.5911 75.1634 70.5098 74.9355 70.4121C74.7402 70.3145 74.5449 70.2331 74.3496 70.168C74.1868 70.1029 74.0892 70.054 74.0566 70.0215C73.2103 69.4681 72.3965 68.8171 71.6152 68.0684C70.8665 67.2871 70.1667 66.457 69.5156 65.5781C68.8646 64.6992 68.2949 63.804 67.8066 62.8926C67.3184 61.9486 66.9277 61.0046 66.6348 60.0605C66.5046 59.6699 66.4069 59.3444 66.3418 59.084C66.3092 58.791 66.2604 58.5143 66.1953 58.2539C66.1628 57.9609 66.1139 57.668 66.0488 57.375C66.0163 57.0495 65.9349 56.6589 65.8047 56.2031C65.7396 56.0078 65.6908 55.8451 65.6582 55.7148C65.5931 55.3893 65.5605 55.2103 65.5605 55.1777C65.4629 54.8848 65.3978 54.4128 65.3652 53.7617C65.3652 53.1107 65.2839 52.5736 65.1211 52.1504ZM137.965 72.6582C137.965 72.235 138.062 71.9095 138.258 71.6816C138.453 71.4212 138.697 71.2096 138.99 71.0469C139.316 70.8841 139.788 70.7539 140.406 70.6562C141.025 70.526 141.643 70.3958 142.262 70.2656C142.913 70.1029 143.482 69.9076 143.971 69.6797C144.459 69.4193 144.752 69.0612 144.85 68.6055V67.5801V67.0918C144.85 66.8639 144.85 66.3594 144.85 65.5781C144.882 64.7643 144.898 63.8366 144.898 62.7949C144.931 61.7207 144.964 60.5814 144.996 59.377C145.029 58.1725 145.045 57.0332 145.045 55.959C145.077 54.8848 145.094 53.957 145.094 53.1758C145.126 52.362 145.143 51.8249 145.143 51.5645V43.1172V34.7188C144.98 34.1328 144.589 33.6283 143.971 33.2051C143.385 32.7493 142.766 32.5215 142.115 32.5215H135.865C135.637 32.5215 135.312 32.6191 134.889 32.8145C134.465 33.0098 134.173 33.14 134.01 33.2051C132.773 33.9538 131.78 34.7676 131.031 35.6465C130.283 36.4928 129.534 37.4206 128.785 38.4297C128.72 38.4948 128.622 38.6087 128.492 38.7715C128.395 38.9342 128.281 39.1296 128.15 39.3574C128.053 39.5527 127.939 39.748 127.809 39.9434C127.711 40.1061 127.646 40.2201 127.613 40.2852C127.548 40.4479 127.434 40.6595 127.271 40.9199C127.109 41.1803 126.93 41.4408 126.734 41.7012C126.539 41.9616 126.327 42.1895 126.1 42.3848C125.904 42.5801 125.725 42.6777 125.562 42.6777C125.237 42.6777 124.96 42.5964 124.732 42.4336C124.537 42.2708 124.374 42.0592 124.244 41.7988C124.146 41.5384 124.065 41.2617 124 40.9688C123.967 40.6432 123.951 40.334 123.951 40.041C123.951 39.3249 124.016 38.6413 124.146 37.9902C124.277 37.3392 124.407 36.6556 124.537 35.9395C124.635 35.5163 124.732 34.8652 124.83 33.9863C124.96 33.0749 125.123 32.1797 125.318 31.3008C125.514 30.3893 125.79 29.5918 126.148 28.9082C126.507 28.2246 126.995 27.8828 127.613 27.8828C127.646 27.8828 127.711 27.8991 127.809 27.9316C127.906 27.9316 127.988 27.9316 128.053 27.9316C128.15 27.9642 128.248 27.9805 128.346 27.9805C128.443 28.0456 128.639 28.1595 128.932 28.3223C129.225 28.4525 129.534 28.599 129.859 28.7617C130.217 28.9245 130.543 29.071 130.836 29.2012C131.129 29.3314 131.308 29.3965 131.373 29.3965C131.406 29.429 131.503 29.4616 131.666 29.4941C131.861 29.4941 132.057 29.4941 132.252 29.4941C132.48 29.4941 132.691 29.4941 132.887 29.4941C133.082 29.4941 133.212 29.4941 133.277 29.4941C133.277 29.4941 133.359 29.5267 133.521 29.5918C133.717 29.6243 133.912 29.6732 134.107 29.7383C134.335 29.8034 134.531 29.8685 134.693 29.9336C134.889 29.9661 135.003 29.9824 135.035 29.9824C136.663 29.9824 138.274 29.8359 139.869 29.543C141.497 29.2174 143.124 29.0547 144.752 29.0547C147.617 29.0547 150.449 29.2174 153.248 29.543C156.08 29.8359 158.912 29.9824 161.744 29.9824H164.234C164.299 29.9499 164.462 29.901 164.723 29.8359C164.983 29.7383 165.26 29.6569 165.553 29.5918C165.846 29.4941 166.139 29.3965 166.432 29.2988C166.725 29.2012 166.936 29.1198 167.066 29.0547C167.359 28.957 167.604 28.8431 167.799 28.7129C167.994 28.5501 168.173 28.3874 168.336 28.2246C168.531 28.0618 168.743 27.9316 168.971 27.834C169.199 27.7038 169.492 27.6387 169.85 27.6387C170.468 27.6387 170.956 27.9316 171.314 28.5176C171.705 29.071 171.998 29.7383 172.193 30.5195C172.421 31.3008 172.584 32.0983 172.682 32.9121C172.812 33.6934 172.958 34.2956 173.121 34.7188C173.251 35.4023 173.447 36.1022 173.707 36.8184C174 37.5345 174.146 38.2832 174.146 39.0645C174.146 39.2923 174.114 39.5527 174.049 39.8457C174.016 40.1387 173.935 40.4154 173.805 40.6758C173.674 40.9036 173.495 41.099 173.268 41.2617C173.04 41.4245 172.763 41.5059 172.438 41.5059C172.112 41.5059 171.721 41.2617 171.266 40.7734C170.81 40.2526 170.322 39.6829 169.801 39.0645C169.312 38.4134 168.824 37.7786 168.336 37.1602C167.88 36.5417 167.457 36.1348 167.066 35.9395C167.001 35.9069 166.855 35.8255 166.627 35.6953C166.432 35.5651 166.204 35.4349 165.943 35.3047C165.715 35.1745 165.488 35.0605 165.26 34.9629C165.064 34.8327 164.934 34.7513 164.869 34.7188C164.251 34.3607 163.648 33.9701 163.062 33.5469C162.509 33.1237 161.891 32.7819 161.207 32.5215C161.109 32.5215 160.93 32.5215 160.67 32.5215C160.442 32.5215 160.198 32.5215 159.938 32.5215C159.677 32.4889 159.433 32.4727 159.205 32.4727C159.01 32.4727 158.863 32.4727 158.766 32.4727H157.838C157.154 32.4727 156.454 32.5215 155.738 32.6191C155.022 32.7168 154.485 33.026 154.127 33.5469C154.127 33.8073 154.143 34.2142 154.176 34.7676C154.208 35.321 154.225 35.9232 154.225 36.5742C154.225 37.2253 154.208 37.8275 154.176 38.3809C154.143 38.9342 154.127 39.3249 154.127 39.5527C154.127 39.6178 154.094 39.7318 154.029 39.8945C153.997 40.0247 153.948 40.1712 153.883 40.334C153.818 40.4967 153.753 40.6595 153.688 40.8223C153.655 40.9525 153.622 41.0339 153.59 41.0664V55.959C153.297 56.5449 153.118 57.0007 153.053 57.3262C152.988 57.6517 152.955 58.0911 152.955 58.6445V59.377C152.955 59.4421 152.971 59.5885 153.004 59.8164C153.069 60.0117 153.118 60.2396 153.15 60.5C153.215 60.7279 153.264 60.9557 153.297 61.1836C153.329 61.3789 153.346 61.5091 153.346 61.5742V67.0918C153.443 67.7754 153.606 68.3776 153.834 68.8984C154.062 69.4193 154.55 69.7122 155.299 69.7773C155.429 69.8099 155.689 69.8424 156.08 69.875C156.503 69.9076 156.943 69.9401 157.398 69.9727C157.887 70.0052 158.342 70.0378 158.766 70.0703C159.221 70.1029 159.531 70.1191 159.693 70.1191C159.921 70.2819 160.1 70.5098 160.23 70.8027C160.393 71.0632 160.475 71.3398 160.475 71.6328C160.475 71.8932 160.41 72.0885 160.279 72.2188C160.182 72.349 159.986 72.528 159.693 72.7559C158.098 72.7233 156.406 72.7396 154.615 72.8047C152.857 72.8372 151.067 72.8861 149.244 72.9512C147.454 72.9837 145.68 73.0163 143.922 73.0488C142.164 73.1139 140.52 73.1465 138.99 73.1465C138.73 73.1465 138.486 73.1302 138.258 73.0977C138.062 73.0651 137.965 72.9186 137.965 72.6582ZM187.371 71.7305C187.371 71.1771 187.599 70.7539 188.055 70.4609C188.51 70.1354 189.015 69.9727 189.568 69.9727C189.699 69.9727 189.861 69.9889 190.057 70.0215C190.252 70.0215 190.398 70.0215 190.496 70.0215H191.521C191.554 70.0215 191.701 70.0215 191.961 70.0215C192.254 69.9889 192.465 69.9401 192.596 69.875C192.661 69.8099 192.791 69.7611 192.986 69.7285C193.214 69.6634 193.361 69.6309 193.426 69.6309H193.621H193.768L195.037 69.7773C195.428 69.7773 195.656 69.7448 195.721 69.6797C195.786 69.6146 195.932 69.4518 196.16 69.1914C196.29 69.0286 196.388 68.8659 196.453 68.7031C196.551 68.5078 196.681 68.3288 196.844 68.166V65.9199C196.844 64.9759 196.795 64.0807 196.697 63.2344C196.6 62.3555 196.551 61.444 196.551 60.5C196.551 59.7513 196.583 59.1979 196.648 58.8398C196.714 58.4492 196.746 57.9609 196.746 57.375V57.0332C196.746 56.903 196.746 56.6914 196.746 56.3984C196.746 56.1055 196.73 55.6986 196.697 55.1777C196.665 54.6243 196.616 53.9245 196.551 53.0781C196.486 52.2318 196.404 51.1901 196.307 49.9531C196.404 49.4974 196.469 49.1068 196.502 48.7812C196.535 48.4232 196.551 48.0163 196.551 47.5605V46.291C196.551 46.2585 196.535 46.1608 196.502 45.998C196.469 45.8353 196.437 45.6562 196.404 45.4609C196.404 45.2656 196.388 45.1029 196.355 44.9727C196.323 44.8099 196.307 44.7122 196.307 44.6797V41.5547C196.307 41.3268 196.29 40.8385 196.258 40.0898C196.225 39.3086 196.176 38.4785 196.111 37.5996C196.079 36.7207 196.046 35.9069 196.014 35.1582C195.981 34.377 195.965 33.8398 195.965 33.5469C195.9 33.1888 195.704 32.8307 195.379 32.4727C195.053 32.1146 194.744 31.8216 194.451 31.5938C194.126 31.3659 193.882 31.252 193.719 31.252C193.621 31.252 193.523 31.2682 193.426 31.3008C193.328 31.3333 193.198 31.3496 193.035 31.3496H192.596C192.531 31.2845 192.352 31.2031 192.059 31.1055C191.766 30.9753 191.587 30.9102 191.521 30.9102C191.424 30.8776 191.163 30.8288 190.74 30.7637C190.35 30.666 189.926 30.5846 189.471 30.5195C189.015 30.4544 188.576 30.3893 188.152 30.3242C187.762 30.2591 187.518 30.2103 187.42 30.1777C187.127 30.1126 186.867 29.9824 186.639 29.7871C186.443 29.5592 186.346 29.2663 186.346 28.9082C186.346 28.6478 186.395 28.3223 186.492 27.9316C186.59 27.541 186.769 27.2969 187.029 27.1992C187.29 27.0365 187.68 26.9225 188.201 26.8574C188.755 26.7598 189.357 26.6947 190.008 26.6621C190.659 26.597 191.342 26.5645 192.059 26.5645C192.775 26.5645 193.458 26.5645 194.109 26.5645C194.174 26.4993 194.288 26.4668 194.451 26.4668C194.646 26.4668 194.842 26.4668 195.037 26.4668C195.493 26.4668 195.981 26.4831 196.502 26.5156C197.023 26.5482 197.348 26.5645 197.479 26.5645C197.576 26.5645 197.82 26.5645 198.211 26.5645C198.602 26.5319 199.025 26.5156 199.48 26.5156C199.969 26.5156 200.424 26.5156 200.848 26.5156C201.271 26.4831 201.531 26.4668 201.629 26.4668C201.661 26.4668 201.857 26.4505 202.215 26.418C202.605 26.3529 203.061 26.304 203.582 26.2715C204.103 26.2064 204.656 26.1576 205.242 26.125C205.828 26.0599 206.349 26.0273 206.805 26.0273H213.104C213.396 26.1576 213.755 26.2715 214.178 26.3691C214.633 26.4668 215.057 26.5807 215.447 26.7109C215.87 26.8411 216.212 27.0202 216.473 27.248C216.766 27.4434 216.912 27.7363 216.912 28.127C216.912 28.5827 216.684 28.9896 216.229 29.3477C215.773 29.6732 215.236 29.9499 214.617 30.1777C213.999 30.373 213.38 30.5358 212.762 30.666C212.143 30.7962 211.671 30.8776 211.346 30.9102H207.977C207.911 30.9102 207.732 31.0241 207.439 31.252C207.146 31.4473 206.935 31.5612 206.805 31.5938C206.349 31.8216 205.975 32.0169 205.682 32.1797C205.421 32.3424 205.291 32.554 205.291 32.8145V33.7422C205.291 34.0677 205.307 34.4258 205.34 34.8164C205.372 35.1745 205.519 35.4837 205.779 35.7441V37.9414C205.779 39.8945 205.649 41.8477 205.389 43.8008C205.128 45.7214 204.998 47.6582 204.998 49.6113C204.965 49.709 204.933 50.0996 204.9 50.7832C204.9 51.4668 204.884 52.2643 204.852 53.1758C204.852 54.0547 204.852 54.9661 204.852 55.9102C204.852 56.8542 204.852 57.6191 204.852 58.2051C204.852 58.498 204.852 59.0514 204.852 59.8652C204.852 60.6465 204.852 61.4928 204.852 62.4043C204.884 63.3158 204.9 64.1784 204.9 64.9922C204.933 65.7734 204.965 66.3268 204.998 66.6523C204.9 67.3034 205.014 67.8242 205.34 68.2148C205.698 68.5729 206.137 68.8659 206.658 69.0938C207.212 69.3216 207.814 69.5007 208.465 69.6309C209.148 69.7611 209.767 69.9076 210.32 70.0703C210.906 70.2005 211.395 70.3796 211.785 70.6074C212.176 70.8353 212.371 71.1608 212.371 71.584C212.371 72.0072 212.127 72.3652 211.639 72.6582C211.183 72.9186 210.809 73.1139 210.516 73.2441C210.418 73.3092 210.239 73.3418 209.979 73.3418C209.718 73.3743 209.441 73.3906 209.148 73.3906C208.888 73.4232 208.644 73.4395 208.416 73.4395C208.188 73.4395 208.042 73.4395 207.977 73.4395C207.781 73.4395 207.537 73.4395 207.244 73.4395C206.951 73.4395 206.658 73.4232 206.365 73.3906C206.105 73.3906 205.861 73.3743 205.633 73.3418C205.438 73.3418 205.324 73.3092 205.291 73.2441C205.258 73.2441 205.177 73.2279 205.047 73.1953C204.917 73.1628 204.77 73.1302 204.607 73.0977C204.445 73.0977 204.282 73.0814 204.119 73.0488C203.956 73.0163 203.859 73 203.826 73H203.387C202.898 73 202.41 73.1302 201.922 73.3906C201.466 73.651 201.01 73.7812 200.555 73.7812C200.457 73.7812 200.213 73.765 199.822 73.7324C199.432 73.6999 199.025 73.651 198.602 73.5859C198.211 73.5208 197.837 73.4557 197.479 73.3906C197.12 73.3581 196.909 73.3092 196.844 73.2441H195.574C194.891 73.2441 194.24 73.3255 193.621 73.4883C193.035 73.6836 192.384 73.7812 191.668 73.7812C191.375 73.7812 190.984 73.765 190.496 73.7324C190.008 73.6999 189.536 73.6185 189.08 73.4883C188.624 73.3581 188.217 73.1628 187.859 72.9023C187.534 72.6094 187.371 72.2188 187.371 71.7305ZM236.582 48.5859V52.8828C236.582 53.3385 236.598 53.9245 236.631 54.6406C236.663 55.3568 236.729 56.1217 236.826 56.9355C236.924 57.7168 237.07 58.4818 237.266 59.2305C237.461 59.9792 237.738 60.5977 238.096 61.0859C238.128 61.151 238.226 61.265 238.389 61.4277C238.584 61.5905 238.779 61.7858 238.975 62.0137C239.202 62.209 239.398 62.4043 239.561 62.5996C239.756 62.7624 239.87 62.8763 239.902 62.9414C240.391 63.4948 240.846 63.9993 241.27 64.4551C241.693 64.8783 242.116 65.3014 242.539 65.7246C242.962 66.1152 243.402 66.5221 243.857 66.9453C244.346 67.3359 244.883 67.7428 245.469 68.166C245.599 68.2637 245.778 68.4102 246.006 68.6055C246.234 68.7682 246.462 68.931 246.689 69.0938C246.95 69.224 247.161 69.3542 247.324 69.4844C247.52 69.582 247.633 69.6309 247.666 69.6309H248.154H249.18C249.245 69.6309 249.44 69.696 249.766 69.8262C250.124 69.9564 250.319 70.0215 250.352 70.0215H250.693H251.035C251.068 70.0215 251.165 70.0052 251.328 69.9727C251.491 69.9401 251.654 69.9076 251.816 69.875C251.979 69.8099 252.126 69.7611 252.256 69.7285C252.419 69.6634 252.516 69.6309 252.549 69.6309C252.939 69.5658 253.265 69.5332 253.525 69.5332C253.786 69.5007 254.03 69.4681 254.258 69.4355C254.486 69.3704 254.714 69.3053 254.941 69.2402C255.202 69.1426 255.527 69.0124 255.918 68.8496C257.285 68.2962 258.359 67.6289 259.141 66.8477C259.954 66.0664 260.752 65.0247 261.533 63.7227C261.533 63.6576 261.582 63.4622 261.68 63.1367C261.81 62.8112 261.875 62.5996 261.875 62.502C261.875 62.502 261.924 62.4531 262.021 62.3555C262.152 62.2578 262.282 62.1602 262.412 62.0625C262.542 61.9323 262.656 61.8184 262.754 61.7207C262.884 61.623 262.949 61.5579 262.949 61.5254C263.307 61.0697 263.584 60.4512 263.779 59.6699C263.975 58.8561 264.202 58.1725 264.463 57.6191L265.244 56.6914V55.1777C265.244 55.1126 265.277 54.9499 265.342 54.6895C265.439 54.3965 265.488 54.1686 265.488 54.0059C265.488 53.9408 265.456 53.8268 265.391 53.6641C265.358 53.4688 265.293 53.2734 265.195 53.0781C265.13 52.8503 265.049 52.6549 264.951 52.4922C264.886 52.2969 264.837 52.1829 264.805 52.1504C264.805 52.0202 264.788 51.7109 264.756 51.2227C264.723 50.7018 264.691 50.1484 264.658 49.5625C264.626 48.9766 264.593 48.4232 264.561 47.9023C264.528 47.3815 264.495 47.0397 264.463 46.877C264.463 46.8118 264.414 46.6816 264.316 46.4863C264.251 46.2585 264.17 46.0306 264.072 45.8027C264.007 45.5423 263.926 45.3145 263.828 45.1191C263.763 44.8913 263.73 44.7448 263.73 44.6797C263.698 44.6146 263.649 44.4193 263.584 44.0938C263.519 43.7682 263.438 43.4102 263.34 43.0195C263.275 42.6289 263.193 42.2708 263.096 41.9453C263.031 41.5872 262.982 41.3757 262.949 41.3105C262.949 41.278 262.9 41.1803 262.803 41.0176C262.738 40.8223 262.673 40.6921 262.607 40.627C262.575 40.5618 262.445 40.4316 262.217 40.2363C262.021 40.0085 261.794 39.7806 261.533 39.5527C261.273 39.2923 261.029 39.0645 260.801 38.8691C260.573 38.6413 260.443 38.4948 260.41 38.4297C260.312 38.2995 260.231 38.1693 260.166 38.0391C260.036 37.7786 259.971 37.6322 259.971 37.5996C259.84 37.4694 259.661 37.2741 259.434 37.0137C259.206 36.7207 258.962 36.4115 258.701 36.0859C258.473 35.7604 258.262 35.4674 258.066 35.207C257.871 34.9466 257.757 34.7676 257.725 34.6699C257.236 34.084 256.667 33.612 256.016 33.2539C255.365 32.8958 254.681 32.6029 253.965 32.375C253.281 32.1471 252.565 32.0007 251.816 31.9355C251.068 31.8379 250.352 31.7891 249.668 31.7891C248.724 31.7891 247.975 31.8704 247.422 32.0332C246.901 32.196 246.445 32.4238 246.055 32.7168C245.664 32.9772 245.273 33.2865 244.883 33.6445C244.492 33.9701 243.988 34.3118 243.369 34.6699C243.011 34.8652 242.588 35.0605 242.1 35.2559C241.644 35.4186 241.302 35.6953 241.074 36.0859C241.042 36.1185 241.009 36.2161 240.977 36.3789C240.944 36.5417 240.911 36.7207 240.879 36.916C240.846 37.0788 240.798 37.2415 240.732 37.4043C240.7 37.5345 240.667 37.5996 240.635 37.5996C240.602 37.6647 240.537 37.7786 240.439 37.9414C240.342 38.1042 240.228 38.2669 240.098 38.4297C240 38.5924 239.902 38.7552 239.805 38.918C239.707 39.0482 239.658 39.1133 239.658 39.1133C239.593 39.2109 239.495 39.39 239.365 39.6504C239.235 39.9108 239.105 40.1875 238.975 40.4805C238.844 40.7734 238.714 41.0501 238.584 41.3105C238.486 41.571 238.421 41.7174 238.389 41.75L238.096 42.1895C238.096 42.222 238.079 42.3197 238.047 42.4824C238.014 42.6126 237.982 42.7591 237.949 42.9219C237.917 43.0521 237.868 43.1986 237.803 43.3613C237.77 43.4915 237.738 43.5729 237.705 43.6055C237.673 43.7031 237.607 43.8333 237.51 43.9961C237.412 44.1263 237.298 44.3704 237.168 44.7285C237.038 45.0866 236.908 45.5749 236.777 46.1934C236.68 46.8118 236.615 47.6094 236.582 48.5859ZM229.16 52.1504V45.5586C229.29 44.7773 229.453 43.931 229.648 43.0195C229.876 42.1081 230.137 41.2129 230.43 40.334C230.723 39.4225 231.064 38.5599 231.455 37.7461C231.846 36.8997 232.285 36.151 232.773 35.5C232.936 35.3698 233.083 35.207 233.213 35.0117C233.376 34.7839 233.49 34.6699 233.555 34.6699C233.62 34.6374 233.766 34.5723 233.994 34.4746C234.222 34.377 234.466 34.2793 234.727 34.1816C235.02 34.0514 235.264 33.9375 235.459 33.8398C235.687 33.7096 235.817 33.612 235.85 33.5469C236.045 33.4167 236.305 33.2051 236.631 32.9121C236.989 32.6191 237.347 32.3099 237.705 31.9844C238.096 31.6589 238.47 31.3496 238.828 31.0566C239.186 30.7311 239.463 30.4707 239.658 30.2754L242.832 29.6895C243.255 29.2663 243.923 28.8919 244.834 28.5664C245.778 28.2409 246.771 27.9805 247.812 27.7852C248.887 27.5573 249.896 27.3945 250.84 27.2969C251.816 27.1992 252.565 27.1504 253.086 27.1504H254.746C254.844 27.1829 255.023 27.2318 255.283 27.2969C255.544 27.3294 255.82 27.362 256.113 27.3945C256.406 27.4271 256.683 27.4596 256.943 27.4922C257.204 27.5247 257.383 27.541 257.48 27.541H259.336C259.857 27.6712 260.394 27.9316 260.947 28.3223C261.533 28.6803 262.087 29.0872 262.607 29.543C263.161 29.9987 263.682 30.4544 264.17 30.9102C264.658 31.3659 265.098 31.7402 265.488 32.0332C265.651 32.0983 265.928 32.2285 266.318 32.4238C266.742 32.5866 267.002 32.7168 267.1 32.8145C267.36 32.9772 267.588 33.1888 267.783 33.4492C267.979 33.7096 268.158 33.9863 268.32 34.2793C268.516 34.5397 268.695 34.8001 268.857 35.0605C269.02 35.321 269.199 35.5488 269.395 35.7441C269.395 35.8418 269.443 35.9069 269.541 35.9395C269.574 36.0046 269.622 36.0534 269.688 36.0859C269.818 36.2812 269.997 36.5579 270.225 36.916C270.485 37.2741 270.729 37.6322 270.957 37.9902C271.217 38.3483 271.429 38.6738 271.592 38.9668C271.787 39.2598 271.885 39.4551 271.885 39.5527C272.34 40.3014 272.682 41.2617 272.91 42.4336C273.138 43.6055 273.301 44.8262 273.398 46.0957C273.496 47.3652 273.545 48.6185 273.545 49.8555C273.577 51.0599 273.594 52.1016 273.594 52.9805C273.594 53.0781 273.577 53.2897 273.545 53.6152C273.545 53.9082 273.529 54.2337 273.496 54.5918C273.496 54.9499 273.48 55.2917 273.447 55.6172C273.447 55.9102 273.447 56.1055 273.447 56.2031C272.731 57.4401 272.145 58.6445 271.689 59.8164C271.266 60.9557 270.794 62.0462 270.273 63.0879C269.785 64.1296 269.183 65.1387 268.467 66.1152C267.751 67.0592 266.758 67.9707 265.488 68.8496C265.326 69.0124 265.065 69.224 264.707 69.4844C264.382 69.7448 264.04 70.0052 263.682 70.2656C263.356 70.4935 263.063 70.7051 262.803 70.9004C262.542 71.0632 262.396 71.1445 262.363 71.1445C262.005 71.3073 261.517 71.5026 260.898 71.7305C260.28 71.9258 259.645 72.1211 258.994 72.3164C258.376 72.5117 257.79 72.6745 257.236 72.8047C256.715 72.9349 256.39 73 256.26 73C255.316 73.1628 254.388 73.2767 253.477 73.3418C252.565 73.4395 251.67 73.4883 250.791 73.4883C249.749 73.4883 248.724 73.4395 247.715 73.3418C246.738 73.2767 245.762 73.1628 244.785 73C244.72 73 244.492 72.9512 244.102 72.8535C243.743 72.7559 243.499 72.6582 243.369 72.5605C243.206 72.5605 242.995 72.528 242.734 72.4629C242.507 72.3652 242.262 72.2839 242.002 72.2188C241.774 72.1211 241.562 72.0397 241.367 71.9746C241.204 71.9095 241.107 71.8607 241.074 71.8281C241.042 71.8281 240.96 71.7793 240.83 71.6816C240.732 71.584 240.602 71.4863 240.439 71.3887C240.309 71.2585 240.179 71.1445 240.049 71.0469C239.951 70.9167 239.902 70.8353 239.902 70.8027C239.87 70.7702 239.756 70.7214 239.561 70.6562C239.398 70.5911 239.202 70.5098 238.975 70.4121C238.779 70.3145 238.584 70.2331 238.389 70.168C238.226 70.1029 238.128 70.054 238.096 70.0215C237.249 69.4681 236.436 68.8171 235.654 68.0684C234.906 67.2871 234.206 66.457 233.555 65.5781C232.904 64.6992 232.334 63.804 231.846 62.8926C231.357 61.9486 230.967 61.0046 230.674 60.0605C230.544 59.6699 230.446 59.3444 230.381 59.084C230.348 58.791 230.299 58.5143 230.234 58.2539C230.202 57.9609 230.153 57.668 230.088 57.375C230.055 57.0495 229.974 56.6589 229.844 56.2031C229.779 56.0078 229.73 55.8451 229.697 55.7148C229.632 55.3893 229.6 55.2103 229.6 55.1777C229.502 54.8848 229.437 54.4128 229.404 53.7617C229.404 53.1107 229.323 52.5736 229.16 52.1504ZM309.279 71.6328V71.8281C308.824 72.4141 308.384 72.821 307.961 73.0488C307.538 73.3092 306.952 73.4395 306.203 73.4395C306.171 73.4395 306.105 73.4069 306.008 73.3418C305.943 73.2767 305.878 73.2441 305.812 73.2441C305.715 73.2441 305.471 73.2116 305.08 73.1465C304.722 73.1139 304.478 73.0651 304.348 73C302.427 73.0651 300.604 73.1139 298.879 73.1465C297.186 73.2116 295.412 73.2441 293.557 73.2441C293.296 73.2441 293.02 73.2604 292.727 73.293C292.434 73.3255 292.108 73.3418 291.75 73.3418C291.034 73.3418 290.399 73.2604 289.846 73.0977C289.455 73 289.048 72.8535 288.625 72.6582C288.234 72.4303 288.039 72.0885 288.039 71.6328C288.039 71.3724 288.055 71.1283 288.088 70.9004C288.153 70.6725 288.332 70.4447 288.625 70.2168C288.951 70.0866 289.39 69.9401 289.943 69.7773C290.529 69.582 290.969 69.4518 291.262 69.3867C291.359 69.3542 291.522 69.3053 291.75 69.2402C291.978 69.1751 292.206 69.11 292.434 69.0449C292.694 68.9798 292.922 68.9147 293.117 68.8496C293.312 68.7845 293.459 68.7357 293.557 68.7031C293.817 68.5404 294.094 68.3288 294.387 68.0684C294.68 67.7754 294.908 67.4499 295.07 67.0918C295.331 66.6361 295.51 66.1315 295.607 65.5781C295.705 65.0247 295.754 64.4551 295.754 63.8691C295.754 63.5111 295.77 63.1693 295.803 62.8438C295.835 62.4857 295.852 62.1276 295.852 61.7695C295.852 61.4115 295.852 61.0859 295.852 60.793C295.884 60.5 295.933 60.207 295.998 59.9141C295.998 59.8164 296.031 59.6048 296.096 59.2793C296.193 58.9538 296.291 58.612 296.389 58.2539C296.519 57.8633 296.633 57.5052 296.73 57.1797C296.828 56.8542 296.893 56.6589 296.926 56.5938V56.4473V55.7637C296.958 55.7311 296.991 55.6335 297.023 55.4707C297.056 55.3079 297.089 55.1289 297.121 54.9336C297.186 54.7057 297.235 54.4941 297.268 54.2988C297.333 54.1035 297.382 53.9733 297.414 53.9082C297.414 53.8431 297.382 53.6315 297.316 53.2734C297.284 52.8828 297.268 52.6224 297.268 52.4922V51.9551C297.268 49.709 297.398 47.4466 297.658 45.168C297.951 42.8568 298.098 40.5293 298.098 38.1855V36.5254C298.098 36.4277 298.081 36.2975 298.049 36.1348C298.016 35.972 297.967 35.8092 297.902 35.6465L297.707 35.0605L293.215 30.5195C292.987 30.3242 292.661 30.1615 292.238 30.0312C291.815 29.901 291.392 29.7546 290.969 29.5918C290.546 29.429 290.171 29.2337 289.846 29.0059C289.553 28.778 289.406 28.4362 289.406 27.9805C289.406 27.5247 289.569 27.2155 289.895 27.0527C290.22 26.89 290.594 26.8086 291.018 26.8086H299.465C300.181 26.8086 300.865 27.0365 301.516 27.4922C302.167 27.9154 302.769 28.4362 303.322 29.0547C303.876 29.6732 304.396 30.3242 304.885 31.0078C305.373 31.6914 305.812 32.2611 306.203 32.7168C306.268 32.8145 306.431 33.026 306.691 33.3516C306.952 33.6445 307.229 33.9701 307.521 34.3281C307.847 34.6536 308.124 34.9629 308.352 35.2559C308.612 35.5163 308.775 35.679 308.84 35.7441C308.905 35.8092 309.035 35.9883 309.23 36.2812C309.458 36.5742 309.686 36.8997 309.914 37.2578C310.174 37.5833 310.402 37.9089 310.598 38.2344C310.826 38.5273 310.972 38.6901 311.037 38.7227C311.07 38.7227 311.135 38.7878 311.232 38.918C311.363 39.0156 311.493 39.1296 311.623 39.2598C311.753 39.3574 311.867 39.4714 311.965 39.6016C312.095 39.6992 312.176 39.7643 312.209 39.7969C312.437 40.1549 312.6 40.4967 312.697 40.8223C312.827 41.1478 312.958 41.4408 313.088 41.7012C313.218 41.929 313.381 42.1406 313.576 42.3359C313.804 42.5312 314.113 42.694 314.504 42.8242C316.555 44.7448 318.508 46.763 320.363 48.8789C322.219 50.9622 324.204 52.8991 326.32 54.6895C326.711 54.429 327.004 54.1361 327.199 53.8105C327.395 53.4525 327.557 53.0781 327.688 52.6875C327.818 52.2969 327.915 51.89 327.98 51.4668C328.078 51.0436 328.176 50.6204 328.273 50.1973C328.534 48.9603 328.762 47.7721 328.957 46.6328C329.185 45.4935 329.299 44.224 329.299 42.8242C329.299 42.3359 329.283 41.6849 329.25 40.8711C329.25 40.0247 329.217 39.1621 329.152 38.2832C329.087 37.3717 328.99 36.5091 328.859 35.6953C328.729 34.8815 328.534 34.2793 328.273 33.8887C328.176 33.791 328.046 33.6445 327.883 33.4492C327.753 33.2539 327.606 33.0586 327.443 32.8633C327.313 32.668 327.183 32.4889 327.053 32.3262C326.923 32.1634 326.825 32.0658 326.76 32.0332C326.499 31.7402 325.93 31.4798 325.051 31.252C324.204 30.9915 323.309 30.7148 322.365 30.4219C321.454 30.1289 320.624 29.8197 319.875 29.4941C319.159 29.1686 318.801 28.778 318.801 28.3223C318.801 28.2246 318.801 28.1107 318.801 27.9805C318.801 27.8503 318.833 27.7689 318.898 27.7363C319.029 27.2806 319.224 26.9551 319.484 26.7598C319.777 26.5645 320.201 26.4668 320.754 26.4668H321.828C323.163 26.4668 324.465 26.4342 325.734 26.3691C327.004 26.304 328.273 26.2715 329.543 26.2715C330.096 26.2715 330.601 26.304 331.057 26.3691C331.512 26.4342 331.984 26.4668 332.473 26.4668C333.449 26.4668 334.426 26.4017 335.402 26.2715C336.379 26.1087 337.355 26.0273 338.332 26.0273C338.983 26.0273 339.52 26.1901 339.943 26.5156C340.367 26.8086 340.578 27.2969 340.578 27.9805C340.578 28.2734 340.448 28.5339 340.188 28.7617C339.96 28.957 339.683 29.1361 339.357 29.2988C339.032 29.429 338.69 29.543 338.332 29.6406C338.007 29.7057 337.746 29.7383 337.551 29.7383C337.388 29.8034 337.111 29.8848 336.721 29.9824C336.33 30.0475 335.907 30.1289 335.451 30.2266C335.028 30.2917 334.605 30.3568 334.182 30.4219C333.791 30.487 333.531 30.5195 333.4 30.5195C332.814 31.0404 332.456 31.5938 332.326 32.1797C332.229 32.7331 332.115 33.3841 331.984 34.1328C331.984 34.1979 331.968 34.3118 331.936 34.4746C331.903 34.6374 331.854 34.8164 331.789 35.0117C331.757 35.1745 331.708 35.3372 331.643 35.5C331.61 35.6302 331.561 35.7116 331.496 35.7441V35.8418V36.0859C331.529 36.3138 331.561 36.7695 331.594 37.4531C331.659 38.1042 331.708 38.8854 331.74 39.7969C331.773 40.6758 331.805 41.6198 331.838 42.6289C331.87 43.638 331.887 44.5983 331.887 45.5098C331.919 46.3887 331.936 47.1699 331.936 47.8535C331.968 48.5046 331.984 48.944 331.984 49.1719V49.709C331.984 51.0762 331.854 52.3945 331.594 53.6641C331.333 54.9336 331.203 56.252 331.203 57.6191C331.203 59.8327 331.35 62.0299 331.643 64.2109C331.968 66.3594 332.131 68.5566 332.131 70.8027C332.131 70.9004 332.115 71.0632 332.082 71.291C332.082 71.4863 332.066 71.7142 332.033 71.9746C332.033 72.2025 332.017 72.4141 331.984 72.6094C331.984 72.8047 331.984 72.9349 331.984 73C331.691 73.2279 331.398 73.3581 331.105 73.3906C330.845 73.4232 330.568 73.4395 330.275 73.4395C329.917 73.4395 329.576 73.4232 329.25 73.3906C328.957 73.3581 328.632 73.2279 328.273 73C327.915 72.8047 327.574 72.5117 327.248 72.1211C326.955 71.7305 326.678 71.3236 326.418 70.9004C326.19 70.4447 325.979 70.0052 325.783 69.582C325.588 69.1589 325.409 68.8333 325.246 68.6055C324.595 67.4987 323.749 66.5059 322.707 65.627C321.698 64.7155 320.786 63.7878 319.973 62.8438C319.908 62.7461 319.859 62.6484 319.826 62.5508C319.761 62.3555 319.729 62.2415 319.729 62.209C319.631 62.1113 319.436 61.916 319.143 61.623C318.882 61.3301 318.605 61.0208 318.312 60.6953C318.02 60.3372 317.743 60.0117 317.482 59.7188C317.222 59.4258 317.076 59.2305 317.043 59.1328C317.01 59.1328 316.962 59.0677 316.896 58.9375C316.831 58.7747 316.75 58.612 316.652 58.4492C316.587 58.2539 316.522 58.0911 316.457 57.9609C316.392 57.7982 316.359 57.6842 316.359 57.6191C315.839 56.9681 315.285 56.3333 314.699 55.7148C314.146 55.0638 313.544 54.4616 312.893 53.9082C312.86 53.8757 312.762 53.8268 312.6 53.7617C312.469 53.6641 312.323 53.5664 312.16 53.4688C311.997 53.3385 311.835 53.2246 311.672 53.127C311.542 52.9967 311.477 52.8991 311.477 52.834C310.923 52.4434 310.419 51.9876 309.963 51.4668C309.54 50.946 309.117 50.4089 308.693 49.8555C308.303 49.3021 307.896 48.7487 307.473 48.1953C307.082 47.6094 306.659 47.0723 306.203 46.584C306.073 46.4212 305.829 46.1608 305.471 45.8027C305.145 45.4447 304.787 45.0703 304.396 44.6797C304.006 44.2891 303.615 43.9147 303.225 43.5566C302.867 43.1986 302.622 42.9544 302.492 42.8242C302.492 42.7266 302.427 42.6777 302.297 42.6777H302.15C301.727 42.6777 301.467 42.7103 301.369 42.7754C301.304 42.8405 301.141 43.0684 300.881 43.459C300.816 43.6543 300.751 43.8333 300.686 43.9961C300.653 44.1589 300.604 44.3867 300.539 44.6797C300.507 44.9401 300.425 45.4121 300.295 46.0957C300.197 46.7467 300.067 47.3001 299.904 47.7559V47.9023C299.904 48.0651 299.904 48.3092 299.904 48.6348C299.937 48.9277 299.953 49.2207 299.953 49.5137C299.953 50.3926 299.904 51.304 299.807 52.248C299.742 53.1595 299.709 54.0872 299.709 55.0312V55.5195C299.774 55.5846 299.823 55.7799 299.855 56.1055C299.921 56.3984 299.953 56.5612 299.953 56.5938V60.9883C299.986 61.2487 300.035 61.6719 300.1 62.2578C300.165 62.8438 300.23 63.4622 300.295 64.1133C300.36 64.7318 300.409 65.334 300.441 65.9199C300.507 66.4733 300.539 66.8639 300.539 67.0918C300.93 67.6126 301.467 68.0684 302.15 68.459C302.834 68.8496 303.452 69.1263 304.006 69.2891H305.52C305.78 69.3216 306.122 69.3867 306.545 69.4844C306.968 69.582 307.375 69.7285 307.766 69.9238C308.189 70.0866 308.547 70.3145 308.84 70.6074C309.133 70.9004 309.279 71.2422 309.279 71.6328ZM383.873 4.39648C383.873 3.87565 384.117 3.53385 384.605 3.37109C385.126 3.17578 385.663 3.07812 386.217 3.07812H390.025C390.351 3.04557 390.969 3.01302 391.881 2.98047C392.825 2.94792 393.801 2.91536 394.811 2.88281C395.852 2.81771 396.829 2.76888 397.74 2.73633C398.684 2.70378 399.352 2.67122 399.742 2.63867C399.807 2.70378 400.035 2.78516 400.426 2.88281C400.816 2.94792 401.093 3.01302 401.256 3.07812H401.5C401.923 3.07812 402.298 2.96419 402.623 2.73633C402.981 2.50846 403.339 2.39453 403.697 2.39453C403.762 2.32943 403.958 2.29688 404.283 2.29688C404.544 2.29688 404.82 2.31315 405.113 2.3457C405.406 2.37826 405.585 2.39453 405.65 2.39453C405.911 2.32943 406.318 2.26432 406.871 2.19922C407.457 2.10156 408.043 2.00391 408.629 1.90625C409.247 1.80859 409.801 1.72721 410.289 1.66211C410.81 1.59701 411.152 1.54818 411.314 1.51562C411.347 1.51562 411.445 1.48307 411.607 1.41797C411.803 1.35286 411.998 1.28776 412.193 1.22266C412.421 1.125 412.617 1.04362 412.779 0.978516C412.975 0.880859 413.105 0.815755 413.17 0.783203C413.3 0.718099 413.561 0.636719 413.951 0.539062C414.342 0.408854 414.553 0.34375 414.586 0.34375H417.076H419.518C419.941 0.50651 420.185 0.766927 420.25 1.125C420.315 1.48307 420.348 1.82487 420.348 2.15039C420.348 2.2806 420.331 2.45964 420.299 2.6875C420.266 2.88281 420.25 3.01302 420.25 3.07812C420.25 3.14323 420.185 3.25716 420.055 3.41992C419.924 3.55013 419.778 3.69661 419.615 3.85938C419.452 3.98958 419.29 4.11979 419.127 4.25C418.997 4.34766 418.899 4.39648 418.834 4.39648C418.574 4.49414 418.15 4.5918 417.564 4.68945C416.979 4.78711 416.36 4.88477 415.709 4.98242C415.09 5.04753 414.488 5.11263 413.902 5.17773C413.349 5.24284 412.958 5.27539 412.73 5.27539C412.698 5.27539 412.617 5.29167 412.486 5.32422C412.356 5.32422 412.193 5.32422 411.998 5.32422C411.607 5.32422 411.168 5.32422 410.68 5.32422C410.224 5.29167 409.931 5.27539 409.801 5.27539C409.345 5.30794 408.84 5.38932 408.287 5.51953C407.766 5.61719 407.359 5.89388 407.066 6.34961C407.066 6.51237 407.034 6.78906 406.969 7.17969C406.904 7.57031 406.839 7.99349 406.773 8.44922C406.708 8.8724 406.627 9.29557 406.529 9.71875C406.464 10.1094 406.432 10.3698 406.432 10.5C406.432 10.5651 406.383 10.7604 406.285 11.0859C406.188 11.3789 406.139 11.5417 406.139 11.5742C406.106 11.6719 406.074 11.7858 406.041 11.916C406.008 12.0462 405.992 12.2253 405.992 12.4531C405.992 13.2018 406.057 13.918 406.188 14.6016C406.35 15.2852 406.432 16.0501 406.432 16.8965C406.432 18.1009 406.383 19.2728 406.285 20.4121C406.188 21.5189 406.139 22.6582 406.139 23.8301C406.139 23.8952 406.155 24.0091 406.188 24.1719C406.22 24.3021 406.253 24.4648 406.285 24.6602C406.318 24.8555 406.35 25.0345 406.383 25.1973C406.415 25.36 406.432 25.474 406.432 25.5391C406.432 25.6042 406.432 25.7995 406.432 26.125C406.464 26.418 406.48 26.7598 406.48 27.1504C406.48 27.541 406.48 27.9642 406.48 28.4199C406.48 28.8757 406.464 29.3151 406.432 29.7383C406.432 30.1615 406.432 30.5358 406.432 30.8613C406.432 31.1868 406.432 31.4147 406.432 31.5449C406.432 31.5449 406.448 31.6263 406.48 31.7891C406.513 31.9193 406.546 32.0658 406.578 32.2285C406.611 32.3587 406.643 32.5052 406.676 32.668C406.708 32.7982 406.725 32.8633 406.725 32.8633C406.725 32.9935 406.741 33.2376 406.773 33.5957C406.806 33.9538 406.839 34.3444 406.871 34.7676C406.936 35.1582 406.985 35.5488 407.018 35.9395C407.05 36.2975 407.066 36.5742 407.066 36.7695L407.164 36.9648C407.229 37.0951 407.262 37.1927 407.262 37.2578C407.262 39.276 407.164 41.2943 406.969 43.3125C406.773 45.3307 406.594 47.3652 406.432 49.416C406.432 49.5137 406.448 49.6927 406.48 49.9531C406.513 50.181 406.546 50.4414 406.578 50.7344C406.611 50.9948 406.643 51.2552 406.676 51.5156C406.708 51.776 406.725 51.9551 406.725 52.0527C406.757 52.3132 406.79 52.7526 406.822 53.3711C406.887 53.957 406.936 54.5918 406.969 55.2754C407.001 55.959 407.018 56.61 407.018 57.2285C407.05 57.8145 407.066 58.2214 407.066 58.4492C407.132 58.5469 407.164 58.8073 407.164 59.2305C407.164 59.6211 407.164 60.0768 407.164 60.5977C407.164 61.0859 407.148 61.5905 407.115 62.1113C407.115 62.6322 407.115 63.1367 407.115 63.625C407.115 64.0807 407.099 64.4876 407.066 64.8457C407.066 65.1712 407.066 65.3828 407.066 65.4805C407.099 65.6432 407.132 65.8711 407.164 66.1641C407.229 66.457 407.294 66.75 407.359 67.043C407.424 67.3359 407.522 67.6126 407.652 67.873C407.815 68.1009 408.027 68.2637 408.287 68.3613C408.417 68.3613 408.678 68.3776 409.068 68.4102C409.459 68.4427 409.866 68.4753 410.289 68.5078C410.745 68.5078 411.168 68.5241 411.559 68.5566C411.949 68.5892 412.21 68.6055 412.34 68.6055C412.47 68.6055 412.682 68.638 412.975 68.7031C413.268 68.7682 413.447 68.8171 413.512 68.8496C413.87 68.8496 414.488 68.8496 415.367 68.8496C416.279 68.8171 417.288 68.8008 418.395 68.8008C419.436 68.8008 420.413 68.8171 421.324 68.8496C422.236 68.8496 422.87 68.8496 423.229 68.8496C423.261 68.8496 423.375 68.8659 423.57 68.8984C423.798 68.931 424.042 68.9798 424.303 69.0449C424.563 69.0775 424.807 69.1263 425.035 69.1914C425.296 69.224 425.458 69.2565 425.523 69.2891C426.923 69.3542 428.372 69.4844 429.869 69.6797C431.399 69.875 432.896 69.9727 434.361 69.9727C434.785 69.9727 435.11 69.9564 435.338 69.9238C435.598 69.8587 435.956 69.7611 436.412 69.6309C437.161 69.2402 437.893 68.8496 438.609 68.459C439.326 68.0358 440.058 67.6289 440.807 67.2383C441.002 67.0104 441.181 66.8314 441.344 66.7012C441.507 66.571 441.669 66.457 441.832 66.3594C441.995 66.2617 442.158 66.1478 442.32 66.0176C442.516 65.8874 442.743 65.7083 443.004 65.4805C443.948 64.6667 444.778 63.7552 445.494 62.7461C446.243 61.737 446.959 60.7116 447.643 59.6699C448.326 58.5957 449.01 57.5378 449.693 56.4961C450.377 55.4219 451.158 54.4453 452.037 53.5664C452.037 53.5013 452.118 53.4688 452.281 53.4688H452.33C452.33 53.4688 452.395 53.5013 452.525 53.5664L452.623 53.8594C452.656 53.9245 452.688 53.9896 452.721 54.0547C452.753 54.1198 452.77 54.1849 452.77 54.25C452.802 54.3477 452.851 54.5918 452.916 54.9824C452.981 55.3405 453.046 55.7474 453.111 56.2031C453.176 56.6589 453.242 57.0983 453.307 57.5215C453.372 57.9447 453.421 58.2539 453.453 58.4492V58.7422V59.1328C453.453 59.2956 453.421 59.6699 453.355 60.2559C453.29 60.8092 453.209 61.4277 453.111 62.1113C453.046 62.7949 452.981 63.446 452.916 64.0645C452.851 64.6504 452.802 65.041 452.77 65.2363C452.77 65.334 452.753 65.5944 452.721 66.0176C452.688 66.4408 452.656 66.9128 452.623 67.4336C452.623 67.9219 452.607 68.3939 452.574 68.8496C452.542 69.2728 452.525 69.5332 452.525 69.6309C452.363 70.6725 452.053 71.5026 451.598 72.1211C451.142 72.707 450.442 73 449.498 73C449.205 72.9349 448.684 72.9023 447.936 72.9023C447.187 72.9023 446.389 72.9023 445.543 72.9023C444.697 72.9023 443.899 72.9023 443.15 72.9023C442.402 72.9023 441.897 72.9349 441.637 73C441.572 73 441.441 73 441.246 73C441.083 73.0326 440.888 73.0651 440.66 73.0977C440.432 73.1302 440.221 73.1465 440.025 73.1465C439.863 73.179 439.749 73.2116 439.684 73.2441H429.625C429.397 73.2767 428.811 73.3092 427.867 73.3418C426.956 73.4069 425.979 73.4557 424.938 73.4883C423.896 73.5534 422.903 73.6022 421.959 73.6348C421.048 73.6673 420.478 73.6836 420.25 73.6836H420.104H419.859C419.664 73.651 419.16 73.6022 418.346 73.5371C417.564 73.472 416.702 73.3906 415.758 73.293C414.846 73.2279 414 73.1628 413.219 73.0977C412.438 73.0326 411.949 73 411.754 73H408.287C408.222 73 408.027 72.9674 407.701 72.9023C407.376 72.8047 407.164 72.7559 407.066 72.7559C407.066 72.7559 406.985 72.7721 406.822 72.8047C406.692 72.8372 406.546 72.8698 406.383 72.9023C406.22 72.9023 406.057 72.9186 405.895 72.9512C405.764 72.9837 405.683 73 405.65 73H403.355C400.816 73.0651 398.261 73.1953 395.689 73.3906C393.15 73.5859 390.579 73.6836 387.975 73.6836H385.631C385.566 73.6836 385.484 73.6673 385.387 73.6348C385.322 73.6022 385.143 73.472 384.85 73.2441C384.785 73.179 384.719 73.0326 384.654 72.8047C384.622 72.5768 384.605 72.3652 384.605 72.1699C384.605 71.8118 384.671 71.5026 384.801 71.2422C384.964 70.9492 385.175 70.7702 385.436 70.7051C385.501 70.6725 385.631 70.6074 385.826 70.5098C386.021 70.3796 386.152 70.2819 386.217 70.2168C386.868 69.9238 387.633 69.7773 388.512 69.7773C389.423 69.7773 390.335 69.7611 391.246 69.7285C392.158 69.6634 393.004 69.5169 393.785 69.2891C394.566 69.0286 395.169 68.5241 395.592 67.7754C395.624 67.6452 395.657 67.401 395.689 67.043C395.722 66.6523 395.755 66.2617 395.787 65.8711C395.82 65.4479 395.852 65.0736 395.885 64.748C395.917 64.39 395.934 64.1621 395.934 64.0645C395.934 63.9668 395.868 63.7552 395.738 63.4297C395.641 63.0716 395.592 62.86 395.592 62.7949V60.2559L395.445 59.1328C395.413 59.0677 395.396 59.0026 395.396 58.9375C395.364 58.8724 395.348 58.8073 395.348 58.7422C395.348 58.2214 395.38 57.7819 395.445 57.4238C395.543 57.0658 395.592 56.6589 395.592 56.2031V55.4219C395.592 55.2917 395.559 55.0801 395.494 54.7871C395.462 54.4941 395.445 54.3151 395.445 54.25C395.445 54.1523 395.462 53.9082 395.494 53.5176C395.559 53.127 395.592 52.8665 395.592 52.7363V49.416C395.592 49.2533 395.657 48.9603 395.787 48.5371C395.917 48.1139 395.966 47.821 395.934 47.6582C395.868 47.4954 395.803 47.0397 395.738 46.291C395.706 45.5423 395.657 44.3379 395.592 42.6777V39.3086C395.657 37.6484 395.706 36.4603 395.738 35.7441C395.803 35.028 395.868 34.6048 395.934 34.4746V34.2305C395.934 32.9935 395.868 31.7565 395.738 30.5195C395.641 29.2826 395.592 28.0456 395.592 26.8086C395.592 26.5807 395.576 26.3529 395.543 26.125C395.51 25.8971 395.494 25.6693 395.494 25.4414C395.494 25.1484 395.559 24.7415 395.689 24.2207C395.852 23.6673 395.934 23.0326 395.934 22.3164C395.934 21.5026 395.917 20.6725 395.885 19.8262C395.852 18.9473 395.836 18.0846 395.836 17.2383C395.836 16.4896 395.852 15.7572 395.885 15.041C395.917 14.2923 395.934 13.5436 395.934 12.7949C395.771 12.4368 395.657 12.0137 395.592 11.5254C395.559 11.0371 395.51 10.5651 395.445 10.1094C395.413 9.62109 395.348 9.18164 395.25 8.79102C395.185 8.36784 395.022 8.05859 394.762 7.86328C394.306 7.50521 393.639 7.27734 392.76 7.17969C391.913 7.04948 390.969 6.93555 389.928 6.83789C389.049 6.77279 388.154 6.72396 387.242 6.69141C386.363 6.6263 385.631 6.46354 385.045 6.20312C384.264 5.91016 383.873 5.30794 383.873 4.39648ZM479.91 53.6641C479.91 54.1198 480.122 54.4453 480.545 54.6406C480.968 54.8359 481.359 54.9336 481.717 54.9336H484.305C484.663 54.9336 485.021 54.9499 485.379 54.9824C485.737 55.015 486.095 55.0312 486.453 55.0312C487.299 55.0312 488.032 54.901 488.65 54.6406C489.269 54.3477 489.578 53.7129 489.578 52.7363V51.9062C489.285 50.4089 488.846 48.9277 488.26 47.4629C487.674 45.9655 487.12 44.5169 486.6 43.1172C486.535 42.8893 486.437 42.6452 486.307 42.3848C486.209 42.0918 486.079 41.8314 485.916 41.6035C485.753 41.3431 485.574 41.1315 485.379 40.9688C485.184 40.806 484.972 40.7246 484.744 40.7246C484.321 40.7246 483.979 40.9036 483.719 41.2617C483.491 41.6198 483.296 42.043 483.133 42.5312C483.003 43.0195 482.889 43.5241 482.791 44.0449C482.693 44.5332 482.579 44.9238 482.449 45.2168C482.352 45.5098 482.173 46.0306 481.912 46.7793C481.684 47.528 481.44 48.3255 481.18 49.1719C480.919 49.9857 480.659 50.7669 480.398 51.5156C480.171 52.2643 480.008 52.7852 479.91 53.0781V53.6641ZM468.533 72.7559H468.289C468.224 72.7559 468.061 72.7884 467.801 72.8535C467.54 72.8861 467.247 72.9349 466.922 73C466.596 73.0326 466.287 73.0651 465.994 73.0977C465.734 73.1302 465.571 73.1465 465.506 73.1465H465.213C465.018 73.1465 464.855 73.0651 464.725 72.9023C464.594 72.7396 464.497 72.5605 464.432 72.3652C464.367 72.1374 464.334 71.9258 464.334 71.7305C464.301 71.5026 464.285 71.3561 464.285 71.291V71.1445C464.285 70.5586 464.48 70.168 464.871 69.9727C465.294 69.7773 465.701 69.5983 466.092 69.4355C466.157 69.4355 466.32 69.3867 466.58 69.2891C466.84 69.1589 467.117 69.0286 467.41 68.8984C467.736 68.7682 468.029 68.6543 468.289 68.5566C468.549 68.4264 468.712 68.3288 468.777 68.2637C468.81 68.2311 468.908 68.1497 469.07 68.0195C469.233 67.8568 469.412 67.6777 469.607 67.4824C469.803 67.2871 469.982 67.0918 470.145 66.8965C470.34 66.7012 470.503 66.5384 470.633 66.4082C470.665 66.3431 470.714 66.2617 470.779 66.1641C470.91 65.9688 470.975 65.8223 470.975 65.7246C470.975 65.6595 471.007 65.4642 471.072 65.1387C471.17 64.8132 471.251 64.6178 471.316 64.5527C472.195 62.7949 473.074 61.0208 473.953 59.2305C474.832 57.4076 475.662 55.5846 476.443 53.7617C476.541 53.6641 476.671 53.3874 476.834 52.9316C477.029 52.4434 477.16 52.1016 477.225 51.9062C477.257 51.8411 477.339 51.6458 477.469 51.3203C477.599 50.9622 477.729 50.6042 477.859 50.2461C477.99 49.8555 478.104 49.4974 478.201 49.1719C478.331 48.8464 478.396 48.651 478.396 48.5859C478.429 48.4883 478.527 48.2604 478.689 47.9023C478.885 47.5443 479.08 47.1536 479.275 46.7305C479.503 46.3073 479.699 45.9004 479.861 45.5098C480.057 45.1191 480.187 44.875 480.252 44.7773C480.512 44.1914 480.757 43.6706 480.984 43.2148C481.245 42.7266 481.489 42.1569 481.717 41.5059C481.847 41.2454 482.01 40.9525 482.205 40.627C482.433 40.3014 482.645 39.9596 482.84 39.6016C483.035 39.2109 483.198 38.8366 483.328 38.4785C483.491 38.1204 483.572 37.7786 483.572 37.4531V36.7695C483.572 36.6393 483.523 36.4277 483.426 36.1348C483.361 35.8092 483.328 35.6302 483.328 35.5977C483.328 35.3698 483.458 35.0768 483.719 34.7188C483.979 34.3607 484.174 34.1328 484.305 34.0352C484.37 34.0026 484.516 33.9375 484.744 33.8398C485.005 33.7422 485.265 33.6283 485.525 33.498C485.786 33.3678 486.014 33.2539 486.209 33.1562C486.437 33.0586 486.567 32.9935 486.6 32.9609C486.665 32.8958 486.795 32.7656 486.99 32.5703C487.186 32.375 487.397 32.1634 487.625 31.9355C487.885 31.6751 488.113 31.431 488.309 31.2031C488.536 30.9427 488.699 30.7637 488.797 30.666C488.829 30.6335 488.895 30.5358 488.992 30.373C489.09 30.1777 489.204 29.9987 489.334 29.8359C489.464 29.6406 489.611 29.4779 489.773 29.3477C489.936 29.1849 490.115 29.1198 490.311 29.1523C490.636 29.25 490.913 29.543 491.141 30.0312C491.401 30.5195 491.613 31.0566 491.775 31.6426C491.971 32.196 492.133 32.7493 492.264 33.3027C492.394 33.8236 492.508 34.1816 492.605 34.377C492.638 34.5397 492.687 34.7676 492.752 35.0605C492.85 35.3535 492.931 35.6465 492.996 35.9395C493.094 36.2324 493.175 36.4928 493.24 36.7207C493.305 36.9486 493.338 37.0788 493.338 37.1113C493.37 37.209 493.419 37.4368 493.484 37.7949C493.549 38.153 493.615 38.5436 493.68 38.9668C493.777 39.39 493.859 39.7806 493.924 40.1387C493.989 40.4642 494.021 40.6595 494.021 40.7246C494.054 40.8223 494.135 41.1315 494.266 41.6523C494.428 42.1732 494.607 42.7754 494.803 43.459C494.998 44.1426 495.193 44.8262 495.389 45.5098C495.584 46.1608 495.747 46.6816 495.877 47.0723C496.137 47.9512 496.463 48.8301 496.854 49.709C497.244 50.5553 497.537 51.418 497.732 52.2969C497.895 53.0456 497.993 53.6478 498.025 54.1035C498.09 54.5267 498.253 55.0475 498.514 55.666C498.546 55.7311 498.611 55.8776 498.709 56.1055C498.839 56.3008 498.969 56.5286 499.1 56.7891C499.23 57.0169 499.344 57.2448 499.441 57.4727C499.539 57.7005 499.604 57.8633 499.637 57.9609C499.637 58.026 499.653 58.14 499.686 58.3027C499.718 58.4655 499.751 58.6608 499.783 58.8887C499.848 59.084 499.897 59.2793 499.93 59.4746C499.962 59.6374 499.995 59.7513 500.027 59.8164C500.027 59.849 500.06 59.9629 500.125 60.1582C500.19 60.321 500.271 60.5163 500.369 60.7441C500.467 60.9395 500.548 61.1348 500.613 61.3301C500.711 61.4928 500.776 61.5742 500.809 61.5742C500.971 62.4206 501.183 63.332 501.443 64.3086C501.704 65.2852 502.111 66.1478 502.664 66.8965C502.924 67.2871 503.396 67.6126 504.08 67.873C504.796 68.1335 505.512 68.3939 506.229 68.6543C506.977 68.9147 507.628 69.2077 508.182 69.5332C508.735 69.8587 509.012 70.2819 509.012 70.8027C509.012 71.3561 508.865 71.7956 508.572 72.1211C508.312 72.4141 507.97 72.6419 507.547 72.8047C507.124 72.9674 506.652 73.0651 506.131 73.0977C505.61 73.1302 505.122 73.1465 504.666 73.1465H503.689H502.664C502.143 73.1465 501.232 73.1302 499.93 73.0977C498.628 73.0651 497.228 73.0326 495.73 73C494.266 72.9349 492.866 72.8861 491.531 72.8535C490.229 72.7884 489.318 72.7559 488.797 72.7559C488.439 72.6257 488.227 72.4792 488.162 72.3164C488.097 72.1211 488.064 71.8444 488.064 71.4863V71.1445C488.064 71.0794 488.081 71.0143 488.113 70.9492C488.406 70.3307 488.813 69.9238 489.334 69.7285C489.855 69.5007 490.392 69.3216 490.945 69.1914C491.531 69.0612 492.101 68.9147 492.654 68.752C493.208 68.5566 493.663 68.166 494.021 67.5801L494.119 67.2383L494.021 66.8965C493.989 66.6035 493.908 66.1966 493.777 65.6758C493.68 65.1549 493.566 64.6341 493.436 64.1133C493.338 63.5924 493.24 63.1367 493.143 62.7461C493.045 62.3229 492.98 62.0788 492.947 62.0137C492.882 61.9486 492.785 61.7858 492.654 61.5254C492.524 61.265 492.378 60.972 492.215 60.6465C492.085 60.321 491.938 60.0117 491.775 59.7188C491.645 59.3932 491.531 59.1491 491.434 58.9863C491.076 58.4329 490.571 58.1074 489.92 58.0098C489.301 57.8796 488.683 57.8145 488.064 57.8145H487.088C485.916 57.8145 484.809 57.8958 483.768 58.0586C482.758 58.2214 481.684 58.3027 480.545 58.3027C480.317 58.3027 480.089 58.2865 479.861 58.2539C479.633 58.2214 479.406 58.2051 479.178 58.2051C478.95 58.4329 478.836 58.612 478.836 58.7422C478.771 58.7747 478.689 58.9049 478.592 59.1328C478.527 59.3281 478.445 59.556 478.348 59.8164C478.283 60.0443 478.201 60.2721 478.104 60.5C478.038 60.6953 478.006 60.8092 478.006 60.8418C478.006 60.9069 477.892 61.1022 477.664 61.4277C477.469 61.7533 477.322 61.9486 477.225 62.0137C476.834 62.8275 476.606 63.6738 476.541 64.5527C476.476 65.3991 476.443 66.278 476.443 67.1895C476.443 67.7103 476.606 68.1009 476.932 68.3613C477.257 68.5892 477.664 68.7682 478.152 68.8984C478.641 69.0286 479.161 69.1426 479.715 69.2402C480.268 69.3053 480.789 69.4193 481.277 69.582C481.766 69.7122 482.173 69.9238 482.498 70.2168C482.824 70.5098 482.986 70.9329 482.986 71.4863C482.986 72.5605 482.482 73.2279 481.473 73.4883C481.342 73.4883 481.098 73.472 480.74 73.4395C480.415 73.4069 480.073 73.3743 479.715 73.3418C479.357 73.3092 479.015 73.2767 478.689 73.2441C478.364 73.2116 478.136 73.179 478.006 73.1465H474.539H473.172C473.074 73.1465 472.814 73.1302 472.391 73.0977C471.967 73.0651 471.495 73.0326 470.975 73C470.454 72.9349 469.982 72.8861 469.559 72.8535C469.135 72.7884 468.875 72.7559 468.777 72.7559H468.533ZM538.252 42.3359C538.252 43.4427 538.35 44.4518 538.545 45.3633C538.773 46.2747 539.18 47.2025 539.766 48.1465H542.061H542.891C543.542 48.1465 544.16 48.1139 544.746 48.0488C545.365 47.9837 545.934 47.8047 546.455 47.5117C547.008 47.1536 547.546 46.6003 548.066 45.8516C548.62 45.1029 549.108 44.3053 549.531 43.459C549.987 42.5801 550.345 41.7174 550.605 40.8711C550.866 39.9922 550.996 39.2435 550.996 38.625C550.996 37.8763 550.866 37.1764 550.605 36.5254C550.345 35.8743 550.003 35.2721 549.58 34.7188C549.189 34.1328 548.717 33.612 548.164 33.1562C547.611 32.668 547.041 32.2285 546.455 31.8379C546.357 31.7728 546.195 31.6751 545.967 31.5449C545.771 31.4147 545.576 31.2845 545.381 31.1543C545.186 31.0241 545.007 30.9102 544.844 30.8125C544.714 30.7148 544.632 30.666 544.6 30.666C544.535 30.666 544.404 30.666 544.209 30.666C544.046 30.6335 543.851 30.6172 543.623 30.6172C543.428 30.5846 543.216 30.5684 542.988 30.5684C542.793 30.5358 542.63 30.5195 542.5 30.5195C542.272 30.5195 541.947 30.5521 541.523 30.6172C541.133 30.6497 540.921 30.666 540.889 30.666L539.424 32.1309C539.229 33.8887 538.984 35.6139 538.691 37.3066C538.398 38.9668 538.252 40.6432 538.252 42.3359ZM538.594 61.0859C538.594 61.737 538.561 62.4043 538.496 63.0879C538.464 63.7715 538.447 64.4551 538.447 65.1387C538.447 65.7897 538.496 66.4245 538.594 67.043C538.691 67.6289 538.87 68.1497 539.131 68.6055C539.424 69.0612 539.814 69.4355 540.303 69.7285C540.824 69.9889 541.491 70.1191 542.305 70.1191C543.509 70.1191 544.681 69.875 545.82 69.3867C546.96 68.8659 547.904 68.1335 548.652 67.1895C548.717 67.1895 548.799 67.0592 548.896 66.7988C548.994 66.5384 549.076 66.3757 549.141 66.3105C549.173 66.278 549.303 66.1641 549.531 65.9688C549.759 65.7409 549.987 65.513 550.215 65.2852C550.475 65.0247 550.703 64.7969 550.898 64.6016C551.126 64.4062 551.24 64.276 551.24 64.2109V62.8438C551.24 61.3789 551.126 60.028 550.898 58.791C550.671 57.554 550.28 56.431 549.727 55.4219C549.173 54.4128 548.424 53.5664 547.48 52.8828C546.536 52.1667 545.348 51.6133 543.916 51.2227C543.753 51.1901 543.509 51.125 543.184 51.0273C542.858 50.9297 542.5 50.832 542.109 50.7344C541.751 50.6367 541.393 50.5553 541.035 50.4902C540.71 50.3926 540.465 50.3438 540.303 50.3438H540.107C540.107 50.4089 540.059 50.474 539.961 50.5391C539.896 50.6042 539.831 50.653 539.766 50.6855C539.701 50.8158 539.619 50.9622 539.521 51.125C539.456 51.2552 539.391 51.4017 539.326 51.5645L539.033 52.1504C539.001 52.3132 538.968 52.5573 538.936 52.8828C538.903 53.2083 538.87 53.5501 538.838 53.9082C538.805 54.2663 538.773 54.6081 538.74 54.9336C538.708 55.2266 538.691 55.4219 538.691 55.5195C538.659 55.6172 538.626 55.8939 538.594 56.3496C538.594 56.7728 538.594 57.2773 538.594 57.8633C538.594 58.4492 538.594 59.0352 538.594 59.6211C538.594 60.207 538.594 60.6953 538.594 61.0859ZM520.869 71.7305C520.869 71.4701 520.885 71.2422 520.918 71.0469C520.983 70.819 521.162 70.6237 521.455 70.4609C521.585 70.4609 521.813 70.4447 522.139 70.4121C522.497 70.3796 522.855 70.347 523.213 70.3145C523.604 70.2819 523.945 70.2493 524.238 70.2168C524.531 70.1842 524.727 70.1517 524.824 70.1191C524.857 70.1191 524.938 70.1029 525.068 70.0703C525.231 70.0378 525.394 70.0052 525.557 69.9727C525.752 69.9076 525.931 69.8587 526.094 69.8262C526.257 69.7611 526.37 69.7285 526.436 69.7285C526.631 69.696 526.924 69.6797 527.314 69.6797C527.705 69.6471 528.096 69.5983 528.486 69.5332C528.877 69.4355 529.219 69.2891 529.512 69.0938C529.805 68.8659 529.967 68.5566 530 68.166C530.033 67.7103 530.081 66.9779 530.146 65.9688C530.212 64.9596 530.277 63.8203 530.342 62.5508C530.407 61.2812 530.456 59.9466 530.488 58.5469C530.553 57.1471 530.602 55.8125 530.635 54.543C530.7 53.2734 530.749 52.1341 530.781 51.125C530.814 50.0833 530.83 49.3184 530.83 48.8301V46.6328V41.0664C530.863 41.0339 530.895 40.9362 530.928 40.7734C530.96 40.5781 530.993 40.3828 531.025 40.1875C531.09 39.9596 531.139 39.7643 531.172 39.6016C531.204 39.4062 531.221 39.276 531.221 39.2109V38.7227C531.221 38.0716 531.156 37.4531 531.025 36.8672C530.895 36.2812 530.83 35.7116 530.83 35.1582C530.83 34.7676 530.895 34.4421 531.025 34.1816C531.156 33.8887 531.221 33.5957 531.221 33.3027C531.221 32.6517 531.074 32.1797 530.781 31.8867C530.521 31.5612 530.179 31.3496 529.756 31.252C529.365 31.1217 528.926 31.0729 528.438 31.1055C527.982 31.1055 527.559 31.0729 527.168 31.0078C527.005 31.0078 526.777 30.9915 526.484 30.959C526.191 30.9264 525.882 30.8939 525.557 30.8613C525.231 30.8288 524.938 30.7962 524.678 30.7637C524.417 30.7311 524.238 30.6986 524.141 30.666C523.783 30.5358 523.555 30.373 523.457 30.1777C523.359 29.9499 523.311 29.6732 523.311 29.3477C523.311 29.1198 523.408 28.9082 523.604 28.7129C523.799 28.485 524.043 28.306 524.336 28.1758C524.629 28.013 524.922 27.8828 525.215 27.7852C525.54 27.6875 525.801 27.6387 525.996 27.6387H533.516C533.613 27.6387 533.857 27.6061 534.248 27.541C534.639 27.4434 534.883 27.3945 534.98 27.3945H535.127H535.225C535.322 27.3945 535.518 27.4271 535.811 27.4922C536.104 27.5573 536.413 27.6387 536.738 27.7363C537.096 27.834 537.422 27.9154 537.715 27.9805C538.008 28.0456 538.187 28.0781 538.252 28.0781H538.496H538.691C538.724 28.0781 538.887 28.0293 539.18 27.9316C539.505 27.8014 539.701 27.7038 539.766 27.6387L551.582 28.0781C551.745 28.0781 551.973 28.1107 552.266 28.1758C552.559 28.2083 552.868 28.2734 553.193 28.3711C553.519 28.4362 553.812 28.5176 554.072 28.6152C554.365 28.6803 554.561 28.7454 554.658 28.8105C554.691 28.8431 554.805 28.9408 555 29.1035C555.195 29.2663 555.407 29.4453 555.635 29.6406C555.895 29.8359 556.139 30.0312 556.367 30.2266C556.595 30.4219 556.758 30.5684 556.855 30.666C557.799 31.6426 558.402 32.7982 558.662 34.1328C558.955 35.4674 559.102 36.7695 559.102 38.0391C559.102 39.569 558.776 41.0339 558.125 42.4336C557.507 43.8333 556.579 45.0378 555.342 46.0469C555.277 46.0794 555.081 46.2096 554.756 46.4375C554.43 46.6328 554.072 46.8607 553.682 47.1211C553.324 47.349 552.982 47.5768 552.656 47.8047C552.363 48 552.184 48.1139 552.119 48.1465C551.989 48.2116 551.826 48.3255 551.631 48.4883C551.436 48.651 551.305 48.765 551.24 48.8301C551.468 49.1556 551.777 49.416 552.168 49.6113C552.591 49.8066 553.014 50.002 553.438 50.1973C553.893 50.36 554.316 50.5228 554.707 50.6855C555.13 50.8158 555.472 50.9948 555.732 51.2227C555.83 51.2552 556.025 51.418 556.318 51.7109C556.611 51.9714 556.937 52.2806 557.295 52.6387C557.653 52.9967 557.995 53.3711 558.32 53.7617C558.678 54.1198 558.939 54.3965 559.102 54.5918C559.329 54.8197 559.541 55.2591 559.736 55.9102C559.932 56.5612 560.094 57.2611 560.225 58.0098C560.355 58.7585 560.452 59.4746 560.518 60.1582C560.615 60.8418 560.664 61.3464 560.664 61.6719C560.664 61.7044 560.648 61.7533 560.615 61.8184C560.615 61.8835 560.615 61.9486 560.615 62.0137C560.583 62.1113 560.566 62.1927 560.566 62.2578C560.566 62.3555 560.501 62.5671 560.371 62.8926C560.273 63.1855 560.225 63.3809 560.225 63.4785C560.192 63.5436 560.16 63.7064 560.127 63.9668C560.094 64.1947 560.046 64.4551 559.98 64.748C559.948 65.041 559.915 65.3177 559.883 65.5781C559.85 65.806 559.818 65.9688 559.785 66.0664C559.655 66.2617 559.525 66.457 559.395 66.6523C559.264 66.8151 559.134 66.9941 559.004 67.1895C558.906 67.3522 558.809 67.4661 558.711 67.5312C558.646 67.5964 558.516 67.7266 558.32 67.9219C558.158 68.1172 557.979 68.3451 557.783 68.6055C557.588 68.8333 557.393 69.0612 557.197 69.2891C557.035 69.4844 556.921 69.6309 556.855 69.7285C556.497 70.1191 556.123 70.4121 555.732 70.6074C555.374 70.7702 555 70.9004 554.609 70.998C554.219 71.0957 553.812 71.1771 553.389 71.2422C552.965 71.3073 552.542 71.4212 552.119 71.584C551.989 71.6165 551.777 71.7467 551.484 71.9746C551.191 72.2025 550.98 72.3164 550.85 72.3164C550.785 72.349 550.638 72.3815 550.41 72.4141C550.182 72.4466 549.922 72.4954 549.629 72.5605C549.336 72.5931 549.043 72.6257 548.75 72.6582C548.49 72.6908 548.311 72.7233 548.213 72.7559C548.148 72.7884 547.92 72.8372 547.529 72.9023C547.139 72.9674 546.715 73.0326 546.26 73.0977C545.804 73.1953 545.365 73.2767 544.941 73.3418C544.518 73.4069 544.258 73.4395 544.16 73.4395H543.428C542.223 73.4395 541.051 73.3581 539.912 73.1953C538.773 73.0651 537.65 73 536.543 73C534.492 73 532.458 73.0651 530.439 73.1953C528.454 73.3581 526.468 73.4395 524.482 73.4395C524.124 73.4395 523.734 73.4232 523.311 73.3906C522.92 73.3906 522.529 73.3418 522.139 73.2441C521.781 73.1465 521.471 72.9837 521.211 72.7559C520.983 72.528 520.869 72.1862 520.869 71.7305Z" fill="#180D0D"/>
</svg>
