<svg width="330" height="309" viewBox="0 0 330 309" fill="none" xmlns="http://www.w3.org/2000/svg">
<path d="M167.608 184.517L167.158 215.514L166.499 260.931L165 261.83L163.531 260.931L163.141 233.291L162.901 217.373L162.422 184.517L164.97 183.707L167.608 184.517Z" fill="#8ADAD3"/>
<path d="M163.771 276.85L164.28 307.787C164.28 307.787 164.4 308.477 165.03 308.477C165.659 308.477 165.749 307.727 165.749 307.727L166.259 276.85L165 276.13L163.771 276.85Z" fill="#8ADAD3"/>
<path d="M176.122 17.5978C176.122 22.3344 173.154 26.3514 169.017 27.9703L168.568 116.016L167.878 164.851L165.03 166.05L162.152 164.851L161.373 116.016L161.013 27.9703C156.846 26.3514 153.908 22.3344 153.908 17.5978C153.908 11.4822 158.885 6.50586 165 6.50586C171.146 6.50586 176.122 11.4822 176.122 17.5978Z" fill="#8ADAD3"/>
<path d="M170.426 170.967C166.259 169.438 162.092 167.609 157.955 166.17C149.981 162.992 143.116 160.564 137.9 158.196C123.99 151.84 118.264 146.205 116.196 136.641C113.947 126.179 121.082 116.616 126.448 113.468C126.448 113.468 128.157 117.156 135.562 116.676C139.279 116.436 150.851 111.49 154.598 106.663C158.315 101.837 147.943 90.0853 125.909 97.5199C117.245 100.428 106.213 106.334 101.806 119.194C98.2389 129.657 96.0804 151.031 120.483 164.731C131.335 170.817 143.596 174.144 159.724 179.33C163.232 180.47 166.769 181.489 170.276 182.568C182.508 186.315 192.58 189.973 192.58 197.677C192.58 206.491 181.758 211.797 169.767 217.193L169.617 227.356C184.936 220.461 202.443 212.996 202.443 197.677C202.443 182.868 185.685 176.752 170.426 170.967ZM169.047 267.316C168.178 266.807 167.309 266.267 166.439 265.758C165.48 265.188 164.551 264.648 163.591 264.049C162.692 263.509 161.793 262.97 160.923 262.4C153.429 257.633 147.223 252.507 147.223 245.672C147.223 239.826 152.829 235.629 160.474 231.672L160.324 221.51C148.752 227.026 138.53 233.561 138.53 244.383C138.53 257.574 150.131 264.798 161.043 270.884C161.943 271.393 162.812 271.873 163.711 272.353C164.581 272.832 165.48 273.342 166.319 273.792C167.219 274.301 168.088 274.781 168.927 275.291C175.073 278.918 179.69 283.385 179.69 289.44C179.69 298.884 174.833 302.511 168.538 303.59C175.223 304.4 186.615 299.423 185.715 286.712C185.026 277.419 178.161 272.772 169.047 267.316Z" fill="#8ADAD3"/>
<path d="M127.557 197.707C127.557 213.026 145.095 220.521 160.383 227.386L160.234 217.223C148.272 211.827 137.42 206.491 137.42 197.707C137.42 189.973 147.493 186.315 159.724 182.598C163.201 181.519 166.769 180.5 170.276 179.36C186.405 174.174 198.696 170.877 209.518 164.761C233.92 151.031 231.762 129.687 228.194 119.224C223.817 106.394 212.755 100.488 204.092 97.55C182.058 90.1154 171.655 101.837 175.403 106.693C179.15 111.52 190.751 116.466 194.439 116.706C201.843 117.186 203.552 113.498 203.552 113.498C208.948 116.646 216.083 126.209 213.805 136.671C211.736 146.235 206.01 151.87 192.1 158.226C186.854 160.624 180.019 163.022 172.045 166.2C167.908 167.609 163.711 169.468 159.574 170.997C144.315 176.752 127.557 182.868 127.557 197.707ZM144.345 286.742C143.446 299.453 154.837 304.43 161.523 303.62C155.197 302.541 150.371 298.914 150.371 289.47C150.371 283.415 154.987 278.978 161.133 275.321C161.972 274.811 162.842 274.331 163.741 273.822C164.58 273.342 165.45 272.862 166.349 272.383C167.249 271.903 168.118 271.394 169.017 270.914C179.899 264.858 191.531 257.634 191.531 244.413C191.531 233.591 181.308 227.086 169.737 221.54L169.587 231.702C177.231 235.66 182.837 239.886 182.837 245.702C182.837 252.537 176.632 257.664 169.137 262.43C168.268 262.97 167.368 263.539 166.469 264.079C165.54 264.648 164.58 265.218 163.621 265.788C162.752 266.297 161.882 266.837 161.013 267.346C151.84 272.773 145.005 277.419 144.345 286.742Z" fill="#8ADAD3"/>
<path d="M304.819 43.4093C315.881 42.2701 327.422 34.8955 330 25.9919C290.549 27.1011 272.052 21.2254 250.378 13.0114C246.331 27.5508 235.569 31.4779 221.899 35.0753C217.732 36.1845 213.925 38.9725 209.488 42.2401C201.424 48.1758 191.381 55.5504 174.234 55.5504V66.5524C174.234 78.9634 187.004 78.6037 187.004 78.6037C187.004 78.6037 185.715 71.1991 186.255 65.6231C188.533 80.0726 195.518 83.4002 205.141 83.4002C198.486 74.3168 200.704 59.6874 200.704 59.6874C208.289 88.0168 221.06 88.5265 228.314 84.3295C222.768 78.7836 215.723 64.8737 214.974 52.073C220.16 64.3041 227.385 77.4645 235.359 81.7214C243.333 85.9783 254.815 84.7192 257.453 80.1326C240.456 70.2997 230.173 47.846 230.173 47.846C253.526 77.8542 272.052 82.261 279.817 82.6807C288.93 83.1903 294.506 80.972 301.011 75.426C283.234 70.4196 255.924 55.9701 241.475 37.0839C263.719 59.5675 285.573 64.7238 297.234 64.7238C308.896 64.7238 317.739 58.5782 320.137 51.1736C293.457 48.7754 277.029 44.3086 257.753 31.5379C271.003 39.0325 289.77 44.9681 304.819 43.4093ZM220.22 1.79952C203.372 -3.29677 192.58 2.9387 190.122 14.1206C186.854 28.8998 182.058 33.6963 174.264 35.3451V51.2036C199.475 51.2036 207.929 34.3259 221.06 30.8484C234.34 27.341 243.363 24.0434 246.991 11.5724C246.961 11.5724 232.871 5.63673 220.22 1.79952Z" fill="#8ADAD3"/>
<path d="M72.2475 31.5379C52.9715 44.3086 36.5435 48.7754 9.86285 51.1736C12.2611 58.5782 21.1047 64.7238 32.7662 64.7238C44.4278 64.7238 66.2818 59.5675 88.5256 37.0839C74.0761 55.9701 46.766 70.4196 28.989 75.426C35.5242 80.942 41.0702 83.1903 50.1836 82.6807C57.9479 82.261 76.4744 77.8542 99.8275 47.846C99.8275 47.846 89.5449 70.3297 72.5473 80.1326C75.2153 84.7192 86.697 85.9783 94.6412 81.7214C102.615 77.4645 109.84 64.3041 115.026 52.073C114.277 64.8737 107.232 78.7836 101.686 84.3295C108.941 88.5265 121.682 88.0168 129.296 59.6874C129.296 59.6874 131.514 74.3168 124.859 83.4002C134.482 83.4002 141.467 80.0726 143.746 65.6231C144.315 71.1691 142.996 78.6037 142.996 78.6037C142.996 78.6037 155.767 78.9634 155.767 66.5524V55.5504C138.649 55.5504 128.607 48.1758 120.512 42.2401C116.076 39.0025 112.268 36.1845 108.101 35.0753C94.4313 31.448 83.6692 27.5508 79.6221 13.0114C57.9479 21.2254 39.4513 27.1011 0 25.9919C2.6081 34.8955 14.1498 42.2701 25.1818 43.4093C40.2608 44.9681 58.9971 39.0325 72.2475 31.5379ZM83.0397 11.5724C86.667 24.0434 95.6904 27.341 108.971 30.8484C122.101 34.3259 130.525 51.2036 155.767 51.2036V35.3451C147.972 33.6664 143.146 28.8998 139.908 14.1206C137.45 2.9387 126.658 -3.29677 109.81 1.79952C97.1294 5.63673 83.0397 11.5724 83.0397 11.5724Z" fill="#8ADAD3"/>
</svg>
