<svg width="202" height="71" viewBox="0 0 202 71" fill="none" xmlns="http://www.w3.org/2000/svg">
<path d="M0.738281 2.27539C0.738281 1.91732 0.835938 1.64062 1.03125 1.44531C1.25911 1.21745 1.51953 1.05469 1.8125 0.957031C2.10547 0.859375 2.41471 0.794271 2.74023 0.761719C3.06576 0.729167 3.32617 0.712891 3.52148 0.712891C5.08398 0.712891 6.64648 0.777995 8.20898 0.908203C9.80404 1.00586 11.3665 1.05469 12.8965 1.05469C13.5801 1.05469 14.2311 1.00586 14.8496 0.908203C15.4681 0.777995 16.054 0.712891 16.6074 0.712891C17.0306 0.712891 17.3887 0.777995 17.6816 0.908203C18.0072 1.00586 18.349 1.05469 18.707 1.05469C19.3581 1.05469 19.9603 1.00586 20.5137 0.908203C21.0996 0.777995 21.7181 0.712891 22.3691 0.712891C22.6947 0.712891 23.0365 0.729167 23.3945 0.761719C23.7526 0.761719 24.0618 0.810547 24.3223 0.908203C24.5827 1.00586 24.7943 1.16862 24.957 1.39648C25.1523 1.62435 25.25 1.93359 25.25 2.32422C25.25 2.8776 25.1035 3.26823 24.8105 3.49609C24.5176 3.72396 24.1595 3.88672 23.7363 3.98438C23.3457 4.08203 22.9062 4.14714 22.418 4.17969C21.9622 4.21224 21.5716 4.3099 21.2461 4.47266C20.6927 4.66797 20.123 5.04232 19.5371 5.5957C18.9837 6.11654 18.707 6.71875 18.707 7.40234C18.707 8.11849 18.8047 8.80208 19 9.45312C19.1953 10.0716 19.3581 10.7064 19.4883 11.3574C19.4883 11.5202 19.5046 11.7318 19.5371 11.9922C19.5697 12.2526 19.6022 12.5293 19.6348 12.8223C19.6999 13.0827 19.7487 13.3268 19.7812 13.5547C19.8138 13.75 19.8301 13.8639 19.8301 13.8965V16.3379C19.8301 16.4355 19.8789 16.5332 19.9766 16.6309C20.0417 16.7285 20.1068 16.8099 20.1719 16.875C20.8555 19.5443 21.4902 22.1647 22.0762 24.7363C22.6621 27.3079 23.3132 29.8958 24.0293 32.5C24.0293 32.5651 24.0456 32.6953 24.0781 32.8906C24.1107 33.0534 24.1432 33.2487 24.1758 33.4766C24.2083 33.6719 24.2409 33.8672 24.2734 34.0625C24.306 34.2578 24.3223 34.388 24.3223 34.4531C24.3223 34.4857 24.3548 34.5833 24.4199 34.7461C24.485 34.8763 24.5339 35.0228 24.5664 35.1855C24.6315 35.3483 24.6803 35.5111 24.7129 35.6738C24.778 35.8366 24.8105 35.9342 24.8105 35.9668C24.8431 36.097 24.9082 36.4551 25.0059 37.041C25.1361 37.627 25.2663 38.2617 25.3965 38.9453C25.5267 39.6289 25.6406 40.2799 25.7383 40.8984C25.8685 41.4844 25.9499 41.8424 25.9824 41.9727C25.9824 42.0378 26.0312 42.2331 26.1289 42.5586C26.2266 42.8841 26.3242 43.0794 26.4219 43.1445C26.4544 43.2422 26.5195 43.5026 26.6172 43.9258C26.7148 44.349 26.8125 44.8047 26.9102 45.293C27.0404 45.7812 27.1543 46.237 27.252 46.6602C27.3496 47.0833 27.4147 47.3438 27.4473 47.4414C27.5449 47.7018 27.6914 48.1738 27.8867 48.8574C28.082 49.5085 28.3099 50.1921 28.5703 50.9082C28.8307 51.6243 29.0911 52.2591 29.3516 52.8125C29.6445 53.3333 29.9375 53.5938 30.2305 53.5938H30.4746C30.8001 53.3333 31.0605 53.0729 31.2559 52.8125C31.4512 52.5521 31.5977 52.2754 31.6953 51.9824C31.8255 51.6569 31.9557 51.3151 32.0859 50.957C32.2161 50.599 32.3789 50.1921 32.5742 49.7363C33.8438 46.5788 35.1947 43.5677 36.627 40.7031C38.0592 37.806 39.4427 34.8763 40.7773 31.9141C40.8424 31.7839 40.9401 31.5397 41.0703 31.1816C41.2331 30.8236 41.3958 30.4492 41.5586 30.0586C41.7539 29.6354 41.9167 29.2448 42.0469 28.8867C42.2096 28.4961 42.3236 28.2031 42.3887 28.0078C42.5514 27.4219 42.7305 26.9173 42.9258 26.4941C43.1211 26.0384 43.3001 25.599 43.4629 25.1758C43.6257 24.7201 43.7559 24.248 43.8535 23.7598C43.9837 23.2715 44.0488 22.6693 44.0488 21.9531C44.0488 20.6185 43.8861 19.3164 43.5605 18.0469C43.235 16.7448 42.9258 15.3613 42.6328 13.8965C42.6328 13.8639 42.6003 13.7337 42.5352 13.5059C42.5026 13.2454 42.4538 13.0501 42.3887 12.9199C42.3236 12.8874 42.2422 12.7897 42.1445 12.627C42.0794 12.4316 41.998 12.2201 41.9004 11.9922C41.8353 11.7643 41.7702 11.5527 41.7051 11.3574C41.64 11.1621 41.6074 11.0319 41.6074 10.9668C41.5098 10.6413 41.4284 10.2669 41.3633 9.84375C41.2982 9.42057 41.2168 8.98112 41.1191 8.52539C41.0215 8.06966 40.875 7.64648 40.6797 7.25586C40.5169 6.83268 40.2891 6.49089 39.9961 6.23047C39.5078 5.74219 38.9544 5.36784 38.3359 5.10742C37.75 4.84701 37.1315 4.63542 36.4805 4.47266C35.8294 4.27734 35.1621 4.09831 34.4785 3.93555C33.8275 3.77279 33.1927 3.54492 32.5742 3.25195C32.3138 3.18685 32.0534 2.99154 31.793 2.66602C31.5326 2.30794 31.4023 1.9987 31.4023 1.73828C31.4023 1.47786 31.5163 1.23372 31.7441 1.00586C31.972 0.843099 32.2975 0.729167 32.7207 0.664062C33.1439 0.598958 33.5833 0.566406 34.0391 0.566406C34.4948 0.566406 34.9831 0.582682 35.5039 0.615234C36.0573 0.647786 36.5456 0.794271 36.9688 1.05469H39.9961C42.9583 1.05469 45.8392 0.973307 48.6387 0.810547C51.4707 0.647786 54.2865 0.566406 57.0859 0.566406C57.6068 0.566406 58.1113 0.63151 58.5996 0.761719C59.1204 0.891927 59.4622 1.13607 59.625 1.49414C59.5599 1.62435 59.4134 1.81966 59.1855 2.08008C58.9902 2.34049 58.8438 2.53581 58.7461 2.66602C58.6484 2.82878 58.5508 2.91016 58.4531 2.91016C58.4206 2.94271 58.3066 2.97526 58.1113 3.00781C57.9486 3.04036 57.7533 3.07292 57.5254 3.10547C57.2975 3.13802 57.0859 3.17057 56.8906 3.20312C56.6953 3.23568 56.5814 3.25195 56.5488 3.25195C56.4837 3.34961 56.4186 3.43099 56.3535 3.49609C56.2233 3.69141 56.1582 3.78906 56.1582 3.78906C55.9629 3.91927 55.6536 4.04948 55.2305 4.17969C54.8073 4.27734 54.3841 4.40755 53.9609 4.57031C53.5378 4.70052 53.1471 4.84701 52.7891 5.00977C52.4635 5.13997 52.2682 5.28646 52.2031 5.44922V7.1582C52.2031 8.03711 52.2682 9.01367 52.3984 10.0879C52.5286 11.1296 52.7077 12.0736 52.9355 12.9199C52.9355 12.985 52.9681 13.1315 53.0332 13.3594C53.0983 13.5547 53.1797 13.7826 53.2773 14.043C53.375 14.2708 53.4564 14.515 53.5215 14.7754C53.5866 15.0033 53.6191 15.166 53.6191 15.2637C53.6842 15.3939 53.7493 15.5892 53.8145 15.8496C53.9121 16.11 53.9935 16.3704 54.0586 16.6309C54.1562 16.8913 54.2376 17.1354 54.3027 17.3633C54.3678 17.5911 54.4167 17.7376 54.4492 17.8027C54.6771 19.2676 55.0026 20.7324 55.4258 22.1973C55.8815 23.6296 56.4023 25.127 56.9883 26.6895C57.5417 28.0566 57.9974 29.4889 58.3555 30.9863C58.7461 32.4837 59.1693 33.9974 59.625 35.5273C60.3737 37.8385 61.0573 40.1986 61.6758 42.6074C62.3268 44.9837 63.1243 47.36 64.0684 49.7363C64.166 49.9967 64.3125 50.3385 64.5078 50.7617C64.7031 51.1523 64.8984 51.543 65.0938 51.9336C65.2891 52.2917 65.4518 52.6009 65.582 52.8613C65.7448 53.1217 65.8424 53.252 65.875 53.252C66.0052 53.4473 66.168 53.5449 66.3633 53.5449C66.526 53.5449 66.7051 53.4473 66.9004 53.252C66.9329 53.252 66.998 53.1868 67.0957 53.0566C67.1934 52.9264 67.291 52.7799 67.3887 52.6172C67.5189 52.4219 67.6328 52.2428 67.7305 52.0801C67.8607 51.8848 67.9746 51.722 68.0723 51.5918C68.1048 51.4941 68.1374 51.3314 68.1699 51.1035C68.2025 50.8757 68.235 50.6315 68.2676 50.3711C68.3001 50.1107 68.3327 49.8665 68.3652 49.6387C68.3978 49.4108 68.4303 49.2643 68.4629 49.1992C68.6257 48.5482 68.8372 47.8809 69.0977 47.1973C69.3906 46.4811 69.6673 45.7487 69.9277 45C69.9603 44.9674 69.9928 44.8535 70.0254 44.6582C70.0579 44.4303 70.0905 44.2025 70.123 43.9746C70.1556 43.7142 70.1882 43.4863 70.2207 43.291C70.2533 43.0632 70.2695 42.9329 70.2695 42.9004C70.2695 42.8353 70.3021 42.7214 70.3672 42.5586C70.4323 42.3958 70.4974 42.2331 70.5625 42.0703C70.6602 41.875 70.7415 41.7122 70.8066 41.582C70.9043 41.4518 70.9694 41.3867 71.002 41.3867C71.0671 41.1589 71.1973 40.752 71.3926 40.166C71.6204 39.5475 71.8646 38.8802 72.125 38.1641C72.3854 37.4479 72.6296 36.7806 72.8574 36.1621C73.1178 35.5111 73.3132 35.0553 73.4434 34.7949C73.4759 34.6973 73.5247 34.502 73.5898 34.209C73.6549 33.916 73.7201 33.623 73.7852 33.3301C73.8828 33.0046 73.9642 32.7116 74.0293 32.4512C74.0944 32.1908 74.127 32.0117 74.127 31.9141C74.1595 31.7839 74.1921 31.556 74.2246 31.2305C74.2572 30.8724 74.2897 30.498 74.3223 30.1074C74.3548 29.7168 74.3874 29.375 74.4199 29.082C74.4525 28.7565 74.4688 28.5449 74.4688 28.4473C74.5013 28.3496 74.5501 28.252 74.6152 28.1543C74.7454 27.959 74.8105 27.8288 74.8105 27.7637C74.8431 27.6335 74.9408 27.3405 75.1035 26.8848C75.2663 26.3965 75.429 25.8757 75.5918 25.3223C75.7546 24.7689 75.901 24.2643 76.0312 23.8086C76.194 23.3203 76.2917 23.0111 76.3242 22.8809C76.3242 22.8483 76.3568 22.7669 76.4219 22.6367C76.5195 22.5065 76.6172 22.36 76.7148 22.1973C76.8125 22.0345 76.8939 21.888 76.959 21.7578C77.0566 21.5951 77.1055 21.4811 77.1055 21.416C77.4635 20.1139 77.6751 18.7956 77.7402 17.4609C77.8379 16.0938 77.9844 14.6777 78.1797 13.2129C78.2773 12.4967 78.4727 11.8457 78.7656 11.2598C79.0586 10.6738 79.2051 10.0065 79.2051 9.25781C79.2051 8.89974 79.14 8.49284 79.0098 8.03711C78.9121 7.58138 78.7656 7.14193 78.5703 6.71875C78.4076 6.26302 78.196 5.8724 77.9355 5.54688C77.6751 5.1888 77.3984 4.96094 77.1055 4.86328C77.0404 4.83073 76.9264 4.79818 76.7637 4.76562C76.6009 4.73307 76.4219 4.70052 76.2266 4.66797C76.0312 4.60286 75.8359 4.55404 75.6406 4.52148C75.4779 4.48893 75.3802 4.47266 75.3477 4.47266C75.1198 4.4401 74.7129 4.34245 74.127 4.17969C73.5736 3.98438 72.9876 3.78906 72.3691 3.59375C71.7507 3.39844 71.1484 3.2194 70.5625 3.05664C70.0091 2.86133 69.6185 2.73112 69.3906 2.66602C69.2279 2.60091 69.1302 2.4707 69.0977 2.27539C69.0977 2.04753 69.0977 1.86849 69.0977 1.73828C69.0977 1.67318 69.0977 1.57552 69.0977 1.44531C69.1302 1.28255 69.1465 1.15234 69.1465 1.05469C69.2767 0.957031 69.472 0.875651 69.7324 0.810547C69.9928 0.745443 70.2695 0.696615 70.5625 0.664062C70.8555 0.598958 71.1159 0.55013 71.3438 0.517578C71.6042 0.485026 71.7995 0.46875 71.9297 0.46875C72.3854 0.46875 72.7435 0.485026 73.0039 0.517578C73.2969 0.517578 73.6712 0.582682 74.127 0.712891C74.4525 0.777995 75.2663 0.859375 76.5684 0.957031C77.8704 1.02214 79.9375 1.05469 82.7695 1.05469C84.625 0.989583 86.4642 0.908203 88.2871 0.810547C90.11 0.712891 92.0143 0.664062 94 0.664062C94.3581 0.664062 94.5859 0.810547 94.6836 1.10352C94.7812 1.36393 94.8301 1.64062 94.8301 1.93359V2.12891C94.8301 2.22656 94.7975 2.27539 94.7324 2.27539C94.3418 2.82878 93.8861 3.26823 93.3652 3.59375C92.8444 3.88672 92.2747 4.14714 91.6562 4.375C91.0703 4.60286 90.4681 4.81445 89.8496 5.00977C89.2311 5.20508 88.6452 5.46549 88.0918 5.79102C87.8639 5.92122 87.6849 6.08398 87.5547 6.2793C87.457 6.44206 87.3757 6.62109 87.3105 6.81641C87.2454 7.01172 87.1803 7.22331 87.1152 7.45117C87.0827 7.64648 87.0176 7.82552 86.9199 7.98828C86.8874 8.05339 86.806 8.16732 86.6758 8.33008C86.5781 8.46029 86.4642 8.60677 86.334 8.76953C86.2363 8.93229 86.1387 9.09505 86.041 9.25781C85.9434 9.38802 85.8945 9.4694 85.8945 9.50195C85.6016 10.0553 85.276 10.7227 84.918 11.5039C84.5924 12.2852 84.4134 13.0013 84.3809 13.6523V14.8242C84.3483 14.9219 84.2507 15.1172 84.0879 15.4102C83.9577 15.7031 83.7949 16.0124 83.5996 16.3379C83.4368 16.6309 83.2741 16.9238 83.1113 17.2168C82.9486 17.5098 82.8672 17.7051 82.8672 17.8027C82.8672 17.8353 82.8021 18.0143 82.6719 18.3398C82.6068 18.4701 82.5579 18.6328 82.5254 18.8281C82.4603 18.8932 82.3138 19.0885 82.0859 19.4141C81.8906 19.707 81.7441 19.9023 81.6465 20C81.6465 20.0977 81.5814 20.3581 81.4512 20.7812C81.321 21.1719 81.1745 21.6276 81.0117 22.1484C80.8815 22.6367 80.735 23.1413 80.5723 23.6621C80.4421 24.1504 80.3607 24.5247 80.3281 24.7852C80.2956 24.8177 80.263 24.9154 80.2305 25.0781C80.1979 25.2409 80.1491 25.4362 80.084 25.6641C80.0514 25.8594 80.0189 26.0547 79.9863 26.25C79.9538 26.4453 79.9212 26.5918 79.8887 26.6895C79.8887 26.6895 79.8561 26.7546 79.791 26.8848C79.7259 27.015 79.6445 27.1615 79.5469 27.3242C79.4492 27.4544 79.3678 27.6009 79.3027 27.7637C79.2376 27.8939 79.2051 27.9753 79.2051 28.0078C78.9772 28.5612 78.8145 29.1634 78.7168 29.8145C78.6517 30.4655 78.4727 31.1654 78.1797 31.9141C78.1471 31.9792 78.0332 32.1419 77.8379 32.4023C77.6426 32.6628 77.5449 32.8418 77.5449 32.9395C77.5124 33.0046 77.4798 33.151 77.4473 33.3789C77.4147 33.5742 77.3822 33.8021 77.3496 34.0625C77.3171 34.2904 77.2682 34.502 77.2031 34.6973C77.1706 34.8926 77.138 35.0065 77.1055 35.0391C77.0729 35.1693 77.0078 35.3971 76.9102 35.7227C76.8125 36.0156 76.6986 36.3574 76.5684 36.748C76.4382 37.1061 76.3079 37.4479 76.1777 37.7734C76.0801 38.0664 76.015 38.278 75.9824 38.4082C75.9499 38.571 75.8359 38.8639 75.6406 39.2871C75.4453 39.7103 75.2337 40.166 75.0059 40.6543C74.8105 41.1426 74.6152 41.6146 74.4199 42.0703C74.2572 42.4935 74.1595 42.7702 74.127 42.9004C74.127 42.9329 74.0944 43.0632 74.0293 43.291C73.9967 43.4863 73.9642 43.7142 73.9316 43.9746C73.8991 44.2025 73.8665 44.4303 73.834 44.6582C73.8014 44.8535 73.7852 44.9674 73.7852 45C73.7852 45.0326 73.7363 45.179 73.6387 45.4395C73.541 45.6673 73.4271 45.944 73.2969 46.2695C73.1667 46.5625 73.0365 46.8717 72.9062 47.1973C72.776 47.4902 72.6784 47.7181 72.6133 47.8809C72.5807 47.946 72.4668 48.1576 72.2715 48.5156C72.0762 48.8411 71.8483 49.2155 71.5879 49.6387C71.36 50.0618 71.1484 50.4688 70.9531 50.8594C70.7578 51.2174 70.6439 51.4616 70.6113 51.5918C70.5788 51.6243 70.5299 51.7383 70.4648 51.9336C70.3997 52.1289 70.3346 52.3568 70.2695 52.6172C70.2044 52.8451 70.1393 53.0566 70.0742 53.252C70.0091 53.4473 69.9603 53.5612 69.9277 53.5938C69.9277 53.6589 69.8626 53.7728 69.7324 53.9355C69.6022 54.0983 69.4883 54.2122 69.3906 54.2773C69.3906 54.375 69.293 54.5703 69.0977 54.8633C68.9023 55.1562 68.7884 55.3353 68.7559 55.4004C68.7233 55.4329 68.6908 55.5632 68.6582 55.791C68.6257 56.0189 68.5931 56.263 68.5605 56.5234C68.528 56.7839 68.4954 57.028 68.4629 57.2559C68.4629 57.4512 68.4629 57.5651 68.4629 57.5977C68.4303 57.6953 68.349 57.8743 68.2188 58.1348C68.0885 58.3952 67.9583 58.6719 67.8281 58.9648C67.6979 59.2578 67.5677 59.5182 67.4375 59.7461C67.3398 59.974 67.291 60.1042 67.291 60.1367C67.2585 60.2344 67.2259 60.3971 67.1934 60.625C67.1608 60.8529 67.1283 61.1133 67.0957 61.4062C67.0632 61.6667 67.0306 61.9108 66.998 62.1387C66.9655 62.334 66.9329 62.4479 66.9004 62.4805C66.8678 62.5781 66.7865 62.7734 66.6562 63.0664C66.526 63.3594 66.3796 63.6686 66.2168 63.9941C66.0866 64.3197 65.9401 64.6289 65.7773 64.9219C65.6471 65.1823 65.5658 65.3613 65.5332 65.459C65.2728 66.1426 65.0775 66.7611 64.9473 67.3145C64.8496 67.8678 64.6868 68.3724 64.459 68.8281C64.2311 69.2513 63.9056 69.6257 63.4824 69.9512C63.0592 70.2441 62.4245 70.4557 61.5781 70.5859C61.4154 70.5859 61.2201 70.5046 60.9922 70.3418C60.7969 70.179 60.6992 70.0651 60.6992 70C60.569 69.8372 60.4225 69.6257 60.2598 69.3652C60.097 69.1048 59.9342 68.8607 59.7715 68.6328C59.6413 68.4049 59.5273 68.2096 59.4297 68.0469C59.332 67.8516 59.2832 67.7376 59.2832 67.7051C59.2507 67.6725 59.2181 67.5423 59.1855 67.3145C59.153 67.0866 59.1042 66.8424 59.0391 66.582C59.0065 66.3216 58.9577 66.0775 58.8926 65.8496C58.8275 65.6217 58.7786 65.4915 58.7461 65.459C58.7461 65.3939 58.6973 65.2637 58.5996 65.0684C58.502 64.8405 58.388 64.6126 58.2578 64.3848C58.1602 64.1569 58.0462 63.9453 57.916 63.75C57.8184 63.5221 57.7695 63.3757 57.7695 63.3105C57.7695 63.2454 57.7533 63.099 57.7207 62.8711C57.6882 62.6432 57.6393 62.3991 57.5742 62.1387C57.5417 61.8783 57.5091 61.6504 57.4766 61.4551C57.444 61.2272 57.4277 61.097 57.4277 61.0645C57.3626 60.9668 57.2324 60.7227 57.0371 60.332C56.8743 59.9089 56.6953 59.4694 56.5 59.0137C56.3047 58.5579 56.1257 58.1348 55.9629 57.7441C55.8327 57.3535 55.7513 57.1094 55.7188 57.0117C55.7188 56.8815 55.6862 56.6211 55.6211 56.2305C55.556 55.8073 55.4746 55.3678 55.377 54.9121C55.3118 54.4564 55.2305 54.0332 55.1328 53.6426C55.0677 53.252 55.0189 52.9915 54.9863 52.8613C54.9212 52.5684 54.8073 52.2591 54.6445 51.9336C54.4818 51.6081 54.319 51.2663 54.1562 50.9082C53.9935 50.5501 53.8307 50.2083 53.668 49.8828C53.5052 49.5573 53.375 49.248 53.2773 48.9551C53.2122 48.8249 53.1309 48.6296 53.0332 48.3691C52.9681 48.0762 52.9355 47.9134 52.9355 47.8809C52.5775 45.8626 52.0404 43.9909 51.3242 42.2656C50.6406 40.5078 49.9408 38.75 49.2246 36.9922C49.0944 36.7318 48.9642 36.3574 48.834 35.8691C48.7363 35.3483 48.6061 34.8438 48.4434 34.3555C48.3132 33.8672 48.1341 33.444 47.9062 33.0859C47.7109 32.6953 47.4505 32.5 47.125 32.5C46.832 32.5 46.4902 32.7116 46.0996 33.1348C45.7415 33.5579 45.3835 34.0625 45.0254 34.6484C44.6673 35.2344 44.3418 35.8366 44.0488 36.4551C43.7559 37.041 43.5443 37.4967 43.4141 37.8223C43.3164 37.8874 43.1862 38.0827 43.0234 38.4082C42.8932 38.7012 42.7467 39.043 42.584 39.4336C42.4538 39.7917 42.3236 40.1335 42.1934 40.459C42.0632 40.752 41.9818 40.9147 41.9492 40.9473C41.8841 41.1751 41.7376 41.4681 41.5098 41.8262C41.3145 42.1842 41.2168 42.4284 41.2168 42.5586C41.1842 42.5586 41.0866 42.64 40.9238 42.8027C40.7611 42.9655 40.582 43.1445 40.3867 43.3398C40.1914 43.5352 39.9961 43.7305 39.8008 43.9258C39.638 44.0885 39.5404 44.2188 39.5078 44.3164C39.0846 44.9674 38.7591 45.7161 38.5312 46.5625C38.3359 47.4089 38.043 48.2064 37.6523 48.9551C37.6198 49.0202 37.5221 49.1992 37.3594 49.4922C37.1966 49.7526 37.0176 50.0618 36.8223 50.4199C36.627 50.7454 36.4316 51.0547 36.2363 51.3477C36.041 51.6406 35.8945 51.8359 35.7969 51.9336C35.7318 51.9987 35.6667 52.1615 35.6016 52.4219C35.569 52.6497 35.5202 52.7962 35.4551 52.8613C35.4551 52.9264 35.3411 53.0566 35.1133 53.252C34.918 53.4473 34.7715 53.5612 34.6738 53.5938C34.6413 53.6589 34.5924 53.903 34.5273 54.3262C34.4622 54.7493 34.3971 54.9935 34.332 55.0586C34.0391 55.8073 33.5996 56.6048 33.0137 57.4512C32.4603 58.2975 32.0371 59.0951 31.7441 59.8438C31.7116 59.9089 31.6628 60.0553 31.5977 60.2832C31.5326 60.4785 31.4674 60.7064 31.4023 60.9668C31.3372 61.1947 31.2721 61.4225 31.207 61.6504C31.1419 61.8783 31.0931 62.041 31.0605 62.1387C31.028 62.2363 30.9141 62.4316 30.7188 62.7246C30.556 63.0176 30.377 63.3268 30.1816 63.6523C29.9863 63.9779 29.8073 64.2871 29.6445 64.5801C29.4818 64.873 29.3841 65.0521 29.3516 65.1172C29.2865 65.2148 29.1562 65.4427 28.9609 65.8008C28.7656 66.1589 28.554 66.5495 28.3262 66.9727C28.1309 67.3633 27.9355 67.7539 27.7402 68.1445C27.5775 68.5026 27.4798 68.7305 27.4473 68.8281C27.3496 69.0234 27.1543 69.235 26.8613 69.4629C26.5684 69.6582 26.2428 69.8372 25.8848 70C25.5592 70.1953 25.2174 70.3418 24.8594 70.4395C24.5339 70.5371 24.2572 70.5859 24.0293 70.5859C23.0202 70.5859 22.3854 70.1139 22.125 69.1699C22.0924 69.0723 22.0436 68.8281 21.9785 68.4375C21.9134 68.0469 21.832 67.6237 21.7344 67.168C21.6367 66.6797 21.5391 66.2402 21.4414 65.8496C21.3438 65.459 21.2786 65.2148 21.2461 65.1172C21.2461 65.0521 21.1973 64.873 21.0996 64.5801C21.0345 64.2871 20.9368 63.9779 20.8066 63.6523C20.6764 63.2943 20.5462 62.9688 20.416 62.6758C20.3184 62.3828 20.237 62.2038 20.1719 62.1387C19.9115 61.4225 19.6836 60.625 19.4883 59.7461C19.293 58.8346 19.1139 57.9232 18.9512 57.0117C18.7884 56.0677 18.6419 55.1562 18.5117 54.2773C18.3815 53.3984 18.2513 52.6172 18.1211 51.9336C18.0885 51.8359 18.0397 51.6569 17.9746 51.3965C17.9095 51.1361 17.8281 50.8431 17.7305 50.5176C17.6654 50.1921 17.6003 49.8828 17.5352 49.5898C17.4701 49.2969 17.4212 49.0853 17.3887 48.9551C17.3887 48.9225 17.3236 48.7435 17.1934 48.418C17.0957 48.0924 17.0469 47.9134 17.0469 47.8809C17.0143 47.7832 16.9818 47.5879 16.9492 47.2949C16.9167 47.002 16.8841 46.709 16.8516 46.416C16.819 46.0905 16.7702 45.7975 16.7051 45.5371C16.6725 45.2767 16.64 45.0977 16.6074 45C16.4447 44.2839 16.2168 43.5677 15.9238 42.8516C15.6634 42.1354 15.4681 41.4355 15.3379 40.752C15.3053 40.6217 15.2891 40.3776 15.2891 40.0195C15.2891 39.6289 15.2891 39.3685 15.2891 39.2383C15.2565 39.1732 15.2077 39.0592 15.1426 38.8965C15.0775 38.7012 14.9961 38.5059 14.8984 38.3105C14.8008 38.0827 14.7194 37.8874 14.6543 37.7246C14.5892 37.5618 14.5404 37.4479 14.5078 37.3828C14.5078 37.3503 14.5078 37.2038 14.5078 36.9434C14.5078 36.6829 14.5078 36.4062 14.5078 36.1133C14.5078 35.7878 14.4915 35.4948 14.459 35.2344C14.459 34.974 14.4427 34.8275 14.4102 34.7949C14.3776 34.0788 14.2637 33.3626 14.0684 32.6465C13.873 31.9303 13.6615 31.2142 13.4336 30.498C13.2057 29.7493 12.9779 29.0169 12.75 28.3008C12.5547 27.5846 12.4082 26.8685 12.3105 26.1523C12.278 26.0221 12.2129 25.6478 12.1152 25.0293C12.0501 24.4108 11.9688 23.7598 11.8711 23.0762C11.7734 22.3926 11.6758 21.7578 11.5781 21.1719C11.513 20.5534 11.4805 20.1628 11.4805 20C11.4805 19.9349 11.4316 19.7233 11.334 19.3652C11.2363 19.0072 11.1224 18.6003 10.9922 18.1445C10.8945 17.6888 10.7806 17.2331 10.6504 16.7773C10.5202 16.2891 10.4225 15.8984 10.3574 15.6055C10.1947 14.9219 10.0645 14.222 9.9668 13.5059C9.86914 12.7897 9.73893 12.0736 9.57617 11.3574C9.44596 10.6413 9.25065 9.94141 8.99023 9.25781C8.76237 8.54167 8.43685 7.89062 8.01367 7.30469C7.62305 6.65365 7.02083 6.19792 6.20703 5.9375C5.42578 5.67708 4.62826 5.43294 3.81445 5.20508C3.00065 4.97721 2.28451 4.66797 1.66602 4.27734C1.04753 3.88672 0.738281 3.2194 0.738281 2.27539ZM102.049 70C102.049 69.8698 101.951 69.6908 101.756 69.4629C101.593 69.2025 101.495 68.9909 101.463 68.8281V68.6328V68.584C101.528 68.4538 101.674 68.2585 101.902 67.998C102.13 67.7376 102.374 67.4772 102.635 67.2168C102.928 66.9238 103.188 66.6634 103.416 66.4355C103.676 66.2077 103.855 66.0449 103.953 65.9473C104.018 65.8822 104.23 65.8171 104.588 65.752C104.979 65.6543 105.255 65.6055 105.418 65.6055H108.885C108.982 65.6055 109.113 65.5892 109.275 65.5566C109.471 65.4915 109.65 65.4427 109.812 65.4102C110.008 65.3451 110.171 65.2799 110.301 65.2148C110.464 65.1497 110.545 65.1172 110.545 65.1172C111.001 64.8893 111.261 64.5312 111.326 64.043C111.424 63.5221 111.473 63.0339 111.473 62.5781V61.7969C111.473 60.6576 111.44 59.5833 111.375 58.5742C111.342 57.5326 111.326 56.4421 111.326 55.3027V54.9609C111.326 54.8633 111.342 54.6842 111.375 54.4238C111.408 54.1634 111.44 53.8867 111.473 53.5938C111.538 53.2682 111.603 52.9753 111.668 52.7148C111.733 52.4544 111.782 52.2754 111.814 52.1777V30.8887C111.814 30.2376 111.701 29.7168 111.473 29.3262C111.245 28.9355 110.952 28.6426 110.594 28.4473C110.236 28.2194 109.812 28.0729 109.324 28.0078C108.868 27.9427 108.38 27.9102 107.859 27.9102H105.857C104.946 27.9102 104.181 27.7962 103.562 27.5684C102.944 27.3405 102.635 26.7871 102.635 25.9082C102.635 25.6152 102.635 25.3548 102.635 25.127C102.667 24.8991 102.749 24.5898 102.879 24.1992C104.441 24.2643 105.971 24.2155 107.469 24.0527C108.966 23.89 110.48 23.8086 112.01 23.8086H113.279C113.41 23.8411 113.67 23.8737 114.061 23.9062C114.484 23.9388 114.907 23.9714 115.33 24.0039C115.786 24.0365 116.209 24.069 116.6 24.1016C116.99 24.1341 117.267 24.1667 117.43 24.1992H140.379C141.355 24.1992 142.055 24.4596 142.479 24.9805C142.902 25.4688 143.211 26.0872 143.406 26.8359V29.6191V32.5C143.406 32.6953 143.374 33.0534 143.309 33.5742C143.243 34.0625 143.162 34.5996 143.064 35.1855C142.999 35.7389 142.918 36.2923 142.82 36.8457C142.755 37.3665 142.706 37.7409 142.674 37.9688C142.609 38.0664 142.495 38.2129 142.332 38.4082C142.169 38.571 142.055 38.6523 141.99 38.6523C141.99 38.7174 141.958 38.75 141.893 38.75H141.844H141.697C141.6 38.75 141.551 38.7174 141.551 38.6523C140.997 38.2617 140.574 37.8223 140.281 37.334C139.988 36.8132 139.744 36.276 139.549 35.7227C139.354 35.1693 139.174 34.6159 139.012 34.0625C138.849 33.5091 138.605 32.9883 138.279 32.5C138.214 32.3698 138.003 32.1582 137.645 31.8652C137.319 31.5397 137.14 31.3607 137.107 31.3281C137.042 31.263 136.896 31.084 136.668 30.791C136.473 30.498 136.245 30.1888 135.984 29.8633C135.757 29.5052 135.529 29.1797 135.301 28.8867C135.105 28.5938 134.975 28.4147 134.91 28.3496C134.78 28.0566 134.633 27.9102 134.471 27.9102C134.438 27.9102 134.324 27.8939 134.129 27.8613C133.966 27.8288 133.771 27.7962 133.543 27.7637C133.348 27.6986 133.152 27.6497 132.957 27.6172C132.794 27.5846 132.713 27.5521 132.713 27.5195C132.615 27.5195 132.436 27.487 132.176 27.4219C131.915 27.3568 131.622 27.2917 131.297 27.2266C131.004 27.1615 130.727 27.0964 130.467 27.0312C130.206 26.9336 130.044 26.8685 129.979 26.8359H129.734C129.604 26.8359 129.425 26.8848 129.197 26.9824C128.969 27.0475 128.807 27.0801 128.709 27.0801H128.562C128.465 27.0475 128.188 27.015 127.732 26.9824C127.309 26.9499 126.837 26.9336 126.316 26.9336C125.796 26.901 125.307 26.8848 124.852 26.8848C124.428 26.8522 124.168 26.8359 124.07 26.8359H123.924C123.338 26.8359 122.85 26.9499 122.459 27.1777C122.068 27.4056 121.743 27.6986 121.482 28.0566C121.255 28.4147 121.043 28.8216 120.848 29.2773C120.685 29.7005 120.522 30.1237 120.359 30.5469C120.327 30.9049 120.262 31.4909 120.164 32.3047C120.099 33.1185 120.018 33.9811 119.92 34.8926C119.855 35.804 119.79 36.6667 119.725 37.4805C119.66 38.2943 119.627 38.8639 119.627 39.1895V39.5801V39.8242C119.627 39.987 119.643 40.2637 119.676 40.6543C119.708 41.0449 119.741 41.4681 119.773 41.9238C119.806 42.347 119.839 42.7702 119.871 43.1934C119.936 43.584 119.985 43.8444 120.018 43.9746C120.245 44.2676 120.506 44.5605 120.799 44.8535C121.124 45.1465 121.466 45.3418 121.824 45.4395H124.51C125.617 45.4395 126.577 45.4232 127.391 45.3906C128.237 45.3581 129.246 45.2604 130.418 45.0977C130.451 45.0326 130.499 44.9186 130.564 44.7559C130.63 44.5931 130.711 44.4303 130.809 44.2676C130.906 44.1048 130.988 43.9583 131.053 43.8281C131.118 43.6979 131.167 43.6165 131.199 43.584C131.329 43.3561 131.492 43.0306 131.688 42.6074C131.883 42.1517 132.078 41.7122 132.273 41.2891C132.469 40.8333 132.632 40.4427 132.762 40.1172C132.924 39.7917 133.022 39.6126 133.055 39.5801C133.12 39.4499 133.185 39.1732 133.25 38.75C133.315 38.2943 133.38 38.0339 133.445 37.9688C133.706 37.6758 134.048 37.4805 134.471 37.3828C134.894 37.2852 135.317 37.2363 135.74 37.2363C136.196 37.2363 136.473 37.4154 136.57 37.7734C136.701 38.099 136.766 38.4733 136.766 38.8965V40.1172V40.7031C136.766 40.9961 136.733 41.2891 136.668 41.582C136.603 41.8424 136.489 42.1029 136.326 42.3633C136.294 42.6562 136.261 43.1445 136.229 43.8281C136.196 44.5117 136.163 45.2279 136.131 45.9766C136.098 46.7253 136.066 47.4414 136.033 48.125C136.001 48.776 135.984 49.2318 135.984 49.4922V50.7617V53.6914C135.952 53.7565 135.919 53.903 135.887 54.1309C135.854 54.3587 135.822 54.6191 135.789 54.9121C135.789 55.1725 135.773 55.4329 135.74 55.6934C135.708 55.9538 135.675 56.1328 135.643 56.2305C135.285 56.4909 134.959 56.6862 134.666 56.8164C134.406 56.9466 134.08 57.0117 133.689 57.0117C133.429 57.0117 133.185 56.9141 132.957 56.7188C132.729 56.4909 132.518 56.2142 132.322 55.8887C132.127 55.5632 131.964 55.2376 131.834 54.9121C131.704 54.554 131.622 54.2285 131.59 53.9355C131.557 53.8379 131.508 53.6263 131.443 53.3008C131.411 52.9427 131.378 52.5684 131.346 52.1777C131.313 51.7546 131.281 51.3639 131.248 51.0059C131.215 50.6478 131.199 50.3874 131.199 50.2246C131.102 50.0944 130.923 49.9805 130.662 49.8828C130.434 49.7526 130.206 49.6224 129.979 49.4922C129.783 49.4271 129.474 49.3457 129.051 49.248C128.628 49.1504 128.172 49.069 127.684 49.0039C127.228 48.9062 126.788 48.8411 126.365 48.8086C125.975 48.7435 125.714 48.7109 125.584 48.7109C125.486 48.7109 125.307 48.7109 125.047 48.7109C124.819 48.6784 124.542 48.6621 124.217 48.6621C123.924 48.6621 123.631 48.6621 123.338 48.6621C123.045 48.6296 122.817 48.6133 122.654 48.6133C122.557 48.6133 122.394 48.6296 122.166 48.6621C121.971 48.6621 121.759 48.6621 121.531 48.6621C121.336 48.6621 121.157 48.6784 120.994 48.7109C120.831 48.7109 120.734 48.7109 120.701 48.7109L120.018 49.4922V51.1523C120.018 53.0729 119.952 54.9284 119.822 56.7188C119.692 58.4766 119.627 60.3158 119.627 62.2363C119.627 63.2129 119.708 63.929 119.871 64.3848C120.034 64.8405 120.294 65.166 120.652 65.3613C121.01 65.5566 121.466 65.7031 122.02 65.8008C122.573 65.8984 123.257 66.0612 124.07 66.2891C124.135 66.2891 124.249 66.3379 124.412 66.4355C124.575 66.5332 124.689 66.6309 124.754 66.7285H128.562H132.176C132.241 66.7285 132.387 66.7122 132.615 66.6797C132.843 66.6146 133.087 66.5658 133.348 66.5332C133.608 66.4681 133.836 66.4193 134.031 66.3867C134.259 66.3216 134.406 66.2891 134.471 66.2891H136.814H137.742C137.807 66.2891 137.921 66.2402 138.084 66.1426C138.247 66.0124 138.41 65.8822 138.572 65.752C138.768 65.5892 138.93 65.4427 139.061 65.3125C139.191 65.1823 139.272 65.1172 139.305 65.1172C139.533 65.0195 139.712 64.9707 139.842 64.9707C140.005 64.9382 140.135 64.9219 140.232 64.9219C140.33 64.8893 140.428 64.8405 140.525 64.7754C140.623 64.6777 140.721 64.5312 140.818 64.3359C141.176 63.8151 141.437 63.278 141.6 62.7246C141.762 62.1712 141.974 61.6178 142.234 61.0645C142.365 60.9668 142.527 60.7715 142.723 60.4785C142.918 60.153 143.032 59.9414 143.064 59.8438C143.097 59.8438 143.195 59.7949 143.357 59.6973C143.52 59.5671 143.683 59.4368 143.846 59.3066C144.008 59.1439 144.155 58.9974 144.285 58.8672C144.415 58.7044 144.497 58.5905 144.529 58.5254C144.562 58.4277 144.627 58.2975 144.725 58.1348C144.855 57.9395 144.985 57.7441 145.115 57.5488C145.245 57.321 145.359 57.1257 145.457 56.9629C145.587 56.7676 145.669 56.6374 145.701 56.5723C145.701 56.5397 145.75 56.4746 145.848 56.377C145.913 56.3444 145.978 56.2956 146.043 56.2305C146.043 56.1654 146.059 56.1328 146.092 56.1328H146.189C146.678 56.1328 146.971 56.3281 147.068 56.7188C147.166 57.0768 147.215 57.4512 147.215 57.8418V58.8672C147.215 59.0299 147.231 59.4206 147.264 60.0391C147.296 60.6576 147.312 61.3249 147.312 62.041C147.345 62.7246 147.378 63.3757 147.41 63.9941C147.443 64.6126 147.459 64.987 147.459 65.1172V65.2637C147.459 65.6868 147.378 66.1751 147.215 66.7285C147.052 67.2493 146.824 67.7539 146.531 68.2422C146.238 68.7305 145.88 69.1374 145.457 69.4629C145.066 69.7884 144.643 69.9674 144.188 70C143.96 69.9674 143.536 69.9349 142.918 69.9023C142.332 69.8698 141.697 69.8372 141.014 69.8047C140.33 69.7721 139.679 69.7396 139.061 69.707C138.442 69.6745 138.003 69.6257 137.742 69.5605H136.814H135.984C135.822 69.6257 135.447 69.6908 134.861 69.7559C134.275 69.7884 133.641 69.821 132.957 69.8535C132.306 69.8861 131.671 69.9186 131.053 69.9512C130.467 69.9837 130.109 70 129.979 70H111.473C111.375 70.0326 111.212 70.0651 110.984 70.0977C110.789 70.1302 110.561 70.1465 110.301 70.1465C110.073 70.179 109.845 70.1953 109.617 70.1953C109.389 70.2279 109.227 70.2441 109.129 70.2441C109.129 70.3092 109.015 70.3418 108.787 70.3418C108.559 70.3418 108.348 70.3255 108.152 70.293C107.957 70.2604 107.827 70.2441 107.762 70.2441C107.632 70.3418 107.371 70.4557 106.98 70.5859C106.59 70.7161 106.313 70.7812 106.15 70.7812C105.988 70.7812 105.711 70.7487 105.32 70.6836C104.962 70.6185 104.572 70.5371 104.148 70.4395C103.725 70.3743 103.318 70.293 102.928 70.1953C102.537 70.1302 102.244 70.0651 102.049 70ZM178.945 39.3359C178.945 40.4427 179.043 41.4518 179.238 42.3633C179.466 43.2747 179.873 44.2025 180.459 45.1465H182.754H183.584C184.235 45.1465 184.854 45.1139 185.439 45.0488C186.058 44.9837 186.628 44.8047 187.148 44.5117C187.702 44.1536 188.239 43.6003 188.76 42.8516C189.313 42.1029 189.801 41.3053 190.225 40.459C190.68 39.5801 191.038 38.7174 191.299 37.8711C191.559 36.9922 191.689 36.2435 191.689 35.625C191.689 34.8763 191.559 34.1764 191.299 33.5254C191.038 32.8743 190.697 32.2721 190.273 31.7188C189.883 31.1328 189.411 30.612 188.857 30.1562C188.304 29.668 187.734 29.2285 187.148 28.8379C187.051 28.7728 186.888 28.6751 186.66 28.5449C186.465 28.4147 186.27 28.2845 186.074 28.1543C185.879 28.0241 185.7 27.9102 185.537 27.8125C185.407 27.7148 185.326 27.666 185.293 27.666C185.228 27.666 185.098 27.666 184.902 27.666C184.74 27.6335 184.544 27.6172 184.316 27.6172C184.121 27.5846 183.91 27.5684 183.682 27.5684C183.486 27.5358 183.324 27.5195 183.193 27.5195C182.965 27.5195 182.64 27.5521 182.217 27.6172C181.826 27.6497 181.615 27.666 181.582 27.666L180.117 29.1309C179.922 30.8887 179.678 32.6139 179.385 34.3066C179.092 35.9668 178.945 37.6432 178.945 39.3359ZM179.287 58.0859C179.287 58.737 179.255 59.4043 179.189 60.0879C179.157 60.7715 179.141 61.4551 179.141 62.1387C179.141 62.7897 179.189 63.4245 179.287 64.043C179.385 64.6289 179.564 65.1497 179.824 65.6055C180.117 66.0612 180.508 66.4355 180.996 66.7285C181.517 66.9889 182.184 67.1191 182.998 67.1191C184.202 67.1191 185.374 66.875 186.514 66.3867C187.653 65.8659 188.597 65.1335 189.346 64.1895C189.411 64.1895 189.492 64.0592 189.59 63.7988C189.688 63.5384 189.769 63.3757 189.834 63.3105C189.867 63.278 189.997 63.1641 190.225 62.9688C190.452 62.7409 190.68 62.513 190.908 62.2852C191.169 62.0247 191.396 61.7969 191.592 61.6016C191.82 61.4062 191.934 61.276 191.934 61.2109V59.8438C191.934 58.3789 191.82 57.028 191.592 55.791C191.364 54.554 190.973 53.431 190.42 52.4219C189.867 51.4128 189.118 50.5664 188.174 49.8828C187.23 49.1667 186.042 48.6133 184.609 48.2227C184.447 48.1901 184.202 48.125 183.877 48.0273C183.551 47.9297 183.193 47.832 182.803 47.7344C182.445 47.6367 182.087 47.5553 181.729 47.4902C181.403 47.3926 181.159 47.3438 180.996 47.3438H180.801C180.801 47.4089 180.752 47.474 180.654 47.5391C180.589 47.6042 180.524 47.653 180.459 47.6855C180.394 47.8158 180.312 47.9622 180.215 48.125C180.15 48.2552 180.085 48.4017 180.02 48.5645L179.727 49.1504C179.694 49.3132 179.661 49.5573 179.629 49.8828C179.596 50.2083 179.564 50.5501 179.531 50.9082C179.499 51.2663 179.466 51.6081 179.434 51.9336C179.401 52.2266 179.385 52.4219 179.385 52.5195C179.352 52.6172 179.32 52.8939 179.287 53.3496C179.287 53.7728 179.287 54.2773 179.287 54.8633C179.287 55.4492 179.287 56.0352 179.287 56.6211C179.287 57.207 179.287 57.6953 179.287 58.0859ZM161.562 68.7305C161.562 68.4701 161.579 68.2422 161.611 68.0469C161.676 67.819 161.855 67.6237 162.148 67.4609C162.279 67.4609 162.507 67.4447 162.832 67.4121C163.19 67.3796 163.548 67.347 163.906 67.3145C164.297 67.2819 164.639 67.2493 164.932 67.2168C165.225 67.1842 165.42 67.1517 165.518 67.1191C165.55 67.1191 165.632 67.1029 165.762 67.0703C165.924 67.0378 166.087 67.0052 166.25 66.9727C166.445 66.9076 166.624 66.8587 166.787 66.8262C166.95 66.7611 167.064 66.7285 167.129 66.7285C167.324 66.696 167.617 66.6797 168.008 66.6797C168.398 66.6471 168.789 66.5983 169.18 66.5332C169.57 66.4355 169.912 66.2891 170.205 66.0938C170.498 65.8659 170.661 65.5566 170.693 65.166C170.726 64.7103 170.775 63.9779 170.84 62.9688C170.905 61.9596 170.97 60.8203 171.035 59.5508C171.1 58.2812 171.149 56.9466 171.182 55.5469C171.247 54.1471 171.296 52.8125 171.328 51.543C171.393 50.2734 171.442 49.1341 171.475 48.125C171.507 47.0833 171.523 46.3184 171.523 45.8301V43.6328V38.0664C171.556 38.0339 171.589 37.9362 171.621 37.7734C171.654 37.5781 171.686 37.3828 171.719 37.1875C171.784 36.9596 171.833 36.7643 171.865 36.6016C171.898 36.4062 171.914 36.276 171.914 36.2109V35.7227C171.914 35.0716 171.849 34.4531 171.719 33.8672C171.589 33.2812 171.523 32.7116 171.523 32.1582C171.523 31.7676 171.589 31.4421 171.719 31.1816C171.849 30.8887 171.914 30.5957 171.914 30.3027C171.914 29.6517 171.768 29.1797 171.475 28.8867C171.214 28.5612 170.872 28.3496 170.449 28.252C170.059 28.1217 169.619 28.0729 169.131 28.1055C168.675 28.1055 168.252 28.0729 167.861 28.0078C167.699 28.0078 167.471 27.9915 167.178 27.959C166.885 27.9264 166.576 27.8939 166.25 27.8613C165.924 27.8288 165.632 27.7962 165.371 27.7637C165.111 27.7311 164.932 27.6986 164.834 27.666C164.476 27.5358 164.248 27.373 164.15 27.1777C164.053 26.9499 164.004 26.6732 164.004 26.3477C164.004 26.1198 164.102 25.9082 164.297 25.7129C164.492 25.485 164.736 25.306 165.029 25.1758C165.322 25.013 165.615 24.8828 165.908 24.7852C166.234 24.6875 166.494 24.6387 166.689 24.6387H174.209C174.307 24.6387 174.551 24.6061 174.941 24.541C175.332 24.4434 175.576 24.3945 175.674 24.3945H175.82H175.918C176.016 24.3945 176.211 24.4271 176.504 24.4922C176.797 24.5573 177.106 24.6387 177.432 24.7363C177.79 24.834 178.115 24.9154 178.408 24.9805C178.701 25.0456 178.88 25.0781 178.945 25.0781H179.189H179.385C179.417 25.0781 179.58 25.0293 179.873 24.9316C180.199 24.8014 180.394 24.7038 180.459 24.6387L192.275 25.0781C192.438 25.0781 192.666 25.1107 192.959 25.1758C193.252 25.2083 193.561 25.2734 193.887 25.3711C194.212 25.4362 194.505 25.5176 194.766 25.6152C195.059 25.6803 195.254 25.7454 195.352 25.8105C195.384 25.8431 195.498 25.9408 195.693 26.1035C195.889 26.2663 196.1 26.4453 196.328 26.6406C196.589 26.8359 196.833 27.0312 197.061 27.2266C197.288 27.4219 197.451 27.5684 197.549 27.666C198.493 28.6426 199.095 29.7982 199.355 31.1328C199.648 32.4674 199.795 33.7695 199.795 35.0391C199.795 36.569 199.469 38.0339 198.818 39.4336C198.2 40.8333 197.272 42.0378 196.035 43.0469C195.97 43.0794 195.775 43.2096 195.449 43.4375C195.124 43.6328 194.766 43.8607 194.375 44.1211C194.017 44.349 193.675 44.5768 193.35 44.8047C193.057 45 192.878 45.1139 192.812 45.1465C192.682 45.2116 192.52 45.3255 192.324 45.4883C192.129 45.651 191.999 45.765 191.934 45.8301C192.161 46.1556 192.471 46.416 192.861 46.6113C193.285 46.8066 193.708 47.002 194.131 47.1973C194.587 47.36 195.01 47.5228 195.4 47.6855C195.824 47.8158 196.165 47.9948 196.426 48.2227C196.523 48.2552 196.719 48.418 197.012 48.7109C197.305 48.9714 197.63 49.2806 197.988 49.6387C198.346 49.9967 198.688 50.3711 199.014 50.7617C199.372 51.1198 199.632 51.3965 199.795 51.5918C200.023 51.8197 200.234 52.2591 200.43 52.9102C200.625 53.5612 200.788 54.2611 200.918 55.0098C201.048 55.7585 201.146 56.4746 201.211 57.1582C201.309 57.8418 201.357 58.3464 201.357 58.6719C201.357 58.7044 201.341 58.7533 201.309 58.8184C201.309 58.8835 201.309 58.9486 201.309 59.0137C201.276 59.1113 201.26 59.1927 201.26 59.2578C201.26 59.3555 201.195 59.5671 201.064 59.8926C200.967 60.1855 200.918 60.3809 200.918 60.4785C200.885 60.5436 200.853 60.7064 200.82 60.9668C200.788 61.1947 200.739 61.4551 200.674 61.748C200.641 62.041 200.609 62.3177 200.576 62.5781C200.544 62.806 200.511 62.9688 200.479 63.0664C200.348 63.2617 200.218 63.457 200.088 63.6523C199.958 63.8151 199.827 63.9941 199.697 64.1895C199.6 64.3522 199.502 64.4661 199.404 64.5312C199.339 64.5964 199.209 64.7266 199.014 64.9219C198.851 65.1172 198.672 65.3451 198.477 65.6055C198.281 65.8333 198.086 66.0612 197.891 66.2891C197.728 66.4844 197.614 66.6309 197.549 66.7285C197.191 67.1191 196.816 67.4121 196.426 67.6074C196.068 67.7702 195.693 67.9004 195.303 67.998C194.912 68.0957 194.505 68.1771 194.082 68.2422C193.659 68.3073 193.236 68.4212 192.812 68.584C192.682 68.6165 192.471 68.7467 192.178 68.9746C191.885 69.2025 191.673 69.3164 191.543 69.3164C191.478 69.349 191.331 69.3815 191.104 69.4141C190.876 69.4466 190.615 69.4954 190.322 69.5605C190.029 69.5931 189.736 69.6257 189.443 69.6582C189.183 69.6908 189.004 69.7233 188.906 69.7559C188.841 69.7884 188.613 69.8372 188.223 69.9023C187.832 69.9674 187.409 70.0326 186.953 70.0977C186.497 70.1953 186.058 70.2767 185.635 70.3418C185.212 70.4069 184.951 70.4395 184.854 70.4395H184.121C182.917 70.4395 181.745 70.3581 180.605 70.1953C179.466 70.0651 178.343 70 177.236 70C175.186 70 173.151 70.0651 171.133 70.1953C169.147 70.3581 167.161 70.4395 165.176 70.4395C164.818 70.4395 164.427 70.4232 164.004 70.3906C163.613 70.3906 163.223 70.3418 162.832 70.2441C162.474 70.1465 162.165 69.9837 161.904 69.7559C161.676 69.528 161.562 69.1862 161.562 68.7305Z" fill="#180D0D"/>
</svg>
