<svg width="312" height="74" viewBox="0 0 312 74" fill="none" xmlns="http://www.w3.org/2000/svg">
<path d="M0.140625 4.42188C0.140625 4.25911 0.173177 4.12891 0.238281 4.03125C0.335938 3.90104 0.384766 3.80339 0.384766 3.73828C0.645182 3.54297 0.970703 3.42904 1.36133 3.39648C1.75195 3.36393 2.01237 3.34766 2.14258 3.34766C2.24023 3.34766 2.43555 3.36393 2.72852 3.39648C3.05404 3.39648 3.42839 3.41276 3.85156 3.44531C4.27474 3.44531 4.71419 3.46159 5.16992 3.49414C5.6582 3.49414 6.11393 3.49414 6.53711 3.49414C7.18815 3.49414 7.82292 3.44531 8.44141 3.34766C9.0599 3.21745 9.69466 3.15234 10.3457 3.15234H10.5898C10.7852 3.1849 11.0781 3.21745 11.4688 3.25C11.8594 3.25 12.25 3.26628 12.6406 3.29883C13.0312 3.29883 13.373 3.3151 13.666 3.34766C13.9915 3.34766 14.1868 3.34766 14.252 3.34766C14.2845 3.34766 14.3822 3.38021 14.5449 3.44531C14.7077 3.47786 14.8704 3.52669 15.0332 3.5918C15.196 3.62435 15.3424 3.6569 15.4727 3.68945C15.6354 3.72201 15.7331 3.73828 15.7656 3.73828H15.8145H16.1074C16.1725 3.73828 16.3841 3.68945 16.7422 3.5918C17.1328 3.46159 17.3932 3.38021 17.5234 3.34766C18.8906 3.15234 20.2904 3.05469 21.7227 3.05469C23.1549 3.05469 24.5384 3.15234 25.873 3.34766C26.3939 3.38021 26.7682 3.52669 26.9961 3.78711C27.224 4.04753 27.3379 4.4056 27.3379 4.86133C27.3379 5.44727 27.1751 5.88672 26.8496 6.17969C26.5241 6.47266 26.1009 6.68424 25.5801 6.81445C25.0918 6.94466 24.5384 7.02604 23.9199 7.05859C23.334 7.05859 22.7643 7.09115 22.2109 7.15625C21.6901 7.1888 21.2181 7.27018 20.7949 7.40039C20.3717 7.49805 20.0951 7.70964 19.9648 8.03516V9.40234C19.9648 10.0859 20.0462 10.8509 20.209 11.6973C20.3717 12.5111 20.5833 13.3411 20.8438 14.1875C21.1042 15.0013 21.3809 15.7988 21.6738 16.5801C21.9993 17.3613 22.3086 18.0449 22.6016 18.6309C22.6341 18.6634 22.6992 18.7611 22.7969 18.9238C22.9271 19.054 23.0573 19.2168 23.1875 19.4121C23.3177 19.5749 23.4316 19.7376 23.5293 19.9004C23.6595 20.0632 23.7409 20.1771 23.7734 20.2422C23.806 20.3073 23.8548 20.5352 23.9199 20.9258C24.0176 21.3164 24.1152 21.7396 24.2129 22.1953C24.3431 22.651 24.457 23.0742 24.5547 23.4648C24.6523 23.8555 24.7337 24.0996 24.7988 24.1973C24.8314 24.2949 24.9616 24.5065 25.1895 24.832C25.4499 25.125 25.7266 25.4668 26.0195 25.8574C26.3125 26.2155 26.5892 26.5736 26.8496 26.9316C27.11 27.2572 27.2728 27.4688 27.3379 27.5664C27.5658 27.9245 27.7936 28.4616 28.0215 29.1777C28.2493 29.8939 28.5098 30.61 28.8027 31.3262C29.0957 32.0423 29.4375 32.6771 29.8281 33.2305C30.2188 33.7513 30.707 34.0117 31.293 34.0117C31.7487 34.0117 32.123 33.8327 32.416 33.4746C32.7415 33.1165 33.0182 32.6934 33.2461 32.2051C33.474 31.7168 33.6693 31.2285 33.832 30.7402C33.9948 30.252 34.1576 29.8776 34.3203 29.6172C34.8411 28.8034 35.362 28.071 35.8828 27.4199C36.4362 26.7363 36.9082 25.89 37.2988 24.8809C37.3639 24.8158 37.4128 24.653 37.4453 24.3926C37.5104 24.0996 37.543 23.9206 37.543 23.8555C37.5755 23.7904 37.6406 23.6927 37.7383 23.5625C37.8685 23.3997 37.9987 23.237 38.1289 23.0742C38.2591 22.9115 38.373 22.765 38.4707 22.6348C38.6009 22.5046 38.6823 22.4232 38.7148 22.3906C39.2682 21.6745 39.7402 20.9421 40.1309 20.1934C40.554 19.4447 40.9284 18.696 41.2539 17.9473C41.612 17.166 41.9538 16.401 42.2793 15.6523C42.6048 14.8711 42.9629 14.0898 43.3535 13.3086C43.7441 12.5599 44.151 11.86 44.5742 11.209C44.9974 10.5254 45.209 9.76042 45.209 8.91406C45.209 8.6862 45.1113 8.47461 44.916 8.2793C44.7533 8.08398 44.5417 7.90495 44.2812 7.74219C44.0534 7.54688 43.8092 7.36784 43.5488 7.20508C43.321 7.00977 43.1419 6.81445 43.0117 6.61914C42.8815 6.61914 42.6374 6.61914 42.2793 6.61914C41.9538 6.58659 41.5957 6.57031 41.2051 6.57031C40.8145 6.53776 40.4564 6.50521 40.1309 6.47266C39.8053 6.4401 39.5938 6.40755 39.4961 6.375C39.138 6.27734 38.7474 6.19596 38.3242 6.13086C37.9336 6.06576 37.5755 5.9681 37.25 5.83789C36.9245 5.67513 36.6478 5.47982 36.4199 5.25195C36.2246 4.99154 36.127 4.63346 36.127 4.17773C36.127 3.88477 36.1921 3.6569 36.3223 3.49414C36.485 3.33138 36.6641 3.20117 36.8594 3.10352C37.0547 3.00586 37.25 2.95703 37.4453 2.95703C37.6732 2.92448 37.8685 2.9082 38.0312 2.9082C38.6823 2.9082 39.252 2.98958 39.7402 3.15234C40.2611 3.28255 40.8307 3.34766 41.4492 3.34766H41.5957C41.6283 3.34766 41.7259 3.36393 41.8887 3.39648C42.084 3.39648 42.2956 3.41276 42.5234 3.44531C42.7839 3.44531 43.028 3.46159 43.2559 3.49414C43.4837 3.49414 43.6628 3.49414 43.793 3.49414C44.0208 3.49414 44.1999 3.49414 44.3301 3.49414C44.4928 3.49414 44.6556 3.49414 44.8184 3.49414C44.9811 3.46159 45.1764 3.44531 45.4043 3.44531C45.6647 3.41276 46.0228 3.38021 46.4785 3.34766C47.4225 3.25 48.2363 3.16862 48.9199 3.10352C49.6035 3.03841 50.0918 2.97331 50.3848 2.9082C50.4824 2.9082 50.8242 2.87565 51.4102 2.81055C51.9961 2.71289 52.6471 2.61523 53.3633 2.51758C54.0794 2.41992 54.7956 2.32227 55.5117 2.22461C56.2604 2.12695 56.8301 2.04557 57.2207 1.98047C57.3184 1.98047 57.5137 1.91536 57.8066 1.78516C58.1322 1.65495 58.3275 1.54102 58.3926 1.44336C58.6204 1.41081 58.9134 1.36198 59.2715 1.29688C59.6621 1.23177 59.9876 1.19922 60.248 1.19922C60.3132 1.19922 60.3457 1.21549 60.3457 1.24805C60.3783 1.24805 60.4108 1.24805 60.4434 1.24805C60.4759 1.2806 60.5085 1.29688 60.541 1.29688C60.6061 1.29688 60.7363 1.32943 60.9316 1.39453C61.1595 1.42708 61.3874 1.47591 61.6152 1.54102C61.8757 1.60612 62.1035 1.6875 62.2988 1.78516C62.5267 1.85026 62.6895 1.91536 62.7871 1.98047C62.8848 2.04557 63.0801 2.19206 63.373 2.41992C63.666 2.64779 63.8451 2.81055 63.9102 2.9082C63.9102 2.97331 63.9102 3.05469 63.9102 3.15234C63.9427 3.21745 63.959 3.28255 63.959 3.34766C63.959 3.77083 63.8451 4.11263 63.6172 4.37305C63.4219 4.63346 63.1615 4.86133 62.8359 5.05664C62.543 5.2194 62.2174 5.38216 61.8594 5.54492C61.5013 5.67513 61.1595 5.80534 60.834 5.93555C60.8014 5.93555 60.6387 6.04948 60.3457 6.27734C60.0853 6.50521 59.89 6.61914 59.7598 6.61914C59.4993 6.81445 59.2227 6.94466 58.9297 7.00977C58.6367 7.07487 58.3275 7.1237 58.002 7.15625C57.709 7.1888 57.3997 7.22135 57.0742 7.25391C56.7812 7.25391 56.472 7.31901 56.1465 7.44922C55.8535 7.54688 55.5931 7.69336 55.3652 7.88867C55.1699 8.05143 54.9746 8.24674 54.7793 8.47461C54.584 8.70247 54.3724 8.94661 54.1445 9.20703C53.9492 9.4349 53.6888 9.66276 53.3633 9.89062C53.2982 9.92318 53.1517 10.0046 52.9238 10.1348C52.696 10.2324 52.4518 10.3464 52.1914 10.4766C51.931 10.6068 51.6868 10.737 51.459 10.8672C51.2311 10.9648 51.0684 11.0137 50.9707 11.0137C50.9056 11.0788 50.7266 11.209 50.4336 11.4043C50.1732 11.5996 50.0104 11.7298 49.9453 11.7949C49.8151 11.9577 49.5547 12.2344 49.1641 12.625C48.806 12.9831 48.3991 13.3737 47.9434 13.7969C47.5202 14.2201 47.097 14.627 46.6738 15.0176C46.2832 15.3757 46.0228 15.6198 45.8926 15.75C45.8926 15.8151 45.7949 16.0104 45.5996 16.3359C45.4368 16.6289 45.3066 16.8568 45.209 17.0195C45.1439 17.0846 45.0299 17.2474 44.8672 17.5078C44.737 17.7682 44.5905 18.0612 44.4277 18.3867C44.2975 18.6797 44.1673 18.9564 44.0371 19.2168C43.9069 19.4772 43.8255 19.64 43.793 19.7051C43.7604 19.7702 43.6953 19.8678 43.5977 19.998C43.5 20.0957 43.3861 20.2096 43.2559 20.3398C43.1582 20.4375 43.0443 20.5514 42.9141 20.6816C42.8164 20.7793 42.7513 20.8444 42.7188 20.877C42.6536 20.9746 42.5397 21.1374 42.377 21.3652C42.2467 21.5931 42.1003 21.8535 41.9375 22.1465C41.8073 22.4069 41.6608 22.6673 41.498 22.9277C41.3678 23.1556 41.2865 23.3184 41.2539 23.416C41.2214 23.4811 41.14 23.6764 41.0098 24.002C40.9121 24.3275 40.7982 24.6693 40.668 25.0273C40.5703 25.3854 40.4564 25.7272 40.3262 26.0527C40.2285 26.3783 40.1797 26.5736 40.1797 26.6387C40.1146 26.7363 39.9681 26.9479 39.7402 27.2734C39.5449 27.5664 39.3171 27.8757 39.0566 28.2012C38.8288 28.5267 38.6009 28.8359 38.373 29.1289C38.1777 29.3893 38.0475 29.5521 37.9824 29.6172C37.429 30.3984 36.9408 31.2773 36.5176 32.2539C36.0944 33.2305 35.7363 34.2396 35.4434 35.2812C35.1504 36.3229 34.9225 37.3646 34.7598 38.4062C34.6296 39.4479 34.5645 40.4245 34.5645 41.3359C34.5645 41.5638 34.597 42.166 34.6621 43.1426C34.7598 44.0866 34.8574 45.1283 34.9551 46.2676C35.0527 47.3743 35.1341 48.416 35.1992 49.3926C35.2969 50.3366 35.3457 50.9225 35.3457 51.1504C35.3457 51.7038 35.362 52.599 35.3945 53.8359C35.4271 55.0729 35.4434 56.3913 35.4434 57.791C35.4434 59.2559 35.4271 60.6068 35.3945 61.8438C35.362 63.0482 35.3457 63.8945 35.3457 64.3828C35.4434 65.0013 35.6061 65.4896 35.834 65.8477C36.0944 66.2057 36.3874 66.4824 36.7129 66.6777C37.0384 66.873 37.4128 67.0033 37.8359 67.0684C38.2591 67.1335 38.6986 67.166 39.1543 67.166C39.5775 67.166 40.0332 67.166 40.5215 67.166C41.0098 67.1335 41.4818 67.1172 41.9375 67.1172C42.3932 67.1172 42.9629 67.1335 43.6465 67.166C44.3301 67.166 44.9811 67.2474 45.5996 67.4102C46.2507 67.5404 46.804 67.8008 47.2598 68.1914C47.7155 68.5495 47.9434 69.0866 47.9434 69.8027C47.9434 70.0957 47.9108 70.3073 47.8457 70.4375C47.8132 70.5677 47.6504 70.6654 47.3574 70.7305C46.804 71.0885 46.332 71.3652 45.9414 71.5605C45.5508 71.7559 45.1602 71.9186 44.7695 72.0488C44.3789 72.179 43.9557 72.2604 43.5 72.293C43.0768 72.3255 42.556 72.3418 41.9375 72.3418C41.7747 72.3418 41.5632 72.3581 41.3027 72.3906C41.0423 72.4232 40.7819 72.4395 40.5215 72.4395C40.1634 72.4395 39.8216 72.4069 39.4961 72.3418C39.2031 72.2767 38.9427 72.1628 38.7148 72C38.5195 72 38.1777 72 37.6895 72C37.2337 71.9674 36.7292 71.9512 36.1758 71.9512C35.6549 71.9512 35.1504 71.9512 34.6621 71.9512C34.2064 71.9186 33.8971 71.9023 33.7344 71.9023C33.4089 71.9023 32.9857 71.9186 32.4648 71.9512C31.944 71.9512 31.4232 71.9512 30.9023 71.9512C30.4141 71.9512 29.9746 71.9674 29.584 72C29.1934 72 28.9818 72 28.9492 72C28.2656 72 27.5332 72.0326 26.752 72.0977C25.9707 72.1953 25.2871 72.2441 24.7012 72.2441H21.5762C21.5436 72.2441 21.446 72.2604 21.2832 72.293C21.1204 72.3581 20.9414 72.4069 20.7461 72.4395C20.5833 72.5046 20.4206 72.5534 20.2578 72.5859C20.0951 72.651 19.9974 72.6836 19.9648 72.6836C19.7695 72.7487 19.5091 72.7975 19.1836 72.8301C18.8581 72.8952 18.5163 72.944 18.1582 72.9766C17.8327 73.0091 17.5234 73.0254 17.2305 73.0254C16.9701 73.0579 16.8073 73.0742 16.7422 73.0742C16.4818 73.0742 16.2051 72.9766 15.9121 72.7812C15.6191 72.6185 15.3424 72.4069 15.082 72.1465C14.8542 71.8861 14.6589 71.6094 14.4961 71.3164C14.3333 70.9909 14.252 70.6816 14.252 70.3887C14.252 70.1608 14.2845 69.9004 14.3496 69.6074C14.4473 69.3145 14.5775 69.054 14.7402 68.8262C14.903 68.5658 15.0983 68.3542 15.3262 68.1914C15.554 68.0286 15.8145 67.9473 16.1074 67.9473C17.0189 67.8496 17.9629 67.8008 18.9395 67.8008C20.209 67.8008 21.4297 67.8496 22.6016 67.9473C22.6667 67.8822 22.8132 67.8333 23.041 67.8008C23.3014 67.7357 23.4642 67.7031 23.5293 67.7031C23.6921 67.7031 23.9525 67.7194 24.3105 67.752C24.6686 67.7845 24.9128 67.8008 25.043 67.8008C25.043 67.5729 25.0592 67.2148 25.0918 66.7266C25.1569 66.2383 25.1895 65.8802 25.1895 65.6523C24.929 61.5182 24.75 57.3516 24.6523 53.1523C24.5872 48.9531 24.2943 44.7539 23.7734 40.5547C23.6758 40.1315 23.513 39.7083 23.2852 39.2852C23.0573 38.8294 22.7969 38.39 22.5039 37.9668C22.2109 37.5436 21.9017 37.1204 21.5762 36.6973C21.2507 36.2741 20.974 35.8509 20.7461 35.4277C20.4857 34.972 20.1276 34.321 19.6719 33.4746C19.2161 32.5957 18.7604 31.7168 18.3047 30.8379C17.849 29.959 17.4421 29.1615 17.084 28.4453C16.7259 27.7292 16.5143 27.2897 16.4492 27.127C16.4167 27.0944 16.3678 26.9642 16.3027 26.7363C16.2376 26.5085 16.1562 26.2643 16.0586 26.0039C15.9935 25.7435 15.9284 25.4993 15.8633 25.2715C15.7982 25.0436 15.7656 24.9134 15.7656 24.8809C15.4727 24.1322 15.1309 23.3835 14.7402 22.6348C14.3496 21.8861 13.9753 21.1374 13.6172 20.3887C13.3568 19.7376 13.1126 19.1517 12.8848 18.6309C12.6569 18.0775 12.3965 17.3939 12.1035 16.5801C11.9082 16.3522 11.7454 16.2057 11.6152 16.1406C11.5176 16.043 11.4036 15.8314 11.2734 15.5059C11.2409 15.4408 11.1921 15.2943 11.127 15.0664C11.0618 14.8385 10.9967 14.6107 10.9316 14.3828C10.8665 14.1224 10.8014 13.8945 10.7363 13.6992C10.6712 13.4714 10.6224 13.3411 10.5898 13.3086C10.5898 13.276 10.541 13.1947 10.4434 13.0645C10.3457 12.9017 10.2318 12.7389 10.1016 12.5762C9.97135 12.4134 9.84115 12.2669 9.71094 12.1367C9.58073 11.974 9.48307 11.86 9.41797 11.7949C9.0599 11.3066 8.81576 10.8835 8.68555 10.5254C8.55534 10.1348 8.42513 9.77669 8.29492 9.45117C8.16471 9.12565 7.98568 8.80013 7.75781 8.47461C7.52995 8.14909 7.1556 7.80729 6.63477 7.44922C6.43945 7.25391 6.11393 7.10742 5.6582 7.00977C5.23503 6.91211 4.76302 6.81445 4.24219 6.7168C3.75391 6.61914 3.23307 6.52148 2.67969 6.42383C2.15885 6.32617 1.70312 6.19596 1.3125 6.0332C0.954427 5.87044 0.661458 5.65885 0.433594 5.39844C0.238281 5.13802 0.140625 4.8125 0.140625 4.42188ZM95.2988 64.9199C95.429 65.0176 95.6569 65.1641 95.9824 65.3594C96.3405 65.5221 96.7148 65.7174 97.1055 65.9453C97.4961 66.1406 97.8542 66.3359 98.1797 66.5312C98.5378 66.694 98.7819 66.8242 98.9121 66.9219C98.9772 66.987 99.0911 67.1172 99.2539 67.3125C99.4167 67.5078 99.5306 67.6055 99.5957 67.6055C99.6608 67.6706 99.791 67.752 99.9863 67.8496C100.214 67.9147 100.361 67.9798 100.426 68.0449C100.458 68.0449 100.54 68.0612 100.67 68.0938C100.833 68.1263 100.995 68.1589 101.158 68.1914C101.321 68.1914 101.484 68.2077 101.646 68.2402C101.809 68.2728 101.907 68.2891 101.939 68.2891C101.972 68.3216 102.053 68.3867 102.184 68.4844C102.346 68.582 102.493 68.6797 102.623 68.7773C102.786 68.875 102.932 68.9564 103.062 69.0215C103.193 69.0866 103.274 69.1191 103.307 69.1191C103.372 69.1191 103.502 69.1354 103.697 69.168C103.925 69.2005 104.104 69.2168 104.234 69.2168C104.365 69.2168 104.544 69.2005 104.771 69.168C104.999 69.1354 105.178 69.1191 105.309 69.1191C105.341 69.1191 105.439 69.1029 105.602 69.0703C105.764 69.0378 105.943 69.0052 106.139 68.9727C106.367 68.9076 106.578 68.8587 106.773 68.8262C106.969 68.7936 107.099 68.7773 107.164 68.7773C107.88 68.6471 108.58 68.582 109.264 68.582C109.98 68.582 110.663 68.5495 111.314 68.4844C111.965 68.4193 112.6 68.2891 113.219 68.0938C113.837 67.8659 114.423 67.4753 114.977 66.9219C114.977 66.8568 115.025 66.7591 115.123 66.6289C115.253 66.4661 115.367 66.3034 115.465 66.1406C115.595 65.9453 115.709 65.7826 115.807 65.6523C115.904 65.5221 115.953 65.4408 115.953 65.4082C116.083 65.278 116.344 65.0339 116.734 64.6758C117.125 64.3177 117.532 63.9271 117.955 63.5039C118.378 63.0807 118.769 62.7064 119.127 62.3809C119.518 62.0228 119.762 61.7949 119.859 61.6973C120.38 61.0462 120.803 60.3626 121.129 59.6465C121.487 58.8978 121.878 58.1979 122.301 57.5469C122.398 57.4818 122.545 57.3027 122.74 57.0098C122.968 56.6842 123.082 56.5052 123.082 56.4727C123.733 55.138 124.319 53.8522 124.84 52.6152C125.393 51.3457 125.865 50.0924 126.256 48.8555C126.646 47.5859 126.956 46.3001 127.184 44.998C127.411 43.696 127.525 42.3125 127.525 40.8477C127.525 38.7969 127.379 36.4694 127.086 33.8652C126.826 31.2611 126.386 28.6569 125.768 26.0527C125.149 23.416 124.352 20.9095 123.375 18.5332C122.431 16.1569 121.259 14.1549 119.859 12.5273C119.762 12.4622 119.599 12.3483 119.371 12.1855C119.143 12.0228 118.997 11.9089 118.932 11.8438C118.932 11.7135 118.883 11.502 118.785 11.209C118.72 10.8835 118.655 10.6719 118.59 10.5742C118.557 10.5742 118.476 10.5091 118.346 10.3789C118.215 10.2487 118.069 10.1022 117.906 9.93945C117.776 9.77669 117.63 9.63021 117.467 9.5C117.337 9.33724 117.239 9.22331 117.174 9.1582C116.555 8.63737 115.888 8.23047 115.172 7.9375C114.456 7.64453 113.74 7.31901 113.023 6.96094C111.656 6.21224 110.305 5.57747 108.971 5.05664C107.636 4.53581 106.139 4.27539 104.479 4.27539C103.535 4.27539 102.607 4.4056 101.695 4.66602C100.816 4.92643 99.8887 5.18685 98.9121 5.44727C98.3913 5.61003 97.8542 5.90299 97.3008 6.32617C96.7474 6.74935 96.1777 7.22135 95.5918 7.74219C95.0384 8.26302 94.5013 8.78385 93.9805 9.30469C93.4596 9.82552 92.9876 10.2487 92.5645 10.5742C92.4993 10.6393 92.3691 10.7533 92.1738 10.916C91.9785 11.0788 91.7669 11.2578 91.5391 11.4531C91.3438 11.6159 91.1484 11.7786 90.9531 11.9414C90.7578 12.0716 90.6439 12.153 90.6113 12.1855C90.3184 12.7064 90.0254 13.1947 89.7324 13.6504C89.472 14.041 89.2279 14.4479 89 14.8711C88.7721 15.2943 88.5768 15.6361 88.4141 15.8965C88.1211 16.4173 87.9258 16.9707 87.8281 17.5566C87.763 18.11 87.6003 18.6797 87.3398 19.2656C86.7539 20.8281 86.1029 22.4069 85.3867 24.002C84.7031 25.597 84.2474 27.2409 84.0195 28.9336C84.0195 29.0312 84.0033 29.2917 83.9707 29.7148C83.9382 30.138 83.8893 30.61 83.8242 31.1309C83.7917 31.6191 83.7591 32.1074 83.7266 32.5957C83.694 33.0514 83.6615 33.3444 83.6289 33.4746L83.4336 33.7676C83.3359 33.9303 83.2871 34.0605 83.2871 34.1582V35.8672V37.4297C83.3522 37.4948 83.4173 37.5762 83.4824 37.6738C83.5801 37.7389 83.6289 37.804 83.6289 37.8691C84.0846 38.9108 84.3451 40.0013 84.4102 41.1406C84.5078 42.2799 84.638 43.4193 84.8008 44.5586C85.0286 46.0885 85.3867 47.5208 85.875 48.8555C86.3958 50.1901 86.8841 51.6224 87.3398 53.1523C87.3398 53.2174 87.4049 53.4616 87.5352 53.8848C87.6979 54.2754 87.7793 54.5358 87.7793 54.666C87.8118 54.7311 87.9746 54.959 88.2676 55.3496C88.5931 55.7402 88.7884 56.0169 88.8535 56.1797C88.9186 56.4076 88.9837 56.6191 89.0488 56.8145C89.1139 56.9772 89.1628 57.14 89.1953 57.3027C89.2604 57.4329 89.293 57.5143 89.293 57.5469C89.3255 57.6445 89.472 57.8724 89.7324 58.2305C89.9928 58.556 90.2695 58.9141 90.5625 59.3047C90.8555 59.6628 91.1159 60.0046 91.3438 60.3301C91.6042 60.623 91.7669 60.8184 91.832 60.916L92.1738 61.6973C92.2389 61.7624 92.4017 61.9251 92.6621 62.1855C92.9225 62.4134 93.1992 62.6738 93.4922 62.9668C93.8177 63.2598 94.1107 63.5365 94.3711 63.7969C94.6315 64.0573 94.7943 64.2038 94.8594 64.2363C94.8594 64.3014 94.9082 64.4154 95.0059 64.5781C95.1035 64.7409 95.2012 64.8548 95.2988 64.9199ZM98.2285 72C98.0983 72 97.9355 71.9674 97.7402 71.9023C97.5449 71.8047 97.431 71.7559 97.3984 71.7559C97.3333 71.7233 97.138 71.6582 96.8125 71.5605C96.487 71.4303 96.1289 71.3164 95.7383 71.2188C95.3477 71.0885 94.9733 70.9746 94.6152 70.877C94.2897 70.7467 94.0944 70.6654 94.0293 70.6328C93.6387 70.4375 93.2806 70.2585 92.9551 70.0957C92.6621 69.9004 92.3691 69.7051 92.0762 69.5098C91.8158 69.3145 91.5391 69.1191 91.2461 68.9238C90.9531 68.696 90.6276 68.4844 90.2695 68.2891C90.2044 68.2565 90.0742 68.2077 89.8789 68.1426C89.6836 68.0449 89.4557 67.9473 89.1953 67.8496C88.9674 67.7194 88.7559 67.6055 88.5605 67.5078C88.3652 67.4102 88.235 67.3288 88.1699 67.2637C86.8678 66.6777 85.582 65.8965 84.3125 64.9199C83.0755 63.9434 81.9036 62.8691 80.7969 61.6973C79.6901 60.4928 78.6973 59.2233 77.8184 57.8887C76.972 56.5215 76.2884 55.1706 75.7676 53.8359C75.7676 53.7708 75.735 53.6081 75.6699 53.3477C75.6374 53.0872 75.5723 52.8105 75.4746 52.5176C75.4095 52.2246 75.3281 51.9479 75.2305 51.6875C75.1654 51.4271 75.1165 51.2643 75.084 51.1992C75.084 51.1992 75.0514 51.1504 74.9863 51.0527C74.9212 50.9225 74.8398 50.7923 74.7422 50.6621C74.6445 50.5319 74.5469 50.418 74.4492 50.3203C74.3516 50.1901 74.2865 50.125 74.2539 50.125C74.2539 50.0924 74.2376 50.0111 74.2051 49.8809C74.1725 49.7181 74.14 49.5553 74.1074 49.3926C74.1074 49.2298 74.0911 49.0671 74.0586 48.9043C74.026 48.7415 74.0098 48.6439 74.0098 48.6113C73.9772 48.5788 73.9284 48.4974 73.8633 48.3672C73.7982 48.237 73.7168 48.0905 73.6191 47.9277C73.554 47.765 73.4889 47.6185 73.4238 47.4883C73.3587 47.3255 73.3262 47.1953 73.3262 47.0977C73.2285 47 73.1146 46.7233 72.9844 46.2676C72.8542 45.7793 72.7891 45.4375 72.7891 45.2422C72.7565 44.8841 72.6914 44.347 72.5938 43.6309C72.5286 42.8822 72.4635 42.1335 72.3984 41.3848C72.3333 40.6361 72.2682 39.9525 72.2031 39.334C72.138 38.6829 72.1055 38.276 72.1055 38.1133V35.4277C72.1055 33.4746 72.2682 31.5703 72.5938 29.7148C72.9193 27.8594 73.3913 25.9388 74.0098 23.9531C74.14 23.5951 74.3027 23.3184 74.498 23.123C74.7259 22.9277 74.9212 22.6022 75.084 22.1465C75.2142 21.821 75.3444 21.3652 75.4746 20.7793C75.6374 20.1608 75.8001 19.5423 75.9629 18.9238C76.1582 18.2728 76.3535 17.6706 76.5488 17.1172C76.7767 16.5312 77.0208 16.1243 77.2812 15.8965L84.8008 8.47461C85.6146 8.11654 86.3796 7.5957 87.0957 6.91211C87.8118 6.22852 88.5443 5.59375 89.293 5.00781C89.3255 5.00781 89.4232 4.99154 89.5859 4.95898C89.7812 4.89388 89.9115 4.82878 89.9766 4.76367C90.9206 4.34049 91.8971 3.90104 92.9062 3.44531C93.9154 2.95703 94.9082 2.63151 95.8848 2.46875C95.9173 2.46875 95.9824 2.45247 96.0801 2.41992C96.1777 2.35482 96.3079 2.32227 96.4707 2.32227C96.7311 2.32227 96.9915 2.28971 97.252 2.22461C97.5124 2.15951 97.6751 2.12695 97.7402 2.12695C97.7728 2.12695 97.9193 2.11068 98.1797 2.07812C98.4401 2.04557 98.7331 2.01302 99.0586 1.98047C99.3841 1.91536 99.7096 1.85026 100.035 1.78516C100.393 1.72005 100.67 1.67122 100.865 1.63867C100.865 1.54102 101.028 1.47591 101.354 1.44336C101.679 1.41081 101.874 1.39453 101.939 1.39453C102.005 1.39453 102.151 1.39453 102.379 1.39453C102.639 1.36198 102.916 1.32943 103.209 1.29688C103.502 1.26432 103.762 1.24805 103.99 1.24805C104.251 1.21549 104.413 1.19922 104.479 1.19922C104.544 1.19922 104.723 1.16667 105.016 1.10156C105.309 1.00391 105.504 0.955078 105.602 0.955078H106.09C107.066 0.955078 108.222 1.02018 109.557 1.15039C110.924 1.2806 112.291 1.49219 113.658 1.78516C115.058 2.04557 116.393 2.38737 117.662 2.81055C118.964 3.20117 120.038 3.68945 120.885 4.27539C120.885 4.27539 120.934 4.34049 121.031 4.4707C121.161 4.56836 121.292 4.69857 121.422 4.86133C121.552 4.99154 121.666 5.12174 121.764 5.25195C121.894 5.34961 121.959 5.41471 121.959 5.44727C122.317 5.70768 122.675 5.91927 123.033 6.08203C123.391 6.21224 123.749 6.34245 124.107 6.47266C124.465 6.60286 124.807 6.74935 125.133 6.91211C125.458 7.07487 125.784 7.31901 126.109 7.64453C127.281 8.7513 128.307 9.82552 129.186 10.8672C130.097 11.8763 130.911 12.918 131.627 13.9922C132.376 15.0664 133.076 16.222 133.727 17.459C134.378 18.6634 135.045 19.998 135.729 21.4629C135.761 21.528 135.842 21.6908 135.973 21.9512C136.103 22.179 136.217 22.4395 136.314 22.7324C136.445 22.9928 136.559 23.2533 136.656 23.5137C136.786 23.7741 136.868 23.9206 136.9 23.9531C136.9 24.0508 136.949 24.1647 137.047 24.2949C137.112 24.3926 137.177 24.474 137.242 24.5391C137.633 25.0924 137.861 25.7109 137.926 26.3945C138.023 27.0781 138.072 27.778 138.072 28.4941C138.105 29.2103 138.137 29.9264 138.17 30.6426C138.202 31.3587 138.349 32.026 138.609 32.6445C138.642 32.8073 138.658 33.084 138.658 33.4746C138.691 33.8327 138.707 34.2396 138.707 34.6953C138.74 35.1185 138.756 35.5254 138.756 35.916C138.756 36.3066 138.756 36.5671 138.756 36.6973C138.756 38.5202 138.691 40.3431 138.561 42.166C138.463 43.9889 138.284 45.7956 138.023 47.5859C138.023 47.651 137.975 47.8138 137.877 48.0742C137.779 48.3346 137.682 48.5137 137.584 48.6113C137.584 48.6439 137.551 48.7415 137.486 48.9043C137.421 49.0671 137.34 49.2298 137.242 49.3926C137.145 49.5553 137.063 49.7181 136.998 49.8809C136.933 50.0111 136.9 50.0924 136.9 50.125C136.868 50.1901 136.819 50.3529 136.754 50.6133C136.721 50.8737 136.689 51.1504 136.656 51.4434C136.624 51.7363 136.591 52.013 136.559 52.2734C136.526 52.5339 136.51 52.6966 136.51 52.7617C136.282 53.5104 135.891 54.2103 135.338 54.8613C134.785 55.4798 134.329 56.1471 133.971 56.8633C133.515 57.5469 133.076 58.2467 132.652 58.9629C132.229 59.679 131.757 60.3301 131.236 60.916C131.204 61.0137 131.09 61.1764 130.895 61.4043C130.732 61.5996 130.634 61.6973 130.602 61.6973C129.332 62.6738 128.144 63.6504 127.037 64.627C125.93 65.571 124.742 66.4499 123.473 67.2637C123.115 67.4915 122.74 67.8171 122.35 68.2402C121.992 68.6309 121.633 68.9238 121.275 69.1191C121.178 69.1842 120.917 69.2982 120.494 69.4609C120.104 69.6237 119.664 69.819 119.176 70.0469C118.72 70.2422 118.297 70.4375 117.906 70.6328C117.516 70.7956 117.271 70.9095 117.174 70.9746C117.109 70.9746 117.027 70.9909 116.93 71.0234C116.865 71.056 116.799 71.0885 116.734 71.1211C116.637 71.1536 116.555 71.1862 116.49 71.2188C116.393 71.2839 116.165 71.349 115.807 71.4141C115.481 71.4466 115.123 71.4954 114.732 71.5605C114.342 71.6257 113.984 71.6745 113.658 71.707C113.333 71.7396 113.121 71.7559 113.023 71.7559C112.958 71.821 112.779 71.8861 112.486 71.9512C112.193 71.9837 111.998 72 111.9 72C111.152 72.293 110.305 72.5046 109.361 72.6348C108.45 72.765 107.62 72.8301 106.871 72.8301C106.676 72.8301 106.399 72.8138 106.041 72.7812C105.715 72.7812 105.39 72.765 105.064 72.7324C104.739 72.7324 104.446 72.7161 104.186 72.6836C103.958 72.6836 103.827 72.6836 103.795 72.6836C103.567 72.6836 103.176 72.651 102.623 72.5859C102.102 72.5534 101.549 72.5046 100.963 72.4395C100.377 72.3743 99.8236 72.293 99.3027 72.1953C98.7819 72.1302 98.4238 72.0651 98.2285 72ZM155.936 71.8535C155.936 70.877 156.294 70.1934 157.01 69.8027C157.758 69.3796 158.605 69.054 159.549 68.8262C160.525 68.5658 161.469 68.2891 162.381 67.9961C163.325 67.6706 163.992 67.1172 164.383 66.3359C164.611 65.9453 164.773 65.4733 164.871 64.9199C165.001 64.334 165.083 63.7318 165.115 63.1133C165.18 62.4948 165.213 61.9089 165.213 61.3555C165.245 60.7695 165.262 60.265 165.262 59.8418C165.262 56.9447 165.18 54.0475 165.018 51.1504C164.887 48.2533 164.822 45.291 164.822 42.2637V37.7227C164.822 37.625 164.839 37.4297 164.871 37.1367C164.904 36.8438 164.936 36.5508 164.969 36.2578C165.001 35.9648 165.034 35.7044 165.066 35.4766C165.132 35.2161 165.197 35.0534 165.262 34.9883C165.392 32.3516 165.473 29.7311 165.506 27.127C165.571 24.5228 165.604 21.9023 165.604 19.2656V11.502C165.441 11.0788 165.327 10.6556 165.262 10.2324C165.197 9.80924 165.164 9.36979 165.164 8.91406C165.164 8.65365 165.164 8.42578 165.164 8.23047C165.164 8.0026 165.197 7.77474 165.262 7.54688C164.969 7.1237 164.546 6.83073 163.992 6.66797C163.439 6.47266 162.82 6.35872 162.137 6.32617C161.486 6.26107 160.802 6.22852 160.086 6.22852C159.402 6.22852 158.768 6.17969 158.182 6.08203C157.628 5.98438 157.156 5.78906 156.766 5.49609C156.408 5.20312 156.229 4.76367 156.229 4.17773C156.229 2.87565 156.847 2.07812 158.084 1.78516H162.186H166.238C166.271 1.78516 166.385 1.80143 166.58 1.83398C166.775 1.86654 166.971 1.91536 167.166 1.98047C167.394 2.04557 167.589 2.11068 167.752 2.17578C167.915 2.24089 168.012 2.28971 168.045 2.32227H169.803C171.951 2.32227 174.116 2.17578 176.297 1.88281C178.478 1.58984 180.675 1.44336 182.889 1.44336C183.214 1.44336 183.621 1.45964 184.109 1.49219C184.598 1.49219 185.07 1.55729 185.525 1.6875C185.981 1.81771 186.372 2.01302 186.697 2.27344C187.055 2.53385 187.234 2.9082 187.234 3.39648C187.234 4.14518 186.941 4.79622 186.355 5.34961C185.77 5.90299 185.184 6.24479 184.598 6.375C183.849 6.53776 183.1 6.65169 182.352 6.7168C181.635 6.7819 180.919 6.84701 180.203 6.91211C179.52 6.97721 178.82 7.07487 178.104 7.20508C177.387 7.33529 176.671 7.5306 175.955 7.79102C175.955 8.11654 175.906 8.65365 175.809 9.40234C175.743 10.151 175.662 10.9486 175.564 11.7949C175.499 12.6087 175.418 13.39 175.32 14.1387C175.223 14.8548 175.158 15.3594 175.125 15.6523V22.8301V30.1055C175.385 30.5286 175.516 30.9844 175.516 31.4727C175.548 31.9609 175.581 32.4329 175.613 32.8887C175.646 33.3444 175.743 33.7676 175.906 34.1582C176.102 34.5163 176.492 34.793 177.078 34.9883H179.178H181.229C181.294 34.9883 181.44 34.972 181.668 34.9395C181.928 34.9069 182.205 34.8743 182.498 34.8418C182.791 34.7767 183.068 34.7279 183.328 34.6953C183.589 34.6628 183.751 34.6465 183.816 34.6465H191.922C192.02 34.6465 192.231 34.6302 192.557 34.5977C192.915 34.5651 193.289 34.5326 193.68 34.5C194.07 34.4349 194.428 34.3861 194.754 34.3535C195.079 34.321 195.291 34.3047 195.389 34.3047H195.682H195.73C195.796 34.3047 195.91 34.3535 196.072 34.4512C196.235 34.5488 196.349 34.6139 196.414 34.6465H210.525C210.656 34.6465 210.786 34.5814 210.916 34.4512C211.046 34.321 211.16 34.1745 211.258 34.0117C211.388 33.849 211.486 33.6862 211.551 33.5234C211.648 33.3607 211.73 33.2305 211.795 33.1328C211.795 32.9375 211.844 32.612 211.941 32.1562C212.072 31.7005 212.137 31.4076 212.137 31.2773C212.169 30.1706 212.186 28.9661 212.186 27.6641C212.218 26.362 212.234 25.0924 212.234 23.8555C212.267 22.5859 212.283 21.4141 212.283 20.3398C212.316 19.2656 212.348 18.403 212.381 17.752C212.381 17.6868 212.413 17.459 212.479 17.0684C212.544 16.6452 212.576 16.2871 212.576 15.9941C212.576 14.4967 212.479 12.9993 212.283 11.502C212.088 10.0046 211.925 8.49089 211.795 6.96094C211.437 6.53776 211.014 6.22852 210.525 6.0332C210.07 5.83789 209.614 5.69141 209.158 5.59375C208.507 5.65885 207.872 5.70768 207.254 5.74023C206.635 5.77279 206.001 5.78906 205.35 5.78906C204.633 5.78906 203.901 5.77279 203.152 5.74023C202.404 5.70768 201.655 5.65885 200.906 5.59375C200.809 5.59375 200.613 5.44727 200.32 5.1543C200.06 4.86133 199.881 4.64974 199.783 4.51953C199.751 4.51953 199.734 4.42188 199.734 4.22656C199.734 4.03125 199.734 3.90104 199.734 3.83594C199.734 2.89193 199.995 2.25716 200.516 1.93164C201.036 1.60612 201.704 1.44336 202.518 1.44336C205.187 1.44336 207.807 1.58984 210.379 1.88281C212.983 2.17578 215.652 2.32227 218.387 2.32227H222.928C223.904 1.86654 224.913 1.60612 225.955 1.54102C227.029 1.47591 228.087 1.44336 229.129 1.44336H231.033C231.717 1.80143 232.156 2.0944 232.352 2.32227C232.547 2.51758 232.645 2.94076 232.645 3.5918V4.51953C232.612 4.51953 232.514 4.58464 232.352 4.71484C232.189 4.8125 232.01 4.92643 231.814 5.05664C231.619 5.1543 231.424 5.26823 231.229 5.39844C231.033 5.49609 230.887 5.5612 230.789 5.59375H228.201C227.908 5.6263 227.55 5.67513 227.127 5.74023C226.736 5.80534 226.313 5.88672 225.857 5.98438C225.434 6.08203 225.027 6.19596 224.637 6.32617C224.246 6.45638 223.937 6.58659 223.709 6.7168C223.514 6.81445 223.367 7.05859 223.27 7.44922C223.172 7.83984 223.09 8.2793 223.025 8.76758C222.96 9.25586 222.895 9.76042 222.83 10.2812C222.765 10.7695 222.667 11.1764 222.537 11.502C222.505 11.8926 222.472 12.5273 222.439 13.4062C222.407 14.2852 222.374 15.2129 222.342 16.1895C222.309 17.166 222.277 18.0938 222.244 18.9727C222.212 19.8516 222.195 20.4863 222.195 20.877V23.3672C222.195 23.8555 222.195 24.2461 222.195 24.5391C222.195 24.832 222.212 25.2389 222.244 25.7598C222.277 26.2806 222.309 27.013 222.342 27.957C222.374 28.901 222.439 30.2357 222.537 31.9609C222.537 32.319 222.537 32.7422 222.537 33.2305C222.57 33.6862 222.586 34.1745 222.586 34.6953C222.618 35.1836 222.635 35.6556 222.635 36.1113C222.667 36.5671 222.684 36.9577 222.684 37.2832C222.684 38.2598 222.667 39.2201 222.635 40.1641C222.602 41.0755 222.57 41.9707 222.537 42.8496C222.505 42.9473 222.472 43.1263 222.439 43.3867C222.407 43.6471 222.374 43.9401 222.342 44.2656C222.309 44.5911 222.277 44.9004 222.244 45.1934C222.212 45.4863 222.195 45.6979 222.195 45.8281V46.7559V47.5859C222.195 47.7487 222.212 48.1393 222.244 48.7578C222.309 49.3438 222.358 49.9785 222.391 50.6621C222.423 51.3132 222.456 51.9479 222.488 52.5664C222.521 53.1523 222.537 53.5267 222.537 53.6895V53.8359C222.537 54.6497 222.472 55.4473 222.342 56.2285C222.244 57.0098 222.195 57.7585 222.195 58.4746V60.7695C222.195 60.9323 222.212 61.2578 222.244 61.7461C222.277 62.2344 222.309 62.7552 222.342 63.3086C222.374 63.8294 222.407 64.3503 222.439 64.8711C222.472 65.3594 222.505 65.7012 222.537 65.8965C222.732 66.2871 223.025 66.7428 223.416 67.2637C223.839 67.752 224.279 68.0286 224.734 68.0938C224.767 68.1589 224.962 68.1914 225.32 68.1914C225.581 68.1914 225.841 68.1751 226.102 68.1426C226.362 68.11 226.525 68.0938 226.59 68.0938C226.85 68.1589 227.225 68.224 227.713 68.2891C228.234 68.3542 228.738 68.4355 229.227 68.5332C229.747 68.5983 230.219 68.6634 230.643 68.7285C231.066 68.7936 231.342 68.8424 231.473 68.875C231.603 68.875 231.847 68.9889 232.205 69.2168C232.596 69.4121 232.824 69.5749 232.889 69.7051C233.051 69.7702 233.214 69.8841 233.377 70.0469C233.572 70.2096 233.67 70.3236 233.67 70.3887L233.719 70.4375C233.719 70.4701 233.719 70.5026 233.719 70.5352C233.751 70.5352 233.768 70.5514 233.768 70.584C233.735 70.6165 233.719 70.6491 233.719 70.6816C233.686 70.7142 233.67 70.763 233.67 70.8281C233.605 70.8932 233.475 71.0234 233.279 71.2188C233.117 71.3815 232.986 71.4954 232.889 71.5605C232.596 71.6257 232.319 71.6745 232.059 71.707C231.831 71.7721 231.587 71.821 231.326 71.8535C231.098 71.8535 230.919 71.8535 230.789 71.8535C230.691 71.8535 230.464 71.8698 230.105 71.9023C229.78 71.9349 229.389 71.9674 228.934 72C228.51 72.0651 228.071 72.1139 227.615 72.1465C227.192 72.179 226.85 72.2116 226.59 72.2441H226.492H226.346C226.085 72.2116 225.743 72.179 225.32 72.1465C224.93 72.1139 224.523 72.0651 224.1 72C223.709 71.9674 223.351 71.9349 223.025 71.9023C222.732 71.8698 222.57 71.8535 222.537 71.8535C222.439 71.8535 222.326 71.8047 222.195 71.707C222.098 71.6745 222.016 71.6257 221.951 71.5605C221.723 71.4954 221.43 71.4466 221.072 71.4141C220.747 71.349 220.421 71.3164 220.096 71.3164C219.803 71.2839 219.526 71.2676 219.266 71.2676C219.038 71.235 218.908 71.2188 218.875 71.2188C218.81 71.2188 218.647 71.235 218.387 71.2676C218.126 71.2676 217.85 71.2839 217.557 71.3164C217.264 71.349 216.987 71.3978 216.727 71.4629C216.499 71.4954 216.352 71.528 216.287 71.5605C216.157 71.5931 215.978 71.6257 215.75 71.6582C215.522 71.6908 215.278 71.7233 215.018 71.7559C214.79 71.7884 214.578 71.821 214.383 71.8535C214.188 71.8535 214.057 71.8535 213.992 71.8535H211.453C211.421 71.8535 211.339 71.8861 211.209 71.9512C211.111 71.9837 210.997 72.0163 210.867 72.0488C210.737 72.1139 210.607 72.1628 210.477 72.1953C210.379 72.2279 210.314 72.2441 210.281 72.2441C209.695 72.3418 209.191 72.4232 208.768 72.4883C208.377 72.5534 207.986 72.6022 207.596 72.6348C207.238 72.6673 206.863 72.6836 206.473 72.6836C206.082 72.6836 205.61 72.6836 205.057 72.6836C204.959 72.6836 204.796 72.6673 204.568 72.6348C204.373 72.6348 204.145 72.6348 203.885 72.6348C203.657 72.6348 203.429 72.6185 203.201 72.5859C203.006 72.5859 202.859 72.5859 202.762 72.5859C202.664 72.5208 202.469 72.3743 202.176 72.1465C201.883 71.9186 201.704 71.7233 201.639 71.5605V70.8281C201.639 70.3724 201.72 70.0143 201.883 69.7539C202.078 69.4609 202.322 69.2493 202.615 69.1191C202.908 68.9564 203.234 68.8424 203.592 68.7773C203.982 68.6797 204.357 68.5983 204.715 68.5332C204.845 68.5007 205.04 68.4681 205.301 68.4355C205.594 68.403 205.903 68.3704 206.229 68.3379C206.554 68.3053 206.847 68.2728 207.107 68.2402C207.4 68.2077 207.612 68.1589 207.742 68.0938C207.807 68.0938 208.051 68.11 208.475 68.1426C208.898 68.1751 209.321 68.1914 209.744 68.1914C209.907 68.1914 210.053 68.1914 210.184 68.1914C210.346 68.1914 210.46 68.1589 210.525 68.0938C210.623 68.0938 210.753 68.0449 210.916 67.9473C211.079 67.8171 211.242 67.6706 211.404 67.5078C211.567 67.3451 211.714 67.1986 211.844 67.0684C211.974 66.9056 212.072 66.7754 212.137 66.6777C212.169 66.6126 212.218 66.4661 212.283 66.2383C212.381 65.9779 212.462 65.6849 212.527 65.3594C212.625 65.0339 212.706 64.7246 212.771 64.4316C212.837 64.1061 212.869 63.8457 212.869 63.6504V63.1133V62.625C212.869 62.5273 212.837 62.3483 212.771 62.0879C212.739 61.8275 212.69 61.5508 212.625 61.2578C212.56 60.9648 212.495 60.7044 212.43 60.4766C212.397 60.2161 212.381 60.0534 212.381 59.9883C212.381 59.8906 212.397 59.7604 212.43 59.5977C212.495 59.4023 212.544 59.207 212.576 59.0117C212.641 58.8164 212.706 58.6374 212.771 58.4746C212.837 58.3118 212.869 58.1979 212.869 58.1328V51.9805V45.8281C212.869 45.7305 212.853 45.5352 212.82 45.2422C212.788 44.9167 212.739 44.5749 212.674 44.2168C212.641 43.8587 212.592 43.5169 212.527 43.1914C212.462 42.8333 212.413 42.5566 212.381 42.3613C212.381 42.2637 212.348 42.1172 212.283 41.9219C212.251 41.694 212.186 41.4661 212.088 41.2383C211.99 40.9779 211.876 40.75 211.746 40.5547C211.648 40.3594 211.551 40.2292 211.453 40.1641C211.29 40.1315 211.046 40.0827 210.721 40.0176C210.428 39.9525 210.118 39.8874 209.793 39.8223C209.5 39.7572 209.223 39.7083 208.963 39.6758C208.702 39.6107 208.523 39.5781 208.426 39.5781C208.328 39.5781 208.133 39.5944 207.84 39.627C207.579 39.6595 207.27 39.6921 206.912 39.7246C206.587 39.7246 206.261 39.7409 205.936 39.7734C205.643 39.806 205.431 39.8223 205.301 39.8223C204.943 39.8874 204.308 39.9362 203.396 39.9688C202.518 39.9688 201.574 39.9688 200.564 39.9688C199.523 39.9688 198.546 39.9688 197.635 39.9688C196.723 39.9362 196.089 39.8874 195.73 39.8223L194.998 40.1641H190.506H183.816C183.719 40.1641 183.507 40.1478 183.182 40.1152C182.856 40.0827 182.498 40.0501 182.107 40.0176C181.749 39.985 181.391 39.9525 181.033 39.9199C180.708 39.8874 180.48 39.8548 180.35 39.8223H178.787C178.527 39.8223 178.266 39.806 178.006 39.7734C177.745 39.7083 177.436 39.6432 177.078 39.5781H176.639C176.281 39.5781 176.036 39.7246 175.906 40.0176C175.776 40.3105 175.695 40.6361 175.662 40.9941C175.402 42.5566 175.141 44.2331 174.881 46.0234C174.653 47.8138 174.539 49.5391 174.539 51.1992V51.834C174.539 51.8665 174.555 52.013 174.588 52.2734C174.62 52.5013 174.653 52.7617 174.686 53.0547C174.718 53.3477 174.751 53.6243 174.783 53.8848C174.816 54.1126 174.848 54.2591 174.881 54.3242C174.881 54.4219 174.865 54.5846 174.832 54.8125C174.799 55.0404 174.783 55.3008 174.783 55.5938C174.783 55.9518 174.832 56.2773 174.93 56.5703C175.06 56.8633 175.125 57.1888 175.125 57.5469V57.7422C175.125 57.8073 175.076 57.9863 174.979 58.2793C174.913 58.5723 174.881 58.7513 174.881 58.8164V65.2617C174.881 65.3919 175.011 65.6361 175.271 65.9941C175.564 66.3522 175.792 66.6126 175.955 66.7754C176.281 67.1335 176.622 67.3288 176.98 67.3613C177.339 67.3613 177.713 67.3939 178.104 67.459C178.462 67.5241 178.771 67.6055 179.031 67.7031C179.292 67.8008 179.568 67.8496 179.861 67.8496H180.105C180.236 67.8822 180.447 67.931 180.74 67.9961C181.033 68.0286 181.342 68.0938 181.668 68.1914C181.993 68.2565 182.286 68.3216 182.547 68.3867C182.807 68.4518 182.986 68.5007 183.084 68.5332C183.149 68.5332 183.263 68.582 183.426 68.6797C183.621 68.7448 183.751 68.8099 183.816 68.875C183.914 68.9076 184.028 68.9401 184.158 68.9727C184.256 69.0052 184.337 69.0215 184.402 69.0215C184.5 69.0215 184.565 69.0215 184.598 69.0215C184.663 69.0215 184.777 69.054 184.939 69.1191C185.102 69.1842 185.216 69.2168 185.281 69.2168H185.623C186.046 69.2168 186.486 69.3633 186.941 69.6562C187.397 69.9492 187.625 70.3073 187.625 70.7305C187.625 71.1536 187.495 71.5117 187.234 71.8047C186.974 72.0977 186.714 72.3581 186.453 72.5859C185.932 72.6836 185.46 72.765 185.037 72.8301C184.614 72.8952 184.191 72.944 183.768 72.9766C183.377 73.0091 182.97 73.0254 182.547 73.0254C182.156 73.0254 181.717 73.0254 181.229 73.0254H179.373C178.624 73.0254 177.794 72.8952 176.883 72.6348C176.004 72.3743 175.076 72.2441 174.1 72.2441C174.002 72.2441 173.774 72.2279 173.416 72.1953C173.09 72.1628 172.7 72.1302 172.244 72.0977C171.821 72.0977 171.398 72.0814 170.975 72.0488C170.551 72.0163 170.226 72 169.998 72C169.9 72 169.721 72 169.461 72C169.233 72.0326 168.973 72.0651 168.68 72.0977C168.419 72.1302 168.159 72.1465 167.898 72.1465C167.671 72.179 167.524 72.2116 167.459 72.2441C165.994 72.472 164.432 72.651 162.771 72.7812C161.111 72.944 159.516 73.0254 157.986 73.0254H156.57C156.245 72.8626 156.049 72.6836 155.984 72.4883C155.952 72.3255 155.936 72.1139 155.936 71.8535ZM267.012 43.9727C268.249 43.9076 269.372 43.9564 270.381 44.1191C271.423 44.2819 272.497 44.3633 273.604 44.3633H274.531C274.661 44.3633 274.954 44.347 275.41 44.3145C275.866 44.2819 276.338 44.2493 276.826 44.2168C277.347 44.1517 277.835 44.1029 278.291 44.0703C278.747 44.0052 279.023 43.9727 279.121 43.9727C279.251 43.9727 279.593 44.0052 280.146 44.0703C280.7 44.1029 281.204 44.1191 281.66 44.1191C281.953 44.1191 282.197 44.1029 282.393 44.0703C282.62 44.0378 282.767 44.0052 282.832 43.9727C282.962 43.9727 283.141 43.9076 283.369 43.7773C283.63 43.6146 283.841 43.4518 284.004 43.2891V41.9219C284.004 40.2943 283.727 38.6992 283.174 37.1367C282.62 35.5417 282.116 33.9792 281.66 32.4492C281.66 32.3841 281.644 32.2702 281.611 32.1074C281.579 31.9121 281.53 31.7168 281.465 31.5215C281.432 31.2936 281.4 31.0983 281.367 30.9355C281.335 30.7728 281.318 30.6589 281.318 30.5938C281.286 30.5612 281.221 30.4473 281.123 30.252C281.025 30.0241 280.911 29.7799 280.781 29.5195C280.651 29.2266 280.521 28.9661 280.391 28.7383C280.293 28.5104 280.212 28.3477 280.146 28.25C279.984 27.7943 279.837 27.2572 279.707 26.6387C279.577 25.9876 279.43 25.3366 279.268 24.6855C279.105 24.0345 278.91 23.3997 278.682 22.7812C278.486 22.1628 278.242 21.6257 277.949 21.1699C277.917 21.1374 277.819 21.0397 277.656 20.877C277.493 20.6816 277.314 20.4863 277.119 20.291C276.924 20.0632 276.729 19.8516 276.533 19.6562C276.338 19.4609 276.191 19.3307 276.094 19.2656C275.996 19.2331 275.85 19.1842 275.654 19.1191C275.459 19.0215 275.296 18.9727 275.166 18.9727C275.101 19.0052 275.068 19.0215 275.068 19.0215L274.775 19.3145C274.613 19.4772 274.531 19.6074 274.531 19.7051C274.271 20.4863 274.01 21.3327 273.75 22.2441C273.49 23.1556 273.197 24.0996 272.871 25.0762C272.578 26.0202 272.253 26.9642 271.895 27.9082C271.569 28.8522 271.211 29.7474 270.82 30.5938C270.788 30.6589 270.706 30.8053 270.576 31.0332C270.479 31.2285 270.365 31.4564 270.234 31.7168C270.137 31.9447 270.039 32.1725 269.941 32.4004C269.876 32.5957 269.844 32.7259 269.844 32.791C269.746 32.8887 269.616 33.1979 269.453 33.7188C269.29 34.207 269.111 34.7767 268.916 35.4277C268.721 36.0462 268.525 36.681 268.33 37.332C268.167 37.9831 268.021 38.4714 267.891 38.7969C267.663 39.4805 267.402 40.1966 267.109 40.9453C266.849 41.6615 266.719 42.3776 266.719 43.0938C266.719 43.2565 266.719 43.4355 266.719 43.6309C266.751 43.7936 266.849 43.9076 267.012 43.9727ZM256.66 72C256.465 72 256.107 72 255.586 72C255.065 72.0326 254.512 72.0488 253.926 72.0488C253.34 72.0488 252.77 72.0488 252.217 72.0488C251.663 72.0814 251.273 72.0977 251.045 72.0977C250.98 72.0977 250.833 72.1139 250.605 72.1465C250.41 72.179 250.182 72.2116 249.922 72.2441C249.694 72.2767 249.466 72.293 249.238 72.293C249.043 72.3255 248.913 72.3418 248.848 72.3418C248.587 72.3418 248.18 72.3255 247.627 72.293C247.074 72.293 246.471 72.2767 245.82 72.2441C245.202 72.2116 244.616 72.179 244.062 72.1465C243.477 72.1139 243.053 72.0977 242.793 72.0977C242.337 71.9674 242.044 71.8047 241.914 71.6094C241.751 71.3815 241.67 71.0072 241.67 70.4863C241.67 70.0306 241.8 69.6725 242.061 69.4121C242.288 69.1517 242.598 68.9564 242.988 68.8262C243.379 68.696 243.835 68.6146 244.355 68.582C244.844 68.5495 245.332 68.5332 245.82 68.5332C246.341 68.5332 246.813 68.5332 247.236 68.5332C247.692 68.5007 248.099 68.4518 248.457 68.3867C248.522 68.3216 248.652 68.1914 248.848 67.9961C249.043 67.8008 249.141 67.6706 249.141 67.6055C249.206 67.5078 249.336 67.3776 249.531 67.2148C249.759 67.0195 250.003 66.8242 250.264 66.6289C250.524 66.401 250.752 66.2057 250.947 66.043C251.175 65.8477 251.322 65.7174 251.387 65.6523C252.461 64.7083 253.226 63.6829 253.682 62.5762C254.17 61.4368 254.658 60.2487 255.146 59.0117C256.188 56.3424 257.344 53.7383 258.613 51.1992C259.915 48.6602 261.12 46.0234 262.227 43.2891C262.259 43.2565 262.308 43.1426 262.373 42.9473C262.438 42.7194 262.503 42.4915 262.568 42.2637C262.666 42.0358 262.747 41.8079 262.812 41.5801C262.91 41.3522 262.959 41.1895 262.959 41.0918C262.992 40.9941 263.04 40.8151 263.105 40.5547C263.171 40.2943 263.252 40.0176 263.35 39.7246C263.447 39.3991 263.529 39.1061 263.594 38.8457C263.691 38.5853 263.773 38.4225 263.838 38.3574C263.838 38.3249 263.952 38.1621 264.18 37.8691C264.408 37.5436 264.521 37.3158 264.521 37.1855C264.587 37.0879 264.684 36.9089 264.814 36.6484C264.945 36.3555 265.075 36.0625 265.205 35.7695C265.368 35.444 265.514 35.151 265.645 34.8906C265.775 34.5977 265.872 34.4023 265.938 34.3047C266.003 34.2396 266.084 34.0443 266.182 33.7188C266.279 33.3932 266.361 33.1979 266.426 33.1328C266.458 33.1003 266.507 33.0189 266.572 32.8887C266.637 32.7585 266.702 32.612 266.768 32.4492C266.833 32.2539 266.882 32.0911 266.914 31.9609C266.979 31.7982 267.012 31.6842 267.012 31.6191C267.044 31.5215 267.093 31.2936 267.158 30.9355C267.256 30.5775 267.354 30.2031 267.451 29.8125C267.549 29.3893 267.63 28.9987 267.695 28.6406C267.76 28.2826 267.826 28.071 267.891 28.0059C267.923 27.8431 268.037 27.6315 268.232 27.3711C268.46 27.1107 268.59 26.9479 268.623 26.8828C268.623 26.8177 268.672 26.6224 268.77 26.2969C268.9 25.9714 268.965 25.776 268.965 25.7109C268.997 25.6458 269.095 25.4668 269.258 25.1738C269.421 24.8809 269.583 24.5716 269.746 24.2461C269.909 23.888 270.055 23.5625 270.186 23.2695C270.348 22.9766 270.446 22.7812 270.479 22.6836C270.511 22.651 270.56 22.5534 270.625 22.3906C270.69 22.1953 270.755 22 270.82 21.8047C270.885 21.5768 270.951 21.3815 271.016 21.2188C271.081 21.0234 271.13 20.8932 271.162 20.8281C271.292 20.7305 271.39 20.6003 271.455 20.4375C271.553 20.2422 271.634 20.1445 271.699 20.1445C271.732 20.0794 271.846 19.9167 272.041 19.6562C272.269 19.3958 272.497 19.1191 272.725 18.8262C272.985 18.5007 273.213 18.2077 273.408 17.9473C273.636 17.6543 273.766 17.4753 273.799 17.4102C273.831 17.4102 273.864 17.3288 273.896 17.166C273.929 17.0033 273.978 16.8405 274.043 16.6777C274.108 16.4824 274.157 16.2546 274.189 15.9941C274.352 15.4082 274.531 14.8874 274.727 14.4316C274.954 13.9434 275.068 13.3737 275.068 12.7227C275.068 12.3971 275.02 12.0879 274.922 11.7949C274.824 11.502 274.71 11.2253 274.58 10.9648C274.482 10.7044 274.385 10.444 274.287 10.1836C274.189 9.89062 274.141 9.58138 274.141 9.25586V8.81641C274.141 8.71875 274.157 8.60482 274.189 8.47461C274.287 8.3444 274.482 8.24674 274.775 8.18164C275.101 8.08398 275.459 8.0026 275.85 7.9375C276.24 7.8724 276.631 7.80729 277.021 7.74219C277.412 7.67708 277.721 7.56315 277.949 7.40039C278.535 6.94466 279.056 6.53776 279.512 6.17969C279.967 5.82161 280.57 5.59375 281.318 5.49609C281.839 5.43099 282.344 5.5612 282.832 5.88672C283.353 6.21224 283.743 6.57031 284.004 6.96094C284.688 8.42578 285.192 9.93945 285.518 11.502C285.876 13.0319 286.331 14.5293 286.885 15.9941C286.917 15.9941 286.966 16.0755 287.031 16.2383C287.129 16.3685 287.227 16.515 287.324 16.6777C287.422 16.8405 287.503 17.0033 287.568 17.166C287.633 17.3288 287.666 17.4102 287.666 17.4102C287.666 17.5404 287.699 17.8171 287.764 18.2402C287.861 18.6634 287.959 19.1029 288.057 19.5586C288.154 20.0143 288.236 20.4538 288.301 20.877C288.398 21.2676 288.464 21.528 288.496 21.6582C288.529 21.8535 288.577 22.1302 288.643 22.4883C288.708 22.8138 288.773 23.1556 288.838 23.5137C288.936 23.8717 289.017 24.1973 289.082 24.4902C289.18 24.7832 289.229 24.9622 289.229 25.0273C289.261 25.1901 289.391 25.5807 289.619 26.1992C289.847 26.7852 290.075 27.4362 290.303 28.1523C290.563 28.8685 290.807 29.5358 291.035 30.1543C291.263 30.7728 291.426 31.1471 291.523 31.2773C291.523 31.3099 291.523 31.3913 291.523 31.5215C291.556 31.6517 291.572 31.7982 291.572 31.9609C291.605 32.1237 291.637 32.2865 291.67 32.4492C291.702 32.5794 291.735 32.6934 291.768 32.791C291.8 32.8561 291.833 32.9863 291.865 33.1816C291.898 33.3444 291.93 33.5397 291.963 33.7676C291.995 33.9629 292.028 34.1582 292.061 34.3535C292.093 34.5163 292.109 34.6139 292.109 34.6465C292.109 34.679 292.142 34.7767 292.207 34.9395C292.305 35.0697 292.402 35.2324 292.5 35.4277C292.598 35.5905 292.695 35.7533 292.793 35.916C292.891 36.0788 292.956 36.1602 292.988 36.1602C292.988 36.2253 293.021 36.4043 293.086 36.6973C293.151 36.9902 293.216 37.3158 293.281 37.6738C293.379 37.9993 293.46 38.3249 293.525 38.6504C293.59 38.9434 293.623 39.1387 293.623 39.2363C293.656 39.2689 293.704 39.3665 293.77 39.5293C293.835 39.6595 293.9 39.806 293.965 39.9688C294.062 40.099 294.144 40.2454 294.209 40.4082C294.274 40.5384 294.307 40.6198 294.307 40.6523C294.339 40.7174 294.388 40.8639 294.453 41.0918C294.518 41.2871 294.583 41.515 294.648 41.7754C294.714 42.0358 294.762 42.2799 294.795 42.5078C294.827 42.7031 294.844 42.8171 294.844 42.8496C295.267 44.9329 295.853 47.0163 296.602 49.0996C297.35 51.1504 298.001 53.2012 298.555 55.252C298.555 55.3171 298.571 55.4635 298.604 55.6914C298.636 55.8867 298.669 56.1146 298.701 56.375C298.734 56.6354 298.766 56.8796 298.799 57.1074C298.831 57.3353 298.864 57.4818 298.896 57.5469C298.929 57.612 298.994 57.8073 299.092 58.1328C299.222 58.4583 299.352 58.8164 299.482 59.207C299.613 59.5651 299.727 59.9232 299.824 60.2812C299.954 60.6068 300.036 60.8021 300.068 60.8672C300.231 61.5182 300.394 62.2507 300.557 63.0645C300.719 63.8457 300.947 64.6107 301.24 65.3594C301.533 66.0755 301.924 66.7266 302.412 67.3125C302.933 67.8984 303.617 68.3053 304.463 68.5332C304.821 68.6309 305.146 68.696 305.439 68.7285C305.732 68.7285 305.944 68.7285 306.074 68.7285C306.107 68.7285 306.204 68.7448 306.367 68.7773C306.53 68.7773 306.709 68.7936 306.904 68.8262C307.1 68.8587 307.295 68.8913 307.49 68.9238C307.686 68.9564 307.832 68.9889 307.93 69.0215C308.125 69.1191 308.402 69.2168 308.76 69.3145C309.15 69.4121 309.525 69.5423 309.883 69.7051C310.273 69.8353 310.599 70.0306 310.859 70.291C311.152 70.5189 311.299 70.8281 311.299 71.2188C311.299 71.6419 311.136 71.9674 310.811 72.1953C310.518 72.4232 310.16 72.5859 309.736 72.6836C309.346 72.8138 308.923 72.8789 308.467 72.8789C308.044 72.9115 307.686 72.9277 307.393 72.9277C305.277 72.9277 303.177 72.8301 301.094 72.6348C299.043 72.4395 296.96 72.3418 294.844 72.3418H288.496C287.682 72.6348 287.015 72.7975 286.494 72.8301C285.973 72.8952 285.339 72.9277 284.59 72.9277C284.362 72.9277 284.02 72.9115 283.564 72.8789C283.141 72.8789 282.702 72.8301 282.246 72.7324C281.823 72.6673 281.449 72.5371 281.123 72.3418C280.798 72.1465 280.635 71.8698 280.635 71.5117V71.4141C280.863 70.9583 281.237 70.5514 281.758 70.1934C282.279 69.8027 282.751 69.526 283.174 69.3633C283.304 69.3633 283.63 69.3145 284.15 69.2168C284.704 69.1191 285.29 69.0215 285.908 68.9238C286.559 68.7936 287.161 68.6797 287.715 68.582C288.268 68.4518 288.61 68.3867 288.74 68.3867C289.131 68.2891 289.44 68.1263 289.668 67.8984C289.896 67.638 290.059 67.3613 290.156 67.0684C290.254 66.7754 290.303 66.4661 290.303 66.1406C290.335 65.8151 290.352 65.4896 290.352 65.1641V63.7969C290.319 63.4714 290.205 62.9017 290.01 62.0879C289.814 61.2415 289.57 60.2975 289.277 59.2559C289.017 58.1816 288.708 57.0586 288.35 55.8867C287.992 54.7148 287.633 53.6406 287.275 52.6641C286.95 51.6549 286.624 50.8086 286.299 50.125C285.973 49.4089 285.697 48.9857 285.469 48.8555C284.948 48.5625 284.476 48.3835 284.053 48.3184C283.63 48.2533 283.206 48.2207 282.783 48.2207C282.36 48.1882 281.937 48.1556 281.514 48.123C281.09 48.0579 280.635 47.9115 280.146 47.6836C279.919 47.6836 279.463 47.7161 278.779 47.7812C278.128 47.8464 277.412 47.9115 276.631 47.9766C275.882 48.0091 275.166 48.0579 274.482 48.123C273.799 48.1556 273.311 48.1719 273.018 48.1719C272.464 48.1719 271.829 48.1556 271.113 48.123C270.43 48.0905 269.714 48.0742 268.965 48.0742C267.858 48.0742 266.8 48.2207 265.791 48.5137C264.782 48.7741 263.984 49.3926 263.398 50.3691C263.366 50.5645 263.301 50.9062 263.203 51.3945C263.138 51.8828 263.04 52.4036 262.91 52.957C262.78 53.5104 262.65 54.0475 262.52 54.5684C262.422 55.0566 262.324 55.3984 262.227 55.5938C262.031 56.2773 261.803 56.9609 261.543 57.6445C261.283 58.2956 261.022 58.9466 260.762 59.5977C260.534 60.2487 260.339 60.916 260.176 61.5996C260.013 62.2832 259.932 62.9668 259.932 63.6504V65.3105C259.997 65.6361 260.143 65.929 260.371 66.1895C260.632 66.4173 260.924 66.6289 261.25 66.8242C261.576 66.987 261.885 67.1335 262.178 67.2637C262.503 67.3939 262.764 67.5078 262.959 67.6055C263.48 67.8008 264.131 67.9473 264.912 68.0449C265.693 68.1426 266.442 68.2891 267.158 68.4844C267.907 68.6471 268.542 68.9401 269.062 69.3633C269.583 69.7539 269.844 70.3724 269.844 71.2188C269.844 71.7721 269.567 72.1465 269.014 72.3418C268.493 72.5697 267.972 72.765 267.451 72.9277C265.986 72.5046 264.603 72.2441 263.301 72.1465C262.031 72.0488 260.745 72 259.443 72H256.66Z" fill="#180D0D"/>
</svg>
